<svg version="1.1" xmlns="http://www.w3.org/2000/svg" xmlns:xlink="http://www.w3.org/1999/xlink" width="952" height="591"><defs><clipPath id="NndVTTanBTOz"><path fill="none" stroke="none" d=" M 0 0 L 952 0 L 952 591 L 0 591 L 0 0 Z"/></clipPath></defs><g transform="scale(1,1)" clip-path="url(#NndVTTanBTOz)"><g><rect fill="rgb(255,255,255)" stroke="none" x="0" y="0" width="952" height="591" fill-opacity="1"/><path fill="none" stroke="rgb(192,192,192)" paint-order="fill stroke markers" d=" M 40.5 0.5 L 40.5 591.5 M 40.5 0.5 L 40.5 591.5 M 100.5 0.5 L 100.5 591.5 M 160.5 0.5 L 160.5 591.5 M 220.5 0.5 L 220.5 591.5 M 341.5 0.5 L 341.5 591.5 M 401.5 0.5 L 401.5 591.5 M 462.5 0.5 L 462.5 591.5 M 522.5 0.5 L 522.5 591.5 M 582.5 0.5 L 582.5 591.5 M 642.5 0.5 L 642.5 591.5 M 703.5 0.5 L 703.5 591.5 M 763.5 0.5 L 763.5 591.5 M 823.5 0.5 L 823.5 591.5 M 883.5 0.5 L 883.5 591.5 M 944.5 0.5 L 944.5 591.5" stroke-opacity="1" stroke-linecap="round" stroke-linejoin="round" stroke-miterlimit="10"/><path fill="none" stroke="rgb(192,192,192)" paint-order="fill stroke markers" d=" M 3.5 0.5 L 3.5 591.5 M 15.5 0.5 L 15.5 591.5 M 28.5 0.5 L 28.5 591.5 M 52.5 0.5 L 52.5 591.5 M 64.5 0.5 L 64.5 591.5 M 76.5 0.5 L 76.5 591.5 M 88.5 0.5 L 88.5 591.5 M 112.5 0.5 L 112.5 591.5 M 124.5 0.5 L 124.5 591.5 M 136.5 0.5 L 136.5 591.5 M 148.5 0.5 L 148.5 591.5 M 172.5 0.5 L 172.5 591.5 M 184.5 0.5 L 184.5 591.5 M 196.5 0.5 L 196.5 591.5 M 208.5 0.5 L 208.5 591.5 M 232.5 0.5 L 232.5 591.5 M 245.5 0.5 L 245.5 591.5 M 257.5 0.5 L 257.5 591.5 M 269.5 0.5 L 269.5 591.5 M 293.5 0.5 L 293.5 591.5 M 305.5 0.5 L 305.5 591.5 M 317.5 0.5 L 317.5 591.5 M 329.5 0.5 L 329.5 591.5 M 353.5 0.5 L 353.5 591.5 M 365.5 0.5 L 365.5 591.5 M 377.5 0.5 L 377.5 591.5 M 389.5 0.5 L 389.5 591.5 M 413.5 0.5 L 413.5 591.5 M 425.5 0.5 L 425.5 591.5 M 437.5 0.5 L 437.5 591.5 M 449.5 0.5 L 449.5 591.5 M 474.5 0.5 L 474.5 591.5 M 486.5 0.5 L 486.5 591.5 M 498.5 0.5 L 498.5 591.5 M 510.5 0.5 L 510.5 591.5 M 534.5 0.5 L 534.5 591.5 M 546.5 0.5 L 546.5 591.5 M 558.5 0.5 L 558.5 591.5 M 570.5 0.5 L 570.5 591.5 M 594.5 0.5 L 594.5 591.5 M 606.5 0.5 L 606.5 591.5 M 618.5 0.5 L 618.5 591.5 M 630.5 0.5 L 630.5 591.5 M 654.5 0.5 L 654.5 591.5 M 666.5 0.5 L 666.5 591.5 M 679.5 0.5 L 679.5 591.5 M 691.5 0.5 L 691.5 591.5 M 715.5 0.5 L 715.5 591.5 M 727.5 0.5 L 727.5 591.5 M 739.5 0.5 L 739.5 591.5 M 751.5 0.5 L 751.5 591.5 M 775.5 0.5 L 775.5 591.5 M 787.5 0.5 L 787.5 591.5 M 799.5 0.5 L 799.5 591.5 M 811.5 0.5 L 811.5 591.5 M 835.5 0.5 L 835.5 591.5 M 847.5 0.5 L 847.5 591.5 M 859.5 0.5 L 859.5 591.5 M 871.5 0.5 L 871.5 591.5 M 896.5 0.5 L 896.5 591.5 M 908.5 0.5 L 908.5 591.5 M 920.5 0.5 L 920.5 591.5 M 932.5 0.5 L 932.5 591.5" stroke-opacity="0.23529411764705882" stroke-linecap="round" stroke-linejoin="round" stroke-miterlimit="10"/><path fill="none" stroke="rgb(192,192,192)" paint-order="fill stroke markers" d=" M 0.5 58.5 L 952.5 58.5 M 0.5 58.5 L 952.5 58.5 M 0.5 135.5 L 952.5 135.5 M 0.5 212.5 L 952.5 212.5 M 0.5 365.5 L 952.5 365.5 M 0.5 442.5 L 952.5 442.5 M 0.5 519.5 L 952.5 519.5" stroke-opacity="1" stroke-linecap="round" stroke-linejoin="round" stroke-miterlimit="10"/><path fill="none" stroke="rgb(192,192,192)" paint-order="fill stroke markers" d=" M 0.5 12.5 L 952.5 12.5 M 0.5 12.5 L 952.5 12.5 M 0.5 27.5 L 952.5 27.5 M 0.5 43.5 L 952.5 43.5 M 0.5 73.5 L 952.5 73.5 M 0.5 89.5 L 952.5 89.5 M 0.5 104.5 L 952.5 104.5 M 0.5 119.5 L 952.5 119.5 M 0.5 150.5 L 952.5 150.5 M 0.5 165.5 L 952.5 165.5 M 0.5 181.5 L 952.5 181.5 M 0.5 196.5 L 952.5 196.5 M 0.5 227.5 L 952.5 227.5 M 0.5 242.5 L 952.5 242.5 M 0.5 258.5 L 952.5 258.5 M 0.5 273.5 L 952.5 273.5 M 0.5 304.5 L 952.5 304.5 M 0.5 319.5 L 952.5 319.5 M 0.5 334.5 L 952.5 334.5 M 0.5 350.5 L 952.5 350.5 M 0.5 380.5 L 952.5 380.5 M 0.5 396.5 L 952.5 396.5 M 0.5 411.5 L 952.5 411.5 M 0.5 426.5 L 952.5 426.5 M 0.5 457.5 L 952.5 457.5 M 0.5 472.5 L 952.5 472.5 M 0.5 488.5 L 952.5 488.5 M 0.5 503.5 L 952.5 503.5 M 0.5 534.5 L 952.5 534.5 M 0.5 549.5 L 952.5 549.5 M 0.5 565.5 L 952.5 565.5 M 0.5 580.5 L 952.5 580.5" stroke-opacity="0.23529411764705882" stroke-linecap="round" stroke-linejoin="round" stroke-miterlimit="10"/><path fill="none" stroke="rgb(37,37,37)" paint-order="fill stroke markers" d=" M 281.5 2.5 L 281.5 591.5" stroke-opacity="1" stroke-miterlimit="10"/><path fill="none" stroke="rgb(37,37,37)" paint-order="fill stroke markers" d=" M 281.5 1.5 L 277.5 5.5" stroke-opacity="1" stroke-miterlimit="10"/><path fill="none" stroke="rgb(37,37,37)" paint-order="fill stroke markers" d=" M 281.5 1.5 L 285.5 5.5" stroke-opacity="1" stroke-miterlimit="10"/><text fill="rgb(37,37,37)" stroke="none" font-family="geogebra-sans-serif, sans-serif" font-size="16px" font-style="normal" font-weight="normal" text-decoration="normal" x="934" y="284" text-anchor="start" dominant-baseline="alphabetic" fill-opacity="1">x</text><path fill="none" stroke="rgb(37,37,37)" paint-order="fill stroke markers" d=" M 0.5 288.5 L 950.5 288.5" stroke-opacity="1" stroke-miterlimit="10"/><path fill="none" stroke="rgb(37,37,37)" paint-order="fill stroke markers" d=" M 951.5 288.5 L 947.5 284.5" stroke-opacity="1" stroke-miterlimit="10"/><path fill="none" stroke="rgb(37,37,37)" paint-order="fill stroke markers" d=" M 951.5 288.5 L 947.5 292.5" stroke-opacity="1" stroke-miterlimit="10"/><text fill="rgb(37,37,37)" stroke="none" font-family="geogebra-sans-serif, sans-serif" font-size="12px" font-style="normal" font-weight="normal" text-decoration="normal" x="32" y="304" text-anchor="start" dominant-baseline="alphabetic" fill-opacity="1">–2π</text><text fill="none" stroke="rgb(255,255,255)" font-family="geogebra-sans-serif, sans-serif" font-size="12px" font-style="normal" font-weight="normal" text-decoration="normal" x="32" y="304" text-anchor="start" dominant-baseline="alphabetic" stroke-opacity="1" stroke-linejoin="bevel" stroke-miterlimit="10" stroke-width="3">–2π</text><text fill="rgb(37,37,37)" stroke="none" font-family="geogebra-sans-serif, sans-serif" font-size="12px" font-style="normal" font-weight="normal" text-decoration="normal" x="32" y="304" text-anchor="start" dominant-baseline="alphabetic" fill-opacity="1">–2π</text><text fill="rgb(37,37,37)" stroke="none" font-family="geogebra-sans-serif, sans-serif" font-size="12px" font-style="normal" font-weight="normal" text-decoration="normal" x="80" y="304" text-anchor="start" dominant-baseline="alphabetic" fill-opacity="1">–3π / 2</text><text fill="none" stroke="rgb(255,255,255)" font-family="geogebra-sans-serif, sans-serif" font-size="12px" font-style="normal" font-weight="normal" text-decoration="normal" x="80" y="304" text-anchor="start" dominant-baseline="alphabetic" stroke-opacity="1" stroke-linejoin="bevel" stroke-miterlimit="10" stroke-width="3">–3π / 2</text><text fill="rgb(37,37,37)" stroke="none" font-family="geogebra-sans-serif, sans-serif" font-size="12px" font-style="normal" font-weight="normal" text-decoration="normal" x="80" y="304" text-anchor="start" dominant-baseline="alphabetic" fill-opacity="1">–3π / 2</text><text fill="rgb(37,37,37)" stroke="none" font-family="geogebra-sans-serif, sans-serif" font-size="12px" font-style="normal" font-weight="normal" text-decoration="normal" x="155" y="304" text-anchor="start" dominant-baseline="alphabetic" fill-opacity="1">–π</text><text fill="none" stroke="rgb(255,255,255)" font-family="geogebra-sans-serif, sans-serif" font-size="12px" font-style="normal" font-weight="normal" text-decoration="normal" x="155" y="304" text-anchor="start" dominant-baseline="alphabetic" stroke-opacity="1" stroke-linejoin="bevel" stroke-miterlimit="10" stroke-width="3">–π</text><text fill="rgb(37,37,37)" stroke="none" font-family="geogebra-sans-serif, sans-serif" font-size="12px" font-style="normal" font-weight="normal" text-decoration="normal" x="155" y="304" text-anchor="start" dominant-baseline="alphabetic" fill-opacity="1">–π</text><text fill="rgb(37,37,37)" stroke="none" font-family="geogebra-sans-serif, sans-serif" font-size="12px" font-style="normal" font-weight="normal" text-decoration="normal" x="203" y="304" text-anchor="start" dominant-baseline="alphabetic" fill-opacity="1">–π / 2</text><text fill="none" stroke="rgb(255,255,255)" font-family="geogebra-sans-serif, sans-serif" font-size="12px" font-style="normal" font-weight="normal" text-decoration="normal" x="203" y="304" text-anchor="start" dominant-baseline="alphabetic" stroke-opacity="1" stroke-linejoin="bevel" stroke-miterlimit="10" stroke-width="3">–π / 2</text><text fill="rgb(37,37,37)" stroke="none" font-family="geogebra-sans-serif, sans-serif" font-size="12px" font-style="normal" font-weight="normal" text-decoration="normal" x="203" y="304" text-anchor="start" dominant-baseline="alphabetic" fill-opacity="1">–π / 2</text><text fill="rgb(37,37,37)" stroke="none" font-family="geogebra-sans-serif, sans-serif" font-size="12px" font-style="normal" font-weight="normal" text-decoration="normal" x="327" y="304" text-anchor="start" dominant-baseline="alphabetic" fill-opacity="1">π / 2</text><text fill="none" stroke="rgb(255,255,255)" font-family="geogebra-sans-serif, sans-serif" font-size="12px" font-style="normal" font-weight="normal" text-decoration="normal" x="327" y="304" text-anchor="start" dominant-baseline="alphabetic" stroke-opacity="1" stroke-linejoin="bevel" stroke-miterlimit="10" stroke-width="3">π / 2</text><text fill="rgb(37,37,37)" stroke="none" font-family="geogebra-sans-serif, sans-serif" font-size="12px" font-style="normal" font-weight="normal" text-decoration="normal" x="327" y="304" text-anchor="start" dominant-baseline="alphabetic" fill-opacity="1">π / 2</text><text fill="rgb(37,37,37)" stroke="none" font-family="geogebra-sans-serif, sans-serif" font-size="12px" font-style="normal" font-weight="normal" text-decoration="normal" x="399" y="304" text-anchor="start" dominant-baseline="alphabetic" fill-opacity="1">π</text><text fill="none" stroke="rgb(255,255,255)" font-family="geogebra-sans-serif, sans-serif" font-size="12px" font-style="normal" font-weight="normal" text-decoration="normal" x="399" y="304" text-anchor="start" dominant-baseline="alphabetic" stroke-opacity="1" stroke-linejoin="bevel" stroke-miterlimit="10" stroke-width="3">π</text><text fill="rgb(37,37,37)" stroke="none" font-family="geogebra-sans-serif, sans-serif" font-size="12px" font-style="normal" font-weight="normal" text-decoration="normal" x="399" y="304" text-anchor="start" dominant-baseline="alphabetic" fill-opacity="1">π</text><text fill="rgb(37,37,37)" stroke="none" font-family="geogebra-sans-serif, sans-serif" font-size="12px" font-style="normal" font-weight="normal" text-decoration="normal" x="445" y="304" text-anchor="start" dominant-baseline="alphabetic" fill-opacity="1">3π / 2</text><text fill="none" stroke="rgb(255,255,255)" font-family="geogebra-sans-serif, sans-serif" font-size="12px" font-style="normal" font-weight="normal" text-decoration="normal" x="445" y="304" text-anchor="start" dominant-baseline="alphabetic" stroke-opacity="1" stroke-linejoin="bevel" stroke-miterlimit="10" stroke-width="3">3π / 2</text><text fill="rgb(37,37,37)" stroke="none" font-family="geogebra-sans-serif, sans-serif" font-size="12px" font-style="normal" font-weight="normal" text-decoration="normal" x="445" y="304" text-anchor="start" dominant-baseline="alphabetic" fill-opacity="1">3π / 2</text><text fill="rgb(37,37,37)" stroke="none" font-family="geogebra-sans-serif, sans-serif" font-size="12px" font-style="normal" font-weight="normal" text-decoration="normal" x="517" y="304" text-anchor="start" dominant-baseline="alphabetic" fill-opacity="1">2π</text><text fill="none" stroke="rgb(255,255,255)" font-family="geogebra-sans-serif, sans-serif" font-size="12px" font-style="normal" font-weight="normal" text-decoration="normal" x="517" y="304" text-anchor="start" dominant-baseline="alphabetic" stroke-opacity="1" stroke-linejoin="bevel" stroke-miterlimit="10" stroke-width="3">2π</text><text fill="rgb(37,37,37)" stroke="none" font-family="geogebra-sans-serif, sans-serif" font-size="12px" font-style="normal" font-weight="normal" text-decoration="normal" x="517" y="304" text-anchor="start" dominant-baseline="alphabetic" fill-opacity="1">2π</text><text fill="rgb(37,37,37)" stroke="none" font-family="geogebra-sans-serif, sans-serif" font-size="12px" font-style="normal" font-weight="normal" text-decoration="normal" x="565" y="304" text-anchor="start" dominant-baseline="alphabetic" fill-opacity="1">5π / 2</text><text fill="none" stroke="rgb(255,255,255)" font-family="geogebra-sans-serif, sans-serif" font-size="12px" font-style="normal" font-weight="normal" text-decoration="normal" x="565" y="304" text-anchor="start" dominant-baseline="alphabetic" stroke-opacity="1" stroke-linejoin="bevel" stroke-miterlimit="10" stroke-width="3">5π / 2</text><text fill="rgb(37,37,37)" stroke="none" font-family="geogebra-sans-serif, sans-serif" font-size="12px" font-style="normal" font-weight="normal" text-decoration="normal" x="565" y="304" text-anchor="start" dominant-baseline="alphabetic" fill-opacity="1">5π / 2</text><text fill="rgb(37,37,37)" stroke="none" font-family="geogebra-sans-serif, sans-serif" font-size="12px" font-style="normal" font-weight="normal" text-decoration="normal" x="637" y="304" text-anchor="start" dominant-baseline="alphabetic" fill-opacity="1">3π</text><text fill="none" stroke="rgb(255,255,255)" font-family="geogebra-sans-serif, sans-serif" font-size="12px" font-style="normal" font-weight="normal" text-decoration="normal" x="637" y="304" text-anchor="start" dominant-baseline="alphabetic" stroke-opacity="1" stroke-linejoin="bevel" stroke-miterlimit="10" stroke-width="3">3π</text><text fill="rgb(37,37,37)" stroke="none" font-family="geogebra-sans-serif, sans-serif" font-size="12px" font-style="normal" font-weight="normal" text-decoration="normal" x="637" y="304" text-anchor="start" dominant-baseline="alphabetic" fill-opacity="1">3π</text><text fill="rgb(37,37,37)" stroke="none" font-family="geogebra-sans-serif, sans-serif" font-size="12px" font-style="normal" font-weight="normal" text-decoration="normal" x="686" y="304" text-anchor="start" dominant-baseline="alphabetic" fill-opacity="1">7π / 2</text><text fill="none" stroke="rgb(255,255,255)" font-family="geogebra-sans-serif, sans-serif" font-size="12px" font-style="normal" font-weight="normal" text-decoration="normal" x="686" y="304" text-anchor="start" dominant-baseline="alphabetic" stroke-opacity="1" stroke-linejoin="bevel" stroke-miterlimit="10" stroke-width="3">7π / 2</text><text fill="rgb(37,37,37)" stroke="none" font-family="geogebra-sans-serif, sans-serif" font-size="12px" font-style="normal" font-weight="normal" text-decoration="normal" x="686" y="304" text-anchor="start" dominant-baseline="alphabetic" fill-opacity="1">7π / 2</text><text fill="rgb(37,37,37)" stroke="none" font-family="geogebra-sans-serif, sans-serif" font-size="12px" font-style="normal" font-weight="normal" text-decoration="normal" x="758" y="304" text-anchor="start" dominant-baseline="alphabetic" fill-opacity="1">4π</text><text fill="none" stroke="rgb(255,255,255)" font-family="geogebra-sans-serif, sans-serif" font-size="12px" font-style="normal" font-weight="normal" text-decoration="normal" x="758" y="304" text-anchor="start" dominant-baseline="alphabetic" stroke-opacity="1" stroke-linejoin="bevel" stroke-miterlimit="10" stroke-width="3">4π</text><text fill="rgb(37,37,37)" stroke="none" font-family="geogebra-sans-serif, sans-serif" font-size="12px" font-style="normal" font-weight="normal" text-decoration="normal" x="758" y="304" text-anchor="start" dominant-baseline="alphabetic" fill-opacity="1">4π</text><text fill="rgb(37,37,37)" stroke="none" font-family="geogebra-sans-serif, sans-serif" font-size="12px" font-style="normal" font-weight="normal" text-decoration="normal" x="806" y="304" text-anchor="start" dominant-baseline="alphabetic" fill-opacity="1">9π / 2</text><text fill="none" stroke="rgb(255,255,255)" font-family="geogebra-sans-serif, sans-serif" font-size="12px" font-style="normal" font-weight="normal" text-decoration="normal" x="806" y="304" text-anchor="start" dominant-baseline="alphabetic" stroke-opacity="1" stroke-linejoin="bevel" stroke-miterlimit="10" stroke-width="3">9π / 2</text><text fill="rgb(37,37,37)" stroke="none" font-family="geogebra-sans-serif, sans-serif" font-size="12px" font-style="normal" font-weight="normal" text-decoration="normal" x="806" y="304" text-anchor="start" dominant-baseline="alphabetic" fill-opacity="1">9π / 2</text><text fill="rgb(37,37,37)" stroke="none" font-family="geogebra-sans-serif, sans-serif" font-size="12px" font-style="normal" font-weight="normal" text-decoration="normal" x="878" y="304" text-anchor="start" dominant-baseline="alphabetic" fill-opacity="1">5π</text><text fill="none" stroke="rgb(255,255,255)" font-family="geogebra-sans-serif, sans-serif" font-size="12px" font-style="normal" font-weight="normal" text-decoration="normal" x="878" y="304" text-anchor="start" dominant-baseline="alphabetic" stroke-opacity="1" stroke-linejoin="bevel" stroke-miterlimit="10" stroke-width="3">5π</text><text fill="rgb(37,37,37)" stroke="none" font-family="geogebra-sans-serif, sans-serif" font-size="12px" font-style="normal" font-weight="normal" text-decoration="normal" x="878" y="304" text-anchor="start" dominant-baseline="alphabetic" fill-opacity="1">5π</text><text fill="rgb(37,37,37)" stroke="none" font-family="geogebra-sans-serif, sans-serif" font-size="12px" font-style="normal" font-weight="normal" text-decoration="normal" x="261" y="524" text-anchor="start" dominant-baseline="alphabetic" fill-opacity="1">–6</text><text fill="none" stroke="rgb(255,255,255)" font-family="geogebra-sans-serif, sans-serif" font-size="12px" font-style="normal" font-weight="normal" text-decoration="normal" x="261" y="524" text-anchor="start" dominant-baseline="alphabetic" stroke-opacity="1" stroke-linejoin="bevel" stroke-miterlimit="10" stroke-width="3">–6</text><text fill="rgb(37,37,37)" stroke="none" font-family="geogebra-sans-serif, sans-serif" font-size="12px" font-style="normal" font-weight="normal" text-decoration="normal" x="261" y="524" text-anchor="start" dominant-baseline="alphabetic" fill-opacity="1">–6</text><text fill="rgb(37,37,37)" stroke="none" font-family="geogebra-sans-serif, sans-serif" font-size="12px" font-style="normal" font-weight="normal" text-decoration="normal" x="261" y="447" text-anchor="start" dominant-baseline="alphabetic" fill-opacity="1">–4</text><text fill="none" stroke="rgb(255,255,255)" font-family="geogebra-sans-serif, sans-serif" font-size="12px" font-style="normal" font-weight="normal" text-decoration="normal" x="261" y="447" text-anchor="start" dominant-baseline="alphabetic" stroke-opacity="1" stroke-linejoin="bevel" stroke-miterlimit="10" stroke-width="3">–4</text><text fill="rgb(37,37,37)" stroke="none" font-family="geogebra-sans-serif, sans-serif" font-size="12px" font-style="normal" font-weight="normal" text-decoration="normal" x="261" y="447" text-anchor="start" dominant-baseline="alphabetic" fill-opacity="1">–4</text><text fill="rgb(37,37,37)" stroke="none" font-family="geogebra-sans-serif, sans-serif" font-size="12px" font-style="normal" font-weight="normal" text-decoration="normal" x="261" y="370" text-anchor="start" dominant-baseline="alphabetic" fill-opacity="1">–2</text><text fill="none" stroke="rgb(255,255,255)" font-family="geogebra-sans-serif, sans-serif" font-size="12px" font-style="normal" font-weight="normal" text-decoration="normal" x="261" y="370" text-anchor="start" dominant-baseline="alphabetic" stroke-opacity="1" stroke-linejoin="bevel" stroke-miterlimit="10" stroke-width="3">–2</text><text fill="rgb(37,37,37)" stroke="none" font-family="geogebra-sans-serif, sans-serif" font-size="12px" font-style="normal" font-weight="normal" text-decoration="normal" x="261" y="370" text-anchor="start" dominant-baseline="alphabetic" fill-opacity="1">–2</text><text fill="rgb(37,37,37)" stroke="none" font-family="geogebra-sans-serif, sans-serif" font-size="12px" font-style="normal" font-weight="normal" text-decoration="normal" x="267" y="217" text-anchor="start" dominant-baseline="alphabetic" fill-opacity="1">2</text><text fill="none" stroke="rgb(255,255,255)" font-family="geogebra-sans-serif, sans-serif" font-size="12px" font-style="normal" font-weight="normal" text-decoration="normal" x="267" y="217" text-anchor="start" dominant-baseline="alphabetic" stroke-opacity="1" stroke-linejoin="bevel" stroke-miterlimit="10" stroke-width="3">2</text><text fill="rgb(37,37,37)" stroke="none" font-family="geogebra-sans-serif, sans-serif" font-size="12px" font-style="normal" font-weight="normal" text-decoration="normal" x="267" y="217" text-anchor="start" dominant-baseline="alphabetic" fill-opacity="1">2</text><text fill="rgb(37,37,37)" stroke="none" font-family="geogebra-sans-serif, sans-serif" font-size="12px" font-style="normal" font-weight="normal" text-decoration="normal" x="267" y="140" text-anchor="start" dominant-baseline="alphabetic" fill-opacity="1">4</text><text fill="none" stroke="rgb(255,255,255)" font-family="geogebra-sans-serif, sans-serif" font-size="12px" font-style="normal" font-weight="normal" text-decoration="normal" x="267" y="140" text-anchor="start" dominant-baseline="alphabetic" stroke-opacity="1" stroke-linejoin="bevel" stroke-miterlimit="10" stroke-width="3">4</text><text fill="rgb(37,37,37)" stroke="none" font-family="geogebra-sans-serif, sans-serif" font-size="12px" font-style="normal" font-weight="normal" text-decoration="normal" x="267" y="140" text-anchor="start" dominant-baseline="alphabetic" fill-opacity="1">4</text><text fill="rgb(37,37,37)" stroke="none" font-family="geogebra-sans-serif, sans-serif" font-size="12px" font-style="normal" font-weight="normal" text-decoration="normal" x="267" y="63" text-anchor="start" dominant-baseline="alphabetic" fill-opacity="1">6</text><text fill="none" stroke="rgb(255,255,255)" font-family="geogebra-sans-serif, sans-serif" font-size="12px" font-style="normal" font-weight="normal" text-decoration="normal" x="267" y="63" text-anchor="start" dominant-baseline="alphabetic" stroke-opacity="1" stroke-linejoin="bevel" stroke-miterlimit="10" stroke-width="3">6</text><text fill="rgb(37,37,37)" stroke="none" font-family="geogebra-sans-serif, sans-serif" font-size="12px" font-style="normal" font-weight="normal" text-decoration="normal" x="267" y="63" text-anchor="start" dominant-baseline="alphabetic" fill-opacity="1">6</text><text fill="rgb(37,37,37)" stroke="none" font-family="geogebra-sans-serif, sans-serif" font-size="12px" font-style="normal" font-weight="normal" text-decoration="normal" x="267" y="304" text-anchor="start" dominant-baseline="alphabetic" fill-opacity="1">0</text><text fill="none" stroke="rgb(255,255,255)" font-family="geogebra-sans-serif, sans-serif" font-size="12px" font-style="normal" font-weight="normal" text-decoration="normal" x="267" y="304" text-anchor="start" dominant-baseline="alphabetic" stroke-opacity="1" stroke-linejoin="bevel" stroke-miterlimit="10" stroke-width="3">0</text><text fill="rgb(37,37,37)" stroke="none" font-family="geogebra-sans-serif, sans-serif" font-size="12px" font-style="normal" font-weight="normal" text-decoration="normal" x="267" y="304" text-anchor="start" dominant-baseline="alphabetic" fill-opacity="1">0</text><path fill="none" stroke="rgb(0,100,0)" paint-order="fill stroke markers" d=" M 1 419.44359252923107 L 1 421.49802762983893 L 1 419.44359252923107 L 2.000000000000057 417.300431455521 L 2.000000000000057 417.300431455521 L 3 415.0699996861139 L 3 415.06999968611393 L 4 412.75381175811026 L 4 412.75381175811026 L 5 410.3534404398835 L 5 410.35344043988357 L 6 407.8705156631207 L 6 407.8705156631208 L 7 405.3067234160423 L 7 405.30672341604236 L 8 402.6638045985627 L 8 402.6638045985627 L 9.000000000000057 399.94355384015887 L 9.000000000000057 399.94355384015887 L 10 397.14781828126 L 10 397.14781828126 L 11 394.2784963189769 L 11 394.2784963189769 L 12 391.3375363180261 L 12 391.3375363180261 L 13 388.32693528772825 L 13 388.32693528772825 L 14 385.24873752596994 L 14 385.24873752596994 L 15 382.1050332310603 L 15 382.10503323106036 L 16.000000000000057 378.8979570824142 L 16.000000000000057 378.8979570824143 L 17 375.629686791037 L 17 375.629686791037 L 18 372.30244162078503 L 18 372.3024416207851 L 19 368.918480881411 L 19 368.9184808814111 L 20 365.4801023944208 L 20 365.48010239442084 L 21 361.9896409327726 L 21 361.9896409327726 L 22 358.4494666354926 L 22 358.4494666354926 L 23.000000000000057 354.8619833982684 L 23.000000000000057 354.8619833982684 L 24 351.2296272411271 L 24 351.2296272411271 L 25 347.55486465429595 L 25 347.554864654296 L 26 343.840190923372 L 26 343.840190923372 L 27 340.088128434944 L 27 340.088128434944 L 27.99999999999997 336.30122496380426 L 27.99999999999997 336.3012249638043 L 29.00000000000003 332.48205194292876 L 29.00000000000003 332.48205194292876 L 30.00000000000003 328.6332027173873 L 30.00000000000003 328.6332027173873 L 31.00000000000003 324.7572907833747 L 31.00000000000003 324.7572907833747 L 32 320.856948013564 L 32 320.856948013564 L 33 316.93482286997335 L 33 316.9348228699734 L 34 312.9935786055769 L 34 312.9935786055769 L 34.99999999999997 309.03589145586335 L 34.99999999999997 309.03589145586335 L 36.00000000000003 305.06444882158695 L 36.00000000000003 305.06444882158695 L 37.00000000000003 301.0819474439319 L 37.00000000000003 301.0819474439319 L 38.00000000000003 297.091091573335 L 38.00000000000003 297.091091573335 L 39 293.0945911332111 L 39 293.0945911332111 L 40 289.09515987982473 L 40 289.09515987982473 L 41 285.09551355955983 L 41 285.09551355955983 L 41.99999999999997 281.0983680648378 L 41.99999999999997 281.0983680648378 L 43.00000000000003 277.10643758993643 L 43.00000000000003 277.10643758993643 L 44.00000000000003 273.12243278796285 L 44.00000000000003 273.1224327879629 L 45.00000000000003 269.149058930229 L 45.00000000000003 269.14905893022905 L 46 265.1890140692834 L 46 265.1890140692834 L 47 261.24498720684403 L 47 261.24498720684403 L 48 257.3196564678769 L 48 257.3196564678769 L 48.99999999999997 253.41568728206053 L 48.99999999999997 253.41568728206056 L 50.00000000000003 249.5357305738706 L 50.00000000000003 249.53573057387064 L 51.00000000000003 245.68242096251532 L 51.00000000000003 245.68242096251532 L 52.00000000000003 241.85837497294008 L 52.00000000000003 241.8583749729401 L 53 238.0661892591215 L 53 238.06618925912153 L 54 234.30843884085283 L 54 234.30843884085283 L 55 230.5876753552203 L 55 230.58767535522034 L 55.99999999999997 226.90642532395702 L 55.99999999999997 226.90642532395705 L 57.00000000000003 223.26718843785056 L 57.00000000000003 223.26718843785056 L 58.00000000000003 219.6724358593711 L 58.00000000000003 219.67243585937112 L 59.00000000000003 216.1246085446688 L 59.00000000000003 216.12460854466883 L 60 212.6261155860846 L 60 212.62611558608464 L 61 209.17933257629647 L 61 209.1793325762965 L 61.99999999999997 205.78659999521307 L 61.99999999999997 205.78659999521312 L 63.00000000000006 202.45022162071035 L 63.00000000000006 202.4502216207104 L 64.00000000000003 199.17246296429073 L 64.00000000000003 199.1724629642908 L 65.00000000000003 195.95554973272442 L 65.00000000000003 195.95554973272445 L 66 192.8016663167216 L 66 192.80166631672162 L 67 189.7129543076585 L 67 189.71295430765855 L 68 186.69151104336603 L 68 186.69151104336606 L 68.99999999999997 183.73938818396763 L 68.99999999999997 183.73938818396766 L 70.00000000000003 180.85859031873403 L 70.00000000000003 180.85859031873406 L 71.00000000000003 178.05107360490138 L 71.00000000000003 178.0510736049014 L 72.00000000000003 175.3187444393745 L 72.00000000000003 175.31874443937454 L 73 172.66345816422103 L 73 172.66345816422108 L 74 170.08701780683242 L 74 170.08701780683242 L 75 167.59117285560848 L 75 167.5911728556085 L 75.99999999999997 165.17761807199696 L 75.99999999999997 165.177618071997 L 77.00000000000003 162.84799233969414 L 77.00000000000003 162.84799233969417 L 78.00000000000003 160.60387755178894 L 78.00000000000003 160.60387755178897 L 79.00000000000003 158.44679753660435 L 79.00000000000003 158.44679753660438 L 80 156.37821702296804 L 80 156.37821702296807 L 81 154.39954064561275 L 81 154.39954064561277 L 82 152.51211199138277 L 82 152.5121119913828 L 82.99999999999997 150.71721268689393 L 82.99999999999997 150.71721268689396 L 84.00000000000003 149.0160615282666 L 84.00000000000003 149.01606152826662 L 85.00000000000003 147.40981365352306 L 85.00000000000003 147.40981365352312 L 86.00000000000003 145.89955975821 L 86.00000000000003 145.89955975821002 L 87 144.48632535478023 L 87 144.4863253547803 L 88 143.17107007623605 L 88 143.1710700762361 L 89 141.95468702450623 L 89 141.95468702450626 L 89.99999999999997 140.83800216400041 L 89.99999999999997 140.83800216400044 L 91.00000000000003 139.82177376075185 L 91.00000000000003 139.82177376075188 L 92.00000000000003 138.90669186752982 L 92.00000000000003 138.90669186752984 L 93.00000000000003 138.0933778552705 L 93.00000000000003 138.09337785527052 L 94 137.38238399114584 L 94 137.38238399114587 L 95 136.7741930635558 L 95 136.77419306355586 L 96 136.269218054299 L 96 136.26921805429902 L 96.99999999999997 135.86780185814425 L 96.99999999999997 135.8678018581443 L 98.00000000000003 135.5702170499939 L 98.00000000000003 135.57021704999394 L 99.00000000000003 135.37666569979626 L 99.00000000000003 135.37666569979632 L 100.00000000000003 135.2872792353335 L 100.00000000000003 135.30211835297766 L 101 135.28061324979512 L 101 135.30211835297766 L 102 135.4211729764761 L 102 135.42117297647604 L 102.99999999999997 135.64436226379325 L 102.99999999999997 135.6443622637932 L 104.00000000000006 135.97153466200538 L 104.00000000000006 135.97153466200535 L 105.00000000000003 136.40246801020982 L 105.00000000000003 136.4024680102098 L 106.00000000000003 136.93686969037964 L 106.00000000000003 136.9368696903796 L 107 137.57437682606107 L 107 137.57437682606104 L 108 138.31455652877852 L 108 138.3145565287785 L 109 139.1569061919803 L 109 139.15690619198028 L 109.99999999999997 140.10085383232504 L 109.99999999999997 140.100853832325 L 111.00000000000003 141.14575847807745 L 111.00000000000003 141.14575847807743 L 112.00000000000003 142.29091060434914 L 112.00000000000003 142.2909106043491 L 113.00000000000003 143.53553261488986 L 113.00000000000003 143.53553261488983 L 114 144.87877937010094 L 114 144.87877937010092 L 115 146.31973876091308 L 115 146.31973876091305 L 116 147.85743232813874 L 116 147.8574323281387 L 116.99999999999997 149.49081592687827 L 116.99999999999997 149.49081592687824 L 118.00000000000003 151.218780435529 L 118.00000000000003 151.21878043552897 L 119.00000000000003 153.04015250891524 L 119.00000000000003 153.0401525089152 L 120.00000000000003 154.9536953750291 L 120.00000000000003 154.95369537502904 L 121 156.95810967483928 L 121 156.95810967483925 L 122 159.0520343445991 L 122 159.05203434459906 L 123 161.2340475400537 L 123 161.23404754005367 L 123.99999999999997 163.50266760191965 L 123.99999999999997 163.5026676019196 L 125.00000000000003 165.85635406198065 L 125.00000000000003 165.85635406198065 L 126.00000000000003 168.29350868911618 L 126.00000000000003 168.29350868911615 L 127.00000000000003 170.81247657455395 L 127.00000000000003 170.8124765745539 L 128 173.4115472556075 L 128 173.41154725560747 L 129 176.0889558771371 L 129 176.08895587713704 L 130 178.84288438994486 L 130 178.8428843899448 L 130.99999999999997 181.67146278529043 L 130.99999999999997 181.67146278529043 L 132.00000000000003 184.57277036468923 L 132.00000000000003 184.57277036468918 L 133.00000000000003 187.54483704412922 L 133.00000000000003 187.54483704412922 L 134.00000000000003 190.585644691825 L 134.00000000000003 190.58564469182494 L 135 193.69312849859477 L 135 193.69312849859472 L 136 196.86517837993495 L 136 196.86517837993492 L 137 200.0996404088371 L 137 200.09964040883708 L 137.99999999999997 203.39431827837603 L 137.99999999999997 203.39431827837598 L 139.00000000000003 206.746974793075 L 139.00000000000003 206.74697479307497 L 140.00000000000003 210.15533338803488 L 140.00000000000003 210.15533338803482 L 141 213.61707967479836 L 141 213.61707967479833 L 142 217.12986301289573 L 142 217.12986301289573 L 143 220.69129810600768 L 143 220.69129810600765 L 143.99999999999997 224.29896662166072 L 143.99999999999997 224.2989666216607 L 145.00000000000003 227.95041883335523 L 145.00000000000003 227.95041883335523 L 146.00000000000003 231.64317528401006 L 146.00000000000003 231.64317528401006 L 147.00000000000003 235.37472846959747 L 147.00000000000003 235.37472846959744 L 148 239.14254454182048 L 148 239.14254454182048 L 149 242.94406502868026 L 149 242.94406502868023 L 150 246.77670857176312 L 150 246.7767085717631 L 150.99999999999997 250.63787267906875 L 150.99999999999997 250.63787267906872 L 152.00000000000003 254.5249354921886 L 152.00000000000003 254.5249354921886 L 153.00000000000003 258.4352575666337 L 153.00000000000003 258.4352575666337 L 154 262.3661836641065 L 154 262.3661836641064 L 155 266.31504455549447 L 155 266.3150445554944 L 156 270.2791588333658 L 156 270.2791588333657 L 157 274.25583473273343 L 157 274.25583473273343 L 158 278.2423719588532 L 158 278.2423719588532 L 159.00000000000006 282.23606352081333 L 159.00000000000006 282.23606352081333 L 160.00000000000003 286.2341975696701 L 160.00000000000003 286.2341975696701 L 161 290.2340592398847 L 161 290.2340592398847 L 162 294.2329324928059 L 162 294.2329324928059 L 163 298.2281019609507 L 163 298.2281019609507 L 164 302.2168547918286 L 164 302.21685479182855 L 165 306.1964824900585 L 165 306.1964824900585 L 166.00000000000006 310.1642827565271 L 166.00000000000006 310.1642827565271 L 167.00000000000003 314.1175613233385 L 167.00000000000003 314.1175613233385 L 168 318.05363378331305 L 168 318.05363378331305 L 169 321.96982741278754 L 169 321.96982741278754 L 170 325.8634829864837 L 170 325.8634829864837 L 171.00000000000003 329.73195658321026 L 171.00000000000003 329.73195658321026 L 172 333.57262138117255 L 172 333.5726213811725 L 173 337.38286944167237 L 173 337.38286944167237 L 174.00000000000003 341.1601134799845 L 174.00000000000003 341.1601134799845 L 175 344.9017886222083 L 175 344.9017886222083 L 176 348.6053541469029 L 176 348.6053541469029 L 177 352.26829521032084 L 177 352.26829521032084 L 178 355.8881245540704 L 178 355.8881245540704 L 179 359.462384194046 L 179 359.462384194046 L 180 362.9886470894821 L 180 362.988647089482 L 181.00000000000003 366.4645187909931 L 181.00000000000003 366.4645187909931 L 182 369.8876390664843 L 182 369.8876390664843 L 183 373.25568350382804 L 183 373.255683503828 L 184 376.56636508921594 L 184 376.56636508921594 L 185 379.8174357601178 L 185 379.81743576011775 L 186 383.00668793178966 L 186 383.0066879317896 L 187 386.13195599629796 L 187 386.1319559962979 L 188.00000000000003 389.19111779303864 L 188.00000000000003 389.1911177930386 L 189 392.1820960497543 L 189 392.18209604975425 L 190 395.1028597930715 L 190 395.10285979307145 L 191.00000000000003 397.95142572759863 L 191.00000000000003 397.9514257275986 L 192 400.72585958264904 L 192 400.725859582649 L 193 403.4242774256754 L 193 403.4242774256754 L 194 406.0448469415222 L 194 406.04484694152217 L 195 408.5857886766283 L 195 408.5857886766282 L 196 411.0453772473347 L 196 411.04537724733467 L 197 413.421942511478 L 197 413.421942511478 L 198.00000000000003 415.7138707024716 L 198.00000000000003 415.7138707024716 L 199 417.9196055251067 L 199 417.9196055251067 L 200 420.0376492123289 L 200 420.03764921232886 L 201 422.06656354227096 L 201 422.06656354227096 L 202 424.0049708148538 L 202 424.0049708148537 L 203 425.85155478728973 L 203 425.8515547872897 L 204 427.60506156785584 L 204 427.6050615678558 L 205.00000000000003 429.2643004673274 L 205.00000000000003 429.26430046732736 L 206 430.8281448074954 L 206 430.82814480749533 L 207 432.2955326862186 L 207 432.29553268621856 L 208 433.66546769849015 L 208 433.66546769849015 L 209 434.93701961302975 L 209 434.93701961302975 L 210 436.10932500394114 L 210 436.1093250039411 L 211 437.18158783700744 L 211 437.1815878370074 L 212 438.1530800102243 L 212 438.15308001022424 L 213 439.02314184820557 L 213 439.02314184820557 L 214 439.7911825501248 L 214 439.79118255012474 L 215.00000000000003 440.45668059088825 L 215.00000000000003 440.45668059088825 L 216 441.0191840752681 L 216 441.0191840752681 L 217 441.47831104475404 L 217 441.478311044754 L 218 441.8337497369157 L 218 441.83374973691565 L 219.00000000000003 442.0852587971001 L 219.00000000000003 442.08525879710004 L 220 442.23266744231887 L 220 442.2326674423188 L 221 442.2762561988976 L 221 442.275875577216 L 222.00000000000003 442.21485386203585 L 222.00000000000003 442.21485386203585 L 223 442.0496437325455 L 223 442.0496437325456 L 224 441.78035737189896 L 224 441.78035737189896 L 225 441.4071776344606 L 225 441.4071776344606 L 226.00000000000003 440.9303579216414 L 226.00000000000003 440.9303579216414 L 227 440.35022200983076 L 227 440.35022200983076 L 228 439.6671638305416 L 228 439.66716383054165 L 229.00000000000003 438.881647202918 L 229.00000000000003 438.881647202918 L 230 437.99420551878626 L 230 437.9942055187863 L 231 437.00544138046473 L 231 437.00544138046473 L 232.00000000000003 435.9160261915761 L 232.00000000000003 435.9160261915762 L 233 434.72669970114305 L 233 434.72669970114305 L 234 433.4382695012731 L 234 433.4382695012731 L 235 432.0516104787776 L 235 432.05161047877766 L 236.00000000000003 430.5676642210942 L 236.00000000000003 430.5676642210942 L 237 428.9874383769179 L 237 428.987438376918 L 238 427.31200597197426 L 238 427.3120059719744 L 239.00000000000003 425.542504680399 L 239.00000000000003 425.5425046803991 L 240 423.6801360522202 L 240 423.6801360522202 L 241 421.72616469746515 L 241 421.72616469746515 L 242 419.6819174274491 L 242 419.6819174274491 L 243.00000000000003 417.5487823538257 L 243.00000000000003 417.5487823538257 L 244 415.3282079460138 L 244 415.3282079460138 L 245 413.02170204763803 L 245 413.0217020476381 L 246.00000000000003 410.6308308526535 L 246.00000000000003 410.63083085265356 L 247 408.15721784184825 L 247 408.1572178418483 L 248 405.6025426804454 L 248 405.6025426804455 L 249 402.9685400775555 L 249 402.96854007755553 L 250.00000000000003 400.2569986082508 L 250.00000000000003 400.2569986082508 L 251 397.46975949906437 L 251 397.4697594990644 L 252 394.60871537773556 L 252 394.60871537773556 L 253.00000000000003 391.67580898805306 L 253.00000000000003 391.6758089880531 L 254 388.6730318706683 L 254 388.6730318706683 L 255 385.602423010772 L 255 385.60242301077204 L 256 382.46606745355666 L 256 382.4660674535567 L 257 379.2660948884017 L 257 379.26609488840177 L 258 376.0046782027432 L 258 376.00467820274326 L 259 372.6840320066118 L 259 372.6840320066118 L 260 369.3064111288387 L 260 369.30641112883876 L 261 365.8741090859529 L 261 365.87410908595297 L 262 362.3894565248066 L 262 362.3894565248066 L 263 358.8548196399888 L 263 358.8548196399888 L 264 355.2725985671017 L 264 355.27259856710174 L 265 351.6452257529879 L 265 351.6452257529879 L 266 347.975164304019 L 266 347.9751643040191 L 267 344.26490631356455 L 267 344.26490631356455 L 268 340.5169711697783 L 268 340.51697116977834 L 269 336.7339038448497 L 269 336.73390384484975 L 270 332.9182731668837 L 270 332.9182731668837 L 271 329.07267007558147 L 271 329.07267007558147 L 272 325.19970586290617 L 272 325.19970586290617 L 273 321.30201039992903 L 273 321.30201039992903 L 274 317.38223035106046 L 274 317.38223035106046 L 275 313.4430273768764 L 275 313.4430273768764 L 276 309.48707632676275 L 276 309.48707632676275 L 277 305.51706342260417 L 277 305.51706342260417 L 278 301.5356844347506 L 278 301.5356844347506 L 279 297.54564285149917 L 279 297.54564285149917 L 280 293.54964804333645 L 280 293.54964804333645 L 281 289.55041342318634 L 281 289.55041342318634 L 282 285.55065460391216 L 282 285.55065460391216 L 283 281.5530875543259 L 283 281.5530875543259 L 284 277.5604267549552 L 284 277.5604267549552 L 285 273.57538335482144 L 285 273.57538335482144 L 286 269.6006633304793 L 286 269.6006633304793 L 287 265.63896564856884 L 287 265.63896564856884 L 288 261.6929804331286 L 288 261.6929804331286 L 289 257.76538713891097 L 289 257.76538713891097 L 290 253.8588527319445 L 290 253.8588527319445 L 291 249.97602987857542 L 291 249.97602987857545 L 292 246.11955514421894 L 292 246.11955514421896 L 293 242.29204720304415 L 293 242.29204720304415 L 294 238.49610505980735 L 294 238.49610505980735 L 295 234.73430628504218 L 295 234.7343062850422 L 296 231.00920526480306 L 296 231.0092052648031 L 297 227.3233314661526 L 297 227.32333146615264 L 298 223.67918771957028 L 298 223.67918771957028 L 299 220.07924851944654 L 299 220.07924851944654 L 300 216.52595834381975 L 300 216.52595834381978 L 301 213.02172999449445 L 301 213.02172999449448 L 302 209.56894295866917 L 302 209.5689429586692 L 303 206.16994179318525 L 303 206.16994179318527 L 304 202.82703453249525 L 304 202.82703453249528 L 305 199.54249112143148 L 305 199.5424911214315 L 306 196.31854187383757 L 306 196.3185418738376 L 307 193.15737595811183 L 307 193.15737595811186 L 308 190.06113991068906 L 308 190.06113991068912 L 309 187.03193617847182 L 309 187.03193617847182 L 310 184.07182169119835 L 310 184.0718216911984 L 311 181.18280646471973 L 311 181.18280646471976 L 312 178.36685223613256 L 312 178.3668522361326 L 313 175.62587113169394 L 313 175.62587113169397 L 314 172.9617243684247 L 314 172.9617243684247 L 315 170.37622099028155 L 315 170.37622099028158 L 316 167.8711166397558 L 316 167.87111663975583 L 317 165.44811236573418 L 317 165.44811236573423 L 318 163.1088534684302 L 318 163.10885346843025 L 319 160.85492838217107 L 319 160.85492838217107 L 320 158.6878675967975 L 320 158.68786759679753 L 321 156.60914261841089 L 321 156.6091426184109 L 322 154.6201649701719 L 322 154.62016497017194 L 323 152.72228523382918 L 323 152.72228523382924 L 324 150.91679213262972 L 324 150.91679213262975 L 325 149.204911656233 L 325 149.20491165623304 L 326 147.58780622822366 L 326 147.58780622822368 L 327 146.0665739167868 L 327 146.06657391678684 L 328 144.64224768908394 L 328 144.64224768908397 L 329 143.3157947098335 L 329 143.31579470983357 L 330 142.08811568457426 L 330 142.08811568457432 L 331 140.96004424805633 L 331 140.96004424805636 L 332 139.93234639817544 L 332 139.93234639817547 L 333 139.00571997583526 L 333 139.0057199758353 L 334 138.1807941910899 L 334 138.18079419108994 L 335 137.45812919588977 L 335 137.4581291958898 L 336 136.8382157037196 L 336 136.83821570371964 L 337 136.32147465638795 L 337 136.32147465638798 L 338 135.9082569381935 L 338 135.90825693819352 L 339 135.59884313766315 L 339 135.5988431376632 L 340 135.3934433570232 L 340 135.39344335702324 L 341 135.29219706953273 L 341 135.29517302477677 L 342 135.28061324979512 L 342 135.29517302477677 L 343 135.40236920198313 L 343 135.4023692019831 L 344 135.61371281139438 L 344 135.61371281139432 L 345 135.92906034369466 L 345 135.9290603436946 L 346 136.34819766745719 L 346 136.34819766745713 L 347 136.87084017454666 L 347 136.87084017454663 L 348 137.4966329733776 L 348 137.49663297337756 L 349 138.22515112989734 L 349 138.2251511298973 L 350 139.05589995613065 L 350 139.05589995613062 L 351 139.98831534608894 L 351 139.9883153460889 L 352 141.02176415881715 L 352 141.0217641588171 L 353 142.15554464831732 L 353 142.1555446483173 L 354 143.38888694005743 L 354 143.3888869400574 L 355 144.72095355374174 L 355 144.7209535537417 L 356 146.15083997198766 L 356 146.15083997198764 L 357 147.67757525452296 L 357 147.67757525452294 L 358 149.30012269748656 L 358 149.30012269748653 L 359 151.0173805373846 L 359 151.01738053738458 L 360 152.82818269922464 L 360 152.82818269922458 L 361 154.73129958831888 L 361 154.73129958831885 L 362 156.72543892522003 L 362 156.72543892521998 L 363 158.80924662322178 L 363 158.80924662322172 L 364 160.9813077078284 L 364 160.98130770782836 L 365 163.24014727756966 L 365 163.24014727756963 L 366 165.58423150550743 L 366 165.58423150550738 L 367 168.01196868075527 L 367 168.01196868075522 L 368 170.52171028930283 L 368 170.5217102893028 L 369 173.11175213341141 L 369 173.11175213341136 L 370 175.78033548882087 L 370 175.78033548882084 L 371 178.52564829898148 L 371 178.52564829898145 L 372 181.34582640550067 L 372 181.34582640550065 L 373 184.23895481396806 L 373 184.23895481396804 L 374 187.20306899430025 L 374 187.20306899430022 L 375 190.2361562147221 L 375 190.2361562147221 L 376 193.33615690847785 L 376 193.33615690847782 L 377 196.5009660723457 L 377 196.50096607234565 L 378 199.72843469600434 L 378 199.72843469600434 L 379 203.0163712212825 L 379 203.0163712212825 L 380 206.36254303029955 L 380 206.3625430302995 L 381 209.76467796148668 L 381 209.76467796148665 L 382 213.2204658524606 L 382 213.22046585246056 L 383 216.72756010869966 L 383 216.72756010869966 L 384 220.28357929695974 L 384 220.28357929695972 L 385 223.8861087623463 L 385 223.88610876234628 L 386 227.53270226794487 L 386 227.53270226794487 L 387 231.22088365589738 L 387 231.22088365589735 L 388 234.9481485287949 L 388 234.9481485287949 L 389 238.7119659502471 L 389 238.71196595024708 L 390 242.50978016347142 L 390 242.5097801634714 L 391 246.33901232673682 L 391 246.3390123267368 L 392 250.19706226448304 L 392 250.197062264483 L 393 254.08131023292552 L 393 254.08131023292552 L 394 257.98911869894874 L 394 257.98911869894874 L 395 261.9178341310783 L 395 261.9178341310783 L 396 265.86478880131665 L 396 265.8647888013166 L 397 269.82730259661935 L 397 269.82730259661935 L 398 273.8026848387801 L 398 273.8026848387801 L 399 277.7882361114909 L 399 277.7882361114909 L 400 281.7812500933346 L 400 281.7812500933346 L 401 285.7790153954674 L 401 285.7790153954674 L 402 289.77881740274154 L 402 289.77881740274154 L 403 293.777940117019 L 403 293.777940117019 L 404 297.7736680014241 L 404 297.7736680014241 L 405 301.7632878242831 L 405 301.7632878242831 L 406 305.7440905014989 L 406 305.7440905014989 L 407 309.71337293610804 L 407 309.713372936108 L 408 313.66843985377386 L 408 313.66843985377386 L 409 317.60660563296693 L 409 317.60660563296693 L 410 321.5251961285912 L 410 321.5251961285912 L 411 325.4215504878164 L 411 325.4215504878164 L 412 329.2930229568865 L 412 329.2930229568865 L 413 333.1369846776734 L 413 333.1369846776734 L 414 336.950825472759 L 414 336.95082547275894 L 415 340.73195561783183 L 415 340.7319556178318 L 416 344.4778076001964 L 416 344.47780760019634 L 417 348.18583786219875 L 417 348.1858378621987 L 418 351.8535285283867 L 418 351.8535285283867 L 419 355.47838911523075 L 419 355.47838911523075 L 420 359.057958222245 L 420 359.05795822224496 L 421 362.58980520335933 L 421 362.58980520335933 L 422 366.071531817409 L 422 366.0715318174089 L 423 369.50077385661973 L 423 369.50077385661973 L 424 372.8752027519833 L 424 372.87520275198324 L 425 376.1925271544327 L 425 376.1925271544327 L 426 379.45049449074463 L 426 379.45049449074463 L 427 382.6468924931112 L 427 382.6468924931112 L 428 385.7795507013425 L 428 385.77955070134243 L 429 388.84634193668194 L 429 388.84634193668194 L 430 391.84518374623076 L 430 391.84518374623076 L 431 394.77403981700235 L 431 394.7740398170023 L 432 397.6309213586463 L 432 397.6309213586463 L 433 400.41388845390344 L 433 400.41388845390344 L 434 403.12105137587344 L 434 403.12105137587344 L 435 405.7505718712021 L 435 405.75057187120206 L 436 408.3006644083166 L 436 408.3006644083166 L 437 410.76959738986045 L 437 410.7695973898604 L 438 413.1556943285051 L 438 413.15569432850504 L 439 415.4573349853411 L 439 415.45733498534105 L 440 417.67295647007364 L 440 417.6729564700736 L 441 419.80105430227695 L 441 419.8010543022769 L 442 421.840183432986 L 442 421.840183432986 L 443 423.78895922593347 L 443 423.7889592259334 L 444 425.6460583977629 L 444 425.64605839776283 L 445 427.4102199165821 L 445 427.41021991658204 L 446 429.08024585824603 L 446 429.08024585824603 L 447 430.65500221978664 L 447 430.65500221978664 L 448 432.1334196894385 L 448 432.1334196894384 L 449 433.5144943727367 L 449 433.51449437273664 L 450 434.79728847419517 L 450 434.79728847419506 L 451 435.9809309341002 L 451 435.9809309341001 L 452 437.06461801998915 L 452 437.0646180199891 L 453 438.0476138724115 L 453 438.0476138724115 L 454 438.9292510046016 L 454 438.92925100460155 L 455 439.7089307557245 L 455 439.7089307557244 L 456 440.38612369738627 L 456 440.3861236973862 L 457 440.9603699931337 L 457 440.96036999313367 L 458 441.43127971069845 L 458 441.4312797106984 L 459 441.79853308677366 L 459 441.79853308677366 L 460 442.06188074414433 L 460 442.0618807441442 L 461 442.22114386102214 L 461 442.22114386102214 L 462 442.2762142924721 L 462 442.22705464384575 L 463 442.2762561988976 L 463 442.22705464384575 L 464 442.07369829617403 L 464 442.07369829617403 L 465 441.8162493835 L 465 441.81624938350006 L 466 441.45488272216875 L 466 441.4548827221688 L 467 440.98984369212087 L 467 440.98984369212087 L 468 440.4214480702716 L 468 440.4214480702717 L 469 439.75008181608814 L 469 439.75008181608814 L 470 438.9762008095096 L 470 438.9762008095096 L 471 438.10033054139 L 471 438.10033054139 L 472 437.1230657566727 L 472 437.12306575667276 L 473 436.0450700505383 L 473 436.04507005053836 L 474 434.86707541780186 L 474 434.86707541780186 L 475 433.5898817558641 L 475 433.58988175586416 L 476 432.21435632155476 L 476 432.21435632155476 L 477 430.74143314223596 L 477 430.741433142236 L 478 429.17211238156716 L 478 429.1721123815672 L 479 427.5074596603607 L 479 427.5074596603608 L 480 425.74860533299 L 480 425.74860533299 L 481 423.89674371984114 L 481 423.8967437198412 L 482 421.9531322963302 L 482 421.95313229633024 L 483 419.91909083903573 L 483 419.9190908390358 L 484 417.7960005295263 L 484 417.79600052952634 L 485 415.58530301649273 L 485 415.5853030164928 L 486 413.2884994368211 L 486 413.2884994368211 L 487 410.90714939627037 L 487 410.9071493962704 L 488 408.44286991044896 L 488 408.442869910449 L 489 405.89733430680735 L 489 405.8973343068074 L 490 403.2722710883934 L 490 403.2722710883934 L 491 400.56946276014105 L 491 400.56946276014105 L 492 397.790744618491 L 492 397.790744618491 L 493 394.93800350516324 L 493 394.9380035051633 L 494 392.0131765259291 L 494 392.0131765259291 L 495 389.01824973525197 L 495 389.018249735252 L 496 385.95525678769104 L 496 385.9552567876911 L 497 382.82627755698184 L 497 382.8262775569819 L 498 379.63343672373327 L 498 379.63343672373327 L 499 376.37890233269934 L 499 376.37890233269934 L 500 373.0648843206044 L 500 373.06488432060445 L 501 369.69363301552323 L 501 369.6936330155233 L 502 366.26743760883346 L 502 366.26743760883346 L 503 362.7886246007791 L 503 362.78862460077914 L 504 359.2595562206993 L 504 359.2595562206993 L 505 355.68262882299643 L 505 355.6826288229965 L 506 352.0602712599327 L 506 352.0602712599327 L 507 348.3949432323577 L 507 348.3949432323577 L 508 344.68913361949114 L 508 344.6891336194912 L 509 340.9453587888907 L 509 340.9453587888907 L 510 337.16616088775555 L 510 337.16616088775555 L 511 333.3541061167236 L 511 333.3541061167236 L 512 329.5117829873364 L 512 329.5117829873364 L 513 325.6418005643545 L 513 325.6418005643546 L 514 321.7467866941153 L 514 321.7467866941153 L 515 317.82938622013853 L 515 317.82938622013853 L 516 313.8922591871897 L 516 313.8922591871897 L 517 309.9380790350224 L 517 309.9380790350224 L 518 305.9695307830226 L 518 305.9695307830226 L 519 301.98930920699263 L 519 301.98930920699263 L 520 298.000117009309 L 520 298.00011700930906 L 521 294.0046629836973 L 521 294.0046629836973 L 522 290.005660175872 L 522 290.005660175872 L 523 286.00582404128795 L 523 286.00582404128795 L 524 282.00787060125725 L 524 282.00787060125725 L 525 278.01451459867934 L 525 278.01451459867934 L 526 274.02846765464136 L 526 274.02846765464136 L 527 270.0524364271378 L 527 270.0524364271378 L 528 266.0891207731593 L 528 266.0891207731593 L 529 262.1412119154006 L 529 262.1412119154006 L 530 258.2113906148312 L 530 258.21139061483126 L 531 254.30232535037007 L 531 254.30232535037007 L 532 250.41667050689907 L 532 250.41667050689907 L 533 246.5570645728489 L 533 246.55706457284893 L 534 242.72612834857696 L 534 242.726128348577 L 535 238.92646316675754 L 535 238.92646316675757 L 536 235.1606491259906 L 536 235.16064912599063 L 537 231.43124333882923 L 537 231.43124333882926 L 538 227.74077819541594 L 538 227.74077819541594 L 539 224.09175964390482 L 539 224.09175964390485 L 540 220.48666548884097 L 540 220.48666548884097 L 541 216.92794370864786 L 541 216.9279437086479 L 542 213.41801079336966 L 542 213.41801079336966 L 543 209.95925010379386 L 543 209.9592501037939 L 544 206.5540102530711 L 544 206.55401025307117 L 545 203.20460351192804 L 545 203.2046035119281 L 546 199.9133042385593 L 546 199.9133042385593 L 547 196.6823473342632 L 547 196.68234733426323 L 548 193.5139267258691 L 548 193.51392672586917 L 549 190.41019387598885 L 549 190.41019387598888 L 550 187.37325632210184 L 550 187.3732563221019 L 551 184.40517624546806 L 551 184.40517624546806 L 552 181.50796907083765 L 552 181.50796907083765 L 553 178.68360209791126 L 553 178.6836020979113 L 554 175.93399316547863 L 554 175.93399316547863 L 555 173.26100934914163 L 555 173.26100934914166 L 556 170.66646569350883 L 556 170.66646569350888 L 557 168.15212397971965 L 557 168.1521239797197 L 558 165.71969152913658 L 558 165.71969152913664 L 559 163.3708200440177 L 559 163.3708200440177 L 560 161.10710448595577 L 560 161.1071044859558 L 561 158.9300819928465 L 561 158.93008199284654 L 562 156.84123083512102 L 562 156.84123083512105 L 563 154.84196941195134 L 563 154.84196941195137 L 564 152.93365528811003 L 564 152.9336552881101 L 565 151.11758427213925 L 565 151.1175842721393 L 566 149.39498953645318 L 566 149.3949895364532 L 567 147.76704077997357 L 567 147.7670407799736 L 568 146.23484343386505 L 568 146.23484343386508 L 569 144.79943791091102 L 569 144.79943791091105 L 570 143.46179889903866 L 570 143.46179889903868 L 571 142.22283469947362 L 571 142.22283469947365 L 572 141.0833866099735 L 572 141.08338660997353 L 573 140.04422835355842 L 573 140.04422835355845 L 574 139.106065553128 L 574 139.10606555312802 L 575 138.2695352523194 L 575 138.26953525231943 L 576 137.5352054829341 L 576 137.53520548293412 L 577 136.90357487922515 L 577 136.90357487922518 L 578 136.3750723393081 L 578 136.37507233930816 L 579 135.95005673392512 L 579 135.95005673392515 L 580 135.62881666275948 L 580 135.6288166627595 L 581 135.41157025846715 L 581 135.4115702584672 L 582 135.29846503855742 L 582 135.29846503855745 L 583 135.28061324979512 L 583 135.2895778052235 L 584 135.38491459319144 L 584 135.3849145931914 L 585 135.58441066562213 L 585 135.5844106656221 L 586 135.88793055807008 L 586 135.88793055807002 L 587 136.295268170468 L 587 136.29526817046798 L 588 136.80614690707569 L 588 136.80614690707566 L 589 137.4202198642977 L 589 137.42021986429768 L 590 138.1370700662424 L 590 138.13707006624236 L 591 138.95621074786231 L 591 138.9562107478623 L 592 139.87708568548393 L 592 139.8770856854839 L 593 140.8990695745017 L 593 140.89906957450168 L 594 142.02146845398096 L 594 142.02146845398093 L 595 143.24352017788013 L 595 143.2435201778801 L 596 144.56439493257326 L 596 144.56439493257324 L 597 145.98319580032097 L 597 145.98319580032094 L 598 147.49895936830728 L 598 147.49895936830725 L 599 149.110656382829 L 599 149.11065638282895 L 600 150.81719244819269 L 600 150.81719244819266 L 601 152.6174087698462 L 601 152.61740876984618 L 602 154.51008294123818 L 602 154.51008294123815 L 603 156.49392977387276 L 603 156.49392977387274 L 604 158.56760216999515 L 604 158.56760216999513 L 605 160.72969203731563 L 605 160.7296920373156 L 606 162.978731245151 L 606 162.97873124515098 L 607 165.3131926213335 L 607 165.31319262133349 L 608 167.73149098921218 L 608 167.73149098921215 L 609 170.23198424403967 L 609 170.2319842440396 L 610 172.812974468016 L 610 172.81297446801597 L 611 175.4727090832311 L 611 175.47270908323108 L 612 178.2093820417232 L 612 178.20938204172316 L 613 181.02113505184548 L 613 181.02113505184545 L 614 183.90605884010694 L 614 183.90605884010688 L 615 186.8621944476335 L 615 186.86219444763344 L 616 189.88753456036522 L 616 189.88753456036522 L 617 192.98002487208947 L 617 192.98002487208942 L 618 196.1375654793826 L 618 196.13756547938254 L 619 199.35801230751423 L 619 199.35801230751423 L 620 202.63917856634524 L 620 202.6391785663452 L 621 205.97883623522975 L 621 205.97883623522972 L 622 209.3747175759164 L 622 209.37471757591638 L 623 212.824516672417 L 623 212.82451667241696 L 624 216.3258909967999 L 624 216.32589099679987 L 625 219.8764629998443 L 625 219.87646299984428 L 626 223.47382172547492 L 626 223.47382172547492 L 627 227.11552444788134 L 627 227.11552444788134 L 628 230.79909833020875 L 628 230.79909833020872 L 629 234.52204210369763 L 629 234.52204210369763 L 630 238.28182776612726 L 630 238.28182776612724 L 631 242.0759022984131 L 631 242.0759022984131 L 632 245.90168939819182 L 632 245.90168939819182 L 633 249.7565912292145 L 633 249.7565912292145 L 634 253.6379901853666 L 634 253.6379901853666 L 635 257.54325066810543 L 635 257.54325066810543 L 636 261.469720876122 L 636 261.469720876122 L 637 265.4147346060004 L 637 265.4147346060004 L 638 269.37561306265906 L 638 269.37561306265906 L 639 273.34966667834107 L 639 273.34966667834107 L 640 277.3341969389189 L 640 277.3341969389189 L 641 281.32649821627774 L 641 281.32649821627774 L 642 285.32385960552284 L 642 285.32385960552284 L 643 289.32356676577706 L 643 289.32356676577706 L 644 293.3229037633065 L 644 293.3229037633065 L 645 297.3191549157301 L 645 297.3191549157301 L 646 301.3096066360582 L 646 301.3096066360582 L 647 305.2915492753067 L 647 305.2915492753067 L 648 309.2622789624413 L 648 309.2622789624413 L 649 313.2190994403923 L 649 313.2190994403923 L 650 317.1593238969048 L 650 317.1593238969048 L 651 321.08027678897247 L 651 321.0802767889724 L 652 324.9792956596198 L 652 324.9792956596198 L 653 328.85373294579944 L 653 328.85373294579944 L 654 332.7009577761733 L 654 332.70095777617325 L 655 336.5183577575647 L 655 336.5183577575647 L 656 340.3033407488561 L 656 340.3033407488561 L 657 344.05333662114185 L 657 344.05333662114185 L 658 347.7657990029295 L 658 347.76579900292944 L 659 351.43820700921054 L 659 351.4382070092105 L 660 355.0680669532255 L 660 355.06806695322547 L 661 358.65291403975834 L 661 358.65291403975834 L 662 362.1903140388171 L 662 362.19031403881706 L 663 365.677864938553 L 663 365.67786493855294 L 664 369.11319857630895 L 664 369.11319857630895 L 665 372.49398224667937 L 665 372.4939822466793 L 666 375.81792028549455 L 666 375.8179202854945 L 667 379.082755628653 L 667 379.08275562865293 L 668 382.28627134474164 L 668 382.28627134474164 L 669 385.4262921404083 L 669 385.4262921404083 L 670 388.50068583745474 L 670 388.50068583745474 L 671 391.5073648206587 L 671 391.5073648206587 L 672 394.4442874553331 L 672 394.44428745533304 L 673 397.3094594736633 L 673 397.30945947366325 L 674 400.1009353288817 L 674 400.10093532888163 L 675 402.81681951635744 L 675 402.8168195163574 L 676 405.4552678607087 L 676 405.4552678607087 L 677 408.0144887680568 L 677 408.01448876805676 L 678 410.49274444257924 L 678 410.49274444257924 L 679 412.8883520665303 L 679 412.8883520665302 L 680 415.19968494292965 L 680 415.1996849429296 L 681 417.4251736001445 L 681 417.42517360014443 L 682 419.56330685761117 L 682 419.5633068576111 L 683 421.61263285197924 L 683 421.6126328519792 L 684 423.5717600229723 L 684 423.5717600229722 L 685 425.4393580583052 L 685 425.4393580583051 L 686 427.21415879700976 L 686 427.2141587970097 L 687 428.89495709055757 L 687 428.89495709055745 L 688 430.4806116211969 L 688 430.4806116211969 L 689 431.9700456769439 L 689 431.97004567694387 L 690 433.3622478827072 L 690 433.36224788270715 L 691 434.65627288704366 L 691 434.6562728870436 L 692 435.85124200408427 L 692 435.85124200408427 L 693 436.9463438101911 L 693 436.946343810191 L 694 437.9408346949398 L 694 437.9408346949398 L 695 438.83403936605714 L 695 438.83403936605714 L 696 439.6253513079655 L 696 439.6253513079655 L 697 440.31423319362824 L 697 440.3142331936282 L 698 440.9002172494115 L 698 440.90021724941147 L 699 441.38290557271876 L 699 441.38290557271876 L 700 441.7619704021796 L 700 441.7619704021796 L 701 442.0371543402106 L 701 442.0371543402106 L 702 442.2082705277967 L 702 442.2082705277966 L 703 442.2752027713747 L 703 442.2379056217329 L 704 442.2762561988976 L 704 442.2379056217329 L 705 442.09640440487203 L 705 442.09640440487203 L 706 441.8507952048085 L 706 441.8507952048085 L 707 441.5012447983299 L 707 441.50124479832994 L 708 441.0479905417484 L 708 441.0479905417484 L 709 440.49134020972724 L 709 440.4913402097273 L 710 439.83167178629253 L 710 439.8316717862926 L 711 439.06943320816873 L 711 439.0694332081688 L 712 438.20514206061506 L 712 438.2051420606151 L 713 437.239385225968 L 713 437.239385225968 L 714 436.17281848512863 L 714 436.1728184851287 L 715 435.00616607226607 L 715 435.00616607226607 L 716 433.7402201830374 L 716 433.7402201830374 L 717 432.37584043666214 L 717 432.3758404366622 L 718 430.91395329221086 L 718 430.91395329221086 L 719 429.3555514195095 L 719 429.35555141950954 L 720 427.7016930250835 L 720 427.70169302508356 L 721 425.9535011336005 L 721 425.9535011336005 L 722 424.1121628252996 L 722 424.1121628252997 L 723 422.17892842992376 L 723 422.17892842992376 L 724 420.1551106777056 L 724 420.15511067770564 L 725 418.042083807979 L 725 418.04208380797905 L 726 415.8412826360258 L 726 415.8412826360259 L 727 413.5542015787882 L 727 413.55420157878825 L 728 411.18239364011015 L 728 411.1823936401102 L 729 408.72746935619716 L 729 408.72746935619716 L 730 406.19109570200675 L 730 406.1910957020068 L 731 403.5749949593199 L 731 403.57499495931995 L 732 400.88094354725246 L 732 400.8809435472525 L 733 398.11077081600877 L 733 398.1107708160088 L 734 395.26635780469184 L 734 395.2663578046919 L 735 392.3496359640154 L 735 392.3496359640155 L 736 389.362585844786 L 736 389.36258584478605 L 737 386.3072357530407 L 737 386.30723575304074 L 738 383.1856603727634 L 738 383.18566037276344 L 739 379.9999793571029 L 739 379.999979357103 L 740 376.7523558890598 L 740 376.75235588905986 L 741 373.44499521261264 L 741 373.44499521261264 L 742 370.0801431352844 L 742 370.0801431352844 L 743 366.6600845031657 L 743 366.66008450316576 L 744 363.1871416494262 L 744 363.1871416494262 L 745 359.66367281737644 L 745 359.66367281737644 L 746 356.09207055914 L 746 356.09207055914 L 747 352.4747601110325 L 747 352.4747601110325 L 748 348.8141977467455 L 748 348.81419774674555 L 749 345.11286910945506 L 749 345.1128691094551 L 750 341.3732875239888 L 750 341.3732875239888 L 751 337.5979922901921 L 751 337.5979922901921 L 752 333.78954695866344 L 752 333.78954695866344 L 753 329.9505375900151 L 753 329.95053759001513 L 754 326.08357099885404 L 754 326.08357099885404 L 755 322.19127298366794 L 755 322.19127298366794 L 756 318.2762865438207 L 756 318.2762865438207 L 757 314.3412700848696 L 757 314.3412700848696 L 758 310.3888956134171 L 758 310.3888956134171 L 759 306.42184692273327 L 759 306.42184692273327 L 760 302.44281777036826 L 760 302.44281777036826 L 761 298.4545100490032 L 761 298.4545100490032 L 762 294.45963195177507 L 762 294.45963195177507 L 763 290.4608961333235 L 763 290.4608961333235 L 764 286.4610178678099 L 764 286.4610178678099 L 765 282.4627132051531 L 765 282.4627132051531 L 766 278.4686971267454 L 766 278.4686971267454 L 767 274.4816817018871 L 767 274.4816817018871 L 768 270.5043742462028 L 768 270.5043742462028 L 769 266.53947548328523 L 769 266.53947548328523 L 770 262.5896777108116 L 770 262.58967771081166 L 771 258.65766297238827 L 771 258.65766297238827 L 772 254.7461012363498 L 772 254.74610123634983 L 773 250.8576485827662 L 773 250.85764858276622 L 774 246.99494539987336 L 774 246.99494539987336 L 775 243.1606145911632 L 775 243.1606145911632 L 776 239.3572597943461 L 776 239.35725979434613 L 777 235.58746361339195 L 777 235.58746361339195 L 778 231.85378586486007 L 778 231.8537858648601 L 779 228.1587618396951 L 779 228.15876183969513 L 780 224.504900581684 L 780 224.50490058168404 L 781 220.89468318372954 L 781 220.89468318372957 L 782 217.33056110310685 L 782 217.33056110310685 L 783 213.81495449684377 L 783 213.81495449684377 L 784 210.35025057835122 L 784 210.35025057835122 L 785 206.93880199642996 L 785 206.93880199643 L 786 203.58292523774008 L 786 203.5829252377401 L 787 200.28489905383316 L 787 200.28489905383321 L 788 197.04696291380301 L 788 197.04696291380304 L 789 193.8713154836106 L 789 193.87131548361066 L 790 190.76011313312011 L 790 190.76011313312017 L 791 187.71546847184877 L 791 187.7154684718488 L 792 184.73944891443847 L 792 184.7394489144385 L 793 181.8340752768093 L 793 181.83407527680936 L 794.0000000000001 179.00132040396153 L 794.0000000000001 179.00132040396159 L 795 176.24310783034704 L 795 176.24310783034707 L 796 173.56131047372466 L 796 173.5613104737247 L 797 170.95774936338964 L 797 170.95774936338967 L 798 168.4341924036313 L 798 168.43419240363133 L 799 165.99235317327037 L 799 165.9923531732704 L 800 163.63388976207943 L 800 163.63388976207943 L 801.0000000000001 161.36040364488724 L 801.0000000000001 161.3604036448873 L 802 159.17343859412344 L 802 159.17343859412347 L 803 157.0744796315447 L 803 157.07447963154473 L 804 155.0649520198581 L 804 155.06495201985814 L 805 153.1462202949181 L 805 153.14622029491812 L 806 151.3195873391636 L 806 151.31958733916363 L 807 149.58629349691563 L 807 149.58629349691566 L 808.0000000000001 147.94751573214407 L 808.0000000000001 147.94751573214413 L 809 146.4043668292694 L 809 146.40436682926946 L 810 144.9578946375446 L 810 144.95789463754465 L 811 143.60908135953215 L 811 143.6090813595322 L 812 142.35884288415448 L 812 142.3588428841545 L 813 141.20802816477638 L 813 141.2080281647764 L 814 140.15741864273622 L 814 140.15741864273627 L 815.0000000000001 139.2077277167226 L 815.0000000000001 139.20772771672262 L 816 138.3596002583522 L 816 138.35960025835223 L 817 137.61361217428063 L 817 137.6136121742807 L 818 136.9702700151433 L 818 136.97027001514334 L 819 136.43001063158988 L 819 136.43001063158994 L 820 135.99320087764914 L 820 135.99320087764917 L 821 135.66013736162208 L 821 135.6601373616221 L 822.0000000000001 135.43104624467568 L 822.0000000000001 135.4310462446757 L 823 135.3060830872717 L 823 135.30608308727173 L 824 135.28061324979512 L 824 135.28533274353595 L 825 135.36880930363964 L 825 135.3688093036396 L 826 135.55645608423154 L 826 135.5564560842315 L 827 135.848145666928 L 827 135.84814566692796 L 828 136.24367998483422 L 828 136.24367998483416 L 829.0000000000001 136.74279045703818 L 829.0000000000001 136.74279045703815 L 830 137.34513817098596 L 830 137.34513817098593 L 831 138.05031411261487 L 831 138.05031411261484 L 832 138.85783944408698 L 832 138.85783944408695 L 833 139.76716582893667 L 833 139.76716582893664 L 834 140.7776758044084 L 834 140.77767580440835 L 835 141.88868320073527 L 835 141.88868320073524 L 836.0000000000001 143.09943360707024 L 836.0000000000001 143.0994336070702 L 837 144.4091048837564 L 837 144.40910488375638 L 838 145.81680772058763 L 838 145.8168077205876 L 839 147.32158624067839 L 839 147.32158624067836 L 840 148.92241864953746 L 840 148.9224186495374 L 841 150.61821792889847 L 841 150.61821792889845 L 842 152.40783257484324 L 842 152.4078325748432 L 843.0000000000001 154.29004737970942 L 843.0000000000001 154.2900473797094 L 844 156.26358425725738 L 844 156.26358425725735 L 845 158.3271031105341 L 845 158.32710311053407 L 846 160.47920274184142 L 846 160.47920274184136 L 847 162.718421804198 L 847 162.718421804198 L 848 165.04323979364005 L 848 165.04323979364 L 849 167.45207808169624 L 849 167.45207808169621 L 850.0000000000001 169.94330098732672 L 850.0000000000001 169.9433009873267 L 851 172.5152168876056 L 851 172.51521688760556 L 852 175.16607936638997 L 852 175.16607936638994 L 853 177.8940884001921 L 853 177.89408840019206 L 854 180.6973915804577 L 854 180.69739158045766 L 855.0000000000001 183.57408537141038 L 855.0000000000001 183.57408537141032 L 856 186.5222164026164 L 856 186.52221640261638 L 857.0000000000001 189.53978279538933 L 857.0000000000001 189.53978279538927 L 858 192.6247355221291 L 858 192.62473552212907 L 859 195.77497979768305 L 859 195.774979797683 L 860 198.98837650177097 L 860 198.98837650177094 L 861 202.26274363152234 L 861 202.2627436315223 L 862.0000000000001 205.59585778312527 L 862.0000000000001 205.59585778312527 L 863 208.9854556615929 L 863 208.98545566159288 L 864.0000000000001 212.42923561761694 L 864.0000000000001 212.42923561761694 L 865 215.92485921046085 L 865 215.92485921046082 L 866 219.469952795842 L 866 219.469952795842 L 867 223.0621091377114 L 867 223.0621091377114 L 868 226.69888904285028 L 868 226.69888904285025 L 869.0000000000001 230.37782301715995 L 869.0000000000001 230.37782301715993 L 870 234.09641294253154 L 870 234.09641294253152 L 871 237.85213377315245 L 871 237.85213377315245 L 872 241.64243525009272 L 872 241.6424352500927 L 873 245.46474363301934 L 873 245.46474363301934 L 874 249.31646344784727 L 874 249.31646344784724 L 875 253.19497924915635 L 875 253.19497924915635 L 876.0000000000001 257.09765739616194 L 876.0000000000001 257.09765739616194 L 877 261.0218478410457 L 877 261.02184784104566 L 878 264.9648859284277 L 878 264.9648859284277 L 879 268.92409420475184 L 879 268.92409420475184 L 880 272.8967842363699 L 880 272.8967842363699 L 881 276.88025843507285 L 881 276.88025843507285 L 882 280.8718118898469 L 882 280.8718118898469 L 883.0000000000001 284.868734203594 L 883.0000000000001 284.868734203594 L 884 288.8683113335828 L 884 288.8683113335828 L 885 292.8678274343755 L 885 292.8678274343755 L 886 296.8645667019729 L 886 296.8645667019729 L 887 300.8558152179397 L 887 300.85581521793966 L 888 304.8388627922409 L 888 304.8388627922409 L 889 308.81100480355474 L 889 308.81100480355474 L 890.0000000000001 312.76954403579674 L 890.0000000000001 312.76954403579674 L 891 316.7117925096201 L 891 316.7117925096201 L 892 320.6350733076448 L 892 320.6350733076448 L 893 324.536722392169 L 893 324.536722392169 L 894 328.4140904141436 L 894 328.4140904141435 L 895 332.26454451216347 L 895 332.26454451216347 L 896 336.0854701002723 L 896 336.08547010027223 L 897.0000000000001 339.87427264334895 L 897.0000000000001 339.87427264334895 L 898 343.6283794188847 L 898 343.6283794188847 L 899 347.34524126394854 L 899 347.34524126394854 L 900 351.0223343061497 L 900 351.0223343061497 L 901 354.6571616774346 L 901 354.6571616774346 L 902 358.2472552095394 L 902 358.24725520953933 L 903 361.7901771099614 L 903 361.7901771099614 L 904.0000000000001 365.2835216172982 L 904.0000000000001 365.2835216172982 L 905 368.7249166348405 L 905 368.7249166348405 L 906 372.11202534130575 L 906 372.1120253413057 L 907 375.4425477776141 L 907 375.4425477776141 L 908 378.7142224086407 L 908 378.7142224086407 L 909 381.92482765886916 L 909 381.9248276588691 L 910 385.07218342091846 L 910 385.07218342091846 L 911.0000000000001 388.1541525359054 L 911.0000000000001 388.1541525359054 L 912 391.16864224464723 L 912 391.1686422446472 L 913 394.113605608716 L 913 394.11360560871594 L 914 396.98704290037466 L 914 396.98704290037466 L 915 399.7870029604617 L 915 399.7870029604617 L 916 402.51158452328957 L 916 402.5115845232895 L 917 405.1589375076705 L 917 405.15893750767043 L 918.0000000000001 407.72726427318 L 918.0000000000001 407.72726427318 L 919 410.21482084081583 L 919 410.21482084081583 L 920 412.61991807721796 L 920 412.6199180772179 L 921 414.94092284164435 L 921 414.9409228416443 L 922 417.17625909492983 L 922 417.1762590949298 L 923 419.3244089696666 L 923 419.3244089696666 L 924 421.383913800889 L 924 421.383913800889 L 925.0000000000001 423.35337511655325 L 925.0000000000001 423.3533751165532 L 926 425.23145558714697 L 926 425.2314555871469 L 927 427.0168799337814 L 927 427.0168799337814 L 928 428.70843579414617 L 928 428.7084357941461 L 929 430.30497454574504 L 929 430.30497454574504 L 930.0000000000001 431.8054120858476 L 930.0000000000001 431.80541208584754 L 931 433.20872956763117 L 931 433.20872956763117 L 932.0000000000001 434.5139740920125 L 932.0000000000001 434.5139740920125 L 933 435.7202593546964 L 933 435.7202593546964 L 934 436.82676624800683 L 934 436.82676624800683 L 935 437.83274341708744 L 935 437.8327434170874 L 936 438.737507770097 L 936 438.73750777009695 L 937.0000000000001 439.54044494205095 L 937.0000000000001 439.54044494205095 L 938 440.2410097119958 L 938 440.24100971199573 L 939.0000000000001 440.83872637323236 L 939.0000000000001 440.8387263732323 L 940 441.33318905633587 L 940 441.33318905633587 L 941 441.7240620047556 L 941 441.7240620047555 L 942 442.0110798028037 L 942 442.01107980280364 L 943 442.19404755588204 L 943 442.194047555882 L 944.0000000000001 442.27284102282175 L 944.0000000000001 442.24740670024715 L 945 442.2762561988976 L 945 442.24740670024715 L 946.0000000000001 442.1177618589062 L 946.0000000000001 442.11776185890625 L 947 441.8839945319435 L 947 441.88399453194353 L 948 441.54626345512213 L 948 441.5462634551222 L 949 441.10479795903774 L 949 441.1047979590378 L 950 440.5598978133945 L 950 440.5598978133946 L 951.0000000000001 439.91193302345243 L 951.0000000000001 439.9119330234525 L 952 439.16134357878093" stroke-opacity="0.6980392156862745" stroke-linecap="round" stroke-linejoin="round" stroke-miterlimit="10" stroke-width="2.5"/><g transform="scale(19,19)"><g transform="translate(0.631578947368421,24.80263157894737)"><path fill="rgb(0,100,0)" stroke="none" paint-order="stroke fill markers" d=" M 0.367 -0.4 L 0.367 -0.4 L 0.307 -0.083 Q 0.298 -0.021 0.271 0.059000000000000004 Q 0.261 0.088 0.251 0.108 Q 0.216 0.182 0.164 0.2 Q 0.151 0.20500000000000002 0.138 0.20500000000000002 Q 0.088 0.20500000000000002 0.064 0.171 Q 0.053 0.156 0.053 0.136 Q 0.053 0.096 0.08700000000000001 0.081 Q 0.097 0.076 0.108 0.076 Q 0.137 0.076 0.14400000000000002 0.101 Q 0.145 0.106 0.145 0.111 Q 0.145 0.145 0.115 0.159 Q 0.10400000000000001 0.164 0.09 0.165 Q 0.109 0.183 0.138 0.183 Q 0.182 0.183 0.20700000000000002 0.085 Q 0.212 0.062 0.219 0.025 L 0.225 -0.005 L 0.3 -0.4 L 0.234 -0.4 Q 0.209 -0.4 0.20700000000000002 -0.40800000000000003 L 0.20600000000000002 -0.40800000000000003 L 0.20600000000000002 -0.41200000000000003 Q 0.20600000000000002 -0.429 0.223 -0.431 L 0.223 -0.431 L 0.23600000000000002 -0.431 L 0.305 -0.431 Q 0.329 -0.556 0.338 -0.588 Q 0.368 -0.6880000000000001 0.444 -0.7030000000000001 Q 0.455 -0.705 0.465 -0.705 Q 0.517 -0.705 0.541 -0.671 L 0.541 -0.671 Q 0.552 -0.656 0.552 -0.636 Q 0.552 -0.596 0.518 -0.581 Q 0.508 -0.5760000000000001 0.497 -0.5760000000000001 Q 0.468 -0.5760000000000001 0.461 -0.601 Q 0.46 -0.606 0.46 -0.611 Q 0.46 -0.642 0.488 -0.657 Q 0.499 -0.664 0.514 -0.665 Q 0.495 -0.683 0.465 -0.683 Q 0.434 -0.683 0.418 -0.649 Q 0.41100000000000003 -0.635 0.394 -0.545 L 0.373 -0.431 L 0.456 -0.431 Q 0.481 -0.431 0.483 -0.42 Q 0.483 -0.402 0.467 -0.4 L 0.466 -0.4 L 0.453 -0.4 L 0.367 -0.4 Z"/></g><g transform="translate(1.229578947368421,24.80263157894737)"><path fill="rgb(0,100,0)" stroke="none" paint-order="stroke fill markers" d=" M 0.331 0.24 L 0.331 0.24 Q 0.331 0.25 0.321 0.25 Q 0.309 0.25 0.268 0.209 Q 0.20600000000000002 0.147 0.165 0.062 Q 0.099 -0.074 0.099 -0.25 Q 0.099 -0.419 0.162 -0.555 Q 0.214 -0.666 0.294 -0.733 Q 0.315 -0.75 0.321 -0.75 Q 0.331 -0.75 0.331 -0.74 Q 0.331 -0.735 0.318 -0.723 Q 0.157 -0.559 0.157 -0.25 Q 0.157 0.058 0.314 0.218 Q 0.331 0.23500000000000001 0.331 0.24 Z"/></g><g transform="translate(1.6185789473684211,24.80263157894737)"><path fill="rgb(0,100,0)" stroke="none" paint-order="stroke fill markers" d=" M 0.334 -0.302 L 0.3 -0.165 Q 0.28300000000000003 -0.097 0.28300000000000003 -0.077 Q 0.28300000000000003 -0.025 0.32 -0.014 Q 0.328 -0.011 0.338 -0.011 Q 0.388 -0.011 0.429 -0.061 Q 0.456 -0.093 0.47100000000000003 -0.14200000000000002 Q 0.47400000000000003 -0.153 0.484 -0.153 Q 0.496 -0.153 0.496 -0.14300000000000002 Q 0.496 -0.11800000000000001 0.465 -0.07100000000000001 Q 0.41100000000000003 0.011 0.336 0.011 Q 0.268 0.011 0.23700000000000002 -0.046 Q 0.231 -0.055 0.228 -0.065 Q 0.20400000000000001 -0.017 0.162 0.002 Q 0.14300000000000002 0.011 0.123 0.011 Q 0.063 0.011 0.039 -0.024 Q 0.029 -0.037 0.029 -0.055 Q 0.029 -0.092 0.061 -0.107 Q 0.07200000000000001 -0.113 0.084 -0.113 Q 0.114 -0.113 0.12 -0.088 Q 0.121 -0.083 0.121 -0.078 Q 0.121 -0.044 0.08700000000000001 -0.028 Q 0.081 -0.025 0.074 -0.024 Q 0.095 -0.011 0.124 -0.011 Q 0.177 -0.011 0.20800000000000002 -0.082 Q 0.214 -0.097 0.219 -0.115 Q 0.273 -0.319 0.273 -0.353 Q 0.267 -0.41500000000000004 0.219 -0.42 Q 0.167 -0.42 0.124 -0.367 L 0.124 -0.366 Q 0.124 -0.365 0.123 -0.365 Q 0.108 -0.34500000000000003 0.096 -0.319 Q 0.091 -0.307 0.08700000000000001 -0.295 L 0.085 -0.289 Q 0.083 -0.278 0.07200000000000001 -0.278 Q 0.06 -0.278 0.06 -0.28800000000000003 Q 0.06 -0.313 0.092 -0.36 Q 0.146 -0.442 0.221 -0.442 Q 0.298 -0.442 0.329 -0.366 Q 0.361 -0.428 0.41400000000000003 -0.44 Q 0.424 -0.442 0.434 -0.442 Q 0.493 -0.442 0.517 -0.40900000000000003 Q 0.527 -0.395 0.527 -0.376 Q 0.527 -0.335 0.49 -0.321 Q 0.481 -0.318 0.47300000000000003 -0.318 Q 0.442 -0.318 0.436 -0.34500000000000003 Q 0.435 -0.34900000000000003 0.435 -0.353 Q 0.435 -0.383 0.464 -0.4 Q 0.47300000000000003 -0.405 0.483 -0.40700000000000003 Q 0.462 -0.42 0.433 -0.42 Q 0.365 -0.42 0.337 -0.314 Q 0.335 -0.308 0.334 -0.302 Z"/></g><g transform="translate(2.190578947368421,24.80263157894737)"><path fill="rgb(0,100,0)" stroke="none" paint-order="stroke fill markers" d=" M 0.289 -0.25 L 0.289 -0.25 Q 0.289 -0.081 0.226 0.055 Q 0.17400000000000002 0.166 0.094 0.233 Q 0.073 0.25 0.067 0.25 Q 0.057 0.25 0.057 0.24 Q 0.057 0.23500000000000001 0.07 0.223 Q 0.231 0.059000000000000004 0.231 -0.25 Q 0.231 -0.555 0.081 -0.712 L 0.076 -0.717 Q 0.057 -0.735 0.057 -0.74 Q 0.057 -0.75 0.067 -0.75 Q 0.079 -0.75 0.12 -0.709 Q 0.182 -0.647 0.223 -0.562 Q 0.289 -0.426 0.289 -0.25 Z"/></g><g transform="translate(3.135134502923976,24.80263157894737)"><path fill="rgb(0,100,0)" stroke="none" paint-order="stroke fill markers" d=" M 0.687 -0.327 L 0.09 -0.327 Q 0.058 -0.327 0.056 -0.34700000000000003 Q 0.056 -0.367 0.089 -0.367 L 0.6880000000000001 -0.367 Q 0.72 -0.367 0.721 -0.34700000000000003 Q 0.721 -0.327 0.687 -0.327 M 0.6880000000000001 -0.133 L 0.089 -0.133 Q 0.057 -0.133 0.056 -0.153 Q 0.056 -0.17300000000000001 0.09 -0.17300000000000001 L 0.687 -0.17300000000000001 Q 0.719 -0.17300000000000001 0.721 -0.153 Q 0.721 -0.133 0.6880000000000001 -0.133 Z"/></g><g transform="translate(4.468690058479532,24.80263157894737)"><path fill="rgb(0,100,0)" stroke="none" paint-order="stroke fill markers" d=" M 0.028 -0.165 L 0.028 -0.196 L 0.335 -0.665 Q 0.343 -0.677 0.355 -0.677 Q 0.369 -0.677 0.371 -0.666 L 0.371 -0.651 L 0.371 -0.196 L 0.47100000000000003 -0.196 L 0.47100000000000003 -0.165 L 0.371 -0.165 L 0.371 -0.078 Q 0.371 -0.047 0.383 -0.04 Q 0.397 -0.031 0.447 -0.031 L 0.468 -0.031 L 0.468 0 Q 0.427 -0.003 0.332 -0.003 Q 0.23800000000000002 -0.003 0.197 0 L 0.197 -0.031 L 0.218 -0.031 Q 0.28 -0.031 0.29 -0.048 Q 0.294 -0.055 0.294 -0.078 L 0.294 -0.165 L 0.028 -0.165 M 0.3 -0.196 L 0.3 -0.5690000000000001 L 0.056 -0.196 L 0.3 -0.196 Z"/></g><g transform="translate(5.413134502923977,24.80263157894737)"><path fill="rgb(0,100,0)" stroke="none" paint-order="stroke fill markers" d=" M 0.20800000000000002 -0.194 L 0.20800000000000002 -0.194 Q 0.122 -0.211 0.095 -0.227 Q 0.085 -0.232 0.076 -0.24 Q 0.033 -0.275 0.033 -0.325 Q 0.033 -0.395 0.095 -0.427 Q 0.134 -0.448 0.193 -0.448 Q 0.249 -0.448 0.28700000000000003 -0.42 Q 0.298 -0.429 0.304 -0.436 Q 0.317 -0.448 0.324 -0.448 Q 0.334 -0.439 0.335 -0.424 L 0.335 -0.323 Q 0.335 -0.302 0.329 -0.3 L 0.328 -0.3 L 0.327 -0.299 L 0.322 -0.299 Q 0.311 -0.299 0.31 -0.308 Q 0.303 -0.40900000000000003 0.227 -0.426 Q 0.211 -0.429 0.193 -0.429 Q 0.099 -0.429 0.083 -0.371 Q 0.081 -0.362 0.081 -0.353 Q 0.081 -0.302 0.158 -0.281 Q 0.17300000000000001 -0.277 0.20400000000000001 -0.271 Q 0.276 -0.257 0.307 -0.232 Q 0.313 -0.228 0.318 -0.223 Q 0.36 -0.181 0.36 -0.128 Q 0.36 -0.043000000000000003 0.29 -0.008 Q 0.252 0.011 0.199 0.011 Q 0.134 0.011 0.089 -0.032 L 0.069 -0.009000000000000001 Q 0.049 0.011 0.044 0.011 Q 0.034 0.002 0.033 -0.013000000000000001 L 0.033 -0.145 Q 0.033 -0.167 0.04 -0.169 L 0.04 -0.169 L 0.041 -0.17 L 0.046 -0.17 Q 0.056 -0.17 0.059000000000000004 -0.159 Q 0.059000000000000004 -0.157 0.06 -0.153 Q 0.08600000000000001 -0.037 0.159 -0.016 Q 0.177 -0.011 0.199 -0.011 Q 0.289 -0.011 0.308 -0.074 Q 0.312 -0.08700000000000001 0.312 -0.10200000000000001 Q 0.312 -0.17500000000000002 0.20800000000000002 -0.194 Z"/></g><g transform="translate(5.807134502923977,24.80263157894737)"><path fill="rgb(0,100,0)" stroke="none" paint-order="stroke fill markers" d=" M 0.177 -0.442 L 0.177 -0.442 L 0.177 -0.075 Q 0.177 -0.044 0.189 -0.037 L 0.189 -0.037 Q 0.201 -0.031 0.247 -0.031 L 0.247 0 Q 0.145 -0.003 0.14300000000000002 -0.003 Q 0.129 -0.003 0.033 0 L 0.033 -0.031 Q 0.092 -0.031 0.10200000000000001 -0.04 L 0.10400000000000001 -0.042 Q 0.111 -0.05 0.111 -0.076 L 0.111 -0.34500000000000003 Q 0.111 -0.385 0.095 -0.393 L 0.094 -0.393 L 0.094 -0.393 L 0.093 -0.394 L 0.093 -0.394 Q 0.08 -0.4 0.037 -0.4 L 0.037 -0.431 L 0.177 -0.442 M 0.181 -0.616 Q 0.181 -0.579 0.148 -0.5670000000000001 Q 0.138 -0.5630000000000001 0.128 -0.5630000000000001 Q 0.093 -0.5630000000000001 0.079 -0.595 L 0.079 -0.596 Q 0.075 -0.606 0.075 -0.616 Q 0.075 -0.647 0.10300000000000001 -0.662 Q 0.114 -0.669 0.128 -0.669 Q 0.162 -0.669 0.176 -0.639 Q 0.181 -0.628 0.181 -0.616 Z"/></g><g transform="translate(6.085134502923976,24.80263157894737)"><path fill="rgb(0,100,0)" stroke="none" paint-order="stroke fill markers" d=" M 0.11 -0.34400000000000003 Q 0.11 -0.383 0.095 -0.392 Q 0.083 -0.399 0.052000000000000005 -0.4 L 0.032 -0.4 L 0.032 -0.431 L 0.17300000000000001 -0.442 L 0.17300000000000001 -0.337 Q 0.22 -0.442 0.321 -0.442 Q 0.396 -0.442 0.426 -0.405 Q 0.453 -0.374 0.456 -0.32 Q 0.457 -0.301 0.457 -0.252 L 0.457 -0.061 Q 0.458 -0.037 0.486 -0.033 Q 0.498 -0.031 0.535 -0.031 L 0.535 0 Q 0.433 -0.003 0.423 -0.003 Q 0.41500000000000004 -0.003 0.31 0 L 0.31 -0.031 Q 0.369 -0.031 0.379 -0.04 L 0.381 -0.042 Q 0.388 -0.05 0.388 -0.076 L 0.388 -0.309 Q 0.388 -0.40800000000000003 0.331 -0.418 Q 0.323 -0.42 0.314 -0.42 Q 0.253 -0.42 0.212 -0.367 Q 0.179 -0.324 0.179 -0.26 L 0.179 -0.076 Q 0.179 -0.042 0.195 -0.036000000000000004 Q 0.20600000000000002 -0.031 0.257 -0.031 L 0.257 0 Q 0.155 -0.003 0.145 -0.003 Q 0.137 -0.003 0.032 0 L 0.032 -0.031 Q 0.091 -0.031 0.101 -0.04 L 0.10300000000000001 -0.042 Q 0.11 -0.05 0.11 -0.076 L 0.11 -0.34400000000000003 Z"/></g><g transform="translate(6.641134502923977,24.80263157894737)"><path fill="rgb(0,100,0)" stroke="none" paint-order="stroke fill markers" d=" M 0.331 0.24 L 0.331 0.24 Q 0.331 0.25 0.321 0.25 Q 0.309 0.25 0.268 0.209 Q 0.20600000000000002 0.147 0.165 0.062 Q 0.099 -0.074 0.099 -0.25 Q 0.099 -0.419 0.162 -0.555 Q 0.214 -0.666 0.294 -0.733 Q 0.315 -0.75 0.321 -0.75 Q 0.331 -0.75 0.331 -0.74 Q 0.331 -0.735 0.318 -0.723 Q 0.157 -0.559 0.157 -0.25 Q 0.157 0.058 0.314 0.218 Q 0.331 0.23500000000000001 0.331 0.24 Z"/></g><g transform="translate(7.0301345029239775,24.80263157894737)"><path fill="rgb(0,100,0)" stroke="none" paint-order="stroke fill markers" d=" M 0.334 -0.302 L 0.3 -0.165 Q 0.28300000000000003 -0.097 0.28300000000000003 -0.077 Q 0.28300000000000003 -0.025 0.32 -0.014 Q 0.328 -0.011 0.338 -0.011 Q 0.388 -0.011 0.429 -0.061 Q 0.456 -0.093 0.47100000000000003 -0.14200000000000002 Q 0.47400000000000003 -0.153 0.484 -0.153 Q 0.496 -0.153 0.496 -0.14300000000000002 Q 0.496 -0.11800000000000001 0.465 -0.07100000000000001 Q 0.41100000000000003 0.011 0.336 0.011 Q 0.268 0.011 0.23700000000000002 -0.046 Q 0.231 -0.055 0.228 -0.065 Q 0.20400000000000001 -0.017 0.162 0.002 Q 0.14300000000000002 0.011 0.123 0.011 Q 0.063 0.011 0.039 -0.024 Q 0.029 -0.037 0.029 -0.055 Q 0.029 -0.092 0.061 -0.107 Q 0.07200000000000001 -0.113 0.084 -0.113 Q 0.114 -0.113 0.12 -0.088 Q 0.121 -0.083 0.121 -0.078 Q 0.121 -0.044 0.08700000000000001 -0.028 Q 0.081 -0.025 0.074 -0.024 Q 0.095 -0.011 0.124 -0.011 Q 0.177 -0.011 0.20800000000000002 -0.082 Q 0.214 -0.097 0.219 -0.115 Q 0.273 -0.319 0.273 -0.353 Q 0.267 -0.41500000000000004 0.219 -0.42 Q 0.167 -0.42 0.124 -0.367 L 0.124 -0.366 Q 0.124 -0.365 0.123 -0.365 Q 0.108 -0.34500000000000003 0.096 -0.319 Q 0.091 -0.307 0.08700000000000001 -0.295 L 0.085 -0.289 Q 0.083 -0.278 0.07200000000000001 -0.278 Q 0.06 -0.278 0.06 -0.28800000000000003 Q 0.06 -0.313 0.092 -0.36 Q 0.146 -0.442 0.221 -0.442 Q 0.298 -0.442 0.329 -0.366 Q 0.361 -0.428 0.41400000000000003 -0.44 Q 0.424 -0.442 0.434 -0.442 Q 0.493 -0.442 0.517 -0.40900000000000003 Q 0.527 -0.395 0.527 -0.376 Q 0.527 -0.335 0.49 -0.321 Q 0.481 -0.318 0.47300000000000003 -0.318 Q 0.442 -0.318 0.436 -0.34500000000000003 Q 0.435 -0.34900000000000003 0.435 -0.353 Q 0.435 -0.383 0.464 -0.4 Q 0.47300000000000003 -0.405 0.483 -0.40700000000000003 Q 0.462 -0.42 0.433 -0.42 Q 0.365 -0.42 0.337 -0.314 Q 0.335 -0.308 0.334 -0.302 Z"/></g><g transform="translate(7.6021345029239775,24.80263157894737)"><path fill="rgb(0,100,0)" stroke="none" paint-order="stroke fill markers" d=" M 0.289 -0.25 L 0.289 -0.25 Q 0.289 -0.081 0.226 0.055 Q 0.17400000000000002 0.166 0.094 0.233 Q 0.073 0.25 0.067 0.25 Q 0.057 0.25 0.057 0.24 Q 0.057 0.23500000000000001 0.07 0.223 Q 0.231 0.059000000000000004 0.231 -0.25 Q 0.231 -0.555 0.081 -0.712 L 0.076 -0.717 Q 0.057 -0.735 0.057 -0.74 Q 0.057 -0.75 0.067 -0.75 Q 0.079 -0.75 0.12 -0.709 Q 0.182 -0.647 0.223 -0.562 Q 0.289 -0.426 0.289 -0.25 Z"/></g></g><path fill="rgb(68,68,68)" stroke="none" paint-order="stroke fill markers" d=" M 104.35763488100889 135.28061324979512 C 104.35763488100889 137.48975224911828 102.56677388033206 139.28061324979512 100.35763488100889 139.28061324979512 C 98.14849588168572 139.28061324979512 96.35763488100889 137.48975224911828 96.35763488100889 135.28061324979512 C 96.35763488100889 133.07147425047194 98.14849588168572 131.28061324979512 100.35763488100889 131.28061324979512 C 102.56677388033206 131.28061324979512 104.35763488100889 133.07147425047194 104.35763488100889 135.28061324979512 Z" fill-opacity="1"/><path fill="none" stroke="rgb(0,0,0)" paint-order="fill stroke markers" d=" M 104.35763488100889 135.28061324979512 C 104.35763488100889 137.48975224911828 102.56677388033206 139.28061324979512 100.35763488100889 139.28061324979512 C 98.14849588168572 139.28061324979512 96.35763488100889 137.48975224911828 96.35763488100889 135.28061324979512 C 96.35763488100889 133.07147425047194 98.14849588168572 131.28061324979512 100.35763488100889 131.28061324979512 C 102.56677388033206 131.28061324979512 104.35763488100889 133.07147425047194 104.35763488100889 135.28061324979512 Z" stroke-opacity="1" stroke-linecap="round" stroke-linejoin="round" stroke-miterlimit="10"/><text fill="rgb(68,68,68)" stroke="none" font-family="geogebra-sans-serif, sans-serif" font-size="16px" font-style="normal" font-weight="normal" text-decoration="normal" x="115" y="126" text-anchor="start" dominant-baseline="alphabetic" fill-opacity="1">(-4.71, 4)</text><text fill="none" stroke="rgb(255,255,255)" font-family="geogebra-sans-serif, sans-serif" font-size="16px" font-style="normal" font-weight="normal" text-decoration="normal" x="115" y="126" text-anchor="start" dominant-baseline="alphabetic" stroke-opacity="1" stroke-linejoin="bevel" stroke-miterlimit="10" stroke-width="3">(-4.71, 4)</text><text fill="rgb(68,68,68)" stroke="none" font-family="geogebra-sans-serif, sans-serif" font-size="16px" font-style="normal" font-weight="normal" text-decoration="normal" x="115" y="126" text-anchor="start" dominant-baseline="alphabetic" fill-opacity="1">(-4.71, 4)</text><path fill="rgb(68,68,68)" stroke="none" paint-order="stroke fill markers" d=" M 224.91454195092987 442.2762561988976 C 224.91454195092987 444.4853951982208 223.12368095025306 446.2762561988976 220.91454195092987 446.2762561988976 C 218.7054029516067 446.2762561988976 216.91454195092987 444.4853951982208 216.91454195092987 442.2762561988976 C 216.91454195092987 440.06711719957445 218.7054029516067 438.2762561988976 220.91454195092987 438.2762561988976 C 223.12368095025306 438.2762561988976 224.91454195092987 440.06711719957445 224.91454195092987 442.2762561988976 Z" fill-opacity="1"/><path fill="none" stroke="rgb(0,0,0)" paint-order="fill stroke markers" d=" M 224.91454195092987 442.2762561988976 C 224.91454195092987 444.4853951982208 223.12368095025306 446.2762561988976 220.91454195092987 446.2762561988976 C 218.7054029516067 446.2762561988976 216.91454195092987 444.4853951982208 216.91454195092987 442.2762561988976 C 216.91454195092987 440.06711719957445 218.7054029516067 438.2762561988976 220.91454195092987 438.2762561988976 C 223.12368095025306 438.2762561988976 224.91454195092987 440.06711719957445 224.91454195092987 442.2762561988976 Z" stroke-opacity="1" stroke-linecap="round" stroke-linejoin="round" stroke-miterlimit="10"/><text fill="rgb(68,68,68)" stroke="none" font-family="geogebra-sans-serif, sans-serif" font-size="16px" font-style="normal" font-weight="normal" text-decoration="normal" x="203" y="471" text-anchor="start" dominant-baseline="alphabetic" fill-opacity="1">(-1.57, -4)</text><text fill="none" stroke="rgb(255,255,255)" font-family="geogebra-sans-serif, sans-serif" font-size="16px" font-style="normal" font-weight="normal" text-decoration="normal" x="203" y="471" text-anchor="start" dominant-baseline="alphabetic" stroke-opacity="1" stroke-linejoin="bevel" stroke-miterlimit="10" stroke-width="3">(-1.57, -4)</text><text fill="rgb(68,68,68)" stroke="none" font-family="geogebra-sans-serif, sans-serif" font-size="16px" font-style="normal" font-weight="normal" text-decoration="normal" x="203" y="471" text-anchor="start" dominant-baseline="alphabetic" fill-opacity="1">(-1.57, -4)</text><path fill="rgb(68,68,68)" stroke="none" paint-order="stroke fill markers" d=" M 345.4714490255302 135.28061324979512 C 345.4714490255302 137.48975224911828 343.68058802485336 139.28061324979512 341.4714490255302 139.28061324979512 C 339.26231002620705 139.28061324979512 337.4714490255302 137.48975224911828 337.4714490255302 135.28061324979512 C 337.4714490255302 133.07147425047194 339.26231002620705 131.28061324979512 341.4714490255302 131.28061324979512 C 343.68058802485336 131.28061324979512 345.4714490255302 133.07147425047194 345.4714490255302 135.28061324979512 Z" fill-opacity="1"/><path fill="none" stroke="rgb(0,0,0)" paint-order="fill stroke markers" d=" M 345.4714490255302 135.28061324979512 C 345.4714490255302 137.48975224911828 343.68058802485336 139.28061324979512 341.4714490255302 139.28061324979512 C 339.26231002620705 139.28061324979512 337.4714490255302 137.48975224911828 337.4714490255302 135.28061324979512 C 337.4714490255302 133.07147425047194 339.26231002620705 131.28061324979512 341.4714490255302 131.28061324979512 C 343.68058802485336 131.28061324979512 345.4714490255302 133.07147425047194 345.4714490255302 135.28061324979512 Z" stroke-opacity="1" stroke-linecap="round" stroke-linejoin="round" stroke-miterlimit="10"/><text fill="rgb(68,68,68)" stroke="none" font-family="geogebra-sans-serif, sans-serif" font-size="16px" font-style="normal" font-weight="normal" text-decoration="normal" x="355" y="129" text-anchor="start" dominant-baseline="alphabetic" fill-opacity="1">(1.57, 4)</text><text fill="none" stroke="rgb(255,255,255)" font-family="geogebra-sans-serif, sans-serif" font-size="16px" font-style="normal" font-weight="normal" text-decoration="normal" x="355" y="129" text-anchor="start" dominant-baseline="alphabetic" stroke-opacity="1" stroke-linejoin="bevel" stroke-miterlimit="10" stroke-width="3">(1.57, 4)</text><text fill="rgb(68,68,68)" stroke="none" font-family="geogebra-sans-serif, sans-serif" font-size="16px" font-style="normal" font-weight="normal" text-decoration="normal" x="355" y="129" text-anchor="start" dominant-baseline="alphabetic" fill-opacity="1">(1.57, 4)</text><path fill="rgb(68,68,68)" stroke="none" paint-order="stroke fill markers" d=" M 466.02835609398585 442.2762561988976 C 466.02835609398585 444.4853951982208 464.237495093309 446.2762561988976 462.02835609398585 446.2762561988976 C 459.8192170946627 446.2762561988976 458.02835609398585 444.4853951982208 458.02835609398585 442.2762561988976 C 458.02835609398585 440.06711719957445 459.8192170946627 438.2762561988976 462.02835609398585 438.2762561988976 C 464.237495093309 438.2762561988976 466.02835609398585 440.06711719957445 466.02835609398585 442.2762561988976 Z" fill-opacity="1"/><path fill="none" stroke="rgb(0,0,0)" paint-order="fill stroke markers" d=" M 466.02835609398585 442.2762561988976 C 466.02835609398585 444.4853951982208 464.237495093309 446.2762561988976 462.02835609398585 446.2762561988976 C 459.8192170946627 446.2762561988976 458.02835609398585 444.4853951982208 458.02835609398585 442.2762561988976 C 458.02835609398585 440.06711719957445 459.8192170946627 438.2762561988976 462.02835609398585 438.2762561988976 C 464.237495093309 438.2762561988976 466.02835609398585 440.06711719957445 466.02835609398585 442.2762561988976 Z" stroke-opacity="1" stroke-linecap="round" stroke-linejoin="round" stroke-miterlimit="10"/><text fill="rgb(68,68,68)" stroke="none" font-family="geogebra-sans-serif, sans-serif" font-size="16px" font-style="normal" font-weight="normal" text-decoration="normal" x="475" y="464" text-anchor="start" dominant-baseline="alphabetic" fill-opacity="1">(4.71, -4)</text><text fill="none" stroke="rgb(255,255,255)" font-family="geogebra-sans-serif, sans-serif" font-size="16px" font-style="normal" font-weight="normal" text-decoration="normal" x="475" y="464" text-anchor="start" dominant-baseline="alphabetic" stroke-opacity="1" stroke-linejoin="bevel" stroke-miterlimit="10" stroke-width="3">(4.71, -4)</text><text fill="rgb(68,68,68)" stroke="none" font-family="geogebra-sans-serif, sans-serif" font-size="16px" font-style="normal" font-weight="normal" text-decoration="normal" x="475" y="464" text-anchor="start" dominant-baseline="alphabetic" fill-opacity="1">(4.71, -4)</text><path fill="rgb(68,68,68)" stroke="none" paint-order="stroke fill markers" d=" M 586.5852631666614 135.28061324979512 C 586.5852631666614 137.48975224911828 584.7944021659846 139.28061324979512 582.5852631666614 139.28061324979512 C 580.3761241673383 139.28061324979512 578.5852631666614 137.48975224911828 578.5852631666614 135.28061324979512 C 578.5852631666614 133.07147425047194 580.3761241673383 131.28061324979512 582.5852631666614 131.28061324979512 C 584.7944021659846 131.28061324979512 586.5852631666614 133.07147425047194 586.5852631666614 135.28061324979512 Z" fill-opacity="1"/><path fill="none" stroke="rgb(0,0,0)" paint-order="fill stroke markers" d=" M 586.5852631666614 135.28061324979512 C 586.5852631666614 137.48975224911828 584.7944021659846 139.28061324979512 582.5852631666614 139.28061324979512 C 580.3761241673383 139.28061324979512 578.5852631666614 137.48975224911828 578.5852631666614 135.28061324979512 C 578.5852631666614 133.07147425047194 580.3761241673383 131.28061324979512 582.5852631666614 131.28061324979512 C 584.7944021659846 131.28061324979512 586.5852631666614 133.07147425047194 586.5852631666614 135.28061324979512 Z" stroke-opacity="1" stroke-linecap="round" stroke-linejoin="round" stroke-miterlimit="10"/><text fill="rgb(68,68,68)" stroke="none" font-family="geogebra-sans-serif, sans-serif" font-size="16px" font-style="normal" font-weight="normal" text-decoration="normal" x="587" y="127" text-anchor="start" dominant-baseline="alphabetic" fill-opacity="1">(7.85, 4)</text><text fill="none" stroke="rgb(255,255,255)" font-family="geogebra-sans-serif, sans-serif" font-size="16px" font-style="normal" font-weight="normal" text-decoration="normal" x="587" y="127" text-anchor="start" dominant-baseline="alphabetic" stroke-opacity="1" stroke-linejoin="bevel" stroke-miterlimit="10" stroke-width="3">(7.85, 4)</text><text fill="rgb(68,68,68)" stroke="none" font-family="geogebra-sans-serif, sans-serif" font-size="16px" font-style="normal" font-weight="normal" text-decoration="normal" x="587" y="127" text-anchor="start" dominant-baseline="alphabetic" fill-opacity="1">(7.85, 4)</text><path fill="rgb(68,68,68)" stroke="none" paint-order="stroke fill markers" d=" M 948.2559843814927 442.2762561988976 C 948.2559843814927 444.4853951982208 946.4651233808158 446.2762561988976 944.2559843814927 446.2762561988976 C 942.0468453821695 446.2762561988976 940.2559843814927 444.4853951982208 940.2559843814927 442.2762561988976 C 940.2559843814927 440.06711719957445 942.0468453821695 438.2762561988976 944.2559843814927 438.2762561988976 C 946.4651233808158 438.2762561988976 948.2559843814927 440.06711719957445 948.2559843814927 442.2762561988976 Z" fill-opacity="1"/><path fill="none" stroke="rgb(0,0,0)" paint-order="fill stroke markers" d=" M 948.2559843814927 442.2762561988976 C 948.2559843814927 444.4853951982208 946.4651233808158 446.2762561988976 944.2559843814927 446.2762561988976 C 942.0468453821695 446.2762561988976 940.2559843814927 444.4853951982208 940.2559843814927 442.2762561988976 C 940.2559843814927 440.06711719957445 942.0468453821695 438.2762561988976 944.2559843814927 438.2762561988976 C 946.4651233808158 438.2762561988976 948.2559843814927 440.06711719957445 948.2559843814927 442.2762561988976 Z" stroke-opacity="1" stroke-linecap="round" stroke-linejoin="round" stroke-miterlimit="10"/><text fill="rgb(68,68,68)" stroke="none" font-family="geogebra-sans-serif, sans-serif" font-size="16px" font-style="normal" font-weight="normal" text-decoration="normal" x="932" y="434" text-anchor="start" dominant-baseline="alphabetic" fill-opacity="1">D</text><text fill="none" stroke="rgb(255,255,255)" font-family="geogebra-sans-serif, sans-serif" font-size="16px" font-style="normal" font-weight="normal" text-decoration="normal" x="932" y="434" text-anchor="start" dominant-baseline="alphabetic" stroke-opacity="1" stroke-linejoin="bevel" stroke-miterlimit="10" stroke-width="3">D</text><text fill="rgb(68,68,68)" stroke="none" font-family="geogebra-sans-serif, sans-serif" font-size="16px" font-style="normal" font-weight="normal" text-decoration="normal" x="932" y="434" text-anchor="start" dominant-baseline="alphabetic" fill-opacity="1">D</text></g></g></svg>