<svg version="1.1" xmlns="http://www.w3.org/2000/svg" xmlns:xlink="http://www.w3.org/1999/xlink" width="952" height="591"><defs><clipPath id="iCNAnUZDDKcU"><path fill="none" stroke="none" d=" M 0 0 L 952 0 L 952 591 L 0 591 L 0 0 Z"/></clipPath></defs><g transform="scale(1,1)" clip-path="url(#iCNAnUZDDKcU)"><g><rect fill="rgb(255,255,255)" stroke="none" x="0" y="0" width="952" height="591" fill-opacity="1"/><path fill="none" stroke="rgb(192,192,192)" paint-order="fill stroke markers" d=" M 55.5 0.5 L 55.5 591.5 M 55.5 0.5 L 55.5 591.5 M 131.5 0.5 L 131.5 591.5 M 206.5 0.5 L 206.5 591.5 M 358.5 0.5 L 358.5 591.5 M 434.5 0.5 L 434.5 591.5 M 509.5 0.5 L 509.5 591.5 M 585.5 0.5 L 585.5 591.5 M 661.5 0.5 L 661.5 591.5 M 737.5 0.5 L 737.5 591.5 M 812.5 0.5 L 812.5 591.5 M 888.5 0.5 L 888.5 591.5" stroke-opacity="1" stroke-linecap="round" stroke-linejoin="round" stroke-miterlimit="10"/><path fill="none" stroke="rgb(192,192,192)" paint-order="fill stroke markers" d=" M 10.5 0.5 L 10.5 591.5 M 25.5 0.5 L 25.5 591.5 M 40.5 0.5 L 40.5 591.5 M 70.5 0.5 L 70.5 591.5 M 85.5 0.5 L 85.5 591.5 M 100.5 0.5 L 100.5 591.5 M 116.5 0.5 L 116.5 591.5 M 146.5 0.5 L 146.5 591.5 M 161.5 0.5 L 161.5 591.5 M 176.5 0.5 L 176.5 591.5 M 191.5 0.5 L 191.5 591.5 M 222.5 0.5 L 222.5 591.5 M 237.5 0.5 L 237.5 591.5 M 252.5 0.5 L 252.5 591.5 M 267.5 0.5 L 267.5 591.5 M 297.5 0.5 L 297.5 591.5 M 312.5 0.5 L 312.5 591.5 M 328.5 0.5 L 328.5 591.5 M 343.5 0.5 L 343.5 591.5 M 373.5 0.5 L 373.5 591.5 M 388.5 0.5 L 388.5 591.5 M 403.5 0.5 L 403.5 591.5 M 419.5 0.5 L 419.5 591.5 M 449.5 0.5 L 449.5 591.5 M 464.5 0.5 L 464.5 591.5 M 479.5 0.5 L 479.5 591.5 M 494.5 0.5 L 494.5 591.5 M 525.5 0.5 L 525.5 591.5 M 540.5 0.5 L 540.5 591.5 M 555.5 0.5 L 555.5 591.5 M 570.5 0.5 L 570.5 591.5 M 600.5 0.5 L 600.5 591.5 M 615.5 0.5 L 615.5 591.5 M 631.5 0.5 L 631.5 591.5 M 646.5 0.5 L 646.5 591.5 M 676.5 0.5 L 676.5 591.5 M 691.5 0.5 L 691.5 591.5 M 706.5 0.5 L 706.5 591.5 M 721.5 0.5 L 721.5 591.5 M 752.5 0.5 L 752.5 591.5 M 767.5 0.5 L 767.5 591.5 M 782.5 0.5 L 782.5 591.5 M 797.5 0.5 L 797.5 591.5 M 827.5 0.5 L 827.5 591.5 M 843.5 0.5 L 843.5 591.5 M 858.5 0.5 L 858.5 591.5 M 873.5 0.5 L 873.5 591.5 M 903.5 0.5 L 903.5 591.5 M 918.5 0.5 L 918.5 591.5 M 933.5 0.5 L 933.5 591.5 M 949.5 0.5 L 949.5 591.5" stroke-opacity="0.23529411764705882" stroke-linecap="round" stroke-linejoin="round" stroke-miterlimit="10"/><path fill="none" stroke="rgb(192,192,192)" paint-order="fill stroke markers" d=" M 0.5 43.5 L 952.5 43.5 M 0.5 43.5 L 952.5 43.5 M 0.5 91.5 L 952.5 91.5 M 0.5 139.5 L 952.5 139.5 M 0.5 188.5 L 952.5 188.5 M 0.5 236.5 L 952.5 236.5 M 0.5 284.5 L 952.5 284.5 M 0.5 380.5 L 952.5 380.5 M 0.5 429.5 L 952.5 429.5 M 0.5 477.5 L 952.5 477.5 M 0.5 525.5 L 952.5 525.5 M 0.5 573.5 L 952.5 573.5" stroke-opacity="1" stroke-linecap="round" stroke-linejoin="round" stroke-miterlimit="10"/><path fill="none" stroke="rgb(192,192,192)" paint-order="fill stroke markers" d=" M 0.5 4.5 L 952.5 4.5 M 0.5 14.5 L 952.5 14.5 M 0.5 24.5 L 952.5 24.5 M 0.5 33.5 L 952.5 33.5 M 0.5 53.5 L 952.5 53.5 M 0.5 62.5 L 952.5 62.5 M 0.5 72.5 L 952.5 72.5 M 0.5 82.5 L 952.5 82.5 M 0.5 101.5 L 952.5 101.5 M 0.5 110.5 L 952.5 110.5 M 0.5 120.5 L 952.5 120.5 M 0.5 130.5 L 952.5 130.5 M 0.5 149.5 L 952.5 149.5 M 0.5 159.5 L 952.5 159.5 M 0.5 168.5 L 952.5 168.5 M 0.5 178.5 L 952.5 178.5 M 0.5 197.5 L 952.5 197.5 M 0.5 207.5 L 952.5 207.5 M 0.5 216.5 L 952.5 216.5 M 0.5 226.5 L 952.5 226.5 M 0.5 245.5 L 952.5 245.5 M 0.5 255.5 L 952.5 255.5 M 0.5 265.5 L 952.5 265.5 M 0.5 274.5 L 952.5 274.5 M 0.5 294.5 L 952.5 294.5 M 0.5 303.5 L 952.5 303.5 M 0.5 313.5 L 952.5 313.5 M 0.5 323.5 L 952.5 323.5 M 0.5 342.5 L 952.5 342.5 M 0.5 351.5 L 952.5 351.5 M 0.5 361.5 L 952.5 361.5 M 0.5 371.5 L 952.5 371.5 M 0.5 390.5 L 952.5 390.5 M 0.5 400.5 L 952.5 400.5 M 0.5 409.5 L 952.5 409.5 M 0.5 419.5 L 952.5 419.5 M 0.5 438.5 L 952.5 438.5 M 0.5 448.5 L 952.5 448.5 M 0.5 458.5 L 952.5 458.5 M 0.5 467.5 L 952.5 467.5 M 0.5 486.5 L 952.5 486.5 M 0.5 496.5 L 952.5 496.5 M 0.5 506.5 L 952.5 506.5 M 0.5 515.5 L 952.5 515.5 M 0.5 535.5 L 952.5 535.5 M 0.5 544.5 L 952.5 544.5 M 0.5 554.5 L 952.5 554.5 M 0.5 564.5 L 952.5 564.5 M 0.5 583.5 L 952.5 583.5" stroke-opacity="0.23529411764705882" stroke-linecap="round" stroke-linejoin="round" stroke-miterlimit="10"/><path fill="none" stroke="rgb(37,37,37)" paint-order="fill stroke markers" d=" M 282.5 2.5 L 282.5 591.5" stroke-opacity="1" stroke-miterlimit="10"/><path fill="none" stroke="rgb(37,37,37)" paint-order="fill stroke markers" d=" M 282.5 1.5 L 278.5 5.5" stroke-opacity="1" stroke-miterlimit="10"/><path fill="none" stroke="rgb(37,37,37)" paint-order="fill stroke markers" d=" M 282.5 1.5 L 286.5 5.5" stroke-opacity="1" stroke-miterlimit="10"/><text fill="rgb(37,37,37)" stroke="none" font-family="geogebra-sans-serif, sans-serif" font-size="16px" font-style="normal" font-weight="normal" text-decoration="normal" x="934" y="328" text-anchor="start" dominant-baseline="alphabetic" fill-opacity="1">x</text><path fill="none" stroke="rgb(37,37,37)" paint-order="fill stroke markers" d=" M 0.5 332.5 L 950.5 332.5" stroke-opacity="1" stroke-miterlimit="10"/><path fill="none" stroke="rgb(37,37,37)" paint-order="fill stroke markers" d=" M 951.5 332.5 L 947.5 328.5" stroke-opacity="1" stroke-miterlimit="10"/><path fill="none" stroke="rgb(37,37,37)" paint-order="fill stroke markers" d=" M 951.5 332.5 L 947.5 336.5" stroke-opacity="1" stroke-miterlimit="10"/><text fill="rgb(37,37,37)" stroke="none" font-family="geogebra-sans-serif, sans-serif" font-size="12px" font-style="normal" font-weight="normal" text-decoration="normal" x="35" y="348" text-anchor="start" dominant-baseline="alphabetic" fill-opacity="1">–3π / 2</text><text fill="none" stroke="rgb(255,255,255)" font-family="geogebra-sans-serif, sans-serif" font-size="12px" font-style="normal" font-weight="normal" text-decoration="normal" x="35" y="348" text-anchor="start" dominant-baseline="alphabetic" stroke-opacity="1" stroke-linejoin="bevel" stroke-miterlimit="10" stroke-width="3">–3π / 2</text><text fill="rgb(37,37,37)" stroke="none" font-family="geogebra-sans-serif, sans-serif" font-size="12px" font-style="normal" font-weight="normal" text-decoration="normal" x="35" y="348" text-anchor="start" dominant-baseline="alphabetic" fill-opacity="1">–3π / 2</text><text fill="rgb(37,37,37)" stroke="none" font-family="geogebra-sans-serif, sans-serif" font-size="12px" font-style="normal" font-weight="normal" text-decoration="normal" x="126" y="348" text-anchor="start" dominant-baseline="alphabetic" fill-opacity="1">–π</text><text fill="none" stroke="rgb(255,255,255)" font-family="geogebra-sans-serif, sans-serif" font-size="12px" font-style="normal" font-weight="normal" text-decoration="normal" x="126" y="348" text-anchor="start" dominant-baseline="alphabetic" stroke-opacity="1" stroke-linejoin="bevel" stroke-miterlimit="10" stroke-width="3">–π</text><text fill="rgb(37,37,37)" stroke="none" font-family="geogebra-sans-serif, sans-serif" font-size="12px" font-style="normal" font-weight="normal" text-decoration="normal" x="126" y="348" text-anchor="start" dominant-baseline="alphabetic" fill-opacity="1">–π</text><text fill="rgb(37,37,37)" stroke="none" font-family="geogebra-sans-serif, sans-serif" font-size="12px" font-style="normal" font-weight="normal" text-decoration="normal" x="189" y="348" text-anchor="start" dominant-baseline="alphabetic" fill-opacity="1">–π / 2</text><text fill="none" stroke="rgb(255,255,255)" font-family="geogebra-sans-serif, sans-serif" font-size="12px" font-style="normal" font-weight="normal" text-decoration="normal" x="189" y="348" text-anchor="start" dominant-baseline="alphabetic" stroke-opacity="1" stroke-linejoin="bevel" stroke-miterlimit="10" stroke-width="3">–π / 2</text><text fill="rgb(37,37,37)" stroke="none" font-family="geogebra-sans-serif, sans-serif" font-size="12px" font-style="normal" font-weight="normal" text-decoration="normal" x="189" y="348" text-anchor="start" dominant-baseline="alphabetic" fill-opacity="1">–π / 2</text><text fill="rgb(37,37,37)" stroke="none" font-family="geogebra-sans-serif, sans-serif" font-size="12px" font-style="normal" font-weight="normal" text-decoration="normal" x="344" y="348" text-anchor="start" dominant-baseline="alphabetic" fill-opacity="1">π / 2</text><text fill="none" stroke="rgb(255,255,255)" font-family="geogebra-sans-serif, sans-serif" font-size="12px" font-style="normal" font-weight="normal" text-decoration="normal" x="344" y="348" text-anchor="start" dominant-baseline="alphabetic" stroke-opacity="1" stroke-linejoin="bevel" stroke-miterlimit="10" stroke-width="3">π / 2</text><text fill="rgb(37,37,37)" stroke="none" font-family="geogebra-sans-serif, sans-serif" font-size="12px" font-style="normal" font-weight="normal" text-decoration="normal" x="344" y="348" text-anchor="start" dominant-baseline="alphabetic" fill-opacity="1">π / 2</text><text fill="rgb(37,37,37)" stroke="none" font-family="geogebra-sans-serif, sans-serif" font-size="12px" font-style="normal" font-weight="normal" text-decoration="normal" x="432" y="348" text-anchor="start" dominant-baseline="alphabetic" fill-opacity="1">π</text><text fill="none" stroke="rgb(255,255,255)" font-family="geogebra-sans-serif, sans-serif" font-size="12px" font-style="normal" font-weight="normal" text-decoration="normal" x="432" y="348" text-anchor="start" dominant-baseline="alphabetic" stroke-opacity="1" stroke-linejoin="bevel" stroke-miterlimit="10" stroke-width="3">π</text><text fill="rgb(37,37,37)" stroke="none" font-family="geogebra-sans-serif, sans-serif" font-size="12px" font-style="normal" font-weight="normal" text-decoration="normal" x="432" y="348" text-anchor="start" dominant-baseline="alphabetic" fill-opacity="1">π</text><text fill="rgb(37,37,37)" stroke="none" font-family="geogebra-sans-serif, sans-serif" font-size="12px" font-style="normal" font-weight="normal" text-decoration="normal" x="492" y="348" text-anchor="start" dominant-baseline="alphabetic" fill-opacity="1">3π / 2</text><text fill="none" stroke="rgb(255,255,255)" font-family="geogebra-sans-serif, sans-serif" font-size="12px" font-style="normal" font-weight="normal" text-decoration="normal" x="492" y="348" text-anchor="start" dominant-baseline="alphabetic" stroke-opacity="1" stroke-linejoin="bevel" stroke-miterlimit="10" stroke-width="3">3π / 2</text><text fill="rgb(37,37,37)" stroke="none" font-family="geogebra-sans-serif, sans-serif" font-size="12px" font-style="normal" font-weight="normal" text-decoration="normal" x="492" y="348" text-anchor="start" dominant-baseline="alphabetic" fill-opacity="1">3π / 2</text><text fill="rgb(37,37,37)" stroke="none" font-family="geogebra-sans-serif, sans-serif" font-size="12px" font-style="normal" font-weight="normal" text-decoration="normal" x="580" y="348" text-anchor="start" dominant-baseline="alphabetic" fill-opacity="1">2π</text><text fill="none" stroke="rgb(255,255,255)" font-family="geogebra-sans-serif, sans-serif" font-size="12px" font-style="normal" font-weight="normal" text-decoration="normal" x="580" y="348" text-anchor="start" dominant-baseline="alphabetic" stroke-opacity="1" stroke-linejoin="bevel" stroke-miterlimit="10" stroke-width="3">2π</text><text fill="rgb(37,37,37)" stroke="none" font-family="geogebra-sans-serif, sans-serif" font-size="12px" font-style="normal" font-weight="normal" text-decoration="normal" x="580" y="348" text-anchor="start" dominant-baseline="alphabetic" fill-opacity="1">2π</text><text fill="rgb(37,37,37)" stroke="none" font-family="geogebra-sans-serif, sans-serif" font-size="12px" font-style="normal" font-weight="normal" text-decoration="normal" x="644" y="348" text-anchor="start" dominant-baseline="alphabetic" fill-opacity="1">5π / 2</text><text fill="none" stroke="rgb(255,255,255)" font-family="geogebra-sans-serif, sans-serif" font-size="12px" font-style="normal" font-weight="normal" text-decoration="normal" x="644" y="348" text-anchor="start" dominant-baseline="alphabetic" stroke-opacity="1" stroke-linejoin="bevel" stroke-miterlimit="10" stroke-width="3">5π / 2</text><text fill="rgb(37,37,37)" stroke="none" font-family="geogebra-sans-serif, sans-serif" font-size="12px" font-style="normal" font-weight="normal" text-decoration="normal" x="644" y="348" text-anchor="start" dominant-baseline="alphabetic" fill-opacity="1">5π / 2</text><text fill="rgb(37,37,37)" stroke="none" font-family="geogebra-sans-serif, sans-serif" font-size="12px" font-style="normal" font-weight="normal" text-decoration="normal" x="732" y="348" text-anchor="start" dominant-baseline="alphabetic" fill-opacity="1">3π</text><text fill="none" stroke="rgb(255,255,255)" font-family="geogebra-sans-serif, sans-serif" font-size="12px" font-style="normal" font-weight="normal" text-decoration="normal" x="732" y="348" text-anchor="start" dominant-baseline="alphabetic" stroke-opacity="1" stroke-linejoin="bevel" stroke-miterlimit="10" stroke-width="3">3π</text><text fill="rgb(37,37,37)" stroke="none" font-family="geogebra-sans-serif, sans-serif" font-size="12px" font-style="normal" font-weight="normal" text-decoration="normal" x="732" y="348" text-anchor="start" dominant-baseline="alphabetic" fill-opacity="1">3π</text><text fill="rgb(37,37,37)" stroke="none" font-family="geogebra-sans-serif, sans-serif" font-size="12px" font-style="normal" font-weight="normal" text-decoration="normal" x="795" y="348" text-anchor="start" dominant-baseline="alphabetic" fill-opacity="1">7π / 2</text><text fill="none" stroke="rgb(255,255,255)" font-family="geogebra-sans-serif, sans-serif" font-size="12px" font-style="normal" font-weight="normal" text-decoration="normal" x="795" y="348" text-anchor="start" dominant-baseline="alphabetic" stroke-opacity="1" stroke-linejoin="bevel" stroke-miterlimit="10" stroke-width="3">7π / 2</text><text fill="rgb(37,37,37)" stroke="none" font-family="geogebra-sans-serif, sans-serif" font-size="12px" font-style="normal" font-weight="normal" text-decoration="normal" x="795" y="348" text-anchor="start" dominant-baseline="alphabetic" fill-opacity="1">7π / 2</text><text fill="rgb(37,37,37)" stroke="none" font-family="geogebra-sans-serif, sans-serif" font-size="12px" font-style="normal" font-weight="normal" text-decoration="normal" x="883" y="348" text-anchor="start" dominant-baseline="alphabetic" fill-opacity="1">4π</text><text fill="none" stroke="rgb(255,255,255)" font-family="geogebra-sans-serif, sans-serif" font-size="12px" font-style="normal" font-weight="normal" text-decoration="normal" x="883" y="348" text-anchor="start" dominant-baseline="alphabetic" stroke-opacity="1" stroke-linejoin="bevel" stroke-miterlimit="10" stroke-width="3">4π</text><text fill="rgb(37,37,37)" stroke="none" font-family="geogebra-sans-serif, sans-serif" font-size="12px" font-style="normal" font-weight="normal" text-decoration="normal" x="883" y="348" text-anchor="start" dominant-baseline="alphabetic" fill-opacity="1">4π</text><path fill="none" stroke="rgb(37,37,37)" paint-order="fill stroke markers" d=" M 279.5 525.5 L 282.5 525.5" stroke-opacity="1" stroke-miterlimit="10"/><path fill="none" stroke="rgb(37,37,37)" paint-order="fill stroke markers" d=" M 279.5 429.5 L 282.5 429.5" stroke-opacity="1" stroke-miterlimit="10"/><path fill="none" stroke="rgb(37,37,37)" paint-order="fill stroke markers" d=" M 279.5 236.5 L 282.5 236.5" stroke-opacity="1" stroke-miterlimit="10"/><path fill="none" stroke="rgb(37,37,37)" paint-order="fill stroke markers" d=" M 279.5 139.5 L 282.5 139.5" stroke-opacity="1" stroke-miterlimit="10"/><path fill="none" stroke="rgb(37,37,37)" paint-order="fill stroke markers" d=" M 279.5 43.5 L 282.5 43.5" stroke-opacity="1" stroke-miterlimit="10"/><text fill="rgb(37,37,37)" stroke="none" font-family="geogebra-sans-serif, sans-serif" font-size="12px" font-style="normal" font-weight="normal" text-decoration="normal" x="262" y="530" text-anchor="start" dominant-baseline="alphabetic" fill-opacity="1">–4</text><text fill="none" stroke="rgb(255,255,255)" font-family="geogebra-sans-serif, sans-serif" font-size="12px" font-style="normal" font-weight="normal" text-decoration="normal" x="262" y="530" text-anchor="start" dominant-baseline="alphabetic" stroke-opacity="1" stroke-linejoin="bevel" stroke-miterlimit="10" stroke-width="3">–4</text><text fill="rgb(37,37,37)" stroke="none" font-family="geogebra-sans-serif, sans-serif" font-size="12px" font-style="normal" font-weight="normal" text-decoration="normal" x="262" y="530" text-anchor="start" dominant-baseline="alphabetic" fill-opacity="1">–4</text><text fill="rgb(37,37,37)" stroke="none" font-family="geogebra-sans-serif, sans-serif" font-size="12px" font-style="normal" font-weight="normal" text-decoration="normal" x="262" y="434" text-anchor="start" dominant-baseline="alphabetic" fill-opacity="1">–2</text><text fill="none" stroke="rgb(255,255,255)" font-family="geogebra-sans-serif, sans-serif" font-size="12px" font-style="normal" font-weight="normal" text-decoration="normal" x="262" y="434" text-anchor="start" dominant-baseline="alphabetic" stroke-opacity="1" stroke-linejoin="bevel" stroke-miterlimit="10" stroke-width="3">–2</text><text fill="rgb(37,37,37)" stroke="none" font-family="geogebra-sans-serif, sans-serif" font-size="12px" font-style="normal" font-weight="normal" text-decoration="normal" x="262" y="434" text-anchor="start" dominant-baseline="alphabetic" fill-opacity="1">–2</text><text fill="rgb(37,37,37)" stroke="none" font-family="geogebra-sans-serif, sans-serif" font-size="12px" font-style="normal" font-weight="normal" text-decoration="normal" x="268" y="241" text-anchor="start" dominant-baseline="alphabetic" fill-opacity="1">2</text><text fill="none" stroke="rgb(255,255,255)" font-family="geogebra-sans-serif, sans-serif" font-size="12px" font-style="normal" font-weight="normal" text-decoration="normal" x="268" y="241" text-anchor="start" dominant-baseline="alphabetic" stroke-opacity="1" stroke-linejoin="bevel" stroke-miterlimit="10" stroke-width="3">2</text><text fill="rgb(37,37,37)" stroke="none" font-family="geogebra-sans-serif, sans-serif" font-size="12px" font-style="normal" font-weight="normal" text-decoration="normal" x="268" y="241" text-anchor="start" dominant-baseline="alphabetic" fill-opacity="1">2</text><text fill="rgb(37,37,37)" stroke="none" font-family="geogebra-sans-serif, sans-serif" font-size="12px" font-style="normal" font-weight="normal" text-decoration="normal" x="268" y="144" text-anchor="start" dominant-baseline="alphabetic" fill-opacity="1">4</text><text fill="none" stroke="rgb(255,255,255)" font-family="geogebra-sans-serif, sans-serif" font-size="12px" font-style="normal" font-weight="normal" text-decoration="normal" x="268" y="144" text-anchor="start" dominant-baseline="alphabetic" stroke-opacity="1" stroke-linejoin="bevel" stroke-miterlimit="10" stroke-width="3">4</text><text fill="rgb(37,37,37)" stroke="none" font-family="geogebra-sans-serif, sans-serif" font-size="12px" font-style="normal" font-weight="normal" text-decoration="normal" x="268" y="144" text-anchor="start" dominant-baseline="alphabetic" fill-opacity="1">4</text><text fill="rgb(37,37,37)" stroke="none" font-family="geogebra-sans-serif, sans-serif" font-size="12px" font-style="normal" font-weight="normal" text-decoration="normal" x="268" y="48" text-anchor="start" dominant-baseline="alphabetic" fill-opacity="1">6</text><text fill="none" stroke="rgb(255,255,255)" font-family="geogebra-sans-serif, sans-serif" font-size="12px" font-style="normal" font-weight="normal" text-decoration="normal" x="268" y="48" text-anchor="start" dominant-baseline="alphabetic" stroke-opacity="1" stroke-linejoin="bevel" stroke-miterlimit="10" stroke-width="3">6</text><text fill="rgb(37,37,37)" stroke="none" font-family="geogebra-sans-serif, sans-serif" font-size="12px" font-style="normal" font-weight="normal" text-decoration="normal" x="268" y="48" text-anchor="start" dominant-baseline="alphabetic" fill-opacity="1">6</text><text fill="rgb(37,37,37)" stroke="none" font-family="geogebra-sans-serif, sans-serif" font-size="12px" font-style="normal" font-weight="normal" text-decoration="normal" x="268" y="348" text-anchor="start" dominant-baseline="alphabetic" fill-opacity="1">0</text><text fill="none" stroke="rgb(255,255,255)" font-family="geogebra-sans-serif, sans-serif" font-size="12px" font-style="normal" font-weight="normal" text-decoration="normal" x="268" y="348" text-anchor="start" dominant-baseline="alphabetic" stroke-opacity="1" stroke-linejoin="bevel" stroke-miterlimit="10" stroke-width="3">0</text><text fill="rgb(37,37,37)" stroke="none" font-family="geogebra-sans-serif, sans-serif" font-size="12px" font-style="normal" font-weight="normal" text-decoration="normal" x="268" y="348" text-anchor="start" dominant-baseline="alphabetic" fill-opacity="1">0</text><path fill="none" stroke="rgb(51,153,0)" paint-order="fill stroke markers" d=" M 0 313.09007540645433 L 0 314.00781188783805 L 0 313.09007540645433 L 1 312.1807739843858 L 1 312.1807739843858 L 2 311.2802988769785 L 2 311.2802988769785 L 3 310.389037541781 L 3 310.389037541781 L 4 309.50737347182854 L 4 309.50737347182854 L 5 308.63568603063294 L 5 308.63568603063294 L 6.000000000000057 307.77435028895 L 6.000000000000057 307.77435028895 L 7.000000000000057 306.9237368633933 L 7.000000000000057 306.9237368633933 L 8.000000000000057 306.0842117569648 L 8.000000000000057 306.0842117569648 L 9 305.25613620157105 L 9 305.25613620157105 L 10 304.43986650259114 L 10 304.43986650259114 L 11 303.6357538855658 L 11 303.6357538855658 L 12 302.8441443450715 L 12 302.8441443450715 L 13 302.06537849584527 L 13 302.06537849584527 L 14 301.2997914262247 L 14 301.2997914262247 L 15 300.54771255396577 L 15 300.54771255396577 L 16.000000000000057 299.8094654845005 L 16.000000000000057 299.8094654845005 L 17.000000000000057 299.08536787169555 L 17.000000000000057 299.08536787169555 L 18.000000000000057 298.37573128117185 L 18.000000000000057 298.37573128117185 L 19 297.68086105624366 L 19 297.68086105624366 L 20 297.0010561865351 L 20 297.0010561865351 L 21 296.3366091793304 L 21 296.3366091793304 L 22 295.68780593371395 L 22 295.68780593371395 L 23 295.05492561755256 L 23 295.05492561755256 L 24 294.4382405473754 L 24 294.4382405473755 L 25 293.8380160712011 L 25 293.83801607120114 L 26.000000000000057 293.2545104543633 L 26.000000000000057 293.2545104543633 L 27.00000000000003 292.68797476838404 L 27.00000000000003 292.68797476838404 L 28.000000000000057 292.1386527829426 L 28.000000000000057 292.1386527829426 L 28.99999999999997 291.6067808609857 L 28.99999999999997 291.6067808609857 L 29.99999999999997 291.0925878570249 L 29.99999999999997 291.09258785702497 L 31 290.5962950186653 L 31 290.5962950186653 L 32 290.1181158914061 L 32 290.1181158914061 L 33 289.65825622675663 L 33 289.6582562267567 L 34.00000000000003 289.21691389370505 L 34.00000000000003 289.2169138937051 L 35.00000000000003 288.794278793579 L 35.00000000000003 288.79427879357905 L 36.00000000000003 288.3905327783347 L 36.00000000000003 288.3905327783347 L 37.00000000000003 288.00584957230944 L 37.00000000000003 288.00584957230944 L 37.99999999999997 287.64039469747127 L 37.99999999999997 287.6403946974713 L 38.99999999999997 287.294325402198 L 38.99999999999997 287.29432540219807 L 39.99999999999997 286.9677905936162 L 39.99999999999997 286.9677905936162 L 41 286.6609307735292 L 41 286.6609307735292 L 42 286.37387797796174 L 42 286.37387797796174 L 43 286.10675572034756 L 43 286.10675572034756 L 44.00000000000003 285.8596789383837 L 44.00000000000003 285.85967893838375 L 45.00000000000003 285.6327539445751 L 45.00000000000003 285.6327539445751 L 46.00000000000003 285.42607838049 L 46.00000000000003 285.42607838049 L 47.00000000000003 285.23974117474717 L 47.00000000000003 285.23974117474717 L 47.99999999999997 285.07382250475104 L 47.99999999999997 285.07382250475104 L 48.99999999999997 284.92839376219314 L 48.99999999999997 284.9283937621932 L 49.99999999999997 284.80351752233366 L 49.99999999999997 284.8035175223337 L 51 284.69924751707634 L 51 284.69924751707634 L 52 284.61562861184854 L 52 284.6156286118486 L 53 284.55269678629685 L 53 284.55269678629685 L 54.00000000000003 284.51047911880534 L 54.00000000000003 284.51047911880534 L 55.00000000000003 284.4889937748444 L 55.00000000000003 284.4889937748444 L 56.00000000000003 284.48601562699815 L 56.00000000000003 284.4882499991546 L 57.00000000000006 284.50824811176875 L 57.00000000000006 284.50824811176875 L 57.99999999999997 284.5489795078739 L 57.99999999999997 284.5489795078739 L 58.99999999999997 284.6104266615145 L 58.99999999999997 284.6104266615145 L 59.99999999999997 284.6925631331328 L 59.99999999999997 284.6925631331328 L 61 284.7953535809457 L 61 284.7953535809457 L 62 284.91875377615156 L 62 284.91875377615156 L 63 285.062710621961 L 63 285.06271062196095 L 64.00000000000003 285.2271621764434 L 64.00000000000003 285.2271621764434 L 65.00000000000003 285.4120376791796 L 65.00000000000003 285.4120376791796 L 66.00000000000003 285.61725758170843 L 66.00000000000003 285.61725758170843 L 67.00000000000006 285.8427335817551 L 67.00000000000006 285.8427335817551 L 67.99999999999997 286.08836866122607 L 67.99999999999997 286.08836866122607 L 68.99999999999997 286.35405712795404 L 68.99999999999997 286.35405712795404 L 69.99999999999997 286.63968466117524 L 69.99999999999997 286.63968466117524 L 71 286.94512836071965 L 71 286.94512836071965 L 72 287.27025679989265 L 72 287.2702567998926 L 73 287.6149300820251 L 73 287.6149300820251 L 74.00000000000003 287.97899990066895 L 74.00000000000003 287.97899990066895 L 75.00000000000003 288.36230960341 L 75.00000000000003 288.3623096034099 L 76.00000000000003 288.7646942592728 L 76.00000000000003 288.7646942592728 L 77.00000000000006 289.18598072968757 L 77.00000000000006 289.18598072968757 L 77.99999999999997 289.6259877429881 L 77.99999999999997 289.6259877429881 L 78.99999999999997 290.08452597240984 L 78.99999999999997 290.08452597240984 L 79.99999999999997 290.5613981175534 L 79.99999999999997 290.5613981175534 L 81 291.05639898927944 L 81 291.05639898927944 L 82 291.56931559799756 L 82 291.56931559799756 L 83 292.0999272453118 L 83 292.0999272453118 L 84.00000000000003 292.648005618983 L 84.00000000000003 292.648005618983 L 85.00000000000003 293.21331489116733 L 85.00000000000003 293.2133148911673 L 86.00000000000003 293.79561181988834 L 86.00000000000003 293.79561181988834 L 87.00000000000006 294.3946458536998 L 87.00000000000006 294.3946458536998 L 87.99999999999997 295.010159239493 L 87.99999999999997 295.010159239493 L 88.99999999999997 295.6418871334033 L 88.99999999999997 295.6418871334033 L 89.99999999999997 296.2895577147672 L 89.99999999999997 296.2895577147672 L 91 296.95289230308197 L 91 296.95289230308197 L 92 297.63160547791625 L 92 297.63160547791625 L 93 298.32540520172165 L 93 298.32540520172165 L 94.00000000000003 299.0339929454906 L 94.00000000000003 299.0339929454905 L 94.99999999999997 299.7570638172078 L 94.99999999999997 299.7570638172078 L 96 300.4943066930399 L 96 300.4943066930399 L 97 301.24540435120593 L 97 301.24540435120593 L 98 302.0100336084718 L 98 302.01003360847176 L 99.00000000000003 302.7878654592103 L 99.00000000000003 302.78786545921025 L 99.99999999999997 303.5785652169658 L 99.99999999999997 303.5785652169658 L 101 304.3817926584637 L 101 304.38179265846367 L 102 305.1972021700021 L 102 305.1972021700021 L 103 306.0244428961627 L 103 306.0244428961627 L 104.00000000000003 306.8631588907777 L 104.00000000000003 306.8631588907777 L 104.99999999999997 307.7129892700863 L 104.99999999999997 307.7129892700863 L 106 308.57356836801665 L 106 308.5735683680166 L 107 309.44452589352466 L 107 309.44452589352466 L 108 310.32548708992374 L 108 310.3254870899237 L 109.00000000000003 311.21607289613513 L 109.00000000000003 311.21607289613513 L 109.99999999999997 312.11590010979126 L 109.99999999999997 312.11590010979126 L 111 313.0245815521201 L 111 313.0245815521201 L 112 313.9417262345411 L 112 313.9417262345411 L 113 314.8669395269003 L 113 314.8669395269003 L 114.00000000000003 315.7998233272722 L 114.00000000000003 315.7998233272722 L 115 316.7399762332556 L 115 316.7399762332556 L 116 317.68699371468955 L 116 317.68699371468955 L 117 318.6404682877149 L 117 318.6404682877149 L 118 319.59998969010724 L 118 319.5999896901072 L 119.00000000000003 320.5651450578048 L 119.00000000000003 320.5651450578048 L 120 321.53551910255624 L 120 321.53551910255624 L 121 322.51069429061147 L 121 322.51069429061147 L 122 323.49025102237846 L 122 323.4902510223784 L 123 324.4737678129689 L 123 324.4737678129689 L 124.00000000000003 325.46082147355577 L 124.00000000000003 325.46082147355577 L 125 326.45098729346296 L 125 326.45098729346296 L 126 327.44383922291075 L 126 327.44383922291075 L 127 328.4389500563368 L 127 328.4389500563368 L 128 329.43589161621475 L 128 329.43589161621475 L 128.99999999999997 330.434234937291 L 128.99999999999997 330.434234937291 L 130 331.43355045116044 L 130 331.43355045116044 L 131 332.4334081711016 L 131 332.4334081711016 L 132 333.4333778770918 L 132 333.4333778770918 L 133 334.43302930092307 L 133 334.43302930092307 L 133.99999999999997 335.4319323113382 L 133.99999999999997 335.4319323113382 L 135 336.4296570991081 L 135 336.4296570991081 L 136 337.4257743619711 L 136 337.4257743619711 L 137 338.4198554893529 L 137 338.4198554893529 L 138 339.4114727467906 L 138 339.4114727467906 L 138.99999999999997 340.40019945997784 L 138.99999999999997 340.40019945997784 L 140 341.38561019835566 L 140 341.38561019835566 L 141 342.3672809581666 L 141 342.3672809581666 L 142 343.34478934489584 L 142 343.34478934489584 L 143 344.3177147550198 L 143 344.3177147550198 L 143.99999999999997 345.28563855698354 L 143.99999999999997 345.2856385569835 L 145 346.24814427133043 L 145 346.24814427133043 L 146 347.2048177499054 L 146 347.2048177499054 L 147 348.1552473540548 L 147 348.1552473540548 L 148 349.09902413174717 L 148 349.09902413174717 L 148.99999999999997 350.0357419935375 L 148.99999999999997 350.0357419935375 L 150 350.96499788729994 L 150 350.96499788729994 L 151 351.8863919716534 L 151 351.8863919716534 L 152 352.7995277880059 L 152 352.7995277880059 L 153 353.7040124311434 L 153 353.7040124311434 L 153.99999999999997 354.5994567182893 L 153.99999999999997 354.5994567182893 L 155 355.4854753565627 L 155 355.4854753565627 L 156 356.3616871087626 L 156 356.3616871087626 L 157 357.2277149574072 L 157 357.2277149574072 L 158 358.0831862669572 L 158 358.0831862669572 L 159 358.9277329441542 L 159 358.9277329441542 L 160 359.7609915964041 L 160 359.7609915964041 L 161 360.58260368813836 L 161 360.5826036881383 L 162 361.39221569508476 L 162 361.39221569508476 L 163 362.1894792563827 L 163 362.1894792563827 L 164 362.9740513244759 L 164 362.97405132447585 L 165 363.74559431271973 L 165 363.74559431271973 L 166 364.5037762406382 L 166 364.50377624063816 L 167 365.24827087676886 L 167 365.24827087676886 L 168 365.97875787903433 L 168 365.97875787903433 L 169 366.69492293257923 L 169 366.69492293257923 L 170 367.3964578850141 L 170 367.3964578850141 L 171 368.0830608790077 L 171 368.0830608790077 L 172 368.75443648217015 L 172 368.75443648217015 L 173 369.4102958141725 L 173 369.4102958141725 L 174 370.0503566710461 L 174 370.0503566710461 L 175 370.6743436466098 L 175 370.6743436466098 L 176 371.2819882509723 L 176 371.2819882509723 L 177 371.87302902605774 L 177 371.8730290260577 L 178 372.44721165810677 L 178 372.44721165810677 L 179 373.00428908710285 L 179 373.00428908710285 L 180 373.54402161307735 L 180 373.5440216130773 L 181 374.066176999248 L 181 374.066176999248 L 182 374.57053057194634 L 182 374.5705305719463 L 183 375.05686531729003 L 183 375.05686531729003 L 184 375.52497197456046 L 184 375.52497197456046 L 185 375.9746491262432 L 185 375.9746491262432 L 186 376.40570328469454 L 186 376.40570328469454 L 187 376.8179489753953 L 187 376.81794897539527 L 187.99999999999997 377.2112088167573 L 187.99999999999997 377.2112088167572 L 189 377.5853135964471 L 189 377.58531359644707 L 190 377.94010234419517 L 190 377.94010234419517 L 191 378.2754224010581 L 191 378.27542240105805 L 192 378.59112948510494 L 192 378.59112948510494 L 192.99999999999997 378.88708775349926 L 192.99999999999997 378.88708775349926 L 194 379.1631698609494 L 194 379.1631698609494 L 195 379.41925701450293 L 195 379.41925701450293 L 196 379.6552390246612 L 196 379.65523902466117 L 197 379.87101435279146 L 197 379.87101435279146 L 197.99999999999997 380.0664901548174 L 197.99999999999997 380.0664901548174 L 199 380.2415823211679 L 199 380.24158232116787 L 200 380.39621551296796 L 200 380.39621551296796 L 201 380.5303231944556 L 201 380.5303231944556 L 202 380.643847661611 L 202 380.643847661611 L 202.99999999999997 380.73674006698525 L 202.99999999999997 380.73674006698525 L 204 380.80896044071875 L 204 380.80896044071875 L 205 380.8604777077393 L 205 380.8604777077392 L 206 380.8912697011331 L 206 380.8912697011331 L 207 380.9013256087997 L 207 380.90132317168315 L 207.99999999999997 380.8906337935695 L 207.99999999999997 380.8906337935695 L 209 380.85920616623116 L 209 380.85920616623116 L 210 380.8070538123866 L 210 380.8070538123866 L 211 380.7341991722155 L 211 380.7341991722155 L 212 380.64067359370296 L 212 380.64067359370296 L 212.99999999999997 380.5265173191512 L 212.99999999999997 380.5265173191512 L 214 380.3917794678639 L 214 380.3917794678639 L 215 380.2365180150112 L 215 380.2365180150112 L 216 380.06079976668406 L 216 380.06079976668406 L 217 379.8647003311487 L 217 379.8647003311487 L 217.99999999999997 379.6483040863141 L 217.99999999999997 379.6483040863141 L 219 379.4117041434254 L 219 379.4117041434254 L 220 379.1550023070002 L 220 379.1550023070002 L 221 378.87830903102366 L 221 378.87830903102366 L 222 378.5817433714226 L 222 378.5817433714226 L 222.99999999999997 378.2654329348376 L 222.99999999999997 378.2654329348376 L 224 377.9295138237165 L 224 377.9295138237165 L 225 377.574130577752 L 225 377.574130577752 L 226 377.1994361116889 L 226 377.1994361116889 L 227 376.80559164952786 L 227 376.80559164952786 L 227.99999999999997 376.39276665515354 L 227.99999999999997 376.39276665515354 L 229 375.96113875941774 L 229 375.96113875941774 L 230 375.51089368370793 L 230 375.51089368370793 L 231 375.0422251600349 L 231 375.04222516003495 L 232 374.55533484767363 L 232 374.55533484767363 L 232.99999999999997 374.050432246393 L 232.99999999999997 374.050432246393 L 234 373.5277346063117 L 234 373.5277346063117 L 235 372.9874668344202 L 235 372.9874668344202 L 236 372.42986139780686 L 236 372.42986139780686 L 237 371.8551582236321 L 237 371.8551582236321 L 237.99999999999997 371.2636045958921 L 237.99999999999997 371.2636045958921 L 239 370.655455049017 L 239 370.655455049017 L 240 370.03097125834984 L 240 370.03097125834984 L 241 369.3904219275523 L 241 369.3904219275523 L 242 368.7340826729867 L 242 368.7340826729867 L 242.99999999999997 368.0622359051233 L 242.99999999999997 368.0622359051233 L 244 367.37517070702444 L 244 367.37517070702444 L 245 366.6731827099576 L 245 366.67318270995764 L 246 365.95657396619083 L 246 365.95657396619083 L 247 365.225652819025 L 247 365.2256528190251 L 247.99999999999997 364.4807337701201 L 247.99999999999997 364.4807337701201 L 249 363.72213734417016 L 249 363.72213734417016 L 250 362.95018995098843 L 250 362.95018995098843 L 251 362.16522374505877 L 251 362.16522374505877 L 252 361.367576482616 L 252 361.367576482616 L 252.99999999999997 360.5575913763157 L 252.99999999999997 360.55759137631577 L 254 359.73561694755625 L 254 359.73561694755625 L 255 358.90200687651645 L 255 358.9020068765165 L 256 358.057119849974 L 256 358.057119849974 L 256.99999999999994 357.2013194069689 L 256.99999999999994 357.20131940696893 L 258 356.33497378237945 L 258 356.33497378237945 L 259 355.45845574847783 L 259 355.45845574847783 L 260 354.5721424545333 L 260 354.5721424545334 L 261 353.6764152645317 L 261 353.6764152645317 L 261.99999999999994 352.7716595930817 L 261.99999999999994 352.7716595930817 L 263 351.8582647395782 L 263 351.8582647395782 L 264 350.9366237206942 L 264 350.9366237206942 L 265 350.00713310127276 L 265 350.00713310127276 L 266 349.07019282369316 L 266 349.07019282369316 L 266.99999999999994 348.1262060357826 L 266.99999999999994 348.1262060357827 L 268 347.1755789173496 L 268 347.17557891734964 L 269 346.21872050541225 L 269 346.21872050541225 L 270 345.2560425181975 L 270 345.2560425181975 L 271 344.28795917798624 L 271 344.28795917798624 L 271.99999999999994 343.31488703288153 L 271.99999999999994 343.31488703288153 L 273 342.33724477757545 L 273 342.33724477757545 L 274 341.3554530731928 L 274 341.3554530731928 L 275 340.3699343662886 L 275 340.3699343662886 L 276 339.381112707077 L 276 339.381112707077 L 276.99999999999994 338.38941356697075 L 276.99999999999994 338.38941356697075 L 278 337.3952636555084 L 278 337.3952636555084 L 279 336.3990907367497 L 279 336.3990907367497 L 280 335.4013234452164 L 280 335.4013234452164 L 281 334.40239110145893 L 281 334.40239110145893 L 281.99999999999994 333.40272352732785 L 281.99999999999994 333.40272352732785 L 283 332.40275086102946 L 283 332.40275086102946 L 284 331.40290337204567 L 284 331.40290337204567 L 285 330.4036112759969 L 285 330.4036112759969 L 286 329.40530454952835 L 286 329.40530454952835 L 287 328.4084127452992 L 287 328.4084127452992 L 288 327.4133648071541 L 288 327.4133648071541 L 289 326.4205888855567 L 289 326.4205888855567 L 290 325.43051215336465 L 290 325.43051215336465 L 291 324.44356062202496 L 291 324.44356062202496 L 292 323.4601589582693 L 292 323.4601589582693 L 293 322.48073030138784 L 293 322.48073030138784 L 294 321.5056960811607 L 294 321.5056960811607 L 295 320.535475836524 L 295 320.535475836524 L 296 319.57048703505063 L 296 319.57048703505063 L 297 318.6111448933216 L 297 318.6111448933216 L 298 317.6578621982662 L 298 317.6578621982662 L 299 316.7110491295472 L 299 316.7110491295472 L 300 315.7711130830689 L 300 315.7711130830689 L 301 314.83845849568166 L 301 314.83845849568166 L 302 313.9134866711607 L 302 313.9134866711607 L 303 312.9965956075323 L 303 312.9965956075323 L 304 312.08817982582315 L 304 312.08817982582315 L 305 311.1886302003049 L 305 311.1886302003049 L 306 310.2983337903086 L 306 310.2983337903086 L 307 309.41767367368027 L 307 309.41767367368027 L 308 308.54702878194945 L 308 308.5470287819495 L 309 307.68677373728246 L 309 307.68677373728246 L 310 306.8372786912892 L 310 306.8372786912892 L 311 305.99890916575396 L 311 305.99890916575396 L 312 305.1720258953583 L 312 305.1720258953583 L 313 304.3569846724637 L 313 304.3569846724637 L 314 303.55413619402054 L 314 303.55413619402054 L 315 302.76382591067016 L 315 302.7638259106702 L 316 301.9863938781037 L 316 301.9863938781037 L 317 301.22217461074234 L 317 301.22217461074234 L 318 300.47149693780256 L 318 300.47149693780256 L 319 299.7346838618064 L 319 299.7346838618064 L 320 299.0120524196002 L 320 299.0120524196002 L 321 298.30391354593905 L 321 298.30391354593905 L 322 297.6105719396978 L 322 297.6105719396978 L 323 296.9323259327646 L 323 296.9323259327646 L 324 296.2694673616744 L 324 296.2694673616744 L 325 295.6222814420371 L 325 295.6222814420371 L 326 294.9910466458146 L 326 294.9910466458146 L 327 294.37603458149977 L 327 294.37603458149977 L 328 293.77750987724806 L 328 293.77750987724806 L 329 293.1957300670132 L 329 293.1957300670132 L 330 292.63094547973503 L 330 292.63094547973503 L 331 292.08339913162786 L 331 292.08339913162786 L 332 291.55332662161493 L 332 291.553326621615 L 333 291.0409560299548 L 333 291.0409560299548 L 334 290.5465078201025 L 334 290.5465078201025 L 335 290.07019474384833 L 335 290.07019474384833 L 336 289.61222174977485 L 336 289.61222174977485 L 337 289.17278589507123 L 337 289.17278589507123 L 338 288.7520762607432 L 338 288.75207626074325 L 339 288.35027387025525 L 339 288.35027387025525 L 340 287.9675516116393 L 340 287.9675516116393 L 341 287.6040741631046 L 341 287.6040741631046 L 342 287.2599979221795 L 342 287.2599979221795 L 343 286.93547093841653 L 343 286.9354709384166 L 344 286.63063284968985 L 344 286.63063284968985 L 345 286.34561482211103 L 345 286.3456148221111 L 346 286.08053949359135 L 346 286.08053949359135 L 347 285.83552092107266 L 347 285.83552092107266 L 348 285.6106645314508 L 348 285.6106645314508 L 349 285.4060670762127 L 349 285.40606707621276 L 350 285.2218165898057 L 350 285.2218165898057 L 351 285.0579923517581 L 351 285.0579923517581 L 352 284.9146648525667 L 352 284.9146648525667 L 353 284.79189576336597 L 353 284.791895763366 L 354 284.6897379093923 L 354 284.6897379093923 L 355 284.60823524725396 L 355 284.60823524725396 L 356 284.5474228460178 L 356 284.5474228460178 L 357 284.5073268721194 L 357 284.50732687211945 L 358 284.4879645781043 L 358 284.4893442952043 L 359 284.48601562699815 L 359 284.4893442952043 L 360 284.5114654297532 L 360 284.5114654297532 L 361 284.5543184634416 L 361 284.5543184634416 L 362 284.61788495741285 L 362 284.61788495741285 L 363 284.70213756019706 L 363 284.70213756019706 L 364 284.8070400194795 L 364 284.8070400194795 L 365 284.93254719769953 L 365 284.93254719769953 L 366 285.07860509147264 L 366 285.07860509147264 L 367 285.24515085482665 L 367 285.24515085482665 L 368 285.4321128262435 L 368 285.4321128262435 L 369 285.63941055949374 L 369 285.63941055949374 L 370 285.866954858251 L 370 285.866954858251 L 371 286.11464781447165 L 371 286.11464781447165 L 372 286.3823828505225 L 372 286.3823828505225 L 373 286.67004476503956 L 373 286.67004476503956 L 374 286.97750978249655 L 374 286.97750978249655 L 375 287.3046456064637 L 375 287.3046456064637 L 376 287.651311476532 L 376 287.65131147653193 L 377 288.01735822887986 L 377 288.01735822887986 L 378 288.4026283604558 L 378 288.40262836045576 L 379 288.80695609674865 L 379 288.80695609674865 L 380 289.23016746311754 L 380 289.23016746311754 L 381 289.6720803596496 L 381 289.67208035964956 L 382 290.1325046395144 L 382 290.1325046395144 L 383 290.61124219078056 L 383 290.61124219078056 L 384 291.1080870216594 L 384 291.1080870216594 L 385 291.6228253491395 L 385 291.6228253491395 L 386 292.1552356909735 L 386 292.1552356909735 L 387 292.7050889609777 L 387 292.70508896097766 L 388 293.2721485676036 L 388 293.2721485676036 L 389 293.8561705157389 L 389 293.8561705157389 L 390 294.4569035116936 L 390 294.4569035116936 L 391 295.0740890713277 L 391 295.0740890713277 L 392 295.7074616312713 L 392 295.7074616312713 L 393 296.3567486631921 L 393 296.3567486631921 L 394 297.02167079105885 L 394 297.02167079105885 L 395 297.7019419113519 L 395 297.7019419113519 L 396 298.39726931616804 L 396 298.39726931616804 L 397 299.1073538191672 L 397 299.1073538191672 L 398 299.83188988430686 L 398 299.8318898843068 L 399 300.57056575730815 L 399 300.57056575730815 L 400 301.32306359979833 L 400 301.32306359979833 L 401 302.0890596260704 L 401 302.0890596260704 L 402 302.868224242402 L 402 302.868224242402 L 403 303.66022218887355 L 403 303.66022218887355 L 404 304.4647126836241 L 404 304.46471268362404 L 405 305.2813495694836 L 405 305.2813495694836 L 406 306.1097814629177 L 406 306.1097814629177 L 407 306.9496519052216 L 407 306.9496519052216 L 408 307.8005995158974 L 408 307.8005995158974 L 409 308.66225814814936 L 409 308.66225814814936 L 410 309.5342570464302 L 410 309.5342570464302 L 411 310.41622100597004 L 411 310.41622100597004 L 412 311.30777053422014 L 412 311.30777053422014 L 413 312.20852201414124 L 413 312.2085220141412 L 414 313.11808786926684 L 414 313.11808786926684 L 415 314.03607673047026 L 415 314.03607673047026 L 416 314.96209360436325 L 416 314.96209360436325 L 417 315.8957400432542 L 417 315.8957400432542 L 418 316.8366143165929 L 418 316.8366143165929 L 419 317.78431158382745 L 419 317.78431158382745 L 420 318.7384240685998 L 420 318.7384240685998 L 421 319.69854123420384 L 421 319.69854123420384 L 422 320.6642499602323 L 422 320.6642499602323 L 423 321.63513472033407 L 423 321.63513472033407 L 424 322.61077776100774 L 424 322.61077776100774 L 425 323.5907592813531 L 425 323.5907592813531 L 426 324.5746576137034 L 426 324.5746576137034 L 427 325.56204940506115 L 427 325.56204940506115 L 428 326.5525097992591 L 428 326.5525097992591 L 429 327.5456126197676 L 429 327.5456126197676 L 430 328.5409305530707 L 430 328.5409305530707 L 431 329.5380353325308 L 431 329.5380353325308 L 432 330.53649792266395 L 432 330.53649792266395 L 433 331.53588870374585 L 433 331.53588870374585 L 434 332.53577765666887 L 434 332.53577765666887 L 435 333.5357345479716 L 435 333.5357345479716 L 436 334.53532911495967 L 436 334.53532911495967 L 437 335.53413125084046 L 437 335.53413125084046 L 438 336.5317111897894 L 438 336.5317111897894 L 439 337.5276396918703 L 439 337.5276396918703 L 440 338.5214882277294 L 440 338.5214882277294 L 441 339.5128291629833 L 441 339.5128291629833 L 442 340.5012359422221 L 442 340.5012359422221 L 443 341.4862832725482 L 443 341.4862832725482 L 444 342.4675473065719 L 444 342.4675473065719 L 445 343.4446058247849 L 445 343.4446058247849 L 446 344.4170384172336 L 446 344.4170384172336 L 447 345.38442666441324 L 447 345.38442666441324 L 448 346.3463543173064 L 448 346.3463543173064 L 449 347.3024074764869 L 449 347.3024074764869 L 450 348.252174770213 L 450 348.252174770213 L 451 349.19524753143304 L 451 349.19524753143304 L 452 350.131219973627 L 452 350.13121997362697 L 453 351.05968936540904 L 453 351.05968936540904 L 454 351.9802562038152 L 454 351.9802562038152 L 455 352.89252438620196 L 455 352.8925243862019 L 456 353.7961013806818 L 456 353.79610138068176 L 457 354.69059839502245 L 457 354.6905983950224 L 458 355.5756305439366 L 458 355.5756305439366 L 459 356.4508170146912 L 459 356.4508170146912 L 460 357.3157812309637 L 460 357.3157812309637 L 461 358.170151014876 L 461 358.17015101487596 L 462 359.01355874713545 L 462 359.01355874713545 L 463 359.8456415252146 L 463 359.8456415252146 L 464 360.6660413195015 L 464 360.6660413195015 L 465 361.4744051273529 L 465 361.4744051273529 L 466 362.27038512498467 L 466 362.27038512498467 L 467 363.0536388171341 L 467 363.0536388171341 L 468 363.8238291844288 L 468 363.82382918442875 L 469 364.5806248284003 L 469 364.5806248284003 L 470 365.3237001140781 L 470 365.3237001140781 L 471 366.0527353101048 L 471 366.05273531010477 L 472 366.7674167263099 L 472 366.7674167263099 L 473 367.4674368486853 L 473 367.4674368486853 L 474 368.15249447170265 L 474 368.1524944717026 L 475 368.8222948279163 L 475 368.8222948279163 L 476 369.47654971479653 L 476 369.47654971479653 L 477 370.11497761873727 L 477 370.11497761873727 L 478 370.73730383618647 L 478 370.73730383618647 L 478.99999999999994 371.3432605918457 L 478.99999999999994 371.3432605918457 L 480 371.932587153889 L 480 371.932587153889 L 481 372.5050299461506 L 481 372.5050299461506 L 482 373.0603426572344 L 482 373.0603426572344 L 483 373.59828634649676 L 483 373.59828634649676 L 483.99999999999994 374.11862954685836 L 483.99999999999994 374.11862954685836 L 485 374.6211483644002 L 485 374.6211483644002 L 486 375.1056265747008 L 486 375.1056265747008 L 487 375.5718557158737 L 487 375.5718557158737 L 488 376.0196351782644 L 488 376.01963517826437 L 488.99999999999994 376.4487722907693 L 488.99999999999994 376.4487722907692 L 490 376.8590824037381 L 490 376.8590824037381 L 491 377.2503889684255 L 491 377.2503889684255 L 492 377.6225236129564 L 492 377.6225236129564 L 493 377.97532621477336 L 493 377.97532621477336 L 493.99999999999994 378.3086449695344 L 493.99999999999994 378.3086449695344 L 495 378.6223364564313 L 495 378.6223364564313 L 496 378.9162656999012 L 496 378.9162656999012 L 497 379.1903062277039 L 497 379.1903062277039 L 497.99999999999994 379.4443401253404 L 497.99999999999994 379.4443401253404 L 498.99999999999994 379.67825808678947 L 498.99999999999994 379.67825808678947 L 500 379.89195946153995 L 500 379.89195946153995 L 501 380.0853522978986 L 501 380.0853522978986 L 502 380.25835338255547 L 502 380.25835338255547 L 503 380.4108882763888 L 503 380.4108882763888 L 503.99999999999994 380.5428913464948 L 503.99999999999994 380.5428913464948 L 505 380.6543057944284 L 505 380.6543057944284 L 506 380.74508368064255 L 506 380.74508368064255 L 507 380.81518594511545 L 507 380.81518594511545 L 507.99999999999994 380.8645824241576 L 507.99999999999994 380.8645824241576 L 508.99999999999994 380.8932518633907 L 508.99999999999994 380.8932518633907 L 510 380.9013256087997 L 510 380.90118192689266 L 511 380.88836920250594 L 511 380.88836920250594 L 512 380.8548192033055 L 512 380.8548192033055 L 513 380.8005463652268 L 513 380.8005463652268 L 514 380.725574040854 L 514 380.725574040854 L 515 380.629934489372 L 515 380.62993448937203 L 516 380.5136688626859 L 516 380.5136688626859 L 517 380.3768271877141 L 517 380.3768271877141 L 518 380.21946834486266 L 518 380.21946834486266 L 519 380.04166004268995 L 519 380.04166004268995 L 520 379.8434787887733 L 520 379.8434787887733 L 521 379.625009856789 L 521 379.625009856789 L 522 379.3863472498207 L 522 379.3863472498207 L 523 379.1275936599115 L 523 379.12759365991155 L 524 378.8488604238778 L 524 378.8488604238778 L 525 378.5502674754028 L 525 378.5502674754028 L 526 378.2319432934315 L 526 378.2319432934315 L 527 377.8940248468887 L 527 377.8940248468887 L 528 377.5366575357436 L 528 377.5366575357436 L 529 377.15999512844695 L 529 377.15999512844695 L 530 376.7641996957676 L 530 376.7641996957676 L 531 376.34944154105636 L 531 376.3494415410564 L 532 375.9158991269676 L 532 375.9158991269676 L 533 375.46375899867 L 533 375.46375899867 L 534 374.9932157035802 L 534 374.9932157035802 L 535 374.50447170765193 L 535 374.50447170765193 L 536 373.99773730825933 L 536 373.99773730825933 L 537 373.4732305437097 L 537 373.4732305437097 L 538 372.93117709942555 L 538 372.93117709942555 L 539 372.37181021083677 L 539 372.37181021083677 L 540 371.7953705630234 L 540 371.7953705630234 L 541 371.20210618715373 L 541 371.20210618715373 L 542 370.59227235376073 L 542 370.59227235376073 L 543 369.96613146290434 L 543 369.96613146290434 L 544 369.32395293126535 L 544 369.32395293126535 L 545 368.6660130762206 L 545 368.6660130762206 L 546 367.99259499694875 L 546 367.9925949969488 L 547 367.30398845261806 L 547 367.30398845261806 L 548 366.60048973770824 L 548 366.6004897377083 L 549 365.8824015545209 L 549 365.8824015545209 L 550 365.1500328829321 L 550 365.1500328829322 L 551 364.4036988474442 L 551 364.4036988474442 L 552 363.64372058159364 L 552 363.6437205815937 L 553 362.8704250897734 L 553 362.87042508977345 L 554 362.0841451065288 L 554 362.0841451065288 L 555 361.2852189533885 L 555 361.2852189533885 L 556 360.47399039329065 L 556 360.47399039329065 L 557 359.6508084826686 L 557 359.6508084826686 L 558 358.8160274212579 L 558 358.8160274212579 L 559 357.9700063996914 L 559 357.9700063996914 L 560 357.11310944494585 L 560 357.11310944494585 L 561 356.2457052637081 L 561 356.2457052637081 L 562 355.3681670837274 L 562 355.3681670837274 L 563 354.4808724932227 L 563 354.4808724932227 L 564 353.58420327841327 L 564 353.58420327841327 L 565 352.67854525924344 L 565 352.6785452592435 L 566 351.76428812337144 L 566 351.76428812337144 L 567 350.8418252584942 L 567 350.8418252584942 L 568 349.91155358307975 L 568 349.91155358307975 L 569 348.9738733755809 L 569 348.9738733755809 L 570 348.029188102203 L 570 348.029188102203 L 571 347.0779042432997 L 571 347.0779042432997 L 572 346.1204311184722 L 572 346.12043111847225 L 573 345.15718071044694 L 573 345.15718071044694 L 574 344.1885674878067 L 574 344.1885674878067 L 575 343.2150082266529 L 575 343.2150082266529 L 576 342.23692183127474 L 576 342.23692183127474 L 577 341.254729153902 L 577 341.254729153902 L 578 340.2688528136209 L 578 340.2688528136209 L 579 339.27971701452856 L 579 339.27971701452856 L 580 338.2877473632061 L 580 338.2877473632061 L 581 337.29337068558823 L 581 337.29337068558823 L 582 336.29701484330764 L 582 336.29701484330764 L 583 335.2991085495948 L 583 335.2991085495948 L 584 334.30008118481015 L 584 334.30008118481015 L 585 333.3003626116899 L 585 333.3003626116899 L 586 332.3003829903845 L 586 332.3003829903845 L 587 331.30057259336826 L 587 331.30057259336826 L 588 330.3013616203017 L 588 330.3013616203017 L 589 329.30318001292426 L 589 329.30318001292426 L 590 328.3064572700588 L 590 328.3064572700588 L 591 327.311622262806 L 591 327.311622262806 L 592 326.31910305000935 L 592 326.31910305000935 L 593 325.3293266940696 L 593 325.3293266940696 L 594 324.34271907718727 L 594 324.3427190771873 L 595 323.3597047181143 L 595 323.3597047181143 L 596 322.38070658949096 L 596 322.38070658949096 L 597 321.4061459358489 L 597 321.4061459358489 L 598 320.43644209235754 L 598 320.43644209235754 L 599 319.4720123043921 L 599 319.4720123043921 L 600 318.5132715480005 L 600 318.5132715480005 L 601 317.56063235134707 L 601 317.5606323513471 L 602 316.61450461720966 L 602 316.61450461720966 L 603 315.6752954466056 L 603 315.6752954466056 L 604 314.74340896362435 L 604 314.7434089636244 L 605 313.81924614154013 L 605 313.81924614154013 L 606 312.9032046302808 L 606 312.90320463028087 L 607 311.99567858532646 L 607 311.99567858532646 L 608 311.0970584981118 L 608 311.0970584981118 L 609 310.2077310280049 L 609 310.2077310280049 L 610 309.32807883593506 L 610 309.3280788359351 L 611 308.45848041974097 L 611 308.458480419741 L 612 307.59930995131003 L 612 307.59930995131003 L 613 306.7509371155794 L 613 306.7509371155794 L 614 305.9137269514673 L 614 305.9137269514673 L 615 305.08803969480385 L 615 305.08803969480385 L 616 304.2742306233282 L 616 304.2742306233282 L 617 303.47264990381916 L 617 303.47264990381916 L 618 302.68364244142515 L 618 302.68364244142515 L 619 301.90754773125775 L 619 301.9075477312578 L 620 301.1446997123137 L 620 301.1446997123137 L 621 300.39542662378665 L 621 300.39542662378665 L 622 299.66005086383257 L 622 299.66005086383257 L 623 298.9388888508476 L 623 298.9388888508476 L 624 298.23225088731897 L 624 298.23225088731897 L 625 297.5404410263081 L 625 297.54044102630814 L 626 296.86375694062184 L 626 296.86375694062184 L 627 296.20248979472973 L 627 296.2024897947298 L 628 295.5569241194813 L 628 295.5569241194813 L 629 294.9273376896777 L 629 294.9273376896777 L 630 294.31400140455054 L 630 294.3140014045506 L 631 293.717179171199 L 631 293.717179171199 L 632 293.1371277910355 L 632 293.1371277910355 L 633 292.5740968492889 L 633 292.5740968492889 L 634 292.0283286076126 L 634 292.0283286076126 L 635 291.50005789984414 L 635 291.50005789984414 L 636 290.9895120309602 L 636 290.98951203096027 L 637 290.496910679272 L 637 290.496910679272 L 638 290.0224658019013 L 638 290.0224658019013 L 639 289.5663815435798 L 639 289.56638154357984 L 640 289.128854148809 L 640 289.128854148809 L 641 288.7100718774202 L 641 288.71007187742026 L 642 288.31021492356973 L 642 288.3102149235698 L 643 287.9294553382047 L 643 287.9294553382047 L 644 287.5679569550328 L 644 287.5679569550328 L 645 287.2258753200276 L 645 287.2258753200276 L 646 286.90335762450036 L 646 286.90335762450036 L 647 286.60054264176586 L 647 286.6005426417659 L 648 286.3175606674314 L 648 286.3175606674314 L 649 286.0545334633326 L 649 286.0545334633326 L 650 285.81157420514177 L 650 285.81157420514177 L 651 285.5887874336705 L 651 285.5887874336705 L 652 285.3862690098879 L 652 285.3862690098879 L 653 285.20410607367285 L 653 285.20410607367285 L 654 285.0423770063202 L 654 285.0423770063202 L 655 284.9011513968139 L 655 284.90115139681393 L 656 284.78049001188486 L 656 284.78049001188486 L 657 284.68044476986375 L 657 284.68044476986375 L 658 284.6010587183417 L 658 284.6010587183417 L 659 284.54236601564753 L 659 284.54236601564753 L 660 284.50439191615044 L 660 284.50439191615044 L 661 284.48715275939304 L 661 284.4906559630613 L 662 284.48601562699815 L 662 284.4906559630613 L 663 284.5149000197922 L 663 284.51490001979215 L 664 284.55987449782293 L 664 284.55987449782293 L 665 284.62556004547923 L 665 284.62556004547923 L 666 284.711928399502 L 666 284.711928399502 L 667 284.8189423972085 L 667 284.8189423972085 L 668 284.9465559924828 L 668 284.9465559924828 L 669 285.09471427558844 L 669 285.09471427558844 L 670 285.2633534967952 L 670 285.2633534967952 L 671 285.4524010938095 L 671 285.45240109380944 L 671.9999999999999 285.6617757229961 L 671.9999999999999 285.6617757229961 L 673 285.89138729437946 L 673 285.89138729437946 L 674 286.14113701040714 L 674 286.1411370104071 L 675 286.41091740846093 L 675 286.41091740846093 L 676 286.7006124070958 L 676 286.7006124070958 L 677 287.0100973559876 L 677 287.0100973559876 L 678 287.33923908956797 L 678 287.3392390895679 L 679 287.6878959843225 L 679 287.6878959843225 L 680 288.0559180197292 L 680 288.0559180197292 L 680.9999999999999 288.44314684280914 L 680.9999999999999 288.44314684280914 L 682 288.8494158362632 L 682 288.8494158362632 L 682.9999999999999 289.2745501901636 L 682.9999999999999 289.2745501901636 L 684 289.71836697717237 L 684 289.71836697717237 L 685 290.18067523125046 L 685 290.18067523125046 L 686 290.6612760298279 L 686 290.66127602982783 L 687 291.1599625793955 L 687 291.1599625793955 L 688 291.67652030448494 L 688 291.6765203044849 L 689 292.2107269399961 L 689 292.2107269399961 L 690 292.7623526268339 L 690 292.7623526268339 L 691 293.3311600108121 L 691 293.331160010812 L 691.9999999999999 293.9169043447824 L 691.9999999999999 293.9169043447824 L 693 294.5193335939449 L 693 294.51933359394485 L 694 295.1381885442932 L 694 295.1381885442932 L 695 295.77320291415026 L 695 295.7732029141502 L 696 296.4241034687434 L 696 296.4241034687434 L 697 297.0906101377732 L 697 297.0906101377732 L 698 297.77243613592145 L 698 297.77243613592145 L 699 298.46928808625023 L 699 298.46928808625023 L 700 299.18086614643613 L 700 299.1808661464361 L 700.9999999999999 299.90686413778684 L 700.9999999999999 299.9068641377868 L 702 300.6469696769844 L 702 300.6469696769844 L 702.9999999999999 301.4008643104972 L 702.9999999999999 301.4008643104972 L 704 302.1682236516055 L 704 302.16822365160544 L 705 302.9487175199779 L 705 302.94871751997783 L 706 303.7420100837427 L 706 303.7420100837427 L 707 304.5477600039895 L 707 304.5477600039895 L 708 305.365620581641 L 708 305.365620581641 L 709 306.1952399066313 L 709 306.1952399066313 L 709.9999999999999 307.03626100932587 L 709.9999999999999 307.03626100932587 L 711 307.88832201411947 L 711 307.88832201411947 L 711.9999999999999 308.7510562951436 L 711.9999999999999 308.7510562951436 L 713 309.6240926340197 L 713 309.6240926340197 L 714 310.50705537958635 L 714 310.50705537958635 L 715 311.39956460953607 L 715 311.39956460953607 L 716 312.301236293888 L 716 312.301236293888 L 717 313.21168246022893 L 717 313.21168246022893 L 718 314.1305113606507 L 718 314.1305113606507 L 719 315.057327640312 L 719 315.057327640312 L 720 315.9917325075519 L 720 315.9917325075519 L 720.9999999999999 316.9333239054826 L 720.9999999999999 316.9333239054826 L 722 317.8816966849872 L 722 317.8816966849872 L 722.9999999999999 318.83644277904705 L 722.9999999999999 318.83644277904705 L 724 319.79715137832625 L 724 319.79715137832625 L 725 320.7634091079342 L 725 320.7634091079342 L 726 321.7348002052943 L 726 321.7348002052943 L 727 322.71090669903754 L 727 322.71090669903754 L 728 323.6913085888485 L 728 323.6913085888485 L 729 324.6755840261834 L 729 324.6755840261834 L 729.9999999999999 325.6633094957835 L 729.9999999999999 325.6633094957835 L 731 326.6540599979062 L 731 326.6540599979062 L 731.9999999999999 327.64740923119365 L 731.9999999999999 327.64740923119365 L 733 328.6429297761033 L 733 328.6429297761033 L 734 329.6401932788174 L 734 329.6401932788174 L 735 330.63877063555645 L 735 330.63877063555645 L 736 331.6382321772142 L 736 331.6382321772142 L 737 332.63814785423614 L 737 332.63814785423614 L 738 333.63808742166185 L 738 333.63808742166185 L 739 334.6376206242513 L 739 334.6376206242513 L 740 335.6363173816157 L 740 335.6363173816157 L 740.9999999999999 336.63374797327276 L 740.9999999999999 336.63374797327276 L 742 337.62948322354794 L 742 337.62948322354794 L 742.9999999999999 338.62309468623965 L 742.9999999999999 338.62309468623965 L 744 339.61415482897314 L 744 339.61415482897314 L 745 340.6022372171578 L 745 340.6022372171578 L 746 341.5869166974758 L 746 341.5869166974758 L 747 342.56776958081616 L 747 342.56776958081616 L 748 343.54437382458116 L 748 343.54437382458116 L 749 344.5163092142828 L 749 344.5163092142828 L 749.9999999999999 345.4831575443534 L 749.9999999999999 345.4831575443534 L 751 346.44450279809195 L 751 346.44450279809195 L 751.9999999999999 347.39993132666734 L 751.9999999999999 347.39993132666734 L 753 348.34903202710507 L 753 348.34903202710507 L 754 349.2913965191756 L 754 349.2913965191756 L 755 350.2266193211142 L 755 350.2266193211142 L 756 351.1542980240911 L 756 351.1542980240911 L 757 352.0740334653608 L 757 352.0740334653608 L 758 352.9854299000145 L 758 352.9854299000145 L 759 353.8880951712613 L 759 353.8880951712613 L 760 354.7816408791663 L 760 354.7816408791663 L 760.9999999999999 355.6656825477715 L 760.9999999999999 355.6656825477715 L 762 356.5398397905292 L 762 356.5398397905292 L 763 357.40373647397394 L 763 357.40373647397394 L 764 358.2570008795674 L 764 358.2570008795674 L 765 359.0992658636401 L 765 359.09926586364 L 766 359.93016901536794 L 766 359.93016901536794 L 767 360.74935281271 L 767 360.74935281271 L 768 361.5564647762437 L 768 361.5564647762437 L 769 362.35115762083007 L 769 362.35115762083 L 769.9999999999999 363.133089405044 L 769.9999999999999 363.133089405044 L 771 363.90192367830576 L 771 363.90192367830576 L 771.9999999999999 364.65732962564823 L 771.9999999999999 364.65732962564823 L 773 365.3989822100617 L 773 365.3989822100617 L 774 366.12656231235 L 774 366.12656231234996 L 775 366.83975686844246 L 775 366.83975686844246 L 776 367.538259004099 L 776 367.538259004099 L 777 368.2217681669524 L 777 368.2217681669524 L 778 368.8899902558305 L 778 368.88999025583047 L 778.9999999999999 369.54263774730214 L 778.9999999999999 369.54263774730214 L 780 370.17942981939365 L 780 370.17942981939365 L 780.9999999999999 370.80009247242054 L 780.9999999999999 370.80009247242054 L 782 371.4043586468851 L 782 371.4043586468851 L 783 371.9919683383865 L 783 371.9919683383865 L 784 372.56266870949645 L 784 372.56266870949645 L 785 373.1162141985498 L 785 373.1162141985498 L 786 373.6523666253055 L 786 373.6523666253055 L 787 374.1708952934309 L 787 374.1708952934308 L 788 374.67157708976606 L 788 374.67157708976606 L 789 375.1541965803254 L 789 375.15419658032533 L 789.9999999999999 375.6185461029945 L 789.9999999999999 375.6185461029945 L 791 376.06442585688376 L 791 376.06442585688376 L 791.9999999999999 376.4916439882982 L 791.9999999999999 376.4916439882982 L 793 376.90001667328943 L 793 376.90001667328943 L 794 377.28936819675073 L 794 377.28936819675073 L 795 377.6595310280248 L 795 377.6595310280248 L 796 378.0103458929883 L 796 378.0103458929883 L 797 378.3416618425852 L 797 378.3416618425852 L 798 378.65333631777685 L 798 378.65333631777685 L 798.9999999999998 378.94523521088263 L 798.9999999999998 378.9452352108826 L 800 379.217232923284 L 800 379.217232923284 L 801 379.46921241946706 L 801 379.46921241946706 L 802 379.70106527738113 L 802 379.70106527738113 L 803 379.9126917350903 L 803 379.9126917350902 L 804 380.10400073369914 L 804 380.10400073369914 L 805 380.2749099565341 L 805 380.2749099565341 L 806 380.42534586456225 L 806 380.42534586456225 L 807 380.55524372803416 L 807 380.5552437280341 L 808 380.66454765433554 L 808 380.66454765433554 L 809 380.7532106120372 L 809 380.7532106120372 L 810 380.82119445113153 L 810 380.82119445113153 L 811 380.8684699194477 L 811 380.86846991944765 L 812 380.89501667523837 L 812 380.89501667523837 L 813 380.9013256087997 L 813 380.9008232959326 L 814 380.88588728305024 L 814 380.8858872830503 L 815 380.8502150632777 L 815 380.8502150632777 L 816 380.7938219857018 L 816 380.79382198570187 L 817 380.7167323152063 L 817 380.7167323152063 L 818 380.61897922203025 L 818 380.6189792220303 L 818.9999999999998 380.5006047674962 L 818.9999999999998 380.5006047674962 L 820 380.36165988591154 L 820 380.3616598859116 L 821 380.2022043626527 L 821 380.2022043626527 L 822 380.0223068084403 L 822 380.0223068084403 L 823 379.8220446298177 L 823 379.82204462981775 L 824 379.60150399584404 L 824 379.60150399584404 L 825 379.3607798010174 L 825 379.3607798010174 L 826 379.09997562444346 L 826 379.09997562444346 L 827 378.81920368526767 L 827 378.81920368526767 L 827.9999999999998 378.51858479438897 L 827.9999999999998 378.51858479438897 L 829 378.19824830247734 L 829 378.1982483024774 L 830 377.8583320443168 L 830 377.85833204431685 L 831 377.49898227949734 L 831 377.49898227949734 L 832 377.1203536294825 L 832 377.1203536294825 L 833 376.7226090110784 L 833 376.7226090110785 L 834 376.30591956633396 L 834 376.30591956633396 L 835 375.87046458890126 L 835 375.87046458890126 L 836 375.41643144688936 L 836 375.41643144688936 L 837 374.9440155022429 L 837 374.94401550224296 L 838 374.4534200266819 L 838 374.4534200266819 L 838.9999999999998 373.9448561142373 L 838.9999999999998 373.9448561142374 L 840 373.4185425904215 L 840 373.4185425904215 L 841 372.8747059180718 L 841 372.87470591807187 L 842 372.3135800999075 L 842 372.31358009990754 L 843 371.7354065778432 L 843 371.73540657784326 L 844 371.14043412910064 L 844 371.14043412910064 L 845 370.5289187591645 L 845 370.5289187591645 L 846 369.90112359162845 L 846 369.9011235916285 L 847 369.25731875497746 L 847 369.25731875497746 L 847.9999999999998 368.59778126635695 L 847.9999999999998 368.59778126635695 L 849 367.9227949123772 L 849 367.92279491237724 L 850 367.23265012700585 L 850 367.23265012700585 L 851 366.5276438665987 L 851 366.52764386659874 L 852 365.8080794821261 L 852 365.8080794821261 L 853 365.07426658864574 L 853 365.07426658864574 L 854 364.32652093208145 L 854 364.32652093208145 L 855 363.56516425336395 L 855 363.56516425336395 L 856 362.7905241499912 L 856 362.79052414999126 L 857 362.0029339350699 L 857 362.0029339350699 L 858 361.20273249389663 L 858 361.20273249389663 L 858.9999999999998 360.39026413814224 L 858.9999999999998 360.39026413814224 L 860 359.5658784577006 L 860 359.5658784577006 L 861 358.7299301702672 L 861 358.7299301702672 L 862 357.88277896871006 L 862 357.88277896871006 L 863 357.02478936630143 L 863 357.02478936630143 L 864 356.1563305398737 L 864 356.1563305398737 L 865 355.2777761709704 L 865 355.2777761709704 L 865.9999999999998 354.3895042850574 L 865.9999999999998 354.3895042850574 L 867 353.4918970888657 L 867 353.4918970888657 L 867.9999999999998 352.58534080593574 L 867.9999999999998 352.58534080593574 L 869 351.67022551043146 L 869 351.67022551043146 L 870 350.7469449593001 L 870 350.7469449593001 L 871 349.81589642284445 L 871 349.81589642284445 L 872 348.87748051378645 L 872 348.87748051378645 L 873 347.93210101488955 L 873 347.93210101488955 L 874 346.98016470522003 L 874 346.98016470522003 L 874.9999999999998 346.0220811851163 L 874.9999999999998 346.0220811851163 L 876 345.0582626999461 L 876 345.0582626999461 L 876.9999999999998 344.0891239627257 L 876.9999999999998 344.0891239627257 L 878 343.11508197567514 L 878 343.1150819756752 L 879 342.1365558507918 L 879 342.1365558507918 L 880 341.15396662951264 L 880 341.15396662951264 L 881 340.1677371015495 L 881 340.1677371015495 L 882 339.17829162296925 L 882 339.17829162296925 L 883 338.18605593360263 L 883 338.18605593360263 L 884 337.19145697385505 L 884 337.19145697385505 L 885 336.19492270100363 L 885 336.19492270100363 L 885.9999999999998 335.1968819050538 L 885.9999999999998 335.1968819050538 L 887 334.1977640242395 L 887 334.1977640242395 L 887.9999999999998 333.197998960245 L 887.9999999999998 333.197998960245 L 889 332.1980168932243 L 889 332.1980168932243 L 890 331.1982480967045 L 890 331.1982480967045 L 891 330.19912275244576 L 891 330.19912275244576 L 892 329.20107076534356 L 892 329.20107076534356 L 893 328.20452157844704 L 893 328.20452157844704 L 894 327.20990398817946 L 894 327.20990398817946 L 894.9999999999998 326.21764595983376 L 894.9999999999998 326.21764595983376 L 896 325.2281744434275 L 896 325.2281744434275 L 896.9999999999998 324.24191518999515 L 896.9999999999998 324.24191518999515 L 898 323.25929256839373 L 898 323.25929256839373 L 899 322.28072938270674 L 899 322.28072938270674 L 900 321.3066466903177 L 900 321.3066466903177 L 901 320.33746362073856 L 901 320.33746362073856 L 902 319.373597195265 L 902 319.373597195265 L 903 318.4154621475409 L 903 318.4154621475409 L 904 317.46347074510527 L 904 317.4634707451053 L 905 316.51803261200246 L 905 316.51803261200246 L 905.9999999999998 315.5795545525274 L 905.9999999999998 315.5795545525274 L 907 314.6484403761858 L 907 314.6484403761858 L 907.9999999999998 313.7250907239433 L 907.9999999999998 313.7250907239433 L 909 312.80990289583565 L 909 312.80990289583565 L 910 311.9032706800194 L 910 311.9032706800194 L 911 311.005584183331 L 911 311.005584183331 L 912 310.1172296634324 L 912 310.1172296634324 L 913 309.2385893626104 L 913 309.2385893626104 L 914 308.3700413433061 L 914 308.3700413433061 L 914.9999999999998 307.51195932544067 L 914.9999999999998 307.5119593254407 L 916 306.66471252561126 L 916 306.66471252561126 L 916.9999999999998 305.8286654982243 L 916.9999999999998 305.8286654982243 L 918 305.0041779786337 L 918 305.0041779786337 L 919 304.1916047283545 L 919 304.1916047283545 L 920 303.39129538241457 L 920 303.39129538241457 L 921 302.6035942989144 L 921 302.6035942989144 L 922 301.828840410855 L 922 301.828840410855 L 923 301.06736708030263 L 923 301.06736708030263 L 923.9999999999998 300.3195019549484 L 923.9999999999998 300.3195019549484 L 925 299.5855668271279 L 925 299.5855668271279 L 925.9999999999998 298.86587749536045 L 925.9999999999998 298.86587749536045 L 927 298.16074362846604 L 927 298.1607436284661 L 927.9999999999998 297.47046863232174 L 927.9999999999998 297.47046863232174 L 929 296.7953495193106 L 929 296.7953495193106 L 930 296.135676780524 L 930 296.135676780524 L 931 295.49173426076777 L 931 295.49173426076777 L 932 294.8637990364299 L 932 294.8637990364299 L 933 294.2521412962591 L 933 294.25214129625914 L 934 293.6570242251083 L 934 293.65702422510833 L 934.9999999999998 293.07870389069046 L 934.9999999999998 293.07870389069046 L 936 292.5174291333979 L 936 292.5174291333979 L 936.9999999999998 291.973441459231 L 936.9999999999998 291.9734414592311 L 938 291.44697493588234 L 938 291.44697493588234 L 939 290.93825609202196 L 939 290.93825609202196 L 940 290.4475038198263 L 940 290.4475038198263 L 941 289.97492928079316 L 941 289.97492928079316 L 942 289.5207358148825 L 942 289.5207358148825 L 943 289.0851188530236 L 943 289.0851188530236 L 943.9999999999998 288.66826583302407 L 943.9999999999998 288.66826583302407 L 945 288.2703561189195 L 945 288.2703561189195 L 945.9999999999998 287.8915609237965 L 945.9999999999998 287.8915609237965 L 947 287.5320432361222 L 947 287.5320432361222 L 947.9999999999998 287.1919577496144 L 947.9999999999998 287.1919577496144 L 949 286.8714507966788 L 949 286.8714507966788 L 950 286.57066028544557 L 950 286.57066028544557 L 951 286.28971564042973 L 951 286.28971564042973 L 952 286.0287377468424 L 952 286.0287377468424 L 953 285.78783889857596" stroke-opacity="0.6980392156862745" stroke-linecap="round" stroke-linejoin="round" stroke-miterlimit="10" stroke-width="2.5"/><g transform="scale(19,19)"><g transform="translate(4.578947368421052,14.171052631578947)"><path fill="rgb(51,153,0)" stroke="none" paint-order="stroke fill markers" d=" M 0.367 -0.4 L 0.367 -0.4 L 0.307 -0.083 Q 0.298 -0.021 0.271 0.059000000000000004 Q 0.261 0.088 0.251 0.108 Q 0.216 0.182 0.164 0.2 Q 0.151 0.20500000000000002 0.138 0.20500000000000002 Q 0.088 0.20500000000000002 0.064 0.171 Q 0.053 0.156 0.053 0.136 Q 0.053 0.096 0.08700000000000001 0.081 Q 0.097 0.076 0.108 0.076 Q 0.137 0.076 0.14400000000000002 0.101 Q 0.145 0.106 0.145 0.111 Q 0.145 0.145 0.115 0.159 Q 0.10400000000000001 0.164 0.09 0.165 Q 0.109 0.183 0.138 0.183 Q 0.182 0.183 0.20700000000000002 0.085 Q 0.212 0.062 0.219 0.025 L 0.225 -0.005 L 0.3 -0.4 L 0.234 -0.4 Q 0.209 -0.4 0.20700000000000002 -0.40800000000000003 L 0.20600000000000002 -0.40800000000000003 L 0.20600000000000002 -0.41200000000000003 Q 0.20600000000000002 -0.429 0.223 -0.431 L 0.223 -0.431 L 0.23600000000000002 -0.431 L 0.305 -0.431 Q 0.329 -0.556 0.338 -0.588 Q 0.368 -0.6880000000000001 0.444 -0.7030000000000001 Q 0.455 -0.705 0.465 -0.705 Q 0.517 -0.705 0.541 -0.671 L 0.541 -0.671 Q 0.552 -0.656 0.552 -0.636 Q 0.552 -0.596 0.518 -0.581 Q 0.508 -0.5760000000000001 0.497 -0.5760000000000001 Q 0.468 -0.5760000000000001 0.461 -0.601 Q 0.46 -0.606 0.46 -0.611 Q 0.46 -0.642 0.488 -0.657 Q 0.499 -0.664 0.514 -0.665 Q 0.495 -0.683 0.465 -0.683 Q 0.434 -0.683 0.418 -0.649 Q 0.41100000000000003 -0.635 0.394 -0.545 L 0.373 -0.431 L 0.456 -0.431 Q 0.481 -0.431 0.483 -0.42 Q 0.483 -0.402 0.467 -0.4 L 0.466 -0.4 L 0.453 -0.4 L 0.367 -0.4 Z"/></g><g transform="translate(5.176947368421052,14.171052631578947)"><path fill="rgb(51,153,0)" stroke="none" paint-order="stroke fill markers" d=" M 0.331 0.24 L 0.331 0.24 Q 0.331 0.25 0.321 0.25 Q 0.309 0.25 0.268 0.209 Q 0.20600000000000002 0.147 0.165 0.062 Q 0.099 -0.074 0.099 -0.25 Q 0.099 -0.419 0.162 -0.555 Q 0.214 -0.666 0.294 -0.733 Q 0.315 -0.75 0.321 -0.75 Q 0.331 -0.75 0.331 -0.74 Q 0.331 -0.735 0.318 -0.723 Q 0.157 -0.559 0.157 -0.25 Q 0.157 0.058 0.314 0.218 Q 0.331 0.23500000000000001 0.331 0.24 Z"/></g><g transform="translate(5.565947368421052,14.171052631578947)"><path fill="rgb(51,153,0)" stroke="none" paint-order="stroke fill markers" d=" M 0.334 -0.302 L 0.3 -0.165 Q 0.28300000000000003 -0.097 0.28300000000000003 -0.077 Q 0.28300000000000003 -0.025 0.32 -0.014 Q 0.328 -0.011 0.338 -0.011 Q 0.388 -0.011 0.429 -0.061 Q 0.456 -0.093 0.47100000000000003 -0.14200000000000002 Q 0.47400000000000003 -0.153 0.484 -0.153 Q 0.496 -0.153 0.496 -0.14300000000000002 Q 0.496 -0.11800000000000001 0.465 -0.07100000000000001 Q 0.41100000000000003 0.011 0.336 0.011 Q 0.268 0.011 0.23700000000000002 -0.046 Q 0.231 -0.055 0.228 -0.065 Q 0.20400000000000001 -0.017 0.162 0.002 Q 0.14300000000000002 0.011 0.123 0.011 Q 0.063 0.011 0.039 -0.024 Q 0.029 -0.037 0.029 -0.055 Q 0.029 -0.092 0.061 -0.107 Q 0.07200000000000001 -0.113 0.084 -0.113 Q 0.114 -0.113 0.12 -0.088 Q 0.121 -0.083 0.121 -0.078 Q 0.121 -0.044 0.08700000000000001 -0.028 Q 0.081 -0.025 0.074 -0.024 Q 0.095 -0.011 0.124 -0.011 Q 0.177 -0.011 0.20800000000000002 -0.082 Q 0.214 -0.097 0.219 -0.115 Q 0.273 -0.319 0.273 -0.353 Q 0.267 -0.41500000000000004 0.219 -0.42 Q 0.167 -0.42 0.124 -0.367 L 0.124 -0.366 Q 0.124 -0.365 0.123 -0.365 Q 0.108 -0.34500000000000003 0.096 -0.319 Q 0.091 -0.307 0.08700000000000001 -0.295 L 0.085 -0.289 Q 0.083 -0.278 0.07200000000000001 -0.278 Q 0.06 -0.278 0.06 -0.28800000000000003 Q 0.06 -0.313 0.092 -0.36 Q 0.146 -0.442 0.221 -0.442 Q 0.298 -0.442 0.329 -0.366 Q 0.361 -0.428 0.41400000000000003 -0.44 Q 0.424 -0.442 0.434 -0.442 Q 0.493 -0.442 0.517 -0.40900000000000003 Q 0.527 -0.395 0.527 -0.376 Q 0.527 -0.335 0.49 -0.321 Q 0.481 -0.318 0.47300000000000003 -0.318 Q 0.442 -0.318 0.436 -0.34500000000000003 Q 0.435 -0.34900000000000003 0.435 -0.353 Q 0.435 -0.383 0.464 -0.4 Q 0.47300000000000003 -0.405 0.483 -0.40700000000000003 Q 0.462 -0.42 0.433 -0.42 Q 0.365 -0.42 0.337 -0.314 Q 0.335 -0.308 0.334 -0.302 Z"/></g><g transform="translate(6.137947368421052,14.171052631578947)"><path fill="rgb(51,153,0)" stroke="none" paint-order="stroke fill markers" d=" M 0.289 -0.25 L 0.289 -0.25 Q 0.289 -0.081 0.226 0.055 Q 0.17400000000000002 0.166 0.094 0.233 Q 0.073 0.25 0.067 0.25 Q 0.057 0.25 0.057 0.24 Q 0.057 0.23500000000000001 0.07 0.223 Q 0.231 0.059000000000000004 0.231 -0.25 Q 0.231 -0.555 0.081 -0.712 L 0.076 -0.717 Q 0.057 -0.735 0.057 -0.74 Q 0.057 -0.75 0.067 -0.75 Q 0.079 -0.75 0.12 -0.709 Q 0.182 -0.647 0.223 -0.562 Q 0.289 -0.426 0.289 -0.25 Z"/></g><g transform="translate(6.80472514619883,14.171052631578947)"><path fill="rgb(51,153,0)" stroke="none" paint-order="stroke fill markers" d=" M 0.687 -0.327 L 0.09 -0.327 Q 0.058 -0.327 0.056 -0.34700000000000003 Q 0.056 -0.367 0.089 -0.367 L 0.6880000000000001 -0.367 Q 0.72 -0.367 0.721 -0.34700000000000003 Q 0.721 -0.327 0.687 -0.327 M 0.6880000000000001 -0.133 L 0.089 -0.133 Q 0.057 -0.133 0.056 -0.153 Q 0.056 -0.17300000000000001 0.09 -0.17300000000000001 L 0.687 -0.17300000000000001 Q 0.719 -0.17300000000000001 0.721 -0.153 Q 0.721 -0.133 0.6880000000000001 -0.133 Z"/></g><g transform="translate(7.860502923976608,14.171052631578947)"><path fill="rgb(51,153,0)" stroke="none" paint-order="stroke fill markers" d=" M 0.391 -0.374 L 0.391 -0.374 Q 0.37 -0.418 0.301 -0.42 Q 0.22 -0.42 0.195 -0.359 Q 0.189 -0.34400000000000003 0.189 -0.33 Q 0.189 -0.291 0.23700000000000002 -0.277 L 0.23700000000000002 -0.277 L 0.23800000000000002 -0.276 Q 0.245 -0.274 0.265 -0.27 Q 0.327 -0.257 0.34800000000000003 -0.242 Q 0.357 -0.23600000000000002 0.365 -0.228 Q 0.396 -0.197 0.396 -0.155 Q 0.396 -0.10300000000000001 0.357 -0.056 Q 0.301 0.011 0.195 0.011 Q 0.10200000000000001 0.011 0.066 -0.041 Q 0.052000000000000005 -0.061 0.052000000000000005 -0.08600000000000001 Q 0.052000000000000005 -0.135 0.09 -0.149 Q 0.099 -0.152 0.108 -0.152 Q 0.14100000000000001 -0.147 0.145 -0.117 Q 0.145 -0.08600000000000001 0.11800000000000001 -0.07100000000000001 Q 0.10200000000000001 -0.061 0.082 -0.064 Q 0.105 -0.011 0.196 -0.011 Q 0.299 -0.011 0.331 -0.08600000000000001 Q 0.339 -0.105 0.339 -0.121 Q 0.339 -0.169 0.28 -0.187 L 0.28 -0.187 L 0.279 -0.187 Q 0.264 -0.191 0.23500000000000001 -0.197 Q 0.145 -0.216 0.134 -0.277 Q 0.132 -0.28600000000000003 0.132 -0.296 Q 0.132 -0.34600000000000003 0.17 -0.389 Q 0.217 -0.442 0.301 -0.442 Q 0.38 -0.442 0.41000000000000003 -0.393 Q 0.42 -0.376 0.42 -0.356 Q 0.42 -0.311 0.386 -0.302 Q 0.38 -0.3 0.374 -0.3 Q 0.34600000000000003 -0.304 0.343 -0.329 Q 0.343 -0.356 0.37 -0.369 Q 0.38 -0.374 0.391 -0.374 Z"/></g><g transform="translate(8.329502923976609,14.171052631578947)"><path fill="rgb(51,153,0)" stroke="none" paint-order="stroke fill markers" d=" M 0.28400000000000003 -0.625 Q 0.28400000000000003 -0.594 0.253 -0.578 Q 0.242 -0.5720000000000001 0.231 -0.5720000000000001 Q 0.201 -0.5720000000000001 0.194 -0.599 Q 0.193 -0.604 0.193 -0.608 Q 0.193 -0.636 0.221 -0.653 Q 0.234 -0.661 0.247 -0.661 Q 0.277 -0.661 0.28300000000000003 -0.634 L 0.28300000000000003 -0.633 Q 0.28400000000000003 -0.629 0.28400000000000003 -0.625 M 0.20800000000000002 -0.249 L 0.169 -0.14400000000000002 Q 0.14100000000000001 -0.063 0.14 -0.044 Q 0.14 -0.011 0.164 -0.011 Q 0.227 -0.011 0.262 -0.123 L 0.266 -0.135 Q 0.271 -0.151 0.276 -0.152 L 0.276 -0.153 L 0.281 -0.153 Q 0.293 -0.153 0.293 -0.14300000000000002 Q 0.293 -0.125 0.271 -0.079 Q 0.228 0.011 0.162 0.011 Q 0.109 0.011 0.088 -0.033 Q 0.08 -0.051000000000000004 0.08 -0.07100000000000001 Q 0.08 -0.091 0.10300000000000001 -0.151 Q 0.17300000000000001 -0.339 0.17200000000000001 -0.336 Q 0.183 -0.364 0.183 -0.388 Q 0.183 -0.42 0.158 -0.42 Q 0.10300000000000001 -0.42 0.068 -0.329 L 0.068 -0.328 Q 0.062 -0.313 0.057 -0.296 Q 0.046 -0.279 0.041 -0.278 Q 0.029 -0.278 0.029 -0.28800000000000003 Q 0.029 -0.306 0.051000000000000004 -0.35100000000000003 Q 0.094 -0.442 0.161 -0.442 Q 0.214 -0.442 0.23500000000000001 -0.397 Q 0.243 -0.38 0.243 -0.36 Q 0.243 -0.34 0.23 -0.307 Q 0.213 -0.261 0.20800000000000002 -0.249 Z"/></g><g transform="translate(8.67450292397661,14.171052631578947)"><path fill="rgb(51,153,0)" stroke="none" paint-order="stroke fill markers" d=" M 0.088 -0.059000000000000004 L 0.088 -0.059000000000000004 L 0.146 -0.29 Q 0.162 -0.354 0.162 -0.374 Q 0.162 -0.42 0.131 -0.42 Q 0.09 -0.42 0.064 -0.325 Q 0.061 -0.314 0.058 -0.301 Q 0.047 -0.279 0.041 -0.278 Q 0.029 -0.278 0.029 -0.28800000000000003 Q 0.029 -0.304 0.049 -0.36 L 0.049 -0.361 Q 0.049 -0.362 0.05 -0.362 L 0.05 -0.363 L 0.05 -0.364 L 0.059000000000000004 -0.385 Q 0.081 -0.425 0.10400000000000001 -0.435 Q 0.11800000000000001 -0.442 0.134 -0.442 Q 0.19 -0.442 0.215 -0.395 Q 0.224 -0.377 0.226 -0.355 Q 0.29 -0.442 0.382 -0.442 Q 0.468 -0.442 0.491 -0.376 Q 0.497 -0.358 0.497 -0.335 Q 0.497 -0.28400000000000003 0.436 -0.115 Q 0.418 -0.07100000000000001 0.418 -0.044 Q 0.418 -0.011 0.442 -0.011 Q 0.508 -0.011 0.544 -0.135 Q 0.549 -0.151 0.554 -0.152 L 0.554 -0.153 L 0.559 -0.153 Q 0.5710000000000001 -0.153 0.5710000000000001 -0.14300000000000002 Q 0.5710000000000001 -0.126 0.55 -0.08 Q 0.507 0.011 0.44 0.011 Q 0.389 0.011 0.367 -0.032 Q 0.358 -0.05 0.358 -0.07100000000000001 Q 0.358 -0.091 0.368 -0.117 Q 0.433 -0.292 0.433 -0.35000000000000003 Q 0.433 -0.42 0.379 -0.42 Q 0.289 -0.42 0.228 -0.32 Q 0.221 -0.309 0.216 -0.298 L 0.203 -0.248 Q 0.198 -0.225 0.186 -0.181 L 0.164 -0.091 Q 0.147 -0.022 0.145 -0.017 Q 0.136 0.009000000000000001 0.108 0.011 Q 0.083 0.006 0.079 -0.016 Q 0.079 -0.014 0.088 -0.059000000000000004 Z"/></g><g transform="translate(9.274502923976609,14.171052631578947)"><path fill="rgb(51,153,0)" stroke="none" paint-order="stroke fill markers" d=" M 0.331 0.24 L 0.331 0.24 Q 0.331 0.25 0.321 0.25 Q 0.309 0.25 0.268 0.209 Q 0.20600000000000002 0.147 0.165 0.062 Q 0.099 -0.074 0.099 -0.25 Q 0.099 -0.419 0.162 -0.555 Q 0.214 -0.666 0.294 -0.733 Q 0.315 -0.75 0.321 -0.75 Q 0.331 -0.75 0.331 -0.74 Q 0.331 -0.735 0.318 -0.723 Q 0.157 -0.559 0.157 -0.25 Q 0.157 0.058 0.314 0.218 Q 0.331 0.23500000000000001 0.331 0.24 Z"/></g><g transform="translate(9.663502923976608,14.171052631578947)"><path fill="rgb(51,153,0)" stroke="none" paint-order="stroke fill markers" d=" M 0.334 -0.302 L 0.3 -0.165 Q 0.28300000000000003 -0.097 0.28300000000000003 -0.077 Q 0.28300000000000003 -0.025 0.32 -0.014 Q 0.328 -0.011 0.338 -0.011 Q 0.388 -0.011 0.429 -0.061 Q 0.456 -0.093 0.47100000000000003 -0.14200000000000002 Q 0.47400000000000003 -0.153 0.484 -0.153 Q 0.496 -0.153 0.496 -0.14300000000000002 Q 0.496 -0.11800000000000001 0.465 -0.07100000000000001 Q 0.41100000000000003 0.011 0.336 0.011 Q 0.268 0.011 0.23700000000000002 -0.046 Q 0.231 -0.055 0.228 -0.065 Q 0.20400000000000001 -0.017 0.162 0.002 Q 0.14300000000000002 0.011 0.123 0.011 Q 0.063 0.011 0.039 -0.024 Q 0.029 -0.037 0.029 -0.055 Q 0.029 -0.092 0.061 -0.107 Q 0.07200000000000001 -0.113 0.084 -0.113 Q 0.114 -0.113 0.12 -0.088 Q 0.121 -0.083 0.121 -0.078 Q 0.121 -0.044 0.08700000000000001 -0.028 Q 0.081 -0.025 0.074 -0.024 Q 0.095 -0.011 0.124 -0.011 Q 0.177 -0.011 0.20800000000000002 -0.082 Q 0.214 -0.097 0.219 -0.115 Q 0.273 -0.319 0.273 -0.353 Q 0.267 -0.41500000000000004 0.219 -0.42 Q 0.167 -0.42 0.124 -0.367 L 0.124 -0.366 Q 0.124 -0.365 0.123 -0.365 Q 0.108 -0.34500000000000003 0.096 -0.319 Q 0.091 -0.307 0.08700000000000001 -0.295 L 0.085 -0.289 Q 0.083 -0.278 0.07200000000000001 -0.278 Q 0.06 -0.278 0.06 -0.28800000000000003 Q 0.06 -0.313 0.092 -0.36 Q 0.146 -0.442 0.221 -0.442 Q 0.298 -0.442 0.329 -0.366 Q 0.361 -0.428 0.41400000000000003 -0.44 Q 0.424 -0.442 0.434 -0.442 Q 0.493 -0.442 0.517 -0.40900000000000003 Q 0.527 -0.395 0.527 -0.376 Q 0.527 -0.335 0.49 -0.321 Q 0.481 -0.318 0.47300000000000003 -0.318 Q 0.442 -0.318 0.436 -0.34500000000000003 Q 0.435 -0.34900000000000003 0.435 -0.353 Q 0.435 -0.383 0.464 -0.4 Q 0.47300000000000003 -0.405 0.483 -0.40700000000000003 Q 0.462 -0.42 0.433 -0.42 Q 0.365 -0.42 0.337 -0.314 Q 0.335 -0.308 0.334 -0.302 Z"/></g><g transform="translate(10.235502923976608,14.171052631578947)"><path fill="rgb(51,153,0)" stroke="none" paint-order="stroke fill markers" d=" M 0.289 -0.25 L 0.289 -0.25 Q 0.289 -0.081 0.226 0.055 Q 0.17400000000000002 0.166 0.094 0.233 Q 0.073 0.25 0.067 0.25 Q 0.057 0.25 0.057 0.24 Q 0.057 0.23500000000000001 0.07 0.223 Q 0.231 0.059000000000000004 0.231 -0.25 Q 0.231 -0.555 0.081 -0.712 L 0.076 -0.717 Q 0.057 -0.735 0.057 -0.74 Q 0.057 -0.75 0.067 -0.75 Q 0.079 -0.75 0.12 -0.709 Q 0.182 -0.647 0.223 -0.562 Q 0.289 -0.426 0.289 -0.25 Z"/></g></g></g></g></svg>