<svg version="1.1" xmlns="http://www.w3.org/2000/svg" xmlns:xlink="http://www.w3.org/1999/xlink" width="1522" height="973"><defs><clipPath id="ZPEvcZvBapdT"><path fill="none" stroke="none" d=" M 0 0 L 1522 0 L 1522 973 L 0 973 L 0 0 Z"/></clipPath></defs><g transform="scale(1,1)" clip-path="url(#ZPEvcZvBapdT)"><g><rect fill="rgb(255,255,255)" stroke="none" x="0" y="0" width="1522" height="973" fill-opacity="1"/><path fill="none" stroke="rgb(192,192,192)" paint-order="fill stroke markers" d=" M 17.5 0.5 L 17.5 973.5 M 17.5 0.5 L 17.5 973.5 M 91.5 0.5 L 91.5 973.5 M 165.5 0.5 L 165.5 973.5 M 238.5 0.5 L 238.5 973.5 M 312.5 0.5 L 312.5 973.5 M 386.5 0.5 L 386.5 973.5 M 459.5 0.5 L 459.5 973.5 M 533.5 0.5 L 533.5 973.5 M 607.5 0.5 L 607.5 973.5 M 754.5 0.5 L 754.5 973.5 M 828.5 0.5 L 828.5 973.5 M 901.5 0.5 L 901.5 973.5 M 975.5 0.5 L 975.5 973.5 M 1049.5 0.5 L 1049.5 973.5 M 1122.5 0.5 L 1122.5 973.5 M 1196.5 0.5 L 1196.5 973.5 M 1270.5 0.5 L 1270.5 973.5 M 1343.5 0.5 L 1343.5 973.5 M 1417.5 0.5 L 1417.5 973.5 M 1491.5 0.5 L 1491.5 973.5" stroke-opacity="1" stroke-linecap="round" stroke-linejoin="round" stroke-miterlimit="10"/><path fill="none" stroke="rgb(192,192,192)" paint-order="fill stroke markers" d=" M 2.5 0.5 L 2.5 973.5 M 32.5 0.5 L 32.5 973.5 M 47.5 0.5 L 47.5 973.5 M 61.5 0.5 L 61.5 973.5 M 76.5 0.5 L 76.5 973.5 M 106.5 0.5 L 106.5 973.5 M 120.5 0.5 L 120.5 973.5 M 135.5 0.5 L 135.5 973.5 M 150.5 0.5 L 150.5 973.5 M 179.5 0.5 L 179.5 973.5 M 194.5 0.5 L 194.5 973.5 M 209.5 0.5 L 209.5 973.5 M 223.5 0.5 L 223.5 973.5 M 253.5 0.5 L 253.5 973.5 M 268.5 0.5 L 268.5 973.5 M 282.5 0.5 L 282.5 973.5 M 297.5 0.5 L 297.5 973.5 M 327.5 0.5 L 327.5 973.5 M 341.5 0.5 L 341.5 973.5 M 356.5 0.5 L 356.5 973.5 M 371.5 0.5 L 371.5 973.5 M 400.5 0.5 L 400.5 973.5 M 415.5 0.5 L 415.5 973.5 M 430.5 0.5 L 430.5 973.5 M 444.5 0.5 L 444.5 973.5 M 474.5 0.5 L 474.5 973.5 M 489.5 0.5 L 489.5 973.5 M 503.5 0.5 L 503.5 973.5 M 518.5 0.5 L 518.5 973.5 M 548.5 0.5 L 548.5 973.5 M 562.5 0.5 L 562.5 973.5 M 577.5 0.5 L 577.5 973.5 M 592.5 0.5 L 592.5 973.5 M 621.5 0.5 L 621.5 973.5 M 636.5 0.5 L 636.5 973.5 M 651.5 0.5 L 651.5 973.5 M 665.5 0.5 L 665.5 973.5 M 695.5 0.5 L 695.5 973.5 M 710.5 0.5 L 710.5 973.5 M 724.5 0.5 L 724.5 973.5 M 739.5 0.5 L 739.5 973.5 M 769.5 0.5 L 769.5 973.5 M 783.5 0.5 L 783.5 973.5 M 798.5 0.5 L 798.5 973.5 M 813.5 0.5 L 813.5 973.5 M 842.5 0.5 L 842.5 973.5 M 857.5 0.5 L 857.5 973.5 M 872.5 0.5 L 872.5 973.5 M 886.5 0.5 L 886.5 973.5 M 916.5 0.5 L 916.5 973.5 M 931.5 0.5 L 931.5 973.5 M 945.5 0.5 L 945.5 973.5 M 960.5 0.5 L 960.5 973.5 M 990.5 0.5 L 990.5 973.5 M 1004.5 0.5 L 1004.5 973.5 M 1019.5 0.5 L 1019.5 973.5 M 1034.5 0.5 L 1034.5 973.5 M 1063.5 0.5 L 1063.5 973.5 M 1078.5 0.5 L 1078.5 973.5 M 1093.5 0.5 L 1093.5 973.5 M 1108.5 0.5 L 1108.5 973.5 M 1137.5 0.5 L 1137.5 973.5 M 1152.5 0.5 L 1152.5 973.5 M 1166.5 0.5 L 1166.5 973.5 M 1181.5 0.5 L 1181.5 973.5 M 1211.5 0.5 L 1211.5 973.5 M 1225.5 0.5 L 1225.5 973.5 M 1240.5 0.5 L 1240.5 973.5 M 1255.5 0.5 L 1255.5 973.5 M 1284.5 0.5 L 1284.5 973.5 M 1299.5 0.5 L 1299.5 973.5 M 1314.5 0.5 L 1314.5 973.5 M 1329.5 0.5 L 1329.5 973.5 M 1358.5 0.5 L 1358.5 973.5 M 1373.5 0.5 L 1373.5 973.5 M 1387.5 0.5 L 1387.5 973.5 M 1402.5 0.5 L 1402.5 973.5 M 1432.5 0.5 L 1432.5 973.5 M 1446.5 0.5 L 1446.5 973.5 M 1461.5 0.5 L 1461.5 973.5 M 1476.5 0.5 L 1476.5 973.5 M 1505.5 0.5 L 1505.5 973.5 M 1520.5 0.5 L 1520.5 973.5" stroke-opacity="0.23529411764705882" stroke-linecap="round" stroke-linejoin="round" stroke-miterlimit="10"/><path fill="none" stroke="rgb(192,192,192)" paint-order="fill stroke markers" d=" M 0.5 44.5 L 1522.5 44.5 M 0.5 44.5 L 1522.5 44.5 M 0.5 117.5 L 1522.5 117.5 M 0.5 191.5 L 1522.5 191.5 M 0.5 265.5 L 1522.5 265.5 M 0.5 338.5 L 1522.5 338.5 M 0.5 412.5 L 1522.5 412.5 M 0.5 486.5 L 1522.5 486.5 M 0.5 633.5 L 1522.5 633.5 M 0.5 707.5 L 1522.5 707.5 M 0.5 781.5 L 1522.5 781.5 M 0.5 854.5 L 1522.5 854.5 M 0.5 928.5 L 1522.5 928.5" stroke-opacity="1" stroke-linecap="round" stroke-linejoin="round" stroke-miterlimit="10"/><path fill="none" stroke="rgb(192,192,192)" paint-order="fill stroke markers" d=" M 0.5 0.5 L 1522.5 0.5 M 0.5 0.5 L 1522.5 0.5 M 0.5 14.5 L 1522.5 14.5 M 0.5 29.5 L 1522.5 29.5 M 0.5 59.5 L 1522.5 59.5 M 0.5 73.5 L 1522.5 73.5 M 0.5 88.5 L 1522.5 88.5 M 0.5 103.5 L 1522.5 103.5 M 0.5 132.5 L 1522.5 132.5 M 0.5 147.5 L 1522.5 147.5 M 0.5 162.5 L 1522.5 162.5 M 0.5 176.5 L 1522.5 176.5 M 0.5 206.5 L 1522.5 206.5 M 0.5 221.5 L 1522.5 221.5 M 0.5 235.5 L 1522.5 235.5 M 0.5 250.5 L 1522.5 250.5 M 0.5 280.5 L 1522.5 280.5 M 0.5 294.5 L 1522.5 294.5 M 0.5 309.5 L 1522.5 309.5 M 0.5 324.5 L 1522.5 324.5 M 0.5 353.5 L 1522.5 353.5 M 0.5 368.5 L 1522.5 368.5 M 0.5 383.5 L 1522.5 383.5 M 0.5 397.5 L 1522.5 397.5 M 0.5 427.5 L 1522.5 427.5 M 0.5 442.5 L 1522.5 442.5 M 0.5 456.5 L 1522.5 456.5 M 0.5 471.5 L 1522.5 471.5 M 0.5 501.5 L 1522.5 501.5 M 0.5 515.5 L 1522.5 515.5 M 0.5 530.5 L 1522.5 530.5 M 0.5 545.5 L 1522.5 545.5 M 0.5 574.5 L 1522.5 574.5 M 0.5 589.5 L 1522.5 589.5 M 0.5 604.5 L 1522.5 604.5 M 0.5 618.5 L 1522.5 618.5 M 0.5 648.5 L 1522.5 648.5 M 0.5 663.5 L 1522.5 663.5 M 0.5 677.5 L 1522.5 677.5 M 0.5 692.5 L 1522.5 692.5 M 0.5 722.5 L 1522.5 722.5 M 0.5 736.5 L 1522.5 736.5 M 0.5 751.5 L 1522.5 751.5 M 0.5 766.5 L 1522.5 766.5 M 0.5 795.5 L 1522.5 795.5 M 0.5 810.5 L 1522.5 810.5 M 0.5 825.5 L 1522.5 825.5 M 0.5 839.5 L 1522.5 839.5 M 0.5 869.5 L 1522.5 869.5 M 0.5 884.5 L 1522.5 884.5 M 0.5 898.5 L 1522.5 898.5 M 0.5 913.5 L 1522.5 913.5 M 0.5 943.5 L 1522.5 943.5 M 0.5 957.5 L 1522.5 957.5 M 0.5 972.5 L 1522.5 972.5" stroke-opacity="0.23529411764705882" stroke-linecap="round" stroke-linejoin="round" stroke-miterlimit="10"/><path fill="none" stroke="rgb(37,37,37)" paint-order="fill stroke markers" d=" M 680.5 2.5 L 680.5 973.5" stroke-opacity="1" stroke-miterlimit="10"/><path fill="none" stroke="rgb(37,37,37)" paint-order="fill stroke markers" d=" M 680.5 1.5 L 676.5 5.5" stroke-opacity="1" stroke-miterlimit="10"/><path fill="none" stroke="rgb(37,37,37)" paint-order="fill stroke markers" d=" M 680.5 1.5 L 684.5 5.5" stroke-opacity="1" stroke-miterlimit="10"/><path fill="none" stroke="rgb(37,37,37)" paint-order="fill stroke markers" d=" M 0.5 559.5 L 1520.5 559.5" stroke-opacity="1" stroke-miterlimit="10"/><path fill="none" stroke="rgb(37,37,37)" paint-order="fill stroke markers" d=" M 1521.5 559.5 L 1517.5 555.5" stroke-opacity="1" stroke-miterlimit="10"/><path fill="none" stroke="rgb(37,37,37)" paint-order="fill stroke markers" d=" M 1521.5 559.5 L 1517.5 563.5" stroke-opacity="1" stroke-miterlimit="10"/><text fill="rgb(37,37,37)" stroke="none" font-family="geogebra-sans-serif, sans-serif" font-size="12px" font-style="normal" font-weight="normal" text-decoration="normal" x="12" y="575" text-anchor="start" dominant-baseline="alphabetic" fill-opacity="1">–9</text><text fill="none" stroke="rgb(255,255,255)" font-family="geogebra-sans-serif, sans-serif" font-size="12px" font-style="normal" font-weight="normal" text-decoration="normal" x="12" y="575" text-anchor="start" dominant-baseline="alphabetic" stroke-opacity="1" stroke-linejoin="bevel" stroke-miterlimit="10" stroke-width="3">–9</text><text fill="rgb(37,37,37)" stroke="none" font-family="geogebra-sans-serif, sans-serif" font-size="12px" font-style="normal" font-weight="normal" text-decoration="normal" x="12" y="575" text-anchor="start" dominant-baseline="alphabetic" fill-opacity="1">–9</text><text fill="rgb(37,37,37)" stroke="none" font-family="geogebra-sans-serif, sans-serif" font-size="12px" font-style="normal" font-weight="normal" text-decoration="normal" x="86" y="575" text-anchor="start" dominant-baseline="alphabetic" fill-opacity="1">–8</text><text fill="none" stroke="rgb(255,255,255)" font-family="geogebra-sans-serif, sans-serif" font-size="12px" font-style="normal" font-weight="normal" text-decoration="normal" x="86" y="575" text-anchor="start" dominant-baseline="alphabetic" stroke-opacity="1" stroke-linejoin="bevel" stroke-miterlimit="10" stroke-width="3">–8</text><text fill="rgb(37,37,37)" stroke="none" font-family="geogebra-sans-serif, sans-serif" font-size="12px" font-style="normal" font-weight="normal" text-decoration="normal" x="86" y="575" text-anchor="start" dominant-baseline="alphabetic" fill-opacity="1">–8</text><text fill="rgb(37,37,37)" stroke="none" font-family="geogebra-sans-serif, sans-serif" font-size="12px" font-style="normal" font-weight="normal" text-decoration="normal" x="160" y="575" text-anchor="start" dominant-baseline="alphabetic" fill-opacity="1">–7</text><text fill="none" stroke="rgb(255,255,255)" font-family="geogebra-sans-serif, sans-serif" font-size="12px" font-style="normal" font-weight="normal" text-decoration="normal" x="160" y="575" text-anchor="start" dominant-baseline="alphabetic" stroke-opacity="1" stroke-linejoin="bevel" stroke-miterlimit="10" stroke-width="3">–7</text><text fill="rgb(37,37,37)" stroke="none" font-family="geogebra-sans-serif, sans-serif" font-size="12px" font-style="normal" font-weight="normal" text-decoration="normal" x="160" y="575" text-anchor="start" dominant-baseline="alphabetic" fill-opacity="1">–7</text><text fill="rgb(37,37,37)" stroke="none" font-family="geogebra-sans-serif, sans-serif" font-size="12px" font-style="normal" font-weight="normal" text-decoration="normal" x="233" y="575" text-anchor="start" dominant-baseline="alphabetic" fill-opacity="1">–6</text><text fill="none" stroke="rgb(255,255,255)" font-family="geogebra-sans-serif, sans-serif" font-size="12px" font-style="normal" font-weight="normal" text-decoration="normal" x="233" y="575" text-anchor="start" dominant-baseline="alphabetic" stroke-opacity="1" stroke-linejoin="bevel" stroke-miterlimit="10" stroke-width="3">–6</text><text fill="rgb(37,37,37)" stroke="none" font-family="geogebra-sans-serif, sans-serif" font-size="12px" font-style="normal" font-weight="normal" text-decoration="normal" x="233" y="575" text-anchor="start" dominant-baseline="alphabetic" fill-opacity="1">–6</text><text fill="rgb(37,37,37)" stroke="none" font-family="geogebra-sans-serif, sans-serif" font-size="12px" font-style="normal" font-weight="normal" text-decoration="normal" x="307" y="575" text-anchor="start" dominant-baseline="alphabetic" fill-opacity="1">–5</text><text fill="none" stroke="rgb(255,255,255)" font-family="geogebra-sans-serif, sans-serif" font-size="12px" font-style="normal" font-weight="normal" text-decoration="normal" x="307" y="575" text-anchor="start" dominant-baseline="alphabetic" stroke-opacity="1" stroke-linejoin="bevel" stroke-miterlimit="10" stroke-width="3">–5</text><text fill="rgb(37,37,37)" stroke="none" font-family="geogebra-sans-serif, sans-serif" font-size="12px" font-style="normal" font-weight="normal" text-decoration="normal" x="307" y="575" text-anchor="start" dominant-baseline="alphabetic" fill-opacity="1">–5</text><text fill="rgb(37,37,37)" stroke="none" font-family="geogebra-sans-serif, sans-serif" font-size="12px" font-style="normal" font-weight="normal" text-decoration="normal" x="381" y="575" text-anchor="start" dominant-baseline="alphabetic" fill-opacity="1">–4</text><text fill="none" stroke="rgb(255,255,255)" font-family="geogebra-sans-serif, sans-serif" font-size="12px" font-style="normal" font-weight="normal" text-decoration="normal" x="381" y="575" text-anchor="start" dominant-baseline="alphabetic" stroke-opacity="1" stroke-linejoin="bevel" stroke-miterlimit="10" stroke-width="3">–4</text><text fill="rgb(37,37,37)" stroke="none" font-family="geogebra-sans-serif, sans-serif" font-size="12px" font-style="normal" font-weight="normal" text-decoration="normal" x="381" y="575" text-anchor="start" dominant-baseline="alphabetic" fill-opacity="1">–4</text><text fill="rgb(37,37,37)" stroke="none" font-family="geogebra-sans-serif, sans-serif" font-size="12px" font-style="normal" font-weight="normal" text-decoration="normal" x="454" y="575" text-anchor="start" dominant-baseline="alphabetic" fill-opacity="1">–3</text><text fill="none" stroke="rgb(255,255,255)" font-family="geogebra-sans-serif, sans-serif" font-size="12px" font-style="normal" font-weight="normal" text-decoration="normal" x="454" y="575" text-anchor="start" dominant-baseline="alphabetic" stroke-opacity="1" stroke-linejoin="bevel" stroke-miterlimit="10" stroke-width="3">–3</text><text fill="rgb(37,37,37)" stroke="none" font-family="geogebra-sans-serif, sans-serif" font-size="12px" font-style="normal" font-weight="normal" text-decoration="normal" x="454" y="575" text-anchor="start" dominant-baseline="alphabetic" fill-opacity="1">–3</text><text fill="rgb(37,37,37)" stroke="none" font-family="geogebra-sans-serif, sans-serif" font-size="12px" font-style="normal" font-weight="normal" text-decoration="normal" x="528" y="575" text-anchor="start" dominant-baseline="alphabetic" fill-opacity="1">–2</text><text fill="none" stroke="rgb(255,255,255)" font-family="geogebra-sans-serif, sans-serif" font-size="12px" font-style="normal" font-weight="normal" text-decoration="normal" x="528" y="575" text-anchor="start" dominant-baseline="alphabetic" stroke-opacity="1" stroke-linejoin="bevel" stroke-miterlimit="10" stroke-width="3">–2</text><text fill="rgb(37,37,37)" stroke="none" font-family="geogebra-sans-serif, sans-serif" font-size="12px" font-style="normal" font-weight="normal" text-decoration="normal" x="528" y="575" text-anchor="start" dominant-baseline="alphabetic" fill-opacity="1">–2</text><text fill="rgb(37,37,37)" stroke="none" font-family="geogebra-sans-serif, sans-serif" font-size="12px" font-style="normal" font-weight="normal" text-decoration="normal" x="602" y="575" text-anchor="start" dominant-baseline="alphabetic" fill-opacity="1">–1</text><text fill="none" stroke="rgb(255,255,255)" font-family="geogebra-sans-serif, sans-serif" font-size="12px" font-style="normal" font-weight="normal" text-decoration="normal" x="602" y="575" text-anchor="start" dominant-baseline="alphabetic" stroke-opacity="1" stroke-linejoin="bevel" stroke-miterlimit="10" stroke-width="3">–1</text><text fill="rgb(37,37,37)" stroke="none" font-family="geogebra-sans-serif, sans-serif" font-size="12px" font-style="normal" font-weight="normal" text-decoration="normal" x="602" y="575" text-anchor="start" dominant-baseline="alphabetic" fill-opacity="1">–1</text><text fill="rgb(37,37,37)" stroke="none" font-family="geogebra-sans-serif, sans-serif" font-size="12px" font-style="normal" font-weight="normal" text-decoration="normal" x="752" y="575" text-anchor="start" dominant-baseline="alphabetic" fill-opacity="1">1</text><text fill="none" stroke="rgb(255,255,255)" font-family="geogebra-sans-serif, sans-serif" font-size="12px" font-style="normal" font-weight="normal" text-decoration="normal" x="752" y="575" text-anchor="start" dominant-baseline="alphabetic" stroke-opacity="1" stroke-linejoin="bevel" stroke-miterlimit="10" stroke-width="3">1</text><text fill="rgb(37,37,37)" stroke="none" font-family="geogebra-sans-serif, sans-serif" font-size="12px" font-style="normal" font-weight="normal" text-decoration="normal" x="752" y="575" text-anchor="start" dominant-baseline="alphabetic" fill-opacity="1">1</text><text fill="rgb(37,37,37)" stroke="none" font-family="geogebra-sans-serif, sans-serif" font-size="12px" font-style="normal" font-weight="normal" text-decoration="normal" x="826" y="575" text-anchor="start" dominant-baseline="alphabetic" fill-opacity="1">2</text><text fill="none" stroke="rgb(255,255,255)" font-family="geogebra-sans-serif, sans-serif" font-size="12px" font-style="normal" font-weight="normal" text-decoration="normal" x="826" y="575" text-anchor="start" dominant-baseline="alphabetic" stroke-opacity="1" stroke-linejoin="bevel" stroke-miterlimit="10" stroke-width="3">2</text><text fill="rgb(37,37,37)" stroke="none" font-family="geogebra-sans-serif, sans-serif" font-size="12px" font-style="normal" font-weight="normal" text-decoration="normal" x="826" y="575" text-anchor="start" dominant-baseline="alphabetic" fill-opacity="1">2</text><text fill="rgb(37,37,37)" stroke="none" font-family="geogebra-sans-serif, sans-serif" font-size="12px" font-style="normal" font-weight="normal" text-decoration="normal" x="899" y="575" text-anchor="start" dominant-baseline="alphabetic" fill-opacity="1">3</text><text fill="none" stroke="rgb(255,255,255)" font-family="geogebra-sans-serif, sans-serif" font-size="12px" font-style="normal" font-weight="normal" text-decoration="normal" x="899" y="575" text-anchor="start" dominant-baseline="alphabetic" stroke-opacity="1" stroke-linejoin="bevel" stroke-miterlimit="10" stroke-width="3">3</text><text fill="rgb(37,37,37)" stroke="none" font-family="geogebra-sans-serif, sans-serif" font-size="12px" font-style="normal" font-weight="normal" text-decoration="normal" x="899" y="575" text-anchor="start" dominant-baseline="alphabetic" fill-opacity="1">3</text><text fill="rgb(37,37,37)" stroke="none" font-family="geogebra-sans-serif, sans-serif" font-size="12px" font-style="normal" font-weight="normal" text-decoration="normal" x="973" y="575" text-anchor="start" dominant-baseline="alphabetic" fill-opacity="1">4</text><text fill="none" stroke="rgb(255,255,255)" font-family="geogebra-sans-serif, sans-serif" font-size="12px" font-style="normal" font-weight="normal" text-decoration="normal" x="973" y="575" text-anchor="start" dominant-baseline="alphabetic" stroke-opacity="1" stroke-linejoin="bevel" stroke-miterlimit="10" stroke-width="3">4</text><text fill="rgb(37,37,37)" stroke="none" font-family="geogebra-sans-serif, sans-serif" font-size="12px" font-style="normal" font-weight="normal" text-decoration="normal" x="973" y="575" text-anchor="start" dominant-baseline="alphabetic" fill-opacity="1">4</text><text fill="rgb(37,37,37)" stroke="none" font-family="geogebra-sans-serif, sans-serif" font-size="12px" font-style="normal" font-weight="normal" text-decoration="normal" x="1047" y="575" text-anchor="start" dominant-baseline="alphabetic" fill-opacity="1">5</text><text fill="none" stroke="rgb(255,255,255)" font-family="geogebra-sans-serif, sans-serif" font-size="12px" font-style="normal" font-weight="normal" text-decoration="normal" x="1047" y="575" text-anchor="start" dominant-baseline="alphabetic" stroke-opacity="1" stroke-linejoin="bevel" stroke-miterlimit="10" stroke-width="3">5</text><text fill="rgb(37,37,37)" stroke="none" font-family="geogebra-sans-serif, sans-serif" font-size="12px" font-style="normal" font-weight="normal" text-decoration="normal" x="1047" y="575" text-anchor="start" dominant-baseline="alphabetic" fill-opacity="1">5</text><text fill="rgb(37,37,37)" stroke="none" font-family="geogebra-sans-serif, sans-serif" font-size="12px" font-style="normal" font-weight="normal" text-decoration="normal" x="1120" y="575" text-anchor="start" dominant-baseline="alphabetic" fill-opacity="1">6</text><text fill="none" stroke="rgb(255,255,255)" font-family="geogebra-sans-serif, sans-serif" font-size="12px" font-style="normal" font-weight="normal" text-decoration="normal" x="1120" y="575" text-anchor="start" dominant-baseline="alphabetic" stroke-opacity="1" stroke-linejoin="bevel" stroke-miterlimit="10" stroke-width="3">6</text><text fill="rgb(37,37,37)" stroke="none" font-family="geogebra-sans-serif, sans-serif" font-size="12px" font-style="normal" font-weight="normal" text-decoration="normal" x="1120" y="575" text-anchor="start" dominant-baseline="alphabetic" fill-opacity="1">6</text><text fill="rgb(37,37,37)" stroke="none" font-family="geogebra-sans-serif, sans-serif" font-size="12px" font-style="normal" font-weight="normal" text-decoration="normal" x="1194" y="575" text-anchor="start" dominant-baseline="alphabetic" fill-opacity="1">7</text><text fill="none" stroke="rgb(255,255,255)" font-family="geogebra-sans-serif, sans-serif" font-size="12px" font-style="normal" font-weight="normal" text-decoration="normal" x="1194" y="575" text-anchor="start" dominant-baseline="alphabetic" stroke-opacity="1" stroke-linejoin="bevel" stroke-miterlimit="10" stroke-width="3">7</text><text fill="rgb(37,37,37)" stroke="none" font-family="geogebra-sans-serif, sans-serif" font-size="12px" font-style="normal" font-weight="normal" text-decoration="normal" x="1194" y="575" text-anchor="start" dominant-baseline="alphabetic" fill-opacity="1">7</text><text fill="rgb(37,37,37)" stroke="none" font-family="geogebra-sans-serif, sans-serif" font-size="12px" font-style="normal" font-weight="normal" text-decoration="normal" x="1268" y="575" text-anchor="start" dominant-baseline="alphabetic" fill-opacity="1">8</text><text fill="none" stroke="rgb(255,255,255)" font-family="geogebra-sans-serif, sans-serif" font-size="12px" font-style="normal" font-weight="normal" text-decoration="normal" x="1268" y="575" text-anchor="start" dominant-baseline="alphabetic" stroke-opacity="1" stroke-linejoin="bevel" stroke-miterlimit="10" stroke-width="3">8</text><text fill="rgb(37,37,37)" stroke="none" font-family="geogebra-sans-serif, sans-serif" font-size="12px" font-style="normal" font-weight="normal" text-decoration="normal" x="1268" y="575" text-anchor="start" dominant-baseline="alphabetic" fill-opacity="1">8</text><text fill="rgb(37,37,37)" stroke="none" font-family="geogebra-sans-serif, sans-serif" font-size="12px" font-style="normal" font-weight="normal" text-decoration="normal" x="1341" y="575" text-anchor="start" dominant-baseline="alphabetic" fill-opacity="1">9</text><text fill="none" stroke="rgb(255,255,255)" font-family="geogebra-sans-serif, sans-serif" font-size="12px" font-style="normal" font-weight="normal" text-decoration="normal" x="1341" y="575" text-anchor="start" dominant-baseline="alphabetic" stroke-opacity="1" stroke-linejoin="bevel" stroke-miterlimit="10" stroke-width="3">9</text><text fill="rgb(37,37,37)" stroke="none" font-family="geogebra-sans-serif, sans-serif" font-size="12px" font-style="normal" font-weight="normal" text-decoration="normal" x="1341" y="575" text-anchor="start" dominant-baseline="alphabetic" fill-opacity="1">9</text><text fill="rgb(37,37,37)" stroke="none" font-family="geogebra-sans-serif, sans-serif" font-size="12px" font-style="normal" font-weight="normal" text-decoration="normal" x="1412" y="575" text-anchor="start" dominant-baseline="alphabetic" fill-opacity="1">10</text><text fill="none" stroke="rgb(255,255,255)" font-family="geogebra-sans-serif, sans-serif" font-size="12px" font-style="normal" font-weight="normal" text-decoration="normal" x="1412" y="575" text-anchor="start" dominant-baseline="alphabetic" stroke-opacity="1" stroke-linejoin="bevel" stroke-miterlimit="10" stroke-width="3">10</text><text fill="rgb(37,37,37)" stroke="none" font-family="geogebra-sans-serif, sans-serif" font-size="12px" font-style="normal" font-weight="normal" text-decoration="normal" x="1412" y="575" text-anchor="start" dominant-baseline="alphabetic" fill-opacity="1">10</text><text fill="rgb(37,37,37)" stroke="none" font-family="geogebra-sans-serif, sans-serif" font-size="12px" font-style="normal" font-weight="normal" text-decoration="normal" x="1486" y="575" text-anchor="start" dominant-baseline="alphabetic" fill-opacity="1">11</text><text fill="none" stroke="rgb(255,255,255)" font-family="geogebra-sans-serif, sans-serif" font-size="12px" font-style="normal" font-weight="normal" text-decoration="normal" x="1486" y="575" text-anchor="start" dominant-baseline="alphabetic" stroke-opacity="1" stroke-linejoin="bevel" stroke-miterlimit="10" stroke-width="3">11</text><text fill="rgb(37,37,37)" stroke="none" font-family="geogebra-sans-serif, sans-serif" font-size="12px" font-style="normal" font-weight="normal" text-decoration="normal" x="1486" y="575" text-anchor="start" dominant-baseline="alphabetic" fill-opacity="1">11</text><text fill="rgb(37,37,37)" stroke="none" font-family="geogebra-sans-serif, sans-serif" font-size="12px" font-style="normal" font-weight="normal" text-decoration="normal" x="660" y="933" text-anchor="start" dominant-baseline="alphabetic" fill-opacity="1">–5</text><text fill="none" stroke="rgb(255,255,255)" font-family="geogebra-sans-serif, sans-serif" font-size="12px" font-style="normal" font-weight="normal" text-decoration="normal" x="660" y="933" text-anchor="start" dominant-baseline="alphabetic" stroke-opacity="1" stroke-linejoin="bevel" stroke-miterlimit="10" stroke-width="3">–5</text><text fill="rgb(37,37,37)" stroke="none" font-family="geogebra-sans-serif, sans-serif" font-size="12px" font-style="normal" font-weight="normal" text-decoration="normal" x="660" y="933" text-anchor="start" dominant-baseline="alphabetic" fill-opacity="1">–5</text><text fill="rgb(37,37,37)" stroke="none" font-family="geogebra-sans-serif, sans-serif" font-size="12px" font-style="normal" font-weight="normal" text-decoration="normal" x="660" y="859" text-anchor="start" dominant-baseline="alphabetic" fill-opacity="1">–4</text><text fill="none" stroke="rgb(255,255,255)" font-family="geogebra-sans-serif, sans-serif" font-size="12px" font-style="normal" font-weight="normal" text-decoration="normal" x="660" y="859" text-anchor="start" dominant-baseline="alphabetic" stroke-opacity="1" stroke-linejoin="bevel" stroke-miterlimit="10" stroke-width="3">–4</text><text fill="rgb(37,37,37)" stroke="none" font-family="geogebra-sans-serif, sans-serif" font-size="12px" font-style="normal" font-weight="normal" text-decoration="normal" x="660" y="859" text-anchor="start" dominant-baseline="alphabetic" fill-opacity="1">–4</text><text fill="rgb(37,37,37)" stroke="none" font-family="geogebra-sans-serif, sans-serif" font-size="12px" font-style="normal" font-weight="normal" text-decoration="normal" x="660" y="786" text-anchor="start" dominant-baseline="alphabetic" fill-opacity="1">–3</text><text fill="none" stroke="rgb(255,255,255)" font-family="geogebra-sans-serif, sans-serif" font-size="12px" font-style="normal" font-weight="normal" text-decoration="normal" x="660" y="786" text-anchor="start" dominant-baseline="alphabetic" stroke-opacity="1" stroke-linejoin="bevel" stroke-miterlimit="10" stroke-width="3">–3</text><text fill="rgb(37,37,37)" stroke="none" font-family="geogebra-sans-serif, sans-serif" font-size="12px" font-style="normal" font-weight="normal" text-decoration="normal" x="660" y="786" text-anchor="start" dominant-baseline="alphabetic" fill-opacity="1">–3</text><text fill="rgb(37,37,37)" stroke="none" font-family="geogebra-sans-serif, sans-serif" font-size="12px" font-style="normal" font-weight="normal" text-decoration="normal" x="660" y="712" text-anchor="start" dominant-baseline="alphabetic" fill-opacity="1">–2</text><text fill="none" stroke="rgb(255,255,255)" font-family="geogebra-sans-serif, sans-serif" font-size="12px" font-style="normal" font-weight="normal" text-decoration="normal" x="660" y="712" text-anchor="start" dominant-baseline="alphabetic" stroke-opacity="1" stroke-linejoin="bevel" stroke-miterlimit="10" stroke-width="3">–2</text><text fill="rgb(37,37,37)" stroke="none" font-family="geogebra-sans-serif, sans-serif" font-size="12px" font-style="normal" font-weight="normal" text-decoration="normal" x="660" y="712" text-anchor="start" dominant-baseline="alphabetic" fill-opacity="1">–2</text><text fill="rgb(37,37,37)" stroke="none" font-family="geogebra-sans-serif, sans-serif" font-size="12px" font-style="normal" font-weight="normal" text-decoration="normal" x="660" y="638" text-anchor="start" dominant-baseline="alphabetic" fill-opacity="1">–1</text><text fill="none" stroke="rgb(255,255,255)" font-family="geogebra-sans-serif, sans-serif" font-size="12px" font-style="normal" font-weight="normal" text-decoration="normal" x="660" y="638" text-anchor="start" dominant-baseline="alphabetic" stroke-opacity="1" stroke-linejoin="bevel" stroke-miterlimit="10" stroke-width="3">–1</text><text fill="rgb(37,37,37)" stroke="none" font-family="geogebra-sans-serif, sans-serif" font-size="12px" font-style="normal" font-weight="normal" text-decoration="normal" x="660" y="638" text-anchor="start" dominant-baseline="alphabetic" fill-opacity="1">–1</text><text fill="rgb(37,37,37)" stroke="none" font-family="geogebra-sans-serif, sans-serif" font-size="12px" font-style="normal" font-weight="normal" text-decoration="normal" x="666" y="491" text-anchor="start" dominant-baseline="alphabetic" fill-opacity="1">1</text><text fill="none" stroke="rgb(255,255,255)" font-family="geogebra-sans-serif, sans-serif" font-size="12px" font-style="normal" font-weight="normal" text-decoration="normal" x="666" y="491" text-anchor="start" dominant-baseline="alphabetic" stroke-opacity="1" stroke-linejoin="bevel" stroke-miterlimit="10" stroke-width="3">1</text><text fill="rgb(37,37,37)" stroke="none" font-family="geogebra-sans-serif, sans-serif" font-size="12px" font-style="normal" font-weight="normal" text-decoration="normal" x="666" y="491" text-anchor="start" dominant-baseline="alphabetic" fill-opacity="1">1</text><text fill="rgb(37,37,37)" stroke="none" font-family="geogebra-sans-serif, sans-serif" font-size="12px" font-style="normal" font-weight="normal" text-decoration="normal" x="666" y="417" text-anchor="start" dominant-baseline="alphabetic" fill-opacity="1">2</text><text fill="none" stroke="rgb(255,255,255)" font-family="geogebra-sans-serif, sans-serif" font-size="12px" font-style="normal" font-weight="normal" text-decoration="normal" x="666" y="417" text-anchor="start" dominant-baseline="alphabetic" stroke-opacity="1" stroke-linejoin="bevel" stroke-miterlimit="10" stroke-width="3">2</text><text fill="rgb(37,37,37)" stroke="none" font-family="geogebra-sans-serif, sans-serif" font-size="12px" font-style="normal" font-weight="normal" text-decoration="normal" x="666" y="417" text-anchor="start" dominant-baseline="alphabetic" fill-opacity="1">2</text><text fill="rgb(37,37,37)" stroke="none" font-family="geogebra-sans-serif, sans-serif" font-size="12px" font-style="normal" font-weight="normal" text-decoration="normal" x="666" y="343" text-anchor="start" dominant-baseline="alphabetic" fill-opacity="1">3</text><text fill="none" stroke="rgb(255,255,255)" font-family="geogebra-sans-serif, sans-serif" font-size="12px" font-style="normal" font-weight="normal" text-decoration="normal" x="666" y="343" text-anchor="start" dominant-baseline="alphabetic" stroke-opacity="1" stroke-linejoin="bevel" stroke-miterlimit="10" stroke-width="3">3</text><text fill="rgb(37,37,37)" stroke="none" font-family="geogebra-sans-serif, sans-serif" font-size="12px" font-style="normal" font-weight="normal" text-decoration="normal" x="666" y="343" text-anchor="start" dominant-baseline="alphabetic" fill-opacity="1">3</text><text fill="rgb(37,37,37)" stroke="none" font-family="geogebra-sans-serif, sans-serif" font-size="12px" font-style="normal" font-weight="normal" text-decoration="normal" x="666" y="270" text-anchor="start" dominant-baseline="alphabetic" fill-opacity="1">4</text><text fill="none" stroke="rgb(255,255,255)" font-family="geogebra-sans-serif, sans-serif" font-size="12px" font-style="normal" font-weight="normal" text-decoration="normal" x="666" y="270" text-anchor="start" dominant-baseline="alphabetic" stroke-opacity="1" stroke-linejoin="bevel" stroke-miterlimit="10" stroke-width="3">4</text><text fill="rgb(37,37,37)" stroke="none" font-family="geogebra-sans-serif, sans-serif" font-size="12px" font-style="normal" font-weight="normal" text-decoration="normal" x="666" y="270" text-anchor="start" dominant-baseline="alphabetic" fill-opacity="1">4</text><text fill="rgb(37,37,37)" stroke="none" font-family="geogebra-sans-serif, sans-serif" font-size="12px" font-style="normal" font-weight="normal" text-decoration="normal" x="666" y="196" text-anchor="start" dominant-baseline="alphabetic" fill-opacity="1">5</text><text fill="none" stroke="rgb(255,255,255)" font-family="geogebra-sans-serif, sans-serif" font-size="12px" font-style="normal" font-weight="normal" text-decoration="normal" x="666" y="196" text-anchor="start" dominant-baseline="alphabetic" stroke-opacity="1" stroke-linejoin="bevel" stroke-miterlimit="10" stroke-width="3">5</text><text fill="rgb(37,37,37)" stroke="none" font-family="geogebra-sans-serif, sans-serif" font-size="12px" font-style="normal" font-weight="normal" text-decoration="normal" x="666" y="196" text-anchor="start" dominant-baseline="alphabetic" fill-opacity="1">5</text><text fill="rgb(37,37,37)" stroke="none" font-family="geogebra-sans-serif, sans-serif" font-size="12px" font-style="normal" font-weight="normal" text-decoration="normal" x="666" y="122" text-anchor="start" dominant-baseline="alphabetic" fill-opacity="1">6</text><text fill="none" stroke="rgb(255,255,255)" font-family="geogebra-sans-serif, sans-serif" font-size="12px" font-style="normal" font-weight="normal" text-decoration="normal" x="666" y="122" text-anchor="start" dominant-baseline="alphabetic" stroke-opacity="1" stroke-linejoin="bevel" stroke-miterlimit="10" stroke-width="3">6</text><text fill="rgb(37,37,37)" stroke="none" font-family="geogebra-sans-serif, sans-serif" font-size="12px" font-style="normal" font-weight="normal" text-decoration="normal" x="666" y="122" text-anchor="start" dominant-baseline="alphabetic" fill-opacity="1">6</text><text fill="rgb(37,37,37)" stroke="none" font-family="geogebra-sans-serif, sans-serif" font-size="12px" font-style="normal" font-weight="normal" text-decoration="normal" x="666" y="49" text-anchor="start" dominant-baseline="alphabetic" fill-opacity="1">7</text><text fill="none" stroke="rgb(255,255,255)" font-family="geogebra-sans-serif, sans-serif" font-size="12px" font-style="normal" font-weight="normal" text-decoration="normal" x="666" y="49" text-anchor="start" dominant-baseline="alphabetic" stroke-opacity="1" stroke-linejoin="bevel" stroke-miterlimit="10" stroke-width="3">7</text><text fill="rgb(37,37,37)" stroke="none" font-family="geogebra-sans-serif, sans-serif" font-size="12px" font-style="normal" font-weight="normal" text-decoration="normal" x="666" y="49" text-anchor="start" dominant-baseline="alphabetic" fill-opacity="1">7</text><text fill="rgb(37,37,37)" stroke="none" font-family="geogebra-sans-serif, sans-serif" font-size="12px" font-style="normal" font-weight="normal" text-decoration="normal" x="666" y="575" text-anchor="start" dominant-baseline="alphabetic" fill-opacity="1">0</text><text fill="none" stroke="rgb(255,255,255)" font-family="geogebra-sans-serif, sans-serif" font-size="12px" font-style="normal" font-weight="normal" text-decoration="normal" x="666" y="575" text-anchor="start" dominant-baseline="alphabetic" stroke-opacity="1" stroke-linejoin="bevel" stroke-miterlimit="10" stroke-width="3">0</text><text fill="rgb(37,37,37)" stroke="none" font-family="geogebra-sans-serif, sans-serif" font-size="12px" font-style="normal" font-weight="normal" text-decoration="normal" x="666" y="575" text-anchor="start" dominant-baseline="alphabetic" fill-opacity="1">0</text><path fill="none" stroke="rgb(0,100,0)" paint-order="fill stroke markers" d=" M 625.744140625 -8.894375590720415 L 627.2304687499999 -2.8251266290417334 L 628.7167968749999 3.2081377234173942 L 630.203125 9.205417466656172 L 631.6894531249999 15.166712600674146 L 633.1757812499999 21.092023125472565 L 634.6621093749999 26.981349041050635 L 636.1484375 32.83469034740858 L 637.6347656249999 38.652047044545725 L 639.1210937499999 44.43341913246309 L 640.607421875 50.17880661116038 L 642.0937499999999 55.888209480636874 L 643.5800781249999 61.5616277408937 L 645.0664062499999 67.19906139193023 L 646.552734375 72.80051043374664 L 648.0390624999999 78.36597486634224 L 649.5253906249999 83.89545468971812 L 651.01171875 89.38894990387382 L 652.498046875 94.84646050880929 L 653.9843749999999 100.26798650452406 L 655.4707031249999 105.65352789101911 L 656.95703125 111.00308466829392 L 658.4433593749999 116.31665683634799 L 659.9296874999999 121.59424439518239 L 661.416015625 126.83584734479655 L 662.90234375 132.04146568519042 L 664.3886718749999 137.2110994163637 L 665.8749999999999 142.34474853831716 L 667.361328125 147.44241305105044 L 668.8476562499999 152.50409295456296 L 670.3339843749999 157.52978824885577 L 671.8203124999999 162.51949893392845 L 674.7929687499999 172.39096647641247 L 677.765625 182.11849558201612 L 680.7382812499999 191.70208625073843 L 683.7109375 201.1417384825803 L 686.6835937499999 210.4374522775409 L 689.65625 219.58922763562094 L 692.6289062499999 228.59706455681982 L 695.6015624999999 237.46096304113775 L 698.57421875 246.18092308857518 L 701.5468749999999 254.75694469913134 L 704.51953125 263.189027872807 L 707.4921874999999 271.47717260960144 L 710.46484375 279.62137890951533 L 713.4374999999999 287.621646772548 L 716.4101562499999 295.47797619869976 L 719.3828124999999 303.19036718797105 L 722.3554687499999 310.75881974036105 L 725.328125 318.18333385587056 L 728.3007812499999 325.46390953449884 L 731.2734375 332.6005467762466 L 734.2460937499999 339.593245581113 L 737.2187499999999 346.4420059490987 L 740.1914062499999 353.1468278802038 L 743.1640624999999 359.7077113744276 L 746.13671875 366.124656431771 L 749.1093749999999 372.39766305223304 L 752.08203125 378.52673123581457 L 755.0546874999999 384.5118609825149 L 758.02734375 390.3530522923347 L 760.9999999999999 396.0503051652733 L 763.9726562499999 401.60361960133105 L 766.9453124999999 407.01299560050813 L 769.9179687499999 412.27843316280416 L 772.890625 417.3999322882195 L 778.8359375 427.21111522840715 L 784.78125 436.44654442107145 L 790.7265624999999 445.106219866212 L 796.6718749999999 453.19014156382923 L 802.6171874999999 460.69830951392294 L 808.5624999999999 467.63072371649304 L 814.5078125 473.9873841715397 L 820.453125 479.76829087906276 L 826.3984375 484.9734438390624 L 832.3437499999999 489.60284305153834 L 838.2890624999999 493.65648851649087 L 844.2343749999999 497.1343802339199 L 850.1796874999999 500.0365182038253 L 856.1249999999999 502.3629024262073 L 862.0703125 504.1135329010657 L 868.015625 505.2884096284006 L 873.9609375 505.887532608212 L 879.90625 505.91090184049983 L 885.8515624999999 505.3585173252642 L 891.7968749999999 504.2303790625049 L 897.7421874999999 502.5264870522222 L 903.6874999999999 500.246841294416 L 909.6328124999999 497.3914417890863 L 915.578125 493.96028853623295 L 921.5234375 489.9533815358562 L 927.4687499999999 485.37072078795575 L 933.4140624999999 480.212306292532 L 939.3593749999999 474.4781380495846 L 945.3046874999999 468.1682160591137 L 951.2499999999999 461.28254032111903 L 957.1953125 453.8211108356011 L 963.140625 445.7839276025597 L 969.0859375 437.1709906219947 L 975.03125 427.9822998939061 L 980.9765624999999 418.2178554182941 L 983.94921875 413.1197255251667 L 986.9218749999999 407.8776571951586 L 989.89453125 402.4916504282692 L 992.8671874999999 396.96170522449944 L 995.83984375 391.2878215838484 L 998.8124999999999 385.4699995063169 L 1001.7851562499998 379.50823899190425 L 1004.7578125 373.4025400406106 L 1007.7304687499999 367.15290265243635 L 1010.703125 360.75932682738073 L 1013.6757812499999 354.22181256544485 L 1016.6484375 347.54035986662757 L 1019.6210937499999 340.71496873092985 L 1022.5937499999998 333.7456391583512 L 1025.56640625 326.6323711488913 L 1028.5390624999998 319.3751647025507 L 1031.51171875 311.97401981932927 L 1034.484375 304.428936499227 L 1037.45703125 296.7399147422436 L 1040.4296875 288.9069545483797 L 1043.40234375 280.93005591763455 L 1046.375 272.8092188500089 L 1049.3476562499998 264.5444433455022 L 1052.3203125 256.13572940411456 L 1055.29296875 247.58307702584602 L 1058.265625 238.88648621069643 L 1061.23828125 230.0459569586664 L 1064.2109375 221.0614892697551 L 1067.18359375 211.93308314396313 L 1070.15625 202.66073858128993 L 1073.12890625 193.2444555817363 L 1076.1015624999998 183.68423414530196 L 1079.07421875 173.9800742719861 L 1082.046875 164.1319759617901 L 1085.01953125 154.13993921471229 L 1086.5058593749998 149.08994392734394 L 1087.9921875 144.00396403075433 L 1089.478515625 138.88199952494512 L 1090.96484375 133.72405040991515 L 1092.451171875 128.53011668566558 L 1093.9375 123.30019835219531 L 1095.423828125 118.03429540950481 L 1096.9101562499998 112.73240785759447 L 1098.396484375 107.39453569646389 L 1099.8828125 102.02067892611262 L 1101.369140625 96.61083754654146 L 1102.85546875 91.16501155775035 L 1104.341796875 85.6832009597386 L 1105.828125 80.16540575250662 L 1107.3144531249998 74.61162593605474 L 1108.80078125 69.02186151038245 L 1110.287109375 63.39611247548993 L 1111.7734375 57.73437883137677 L 1113.2597656249998 52.03666057804446 L 1114.74609375 46.302957715491175 L 1116.232421875 40.533270243717766 L 1117.7187499999998 34.72759816272435 L 1119.205078125 28.88594147251024 L 1120.69140625 23.00830017307601 L 1122.177734375 17.094674264421883 L 1123.6640624999998 11.145063746547748 L 1125.150390625 5.159468619452809 L 1126.63671875 -0.8621111168621383 L 1128.123046875 -6.919675462397549" stroke-opacity="0.6980392156862745" stroke-linecap="round" stroke-linejoin="round" stroke-miterlimit="10" stroke-width="2.5"/><text fill="rgb(0,100,0)" stroke="none" font-family="geogebra-sans-serif, sans-serif" font-size="16px" font-style="normal" font-weight="normal" text-decoration="normal" x="628" y="24" text-anchor="start" dominant-baseline="alphabetic" fill-opacity="1">f</text><text fill="none" stroke="rgb(255,255,255)" font-family="geogebra-sans-serif, sans-serif" font-size="16px" font-style="normal" font-weight="normal" text-decoration="normal" x="628" y="24" text-anchor="start" dominant-baseline="alphabetic" stroke-opacity="1" stroke-linejoin="bevel" stroke-miterlimit="10" stroke-width="3">f</text><text fill="rgb(0,100,0)" stroke="none" font-family="geogebra-sans-serif, sans-serif" font-size="16px" font-style="normal" font-weight="normal" text-decoration="normal" x="628" y="24" text-anchor="start" dominant-baseline="alphabetic" fill-opacity="1">f</text><path fill="rgb(68,68,68)" stroke="none" paint-order="stroke fill markers" d=" M 881.1749076614316 505.9716607089389 C 881.1749076614316 508.18079970826204 879.3840466607547 509.9716607089389 877.1749076614316 509.9716607089389 C 874.9657686621084 509.9716607089389 873.1749076614316 508.18079970826204 873.1749076614316 505.9716607089389 C 873.1749076614316 503.7625217096157 874.9657686621084 501.9716607089389 877.1749076614316 501.9716607089389 C 879.3840466607547 501.9716607089389 881.1749076614316 503.7625217096157 881.1749076614316 505.9716607089389 Z" fill-opacity="1"/><path fill="none" stroke="rgb(0,0,0)" paint-order="fill stroke markers" d=" M 881.1749076614316 505.9716607089389 C 881.1749076614316 508.18079970826204 879.3840466607547 509.9716607089389 877.1749076614316 509.9716607089389 C 874.9657686621084 509.9716607089389 873.1749076614316 508.18079970826204 873.1749076614316 505.9716607089389 C 873.1749076614316 503.7625217096157 874.9657686621084 501.9716607089389 877.1749076614316 501.9716607089389 C 879.3840466607547 501.9716607089389 881.1749076614316 503.7625217096157 881.1749076614316 505.9716607089389 Z" stroke-opacity="1" stroke-linecap="round" stroke-linejoin="round" stroke-miterlimit="10"/><text fill="rgb(68,68,68)" stroke="none" font-family="geogebra-sans-serif, sans-serif" font-size="16px" font-style="normal" font-weight="normal" text-decoration="normal" x="881" y="498" text-anchor="start" dominant-baseline="alphabetic" fill-opacity="1">V</text><text fill="none" stroke="rgb(255,255,255)" font-family="geogebra-sans-serif, sans-serif" font-size="16px" font-style="normal" font-weight="normal" text-decoration="normal" x="881" y="498" text-anchor="start" dominant-baseline="alphabetic" stroke-opacity="1" stroke-linejoin="bevel" stroke-miterlimit="10" stroke-width="3">V</text><text fill="rgb(68,68,68)" stroke="none" font-family="geogebra-sans-serif, sans-serif" font-size="16px" font-style="normal" font-weight="normal" text-decoration="normal" x="881" y="498" text-anchor="start" dominant-baseline="alphabetic" fill-opacity="1">V</text><path fill="rgb(68,68,68)" stroke="none" paint-order="stroke fill markers" d=" M 684.7201371992061 191.64402796937782 C 684.7201371992061 193.85316696870098 682.9292761985292 195.64402796937782 680.7201371992061 195.64402796937782 C 678.5109981998829 195.64402796937782 676.7201371992061 193.85316696870098 676.7201371992061 191.64402796937782 C 676.7201371992061 189.43488897005463 678.5109981998829 187.64402796937782 680.7201371992061 187.64402796937782 C 682.9292761985292 187.64402796937782 684.7201371992061 189.43488897005463 684.7201371992061 191.64402796937782 Z" fill-opacity="1"/><path fill="none" stroke="rgb(0,0,0)" paint-order="fill stroke markers" d=" M 684.7201371992061 191.64402796937782 C 684.7201371992061 193.85316696870098 682.9292761985292 195.64402796937782 680.7201371992061 195.64402796937782 C 678.5109981998829 195.64402796937782 676.7201371992061 193.85316696870098 676.7201371992061 191.64402796937782 C 676.7201371992061 189.43488897005463 678.5109981998829 187.64402796937782 680.7201371992061 187.64402796937782 C 682.9292761985292 187.64402796937782 684.7201371992061 189.43488897005463 684.7201371992061 191.64402796937782 Z" stroke-opacity="1" stroke-linecap="round" stroke-linejoin="round" stroke-miterlimit="10"/><text fill="rgb(68,68,68)" stroke="none" font-family="geogebra-sans-serif, sans-serif" font-size="16px" font-style="normal" font-weight="normal" text-decoration="normal" x="685" y="184" text-anchor="start" dominant-baseline="alphabetic" fill-opacity="1">C</text><text fill="none" stroke="rgb(255,255,255)" font-family="geogebra-sans-serif, sans-serif" font-size="16px" font-style="normal" font-weight="normal" text-decoration="normal" x="685" y="184" text-anchor="start" dominant-baseline="alphabetic" stroke-opacity="1" stroke-linejoin="bevel" stroke-miterlimit="10" stroke-width="3">C</text><text fill="rgb(68,68,68)" stroke="none" font-family="geogebra-sans-serif, sans-serif" font-size="16px" font-style="normal" font-weight="normal" text-decoration="normal" x="685" y="184" text-anchor="start" dominant-baseline="alphabetic" fill-opacity="1">C</text></g></g></svg>