<svg version="1.1" xmlns="http://www.w3.org/2000/svg" xmlns:xlink="http://www.w3.org/1999/xlink" width="952" height="591"><defs><clipPath id="SVHuKUqTkAGu"><path fill="none" stroke="none" d=" M 0 0 L 952 0 L 952 591 L 0 591 L 0 0 Z"/></clipPath></defs><g transform="scale(1,1)" clip-path="url(#SVHuKUqTkAGu)"><g><rect fill="rgb(255,255,255)" stroke="none" x="0" y="0" width="952" height="591" fill-opacity="1"/><path fill="none" stroke="rgb(192,192,192)" paint-order="fill stroke markers" d=" M 4.5 0.5 L 4.5 591.5 M 4.5 0.5 L 4.5 591.5 M 81.5 0.5 L 81.5 591.5 M 158.5 0.5 L 158.5 591.5 M 235.5 0.5 L 235.5 591.5 M 312.5 0.5 L 312.5 591.5 M 389.5 0.5 L 389.5 591.5 M 543.5 0.5 L 543.5 591.5 M 621.5 0.5 L 621.5 591.5 M 698.5 0.5 L 698.5 591.5 M 775.5 0.5 L 775.5 591.5 M 852.5 0.5 L 852.5 591.5 M 929.5 0.5 L 929.5 591.5" stroke-opacity="1" stroke-linecap="round" stroke-linejoin="round" stroke-miterlimit="10"/><path fill="none" stroke="rgb(192,192,192)" paint-order="fill stroke markers" d=" M 20.5 0.5 L 20.5 591.5 M 35.5 0.5 L 35.5 591.5 M 51.5 0.5 L 51.5 591.5 M 66.5 0.5 L 66.5 591.5 M 97.5 0.5 L 97.5 591.5 M 112.5 0.5 L 112.5 591.5 M 128.5 0.5 L 128.5 591.5 M 143.5 0.5 L 143.5 591.5 M 174.5 0.5 L 174.5 591.5 M 189.5 0.5 L 189.5 591.5 M 205.5 0.5 L 205.5 591.5 M 220.5 0.5 L 220.5 591.5 M 251.5 0.5 L 251.5 591.5 M 266.5 0.5 L 266.5 591.5 M 282.5 0.5 L 282.5 591.5 M 297.5 0.5 L 297.5 591.5 M 328.5 0.5 L 328.5 591.5 M 343.5 0.5 L 343.5 591.5 M 359.5 0.5 L 359.5 591.5 M 374.5 0.5 L 374.5 591.5 M 405.5 0.5 L 405.5 591.5 M 420.5 0.5 L 420.5 591.5 M 436.5 0.5 L 436.5 591.5 M 451.5 0.5 L 451.5 591.5 M 482.5 0.5 L 482.5 591.5 M 497.5 0.5 L 497.5 591.5 M 513.5 0.5 L 513.5 591.5 M 528.5 0.5 L 528.5 591.5 M 559.5 0.5 L 559.5 591.5 M 574.5 0.5 L 574.5 591.5 M 590.5 0.5 L 590.5 591.5 M 605.5 0.5 L 605.5 591.5 M 636.5 0.5 L 636.5 591.5 M 651.5 0.5 L 651.5 591.5 M 667.5 0.5 L 667.5 591.5 M 682.5 0.5 L 682.5 591.5 M 713.5 0.5 L 713.5 591.5 M 728.5 0.5 L 728.5 591.5 M 744.5 0.5 L 744.5 591.5 M 759.5 0.5 L 759.5 591.5 M 790.5 0.5 L 790.5 591.5 M 805.5 0.5 L 805.5 591.5 M 821.5 0.5 L 821.5 591.5 M 836.5 0.5 L 836.5 591.5 M 867.5 0.5 L 867.5 591.5 M 882.5 0.5 L 882.5 591.5 M 898.5 0.5 L 898.5 591.5 M 913.5 0.5 L 913.5 591.5 M 944.5 0.5 L 944.5 591.5" stroke-opacity="0.23529411764705882" stroke-linecap="round" stroke-linejoin="round" stroke-miterlimit="10"/><path fill="none" stroke="rgb(192,192,192)" paint-order="fill stroke markers" d=" M 0.5 16.5 L 952.5 16.5 M 0.5 16.5 L 952.5 16.5 M 0.5 65.5 L 952.5 65.5 M 0.5 114.5 L 952.5 114.5 M 0.5 163.5 L 952.5 163.5 M 0.5 212.5 L 952.5 212.5 M 0.5 261.5 L 952.5 261.5 M 0.5 360.5 L 952.5 360.5 M 0.5 409.5 L 952.5 409.5 M 0.5 458.5 L 952.5 458.5 M 0.5 507.5 L 952.5 507.5 M 0.5 556.5 L 952.5 556.5" stroke-opacity="1" stroke-linecap="round" stroke-linejoin="round" stroke-miterlimit="10"/><path fill="none" stroke="rgb(192,192,192)" paint-order="fill stroke markers" d=" M 0.5 7.5 L 952.5 7.5 M 0.5 7.5 L 952.5 7.5 M 0.5 26.5 L 952.5 26.5 M 0.5 36.5 L 952.5 36.5 M 0.5 46.5 L 952.5 46.5 M 0.5 56.5 L 952.5 56.5 M 0.5 75.5 L 952.5 75.5 M 0.5 85.5 L 952.5 85.5 M 0.5 95.5 L 952.5 95.5 M 0.5 105.5 L 952.5 105.5 M 0.5 124.5 L 952.5 124.5 M 0.5 134.5 L 952.5 134.5 M 0.5 144.5 L 952.5 144.5 M 0.5 154.5 L 952.5 154.5 M 0.5 173.5 L 952.5 173.5 M 0.5 183.5 L 952.5 183.5 M 0.5 193.5 L 952.5 193.5 M 0.5 203.5 L 952.5 203.5 M 0.5 222.5 L 952.5 222.5 M 0.5 232.5 L 952.5 232.5 M 0.5 242.5 L 952.5 242.5 M 0.5 252.5 L 952.5 252.5 M 0.5 271.5 L 952.5 271.5 M 0.5 281.5 L 952.5 281.5 M 0.5 291.5 L 952.5 291.5 M 0.5 301.5 L 952.5 301.5 M 0.5 320.5 L 952.5 320.5 M 0.5 330.5 L 952.5 330.5 M 0.5 340.5 L 952.5 340.5 M 0.5 350.5 L 952.5 350.5 M 0.5 369.5 L 952.5 369.5 M 0.5 379.5 L 952.5 379.5 M 0.5 389.5 L 952.5 389.5 M 0.5 399.5 L 952.5 399.5 M 0.5 418.5 L 952.5 418.5 M 0.5 428.5 L 952.5 428.5 M 0.5 438.5 L 952.5 438.5 M 0.5 448.5 L 952.5 448.5 M 0.5 467.5 L 952.5 467.5 M 0.5 477.5 L 952.5 477.5 M 0.5 487.5 L 952.5 487.5 M 0.5 497.5 L 952.5 497.5 M 0.5 516.5 L 952.5 516.5 M 0.5 526.5 L 952.5 526.5 M 0.5 536.5 L 952.5 536.5 M 0.5 546.5 L 952.5 546.5 M 0.5 565.5 L 952.5 565.5 M 0.5 575.5 L 952.5 575.5 M 0.5 585.5 L 952.5 585.5" stroke-opacity="0.23529411764705882" stroke-linecap="round" stroke-linejoin="round" stroke-miterlimit="10"/><path fill="none" stroke="rgb(37,37,37)" paint-order="fill stroke markers" d=" M 466.5 2.5 L 466.5 591.5" stroke-opacity="1" stroke-miterlimit="10"/><path fill="none" stroke="rgb(37,37,37)" paint-order="fill stroke markers" d=" M 466.5 1.5 L 462.5 5.5" stroke-opacity="1" stroke-miterlimit="10"/><path fill="none" stroke="rgb(37,37,37)" paint-order="fill stroke markers" d=" M 466.5 1.5 L 470.5 5.5" stroke-opacity="1" stroke-miterlimit="10"/><path fill="none" stroke="rgb(37,37,37)" paint-order="fill stroke markers" d=" M 0.5 311.5 L 950.5 311.5" stroke-opacity="1" stroke-miterlimit="10"/><path fill="none" stroke="rgb(37,37,37)" paint-order="fill stroke markers" d=" M 951.5 311.5 L 947.5 307.5" stroke-opacity="1" stroke-miterlimit="10"/><path fill="none" stroke="rgb(37,37,37)" paint-order="fill stroke markers" d=" M 951.5 311.5 L 947.5 315.5" stroke-opacity="1" stroke-miterlimit="10"/><text fill="rgb(37,37,37)" stroke="none" font-family="geogebra-sans-serif, sans-serif" font-size="12px" font-style="normal" font-weight="normal" text-decoration="normal" x="73" y="327" text-anchor="start" dominant-baseline="alphabetic" fill-opacity="1">–5π</text><text fill="none" stroke="rgb(255,255,255)" font-family="geogebra-sans-serif, sans-serif" font-size="12px" font-style="normal" font-weight="normal" text-decoration="normal" x="73" y="327" text-anchor="start" dominant-baseline="alphabetic" stroke-opacity="1" stroke-linejoin="bevel" stroke-miterlimit="10" stroke-width="3">–5π</text><text fill="rgb(37,37,37)" stroke="none" font-family="geogebra-sans-serif, sans-serif" font-size="12px" font-style="normal" font-weight="normal" text-decoration="normal" x="73" y="327" text-anchor="start" dominant-baseline="alphabetic" fill-opacity="1">–5π</text><text fill="rgb(37,37,37)" stroke="none" font-family="geogebra-sans-serif, sans-serif" font-size="12px" font-style="normal" font-weight="normal" text-decoration="normal" x="150" y="327" text-anchor="start" dominant-baseline="alphabetic" fill-opacity="1">–4π</text><text fill="none" stroke="rgb(255,255,255)" font-family="geogebra-sans-serif, sans-serif" font-size="12px" font-style="normal" font-weight="normal" text-decoration="normal" x="150" y="327" text-anchor="start" dominant-baseline="alphabetic" stroke-opacity="1" stroke-linejoin="bevel" stroke-miterlimit="10" stroke-width="3">–4π</text><text fill="rgb(37,37,37)" stroke="none" font-family="geogebra-sans-serif, sans-serif" font-size="12px" font-style="normal" font-weight="normal" text-decoration="normal" x="150" y="327" text-anchor="start" dominant-baseline="alphabetic" fill-opacity="1">–4π</text><text fill="rgb(37,37,37)" stroke="none" font-family="geogebra-sans-serif, sans-serif" font-size="12px" font-style="normal" font-weight="normal" text-decoration="normal" x="227" y="327" text-anchor="start" dominant-baseline="alphabetic" fill-opacity="1">–3π</text><text fill="none" stroke="rgb(255,255,255)" font-family="geogebra-sans-serif, sans-serif" font-size="12px" font-style="normal" font-weight="normal" text-decoration="normal" x="227" y="327" text-anchor="start" dominant-baseline="alphabetic" stroke-opacity="1" stroke-linejoin="bevel" stroke-miterlimit="10" stroke-width="3">–3π</text><text fill="rgb(37,37,37)" stroke="none" font-family="geogebra-sans-serif, sans-serif" font-size="12px" font-style="normal" font-weight="normal" text-decoration="normal" x="227" y="327" text-anchor="start" dominant-baseline="alphabetic" fill-opacity="1">–3π</text><text fill="rgb(37,37,37)" stroke="none" font-family="geogebra-sans-serif, sans-serif" font-size="12px" font-style="normal" font-weight="normal" text-decoration="normal" x="304" y="327" text-anchor="start" dominant-baseline="alphabetic" fill-opacity="1">–2π</text><text fill="none" stroke="rgb(255,255,255)" font-family="geogebra-sans-serif, sans-serif" font-size="12px" font-style="normal" font-weight="normal" text-decoration="normal" x="304" y="327" text-anchor="start" dominant-baseline="alphabetic" stroke-opacity="1" stroke-linejoin="bevel" stroke-miterlimit="10" stroke-width="3">–2π</text><text fill="rgb(37,37,37)" stroke="none" font-family="geogebra-sans-serif, sans-serif" font-size="12px" font-style="normal" font-weight="normal" text-decoration="normal" x="304" y="327" text-anchor="start" dominant-baseline="alphabetic" fill-opacity="1">–2π</text><text fill="rgb(37,37,37)" stroke="none" font-family="geogebra-sans-serif, sans-serif" font-size="12px" font-style="normal" font-weight="normal" text-decoration="normal" x="384" y="327" text-anchor="start" dominant-baseline="alphabetic" fill-opacity="1">–π</text><text fill="none" stroke="rgb(255,255,255)" font-family="geogebra-sans-serif, sans-serif" font-size="12px" font-style="normal" font-weight="normal" text-decoration="normal" x="384" y="327" text-anchor="start" dominant-baseline="alphabetic" stroke-opacity="1" stroke-linejoin="bevel" stroke-miterlimit="10" stroke-width="3">–π</text><text fill="rgb(37,37,37)" stroke="none" font-family="geogebra-sans-serif, sans-serif" font-size="12px" font-style="normal" font-weight="normal" text-decoration="normal" x="384" y="327" text-anchor="start" dominant-baseline="alphabetic" fill-opacity="1">–π</text><text fill="rgb(37,37,37)" stroke="none" font-family="geogebra-sans-serif, sans-serif" font-size="12px" font-style="normal" font-weight="normal" text-decoration="normal" x="541" y="327" text-anchor="start" dominant-baseline="alphabetic" fill-opacity="1">π</text><text fill="none" stroke="rgb(255,255,255)" font-family="geogebra-sans-serif, sans-serif" font-size="12px" font-style="normal" font-weight="normal" text-decoration="normal" x="541" y="327" text-anchor="start" dominant-baseline="alphabetic" stroke-opacity="1" stroke-linejoin="bevel" stroke-miterlimit="10" stroke-width="3">π</text><text fill="rgb(37,37,37)" stroke="none" font-family="geogebra-sans-serif, sans-serif" font-size="12px" font-style="normal" font-weight="normal" text-decoration="normal" x="541" y="327" text-anchor="start" dominant-baseline="alphabetic" fill-opacity="1">π</text><text fill="rgb(37,37,37)" stroke="none" font-family="geogebra-sans-serif, sans-serif" font-size="12px" font-style="normal" font-weight="normal" text-decoration="normal" x="616" y="327" text-anchor="start" dominant-baseline="alphabetic" fill-opacity="1">2π</text><text fill="none" stroke="rgb(255,255,255)" font-family="geogebra-sans-serif, sans-serif" font-size="12px" font-style="normal" font-weight="normal" text-decoration="normal" x="616" y="327" text-anchor="start" dominant-baseline="alphabetic" stroke-opacity="1" stroke-linejoin="bevel" stroke-miterlimit="10" stroke-width="3">2π</text><text fill="rgb(37,37,37)" stroke="none" font-family="geogebra-sans-serif, sans-serif" font-size="12px" font-style="normal" font-weight="normal" text-decoration="normal" x="616" y="327" text-anchor="start" dominant-baseline="alphabetic" fill-opacity="1">2π</text><text fill="rgb(37,37,37)" stroke="none" font-family="geogebra-sans-serif, sans-serif" font-size="12px" font-style="normal" font-weight="normal" text-decoration="normal" x="693" y="327" text-anchor="start" dominant-baseline="alphabetic" fill-opacity="1">3π</text><text fill="none" stroke="rgb(255,255,255)" font-family="geogebra-sans-serif, sans-serif" font-size="12px" font-style="normal" font-weight="normal" text-decoration="normal" x="693" y="327" text-anchor="start" dominant-baseline="alphabetic" stroke-opacity="1" stroke-linejoin="bevel" stroke-miterlimit="10" stroke-width="3">3π</text><text fill="rgb(37,37,37)" stroke="none" font-family="geogebra-sans-serif, sans-serif" font-size="12px" font-style="normal" font-weight="normal" text-decoration="normal" x="693" y="327" text-anchor="start" dominant-baseline="alphabetic" fill-opacity="1">3π</text><text fill="rgb(37,37,37)" stroke="none" font-family="geogebra-sans-serif, sans-serif" font-size="12px" font-style="normal" font-weight="normal" text-decoration="normal" x="770" y="327" text-anchor="start" dominant-baseline="alphabetic" fill-opacity="1">4π</text><text fill="none" stroke="rgb(255,255,255)" font-family="geogebra-sans-serif, sans-serif" font-size="12px" font-style="normal" font-weight="normal" text-decoration="normal" x="770" y="327" text-anchor="start" dominant-baseline="alphabetic" stroke-opacity="1" stroke-linejoin="bevel" stroke-miterlimit="10" stroke-width="3">4π</text><text fill="rgb(37,37,37)" stroke="none" font-family="geogebra-sans-serif, sans-serif" font-size="12px" font-style="normal" font-weight="normal" text-decoration="normal" x="770" y="327" text-anchor="start" dominant-baseline="alphabetic" fill-opacity="1">4π</text><text fill="rgb(37,37,37)" stroke="none" font-family="geogebra-sans-serif, sans-serif" font-size="12px" font-style="normal" font-weight="normal" text-decoration="normal" x="847" y="327" text-anchor="start" dominant-baseline="alphabetic" fill-opacity="1">5π</text><text fill="none" stroke="rgb(255,255,255)" font-family="geogebra-sans-serif, sans-serif" font-size="12px" font-style="normal" font-weight="normal" text-decoration="normal" x="847" y="327" text-anchor="start" dominant-baseline="alphabetic" stroke-opacity="1" stroke-linejoin="bevel" stroke-miterlimit="10" stroke-width="3">5π</text><text fill="rgb(37,37,37)" stroke="none" font-family="geogebra-sans-serif, sans-serif" font-size="12px" font-style="normal" font-weight="normal" text-decoration="normal" x="847" y="327" text-anchor="start" dominant-baseline="alphabetic" fill-opacity="1">5π</text><text fill="rgb(37,37,37)" stroke="none" font-family="geogebra-sans-serif, sans-serif" font-size="12px" font-style="normal" font-weight="normal" text-decoration="normal" x="924" y="327" text-anchor="start" dominant-baseline="alphabetic" fill-opacity="1">6π</text><text fill="none" stroke="rgb(255,255,255)" font-family="geogebra-sans-serif, sans-serif" font-size="12px" font-style="normal" font-weight="normal" text-decoration="normal" x="924" y="327" text-anchor="start" dominant-baseline="alphabetic" stroke-opacity="1" stroke-linejoin="bevel" stroke-miterlimit="10" stroke-width="3">6π</text><text fill="rgb(37,37,37)" stroke="none" font-family="geogebra-sans-serif, sans-serif" font-size="12px" font-style="normal" font-weight="normal" text-decoration="normal" x="924" y="327" text-anchor="start" dominant-baseline="alphabetic" fill-opacity="1">6π</text><text fill="rgb(37,37,37)" stroke="none" font-family="geogebra-sans-serif, sans-serif" font-size="12px" font-style="normal" font-weight="normal" text-decoration="normal" x="439" y="561" text-anchor="start" dominant-baseline="alphabetic" fill-opacity="1">–10</text><text fill="none" stroke="rgb(255,255,255)" font-family="geogebra-sans-serif, sans-serif" font-size="12px" font-style="normal" font-weight="normal" text-decoration="normal" x="439" y="561" text-anchor="start" dominant-baseline="alphabetic" stroke-opacity="1" stroke-linejoin="bevel" stroke-miterlimit="10" stroke-width="3">–10</text><text fill="rgb(37,37,37)" stroke="none" font-family="geogebra-sans-serif, sans-serif" font-size="12px" font-style="normal" font-weight="normal" text-decoration="normal" x="439" y="561" text-anchor="start" dominant-baseline="alphabetic" fill-opacity="1">–10</text><text fill="rgb(37,37,37)" stroke="none" font-family="geogebra-sans-serif, sans-serif" font-size="12px" font-style="normal" font-weight="normal" text-decoration="normal" x="446" y="512" text-anchor="start" dominant-baseline="alphabetic" fill-opacity="1">–8</text><text fill="none" stroke="rgb(255,255,255)" font-family="geogebra-sans-serif, sans-serif" font-size="12px" font-style="normal" font-weight="normal" text-decoration="normal" x="446" y="512" text-anchor="start" dominant-baseline="alphabetic" stroke-opacity="1" stroke-linejoin="bevel" stroke-miterlimit="10" stroke-width="3">–8</text><text fill="rgb(37,37,37)" stroke="none" font-family="geogebra-sans-serif, sans-serif" font-size="12px" font-style="normal" font-weight="normal" text-decoration="normal" x="446" y="512" text-anchor="start" dominant-baseline="alphabetic" fill-opacity="1">–8</text><text fill="rgb(37,37,37)" stroke="none" font-family="geogebra-sans-serif, sans-serif" font-size="12px" font-style="normal" font-weight="normal" text-decoration="normal" x="446" y="463" text-anchor="start" dominant-baseline="alphabetic" fill-opacity="1">–6</text><text fill="none" stroke="rgb(255,255,255)" font-family="geogebra-sans-serif, sans-serif" font-size="12px" font-style="normal" font-weight="normal" text-decoration="normal" x="446" y="463" text-anchor="start" dominant-baseline="alphabetic" stroke-opacity="1" stroke-linejoin="bevel" stroke-miterlimit="10" stroke-width="3">–6</text><text fill="rgb(37,37,37)" stroke="none" font-family="geogebra-sans-serif, sans-serif" font-size="12px" font-style="normal" font-weight="normal" text-decoration="normal" x="446" y="463" text-anchor="start" dominant-baseline="alphabetic" fill-opacity="1">–6</text><text fill="rgb(37,37,37)" stroke="none" font-family="geogebra-sans-serif, sans-serif" font-size="12px" font-style="normal" font-weight="normal" text-decoration="normal" x="446" y="414" text-anchor="start" dominant-baseline="alphabetic" fill-opacity="1">–4</text><text fill="none" stroke="rgb(255,255,255)" font-family="geogebra-sans-serif, sans-serif" font-size="12px" font-style="normal" font-weight="normal" text-decoration="normal" x="446" y="414" text-anchor="start" dominant-baseline="alphabetic" stroke-opacity="1" stroke-linejoin="bevel" stroke-miterlimit="10" stroke-width="3">–4</text><text fill="rgb(37,37,37)" stroke="none" font-family="geogebra-sans-serif, sans-serif" font-size="12px" font-style="normal" font-weight="normal" text-decoration="normal" x="446" y="414" text-anchor="start" dominant-baseline="alphabetic" fill-opacity="1">–4</text><text fill="rgb(37,37,37)" stroke="none" font-family="geogebra-sans-serif, sans-serif" font-size="12px" font-style="normal" font-weight="normal" text-decoration="normal" x="446" y="365" text-anchor="start" dominant-baseline="alphabetic" fill-opacity="1">–2</text><text fill="none" stroke="rgb(255,255,255)" font-family="geogebra-sans-serif, sans-serif" font-size="12px" font-style="normal" font-weight="normal" text-decoration="normal" x="446" y="365" text-anchor="start" dominant-baseline="alphabetic" stroke-opacity="1" stroke-linejoin="bevel" stroke-miterlimit="10" stroke-width="3">–2</text><text fill="rgb(37,37,37)" stroke="none" font-family="geogebra-sans-serif, sans-serif" font-size="12px" font-style="normal" font-weight="normal" text-decoration="normal" x="446" y="365" text-anchor="start" dominant-baseline="alphabetic" fill-opacity="1">–2</text><text fill="rgb(37,37,37)" stroke="none" font-family="geogebra-sans-serif, sans-serif" font-size="12px" font-style="normal" font-weight="normal" text-decoration="normal" x="452" y="266" text-anchor="start" dominant-baseline="alphabetic" fill-opacity="1">2</text><text fill="none" stroke="rgb(255,255,255)" font-family="geogebra-sans-serif, sans-serif" font-size="12px" font-style="normal" font-weight="normal" text-decoration="normal" x="452" y="266" text-anchor="start" dominant-baseline="alphabetic" stroke-opacity="1" stroke-linejoin="bevel" stroke-miterlimit="10" stroke-width="3">2</text><text fill="rgb(37,37,37)" stroke="none" font-family="geogebra-sans-serif, sans-serif" font-size="12px" font-style="normal" font-weight="normal" text-decoration="normal" x="452" y="266" text-anchor="start" dominant-baseline="alphabetic" fill-opacity="1">2</text><text fill="rgb(37,37,37)" stroke="none" font-family="geogebra-sans-serif, sans-serif" font-size="12px" font-style="normal" font-weight="normal" text-decoration="normal" x="452" y="217" text-anchor="start" dominant-baseline="alphabetic" fill-opacity="1">4</text><text fill="none" stroke="rgb(255,255,255)" font-family="geogebra-sans-serif, sans-serif" font-size="12px" font-style="normal" font-weight="normal" text-decoration="normal" x="452" y="217" text-anchor="start" dominant-baseline="alphabetic" stroke-opacity="1" stroke-linejoin="bevel" stroke-miterlimit="10" stroke-width="3">4</text><text fill="rgb(37,37,37)" stroke="none" font-family="geogebra-sans-serif, sans-serif" font-size="12px" font-style="normal" font-weight="normal" text-decoration="normal" x="452" y="217" text-anchor="start" dominant-baseline="alphabetic" fill-opacity="1">4</text><text fill="rgb(37,37,37)" stroke="none" font-family="geogebra-sans-serif, sans-serif" font-size="12px" font-style="normal" font-weight="normal" text-decoration="normal" x="452" y="168" text-anchor="start" dominant-baseline="alphabetic" fill-opacity="1">6</text><text fill="none" stroke="rgb(255,255,255)" font-family="geogebra-sans-serif, sans-serif" font-size="12px" font-style="normal" font-weight="normal" text-decoration="normal" x="452" y="168" text-anchor="start" dominant-baseline="alphabetic" stroke-opacity="1" stroke-linejoin="bevel" stroke-miterlimit="10" stroke-width="3">6</text><text fill="rgb(37,37,37)" stroke="none" font-family="geogebra-sans-serif, sans-serif" font-size="12px" font-style="normal" font-weight="normal" text-decoration="normal" x="452" y="168" text-anchor="start" dominant-baseline="alphabetic" fill-opacity="1">6</text><text fill="rgb(37,37,37)" stroke="none" font-family="geogebra-sans-serif, sans-serif" font-size="12px" font-style="normal" font-weight="normal" text-decoration="normal" x="452" y="119" text-anchor="start" dominant-baseline="alphabetic" fill-opacity="1">8</text><text fill="none" stroke="rgb(255,255,255)" font-family="geogebra-sans-serif, sans-serif" font-size="12px" font-style="normal" font-weight="normal" text-decoration="normal" x="452" y="119" text-anchor="start" dominant-baseline="alphabetic" stroke-opacity="1" stroke-linejoin="bevel" stroke-miterlimit="10" stroke-width="3">8</text><text fill="rgb(37,37,37)" stroke="none" font-family="geogebra-sans-serif, sans-serif" font-size="12px" font-style="normal" font-weight="normal" text-decoration="normal" x="452" y="119" text-anchor="start" dominant-baseline="alphabetic" fill-opacity="1">8</text><text fill="rgb(37,37,37)" stroke="none" font-family="geogebra-sans-serif, sans-serif" font-size="12px" font-style="normal" font-weight="normal" text-decoration="normal" x="446" y="70" text-anchor="start" dominant-baseline="alphabetic" fill-opacity="1">10</text><text fill="none" stroke="rgb(255,255,255)" font-family="geogebra-sans-serif, sans-serif" font-size="12px" font-style="normal" font-weight="normal" text-decoration="normal" x="446" y="70" text-anchor="start" dominant-baseline="alphabetic" stroke-opacity="1" stroke-linejoin="bevel" stroke-miterlimit="10" stroke-width="3">10</text><text fill="rgb(37,37,37)" stroke="none" font-family="geogebra-sans-serif, sans-serif" font-size="12px" font-style="normal" font-weight="normal" text-decoration="normal" x="446" y="70" text-anchor="start" dominant-baseline="alphabetic" fill-opacity="1">10</text><text fill="rgb(37,37,37)" stroke="none" font-family="geogebra-sans-serif, sans-serif" font-size="12px" font-style="normal" font-weight="normal" text-decoration="normal" x="446" y="21" text-anchor="start" dominant-baseline="alphabetic" fill-opacity="1">12</text><text fill="none" stroke="rgb(255,255,255)" font-family="geogebra-sans-serif, sans-serif" font-size="12px" font-style="normal" font-weight="normal" text-decoration="normal" x="446" y="21" text-anchor="start" dominant-baseline="alphabetic" stroke-opacity="1" stroke-linejoin="bevel" stroke-miterlimit="10" stroke-width="3">12</text><text fill="rgb(37,37,37)" stroke="none" font-family="geogebra-sans-serif, sans-serif" font-size="12px" font-style="normal" font-weight="normal" text-decoration="normal" x="446" y="21" text-anchor="start" dominant-baseline="alphabetic" fill-opacity="1">12</text><text fill="rgb(37,37,37)" stroke="none" font-family="geogebra-sans-serif, sans-serif" font-size="12px" font-style="normal" font-weight="normal" text-decoration="normal" x="452" y="327" text-anchor="start" dominant-baseline="alphabetic" fill-opacity="1">0</text><text fill="none" stroke="rgb(255,255,255)" font-family="geogebra-sans-serif, sans-serif" font-size="12px" font-style="normal" font-weight="normal" text-decoration="normal" x="452" y="327" text-anchor="start" dominant-baseline="alphabetic" stroke-opacity="1" stroke-linejoin="bevel" stroke-miterlimit="10" stroke-width="3">0</text><text fill="rgb(37,37,37)" stroke="none" font-family="geogebra-sans-serif, sans-serif" font-size="12px" font-style="normal" font-weight="normal" text-decoration="normal" x="452" y="327" text-anchor="start" dominant-baseline="alphabetic" fill-opacity="1">0</text><path fill="none" stroke="rgb(153,51,255)" paint-order="fill stroke markers" d=" M 1.0000000000000568 213.24534985145374 L 1.0000000000000568 213.42350750570444 L 1.0000000000000568 213.24534985145374 L 1.9999999999999432 213.10785419050765 L 1.9999999999999432 213.10785419050768 L 3 213.0110777147901 L 3 213.01107771479013 L 4 212.95506067890113 L 4 212.95506067890113 L 5 212.93949993772773 L 5 212.9398263833728 L 6 212.9653811649772 L 6 212.9653811649772 L 7.000000000000057 213.03171439409073 L 7.000000000000057 213.03171439409073 L 7.999999999999943 213.13879847911545 L 7.999999999999943 213.13879847911545 L 9 213.28658887795604 L 9 213.286588877956 L 10 213.47502411654705 L 10 213.47502411654702 L 11 213.70402581442357 L 11 213.70402581442355 L 12 213.97349871732382 L 12 213.9734987173238 L 13.000000000000057 214.28333073681054 L 13.000000000000057 214.2833307368105 L 13.999999999999943 214.63339299689468 L 13.999999999999943 214.63339299689466 L 15 215.02353988764207 L 15 215.02353988764204 L 16 215.4536091257403 L 16 215.45360912574026 L 17 215.92342182200127 L 17 215.92342182200122 L 18.000000000000057 216.43278255577098 L 18.000000000000057 216.43278255577093 L 19.000000000000057 216.98147945621554 L 19.000000000000057 216.98147945621554 L 20 217.56928429044984 L 20 217.56928429044981 L 21 218.19595255847196 L 21 218.19595255847196 L 22 218.8612235948641 L 22 218.86122359486407 L 23 219.5648206772173 L 23 219.5648206772173 L 24.000000000000057 220.30645114123564 L 24.000000000000057 220.30645114123564 L 25.000000000000057 221.08580650247103 L 25.000000000000057 221.085806502471 L 26 221.9025625846386 L 26 221.9025625846386 L 27 222.7563796544597 L 27 222.75637965445966 L 28 223.6469025629748 L 28 223.6469025629748 L 29 224.57376089326976 L 29 224.57376089326976 L 30.000000000000057 225.53656911455218 L 30.000000000000057 225.53656911455215 L 30.999999999999943 226.53492674251447 L 30.999999999999943 226.53492674251441 L 32 227.56841850591758 L 32 227.56841850591755 L 33 228.63661451932424 L 33 228.6366145193242 L 34 229.7390704619121 L 34 229.7390704619121 L 35 230.87532776229085 L 35 230.87532776229085 L 36.00000000000006 232.044913789247 L 36.00000000000006 232.04491378924695 L 36.99999999999994 233.24734204833666 L 36.99999999999994 233.24734204833663 L 38 234.48211238424574 L 38 234.48211238424568 L 39 235.74871118883084 L 39 235.74871118883084 L 40 237.04661161475747 L 40 237.04661161475744 L 41 238.3752737946442 L 41 238.37527379464416 L 42.00000000000006 239.734145065623 L 42.00000000000006 239.73414506562298 L 42.99999999999994 241.12266019922163 L 42.99999999999994 241.12266019922163 L 44 242.5402416364734 L 44 242.5402416364734 L 45 243.98629972815462 L 45 243.98629972815456 L 46 245.46023298005218 L 46 245.46023298005215 L 47.00000000000006 246.9614283031578 L 47.00000000000006 246.9614283031578 L 48.00000000000006 248.4892612686849 L 48.00000000000006 248.48926126868488 L 49 250.04309636780243 L 49 250.04309636780243 L 50 251.62228727597815 L 50 251.62228727597812 L 51 253.22617712181923 L 51 253.2261771218192 L 52 254.85409876030144 L 52 254.8540987603014 L 53.00000000000006 256.50537505027086 L 53.00000000000006 256.50537505027086 L 54.00000000000006 258.17931913610374 L 54.00000000000006 258.17931913610374 L 55 259.87523473340696 L 55 259.87523473340696 L 56 261.5924164186411 L 56 261.5924164186411 L 57 263.3301499225438 L 57 263.3301499225438 L 58 265.08771242723344 L 58 265.08771242723344 L 59.00000000000006 266.86437286686856 L 59.00000000000006 266.86437286686856 L 60.00000000000006 268.6593922317378 L 60.00000000000006 268.6593922317378 L 61 270.47202387565403 L 61 270.47202387565403 L 62 272.3015138265258 L 62 272.3015138265258 L 63 274.1471010999744 L 63 274.1471010999744 L 64 276.00801801586925 L 64 276.00801801586925 L 65.00000000000006 277.8834905176477 L 65.00000000000006 277.8834905176477 L 65.99999999999994 279.772738494287 L 65.99999999999994 279.772738494287 L 67 281.6749761047958 L 67 281.6749761047958 L 68 283.5894121050868 L 68 283.5894121050868 L 69 285.51525017709923 L 69 285.5152501770992 L 70 287.4516892600304 L 70 287.4516892600304 L 71.00000000000006 289.39792388354067 L 71.00000000000006 289.39792388354067 L 71.99999999999994 291.35314450279213 L 71.99999999999994 291.35314450279213 L 73 293.3165378351829 L 73 293.3165378351829 L 74 295.2872871986347 L 74 295.2872871986347 L 75 297.2645728512961 L 75 297.26457285129607 L 76 299.2475723325173 L 76 299.2475723325173 L 77.00000000000006 301.2354608049565 L 77.00000000000006 301.2354608049565 L 77.99999999999994 303.2274113976745 L 77.99999999999994 303.2274113976745 L 79 305.22259555007554 L 79 305.22259555007554 L 80 307.2201833565503 L 80 307.2201833565503 L 81 309.21934391167906 L 81 309.21934391167906 L 82.00000000000006 311.2192456558503 L 82.00000000000006 311.2192456558503 L 83.00000000000006 313.21905672115173 L 83.00000000000006 313.21905672115173 L 84 315.2179452773893 L 84 315.2179452773893 L 85 317.2150798780907 L 85 317.2150798780907 L 86 319.2096298063493 L 86 319.2096298063493 L 87 321.20076542036406 L 87 321.20076542036406 L 88 323.18765849853287 L 88 323.18765849853287 L 89 325.1694825839554 L 89 325.1694825839554 L 90 327.14541332820085 L 90 327.14541332820085 L 91 329.1146288341995 L 91 329.1146288341995 L 92 331.0763099981147 L 92 331.0763099981147 L 93 333.0296408500524 L 93 333.0296408500524 L 94 334.97380889346715 L 94 334.97380889346715 L 95 336.9080054431246 L 95 336.9080054431246 L 96 338.83142596147644 L 96 338.83142596147644 L 97 340.74327039331206 L 97 340.74327039331206 L 98 342.6427434985451 L 98 342.64274349854503 L 99 344.52905518299644 L 99 344.52905518299644 L 100 346.401420827038 L 100 346.40142082703795 L 101 348.25906161195843 L 101 348.2590616119584 L 102 350.10120484391604 L 102 350.10120484391604 L 103 351.92708427534444 L 103 351.92708427534444 L 104 353.73594042367654 L 104 353.73594042367654 L 105 355.52702088725454 L 105 355.52702088725454 L 106 357.2995806582947 L 106 357.2995806582947 L 107 359.05288243277687 L 107 359.05288243277687 L 108 360.78619691712885 L 108 360.7861969171288 L 109 362.49880313157985 L 109 362.49880313157985 L 110 364.18998871005465 L 110 364.18998871005465 L 111 365.8590501964856 L 111 365.85905019648555 L 112 367.50529333741855 L 112 367.50529333741855 L 113 369.12803337079015 L 113 369.1280333707901 L 114 370.7265953107577 L 114 370.72659531075766 L 115 372.30031422846304 L 115 372.30031422846304 L 116 373.8485355286119 L 116 373.8485355286119 L 117 375.37061522175594 L 117 375.37061522175594 L 118 376.86592019216334 L 118 376.86592019216334 L 119 378.3338284611656 L 119 378.3338284611655 L 120 379.7737294458723 L 120 379.7737294458722 L 121 381.1850242131462 L 121 381.18502421314616 L 122 382.56712572873175 L 122 382.5671257287317 L 123 383.9194591014344 L 123 383.9194591014344 L 124 385.2414618222498 L 124 385.2414618222498 L 125 386.5325839983409 L 125 386.5325839983409 L 126 387.7922885817692 L 126 387.7922885817692 L 127 389.0200515928817 L 127 389.0200515928817 L 128 390.21536233826276 L 128 390.21536233826276 L 129 391.37772362315894 L 129 391.37772362315894 L 130 392.50665195828986 L 130 392.50665195828986 L 131 393.6016777609572 L 131 393.6016777609572 L 132 394.66234555037 L 132 394.66234555036993 L 133 395.68821413710367 L 133 395.68821413710367 L 134 396.67885680661493 L 134 396.67885680661493 L 135 397.63386149673534 L 135 397.6338614967353 L 136 398.5528309690705 L 136 398.55283096907044 L 137 399.4353829742331 L 137 399.43538297423305 L 138 400.2811504108412 L 138 400.2811504108411 L 139 401.0897814782157 L 139 401.0897814782156 L 140 401.86093982271325 L 140 401.86093982271325 L 141 402.59430467763434 L 141 402.59430467763434 L 142 403.2895709966473 L 142 403.2895709966472 L 143 403.9464495806735 L 143 403.9464495806735 L 144 404.5646671981818 L 144 404.5646671981817 L 145 405.14396669883934 L 145 405.1439666988393 L 146 405.684107120475 L 146 405.684107120475 L 147 406.1848637893088 L 147 406.1848637893088 L 148 406.6460284134053 L 148 406.64602841340525 L 149 407.0674091693141 L 149 407.0674091693141 L 150 407.44883078185944 L 150 407.44883078185944 L 151 407.7901345970468 L 151 407.7901345970468 L 152 408.09117864805546 L 152 408.09117864805546 L 153 408.3518377142905 L 153 408.35183771429047 L 154 408.57200337346876 L 154 408.57200337346876 L 155 408.75158404671754 L 155 408.75158404671754 L 156 408.8905050366672 L 156 408.8905050366672 L 157 408.98870855852203 L 157 408.988708558522 L 158 409.0461537640958 L 158 409.0461537640957 L 159 409.0629874671911 L 159 409.062816758803 L 160 409.0386906115979 L 160 409.0386906115979 L 161 408.9737853578573 L 161 408.9737853578573 L 162 408.8681279952065 L 162 408.8681279952066 L 163 408.7217624722895 L 163 408.7217624722896 L 164 408.5347496704883 L 164 408.53474967048834 L 165 408.3071673785989 L 165 408.30716737859893 L 166 408.03911026047496 L 166 408.039110260475 L 167 407.7306898156519 L 167 407.73068981565194 L 168 407.38203433296803 L 168 407.38203433296803 L 169 406.99328883720233 L 169 406.99328883720233 L 170 406.56461502875084 L 170 406.56461502875084 L 171 406.09619121636644 L 171 406.0961912163665 L 172 405.58821224299095 L 172 405.58821224299095 L 173 405.04088940470876 L 173 405.04088940470876 L 174 404.4544503628579 L 174 404.4544503628579 L 175 403.82913904933304 L 175 403.8291390493331 L 176 403.1652155651207 L 176 403.1652155651207 L 177 402.4629560721096 L 177 402.4629560721096 L 178 401.7226526782195 L 178 401.7226526782195 L 179 400.94461331589787 L 179 400.94461331589787 L 180 400.12916161403393 L 180 400.12916161403393 L 181 399.27663676334384 L 181 399.27663676334384 L 182 398.3873933752827 L 182 398.3873933752827 L 183 397.46180133454266 L 183 397.46180133454266 L 184 396.5002456451973 L 184 396.50024564519737 L 185 395.503126270558 L 185 395.503126270558 L 186 394.4708579668071 L 186 394.47085796680716 L 187 393.4038701104784 L 187 393.4038701104784 L 188 392.3026065198559 L 188 392.3026065198559 L 189 391.1675252703659 L 189 391.1675252703659 L 190 389.9990985040385 L 190 389.99909850403856 L 191 388.7978122331178 L 191 388.7978122331178 L 192 387.56416613790304 L 192 387.5641661379031 L 193 386.29867335890486 L 193 386.2986733589049 L 194 385.0018602834014 L 194 385.00186028340147 L 195 383.67426632648596 L 195 383.67426632648596 L 196 382.3164437066946 L 196 382.3164437066946 L 197 380.92895721630816 L 197 380.92895721630816 L 198 379.5123839864251 L 198 379.5123839864251 L 199 378.06731324690077 L 199 378.06731324690077 L 200 376.59434608125457 L 200 376.59434608125457 L 201 375.0940951766471 L 201 375.09409517664716 L 202 373.56718456903 L 202 373.5671845690301 L 203 372.01424938357525 L 203 372.01424938357525 L 204 370.4359355704923 L 204 370.43593557049235 L 205 368.8328996363424 L 205 368.83289963634246 L 206 367.20580837096134 L 206 367.2058083709614 L 207 365.55533857010585 L 207 365.5553385701059 L 208 363.88217675393685 L 208 363.88217675393685 L 209 362.1870188814588 L 209 362.18701888145887 L 210 360.4705700610326 L 210 360.4705700610326 L 211 358.73354425708203 L 211 358.73354425708203 L 212.00000000000003 356.9766639931177 L 212.00000000000003 356.97666399311777 L 213 355.2006600512003 L 213 355.2006600512003 L 214 353.4062711679679 L 214 353.40627116796793 L 215.00000000000003 351.5942437273559 L 215.00000000000003 351.5942437273559 L 216 349.7653314501351 L 216 349.7653314501351 L 217 347.920295080398 L 217 347.920295080398 L 218.00000000000003 346.0599020691245 L 218.00000000000003 346.0599020691245 L 219 344.1849262549569 L 219 344.18492625495696 L 220 342.29614754231824 L 220 342.29614754231824 L 221.00000000000003 340.3943515770078 L 221.00000000000003 340.3943515770078 L 222 338.4803294194086 L 222 338.4803294194086 L 223 336.55487721544154 L 223 336.55487721544154 L 224.00000000000003 334.6187958654058 L 224.00000000000003 334.6187958654058 L 225 332.67289069084063 L 225 332.67289069084063 L 226 330.71797109954787 L 226 330.71797109954787 L 227.00000000000003 328.7548502489159 L 227.00000000000003 328.7548502489159 L 228 326.78434470768286 L 228 326.78434470768286 L 229 324.80727411628123 L 229 324.80727411628123 L 230.00000000000003 322.82446084590515 L 230.00000000000003 322.82446084590515 L 231 320.8367296564412 L 231 320.8367296564412 L 232 318.8449073534059 L 232 318.8449073534059 L 233.00000000000003 316.84982244403255 L 233.00000000000003 316.84982244403255 L 234 314.85230479265 L 234 314.85230479265 L 235 312.8531852754964 L 235 312.8531852754964 L 235.99999999999997 310.8532954351135 L 235.99999999999997 310.8532954351135 L 237 308.853467134462 L 237 308.853467134462 L 238.00000000000003 306.85453221090506 L 238.00000000000003 306.85453221090506 L 239 304.8573221302018 L 239 304.8573221302018 L 240 302.8626676406551 L 240 302.8626676406551 L 241.00000000000003 300.87139842755874 L 241.00000000000003 300.87139842755874 L 242 298.88434276808584 L 242 298.88434276808584 L 243 296.9023271867632 L 243 296.9023271867632 L 244.00000000000003 294.92617611167526 L 244.00000000000003 294.92617611167526 L 245 292.9567115315392 L 245 292.9567115315392 L 246 290.9947526537952 L 246 290.9947526537952 L 247.00000000000003 289.0411155638536 L 247.00000000000003 289.0411155638537 L 248 287.09661288564087 L 248 287.09661288564087 L 249 285.1620534435842 L 249 285.1620534435842 L 250.00000000000003 283.2382419261786 L 250.00000000000003 283.2382419261786 L 251 281.3259785512724 L 251 281.3259785512724 L 252 279.4260587332132 L 252 279.4260587332132 L 253.00000000000003 277.53927275199226 L 253.00000000000003 277.53927275199226 L 254 275.66640542452353 L 254 275.66640542452353 L 255 273.80823577819575 L 255 273.80823577819575 L 256 271.9655367268328 L 256 271.96553672683285 L 257 270.1390747491967 L 257 270.1390747491967 L 258 268.3296095701671 L 258 268.3296095701671 L 259 266.53789384473083 L 259 266.53789384473083 L 260 264.7646728449116 L 260 264.7646728449116 L 261 263.01068414977055 L 261 263.01068414977055 L 262 261.27665733860744 L 262 261.2766573386075 L 263 259.5633136874888 L 263 259.56331368748886 L 264 257.87136586922963 L 264 257.8713658692297 L 265 256.2015176569546 L 265 256.2015176569546 L 266 254.55446363136005 L 266 254.55446363136008 L 267 252.9308888918003 L 267 252.93088889180032 L 268 251.3314687713176 L 268 251.33146877131762 L 269 249.75686855573434 L 269 249.75686855573437 L 270 248.20774320692436 L 270 248.20774320692436 L 271 246.68473709037897 L 271 246.684737090379 L 272 245.18848370717996 L 272 245.18848370717996 L 273 243.71960543049232 L 273 243.71960543049232 L 274 242.2787132466853 L 274 242.2787132466853 L 275 240.86640650118977 L 275 240.86640650118977 L 276 239.4832726491982 L 276 239.48327264919823 L 277 238.12988701130985 L 277 238.1298870113099 L 278 236.80681253422358 L 278 236.8068125342236 L 279 235.514599556578 L 279 235.514599556578 L 280 234.25378558003533 L 280 234.25378558003536 L 281 233.02489504570553 L 281 233.0248950457056 L 282 231.82843911600258 L 282 231.8284391160026 L 283 230.66491546202417 L 283 230.6649154620242 L 284 229.5348080565434 L 284 229.5348080565434 L 285 228.43858697269792 L 285 228.43858697269792 L 286 227.3767081884612 L 286 227.37670818846124 L 287 226.34961339697648 L 287 226.3496133969765 L 288 225.35772982283225 L 288 225.3577298228323 L 289 224.4014700443567 L 289 224.40147004435676 L 290 223.48123182200374 L 290 223.4812318220038 L 291 222.59739793290282 L 291 222.59739793290288 L 292 221.75033601164114 L 292 221.75033601164117 L 293 220.94039839734435 L 293 220.94039839734438 L 294 220.16792198711968 L 294 220.1679219871197 L 295 219.433228095922 L 295 219.43322809592203 L 296 218.73662232290144 L 296 218.73662232290147 L 297 218.0783944242882 L 297 218.07839442428826 L 298 217.45881819286708 L 298 217.4588181928671 L 299 216.87815134409212 L 299 216.87815134409215 L 300 216.33663540888887 L 300 216.3366354088889 L 301 215.83449563318842 L 301 215.83449563318845 L 302 215.37194088423544 L 302 215.37194088423547 L 303 214.94916356370888 L 303 214.9491635637089 L 304 214.5663395276917 L 304 214.56633952769172 L 305 214.22362801352267 L 305 214.22362801352267 L 306 213.921171573561 L 306 213.92117157356103 L 307 213.65909601589104 L 307 213.65909601589107 L 308 213.43751035199176 L 308 213.4375103519918 L 309 213.25650675139315 L 309 213.25650675139315 L 310 213.1161605033376 L 310 213.1161605033376 L 311 213.01652998546325 L 311 213.0165299854633 L 312 212.95765663952162 L 312 212.95765663952164 L 313 212.93949993772773 L 313 212.93956495413937 L 314 212.96226245463254 L 314 212.9622624546325 L 315 213.02573969987606 L 315 213.02573969987606 L 316 213.12997028623107 L 316 213.12997028623107 L 317 213.2749108585275 L 317 213.2749108585275 L 318 213.46050112809786 L 318 213.46050112809786 L 319 213.68666389785454 L 319 213.68666389785454 L 320 213.9533050944004 L 320 213.95330509440038 L 321 214.26031380715887 L 321 214.2603138071588 L 322 214.6075623345077 L 322 214.6075623345077 L 323 214.9949062368972 L 323 214.99490623689718 L 324 215.4221843969303 L 324 215.42218439693028 L 325 215.88921908638008 L 325 215.88921908638008 L 326 216.3958160401167 L 326 216.3958160401167 L 327 216.94176453691267 L 327 216.94176453691267 L 328 217.5268374870935 L 328 217.52683748709347 L 329 218.1507915269964 L 329 218.15079152699636 L 330 218.81336712019856 L 330 218.81336712019854 L 331 219.51428866547263 L 331 219.5142886654726 L 332 220.253264611424 L 332 220.25326461142396 L 333 221.029987577763 L 333 221.029987577763 L 334 221.84413448316116 L 334 221.84413448316113 L 335 222.69536667963808 L 335 222.69536667963808 L 336 223.58333009342385 L 336 223.58333009342385 L 337 224.50765537223737 L 337 224.50765537223734 L 338 225.46795803892002 L 338 225.46795803892002 L 339 226.46383865136085 L 339 226.46383865136082 L 340 227.4948829686461 L 340 227.49488296864607 L 341 228.56066212336452 L 341 228.56066212336447 L 342 229.66073279999677 L 342 229.6607327999967 L 343 230.7946374193143 L 343 230.7946374193143 L 344 231.96190432871177 L 344 231.96190432871174 L 345 233.16204799839247 L 345 233.16204799839244 L 346 234.39456922332707 L 346 234.39456922332704 L 347 235.65895533089991 L 347 235.65895533089991 L 348 236.9546803941575 L 348 236.9546803941575 L 349 238.2812054505701 L 349 238.28120545057007 L 350 239.63797872621555 L 350 239.63797872621552 L 351 241.0244358652921 L 351 241.02443586529208 L 352 242.44000016486467 L 352 242.44000016486464 L 353 243.88408281474696 L 353 243.88408281474693 L 354 245.3560831424196 L 354 245.35608314241958 L 355 246.8553888628826 L 355 246.85538886288253 L 356 248.3813763333378 L 356 248.3813763333378 L 357 249.93341081259632 L 357 249.9334108125963 L 358 251.51084672510106 L 358 251.51084672510103 L 359 253.11302792945776 L 359 253.11302792945773 L 360 254.739287991359 L 360 254.73928799135896 L 361 256.3889504607909 L 361 256.3889504607909 L 362 258.06132915340544 L 362 258.06132915340544 L 363 259.75572843594193 L 363 259.75572843594193 L 364 261.4714435155784 L 364 261.47144351557836 L 365 263.20776073309366 L 365 263.20776073309366 L 366 264.96395785971663 L 366 264.96395785971663 L 367 266.73930439754093 L 367 266.73930439754093 L 368 268.53306188337825 L 368 268.5330618833782 L 369 270.3444841959259 L 369 270.3444841959259 L 370 272.1728178661187 L 370 272.1728178661187 L 371 274.01730239053825 L 371 274.01730239053825 L 372 275.8771705477472 L 372 275.87717054774714 L 373 277.7516487174187 L 373 277.7516487174186 L 374 279.6399572021268 L 374 279.6399572021268 L 375 281.5413105516658 L 375 281.5413105516658 L 376 283.45491788976085 L 376 283.45491788976085 L 377 285.3799832430368 L 377 285.3799832430368 L 378 287.31570587210666 L 378 287.31570587210666 L 379 289.26128060464293 L 379 289.26128060464293 L 380 291.21589817029246 L 380 291.21589817029246 L 381 293.1787455372958 L 381 293.1787455372958 L 382 295.14900625067145 L 382 295.14900625067145 L 383 297.1258607718243 L 383 297.1258607718243 L 384 299.1084868194355 L 384 299.1084868194355 L 385 301.09605971149455 L 385 301.09605971149455 L 386 303.08775270832956 L 386 303.08775270832956 L 387 305.0827373564925 L 387 305.0827373564925 L 388 307.080183833359 L 388 307.080183833359 L 389 309.0792612922958 L 389 309.0792612922958 L 390 311.07913820825587 L 390 311.07913820825587 L 391 313.07898272365406 L 391 313.07898272365406 L 392 315.07796299438286 L 392 315.07796299438286 L 393 317.0752475358208 L 393 317.0752475358208 L 394 319.07000556869264 L 394 319.07000556869264 L 395 321.06140736463544 L 395 321.06140736463544 L 396 323.04862459132755 L 396 323.04862459132755 L 397 325.0308306570375 L 397 325.0308306570375 L 398 327.0072010544482 L 398 327.0072010544482 L 399 328.97691370361434 L 399 328.97691370361434 L 400 330.9391492939103 L 400 330.9391492939103 L 401 332.8930916248259 L 401 332.8930916248259 L 402 334.8379279454686 L 402 334.8379279454686 L 403 336.7728492926307 L 403 336.7728492926307 L 404 338.69705082728166 L 404 338.69705082728166 L 405 340.60973216934343 L 405 340.60973216934343 L 406 342.5100977306133 L 406 342.51009773061327 L 407 344.39735704569114 L 407 344.39735704569114 L 408 346.2707251007778 L 408 346.2707251007777 L 409 348.12942266020434 L 409 348.1294226602043 L 410 349.97267659055944 L 410 349.9726765905594 L 411 351.79972018227664 L 411 351.7997201822766 L 412 353.60979346855135 L 412 353.60979346855135 L 413 355.4021435414519 L 413 355.4021435414519 L 414 357.17602486509486 L 414 357.17602486509486 L 415 358.9306995857546 L 415 358.9306995857546 L 416 360.6654378387759 L 416 360.6654378387759 L 417 362.37951805216517 L 417 362.37951805216517 L 418 364.0722272467308 L 418 364.0722272467308 L 419 365.74286133265036 L 419 365.74286133265036 L 420 367.39072540233997 L 420 367.39072540233997 L 421 369.0151340195039 L 421 369.0151340195039 L 422 370.6154115042448 L 422 370.6154115042448 L 423 372.19089221411593 L 423 372.19089221411593 L 424 373.740920820998 L 424 373.740920820998 L 425 375.26485258368547 L 425 375.2648525836854 L 426 376.7620536160699 L 426 376.76205361606986 L 427 378.23190115080763 L 427 378.2319011508076 L 428 379.67378379836214 L 428 379.6737837983621 L 429 381.0871018013148 L 429 381.0871018013148 L 430 382.47126728383637 L 430 382.4712672838363 L 431 383.82570449621613 L 431 383.82570449621613 L 432 385.1498500543482 L 432 385.1498500543482 L 433 386.44315317407325 L 433 386.44315317407325 L 434 387.7050759002795 L 434 387.70507590027944 L 435 388.9350933306678 L 435 388.93509333066777 L 436 390.13269383408687 L 436 390.13269383408687 L 437 391.2973792633484 L 437 391.2973792633484 L 438 392.4286651624339 L 438 392.4286651624339 L 439 393.52608096800606 L 439 393.526080968006 L 440 394.58917020514156 L 440 394.58917020514156 L 441 395.6174906772042 L 441 395.61749067720416 L 442 396.6106146497781 L 442 396.6106146497781 L 443 397.56812902858593 L 443 397.5681290285859 L 444 398.4896355313173 L 444 398.4896355313173 L 445 399.37475085329595 L 445 399.3747508532959 L 446 400.223106826917 L 446 400.22310682691693 L 447 401.03435057478805 L 447 401.03435057478805 L 448 401.80814465650997 L 448 401.8081446565099 L 449 402.5441672090365 L 449 402.54416720903646 L 450 403.2421120805551 L 450 403.2421120805551 L 451 403.90168895783165 L 451 403.90168895783165 L 452 404.52262348696775 L 452 404.52262348696775 L 453 405.10465738751947 L 453 405.1046573875194 L 454 405.64754855993004 L 454 405.64754855993 L 455 406.1510711862324 L 455 406.15107118623234 L 456 406.61501582397915 L 456 406.6150158239791 L 457 407.03918949336094 L 457 407.03918949336094 L 458 407.4234157574774 L 458 407.4234157574774 L 459 407.7675347957269 L 459 407.7675347957269 L 460 408.0714034702843 L 460 408.0714034702843 L 461 408.3348953856401 L 461 408.33489538564004 L 462 408.5579009411751 L 462 408.5579009411751 L 463 408.74032737674924 L 463 408.74032737674924 L 464 408.88209881128563 L 464 408.8820988112856 L 465 408.98315627433345 L 465 408.98315627433345 L 466 409.04345773059725 L 466 409.0434577305972 L 467 409.0629874671911 L 467 409.0629780974215 L 468 409.04170925522385 L 468 409.0417092552239 L 469 408.9796600508727 L 469 408.9796600508728 L 470 408.87685629400704 L 470 408.8768562940071 L 471 408.73334074630094 L 471 408.73334074630094 L 472 408.5491731036766 L 472 408.54917310367665 L 473 408.3244299714738 L 473 408.3244299714738 L 474 408.0592048325851 L 474 408.0592048325852 L 475 407.75360800857186 L 475 407.75360800857186 L 476 407.40776661377475 L 476 407.40776661377475 L 477 407.0218245024406 L 477 407.02182450244067 L 478 406.59594220888545 L 478 406.59594220888545 L 479 406.13029688071924 L 479 406.13029688071924 L 480 405.62508220516105 L 480 405.6250822051611 L 481 405.08050832847357 L 481 405.08050832847357 L 482 404.49680176855213 L 482 404.49680176855213 L 483 403.8742053207034 L 483 403.8742053207034 L 484 403.21297795665384 L 484 403.21297795665384 L 485 402.51339471682894 L 485 402.51339471682894 L 486 401.77574659594933 L 486 401.77574659594933 L 487 401.00034042198996 L 487 401.00034042199 L 488 400.1874987285538 L 488 400.18749872855386 L 489 399.33755962071257 L 489 399.33755962071257 L 490 398.4508766343702 L 490 398.4508766343703 L 491 397.52781858920855 L 491 397.52781858920855 L 492 396.5687694352747 L 492 396.5687694352747 L 493 395.5741280932755 L 493 395.5741280932755 L 494 394.5443082886447 L 494 394.54430828864474 L 495 393.4797383794522 L 495 393.4797383794522 L 496 392.38086117822627 L 496 392.38086117822627 L 497 391.24813376776416 L 497 391.24813376776416 L 498 390.0820273110061 L 498 390.08202731100613 L 499 388.88302685505334 L 499 388.88302685505334 L 500 387.6516311294105 L 500 387.6516311294105 L 501 386.3883523385367 L 501 386.3883523385367 L 502 385.0937159487924 L 502 385.09371594879246 L 503 383.7682604698687 L 503 383.7682604698688 L 504 382.4125372307924 L 504 382.4125372307924 L 505 381.02711015059776 L 505 381.0271101505978 L 506 379.6125555037625 L 506 379.61255550376256 L 507 378.1694616805034 L 507 378.16946168050345 L 508 376.698428942033 L 508 376.698428942033 L 509 375.20006917087835 L 509 375.20006917087835 L 510 373.67500561636575 L 510 373.67500561636575 L 511 372.1238726353774 L 511 372.12387263537744 L 512 370.547315428488 L 512 370.547315428488 L 513 368.9459897715905 L 513 368.9459897715905 L 514 367.3205617431236 L 514 367.3205617431236 L 515 365.6717074470131 L 515 365.67170744701315 L 516 364.00011273144383 L 516 364.0001127314439 L 517 362.30647290357786 L 517 362.3064729035779 L 518 360.5914924403386 L 518 360.59149244033864 L 519 358.8558846953804 L 519 358.8558846953804 L 520 357.1003716023659 L 520 357.10037160236595 L 521 355.325683374675 L 521 355.325683374675 L 522 353.53255820166873 L 522 353.53255820166873 L 523 351.72174194163665 L 523 351.72174194163665 L 524 349.89398781155364 L 524 349.89398781155364 L 525 348.050056073776 L 525 348.050056073776 L 526 346.19071371980687 L 526 346.19071371980687 L 527 344.31673415126306 L 527 344.3167341512631 L 528 342.428896858175 L 528 342.42889685817505 L 529 340.5279870947544 L 529 340.5279870947544 L 530 338.61479555276446 L 530 338.61479555276446 L 531 336.69011803262816 L 531 336.69011803262816 L 532 334.7547551124114 L 532 334.7547551124114 L 533 332.8095118148193 L 533 332.8095118148193 L 534 330.8551972723433 L 534 330.8551972723433 L 535 328.89262439069887 L 535 328.89262439069887 L 536 326.9226095106941 L 536 326.92260951069414 L 537 324.9459720686689 L 537 324.9459720686689 L 538 322.96353425564683 L 538 322.96353425564683 L 539 320.9761206753414 L 539 320.9761206753414 L 540 318.9845580011583 L 540 318.9845580011583 L 541 316.98967463233697 L 541 316.98967463233697 L 542 314.9923003493745 L 542 314.99230034937455 L 543 312.99326596887454 L 543 312.99326596887454 L 544 310.9934029979657 L 544 310.9934029979657 L 545 308.9935432884323 L 545 308.9935432884323 L 546 306.99451869070214 L 546 306.9945186907022 L 547 304.99716070783467 L 547 304.99716070783467 L 548 303.00230014965337 L 548 303.00230014965337 L 549 301.01076678716714 L 549 301.01076678716714 L 550 299.0233890074232 L 550 299.0233890074232 L 551 297.0409934689357 L 551 297.0409934689357 L 552 295.0644047578339 L 552 295.0644047578339 L 553 293.0944450448717 L 553 293.0944450448717 L 554 291.13193374344183 L 554 291.13193374344183 L 555 289.17768716873786 L 555 289.17768716873786 L 556 287.23251819820376 L 556 287.23251819820376 L 557 285.2972359334144 L 557 285.2972359334144 L 558 283.3726453635258 L 558 283.3726453635258 L 559 281.45954703043657 L 559 281.45954703043657 L 560 279.5587366957991 L 560 279.5587366957991 L 561 277.67100501001863 L 561 277.67100501001863 L 562 275.79713718337916 L 562 275.79713718337916 L 563 273.93791265943156 L 563 273.93791265943156 L 564 272.09410479078065 L 564 272.09410479078065 L 565 270.2664805174057 L 565 270.26648051740574 L 566 268.4558000476486 L 566 268.4558000476486 L 567 266.66281654200156 L 567 266.66281654200156 L 568 264.8882757998271 L 568 264.8882757998271 L 569 263.132915949139 L 569 263.13291594913903 L 570 261.39746713957516 L 570 261.39746713957516 L 571 259.68265123868855 L 571 259.68265123868855 L 572 257.989181531683 L 572 257.989181531683 L 573 256.3177624247194 L 573 256.3177624247194 L 574 254.66908915191473 L 574 254.66908915191476 L 575 253.0438474861562 L 575 253.04384748615624 L 576 251.44271345385144 L 576 251.44271345385147 L 577 249.86635305373187 L 577 249.86635305373187 L 578 248.31542197982793 L 578 248.31542197982796 L 579 246.79056534873013 L 579 246.79056534873015 L 580 245.29241743125 L 580 245.29241743125 L 581 243.82160138859226 L 581 243.82160138859228 L 582 242.3787290131485 L 582 242.37872901314853 L 583 240.96440047401904 L 583 240.9644004740191 L 584 239.57920406737023 L 584 239.57920406737026 L 585 238.22371597172997 L 585 238.22371597172997 L 586 236.89850000832374 L 586 236.89850000832377 L 587 235.60410740655067 L 587 235.60410740655067 L 588 234.3410765746973 L 588 234.34107657469735 L 589 233.10993287598433 L 589 233.10993287598433 L 590 231.9111884100392 L 590 231.91118841003922 L 591 230.74534179988643 L 591 230.74534179988646 L 592 229.61287798454288 L 592 229.61287798454293 L 593 228.51426801730528 L 593 228.5142680173053 L 594 227.4499688698137 L 594 227.4499688698137 L 595 226.4204232419719 L 595 226.4204232419719 L 596 225.42605937780462 L 596 225.42605937780468 L 597 224.46729088732766 L 597 224.4672908873277 L 598 223.5445165745046 L 598 223.54451657450463 L 599 222.6581202713629 L 599 222.65812027136292 L 600 221.80847067833707 L 600 221.80847067833707 L 601 220.99592121090626 L 601 220.9959212109063 L 602 220.22080985258947 L 602 220.22080985258953 L 603 219.4834590143598 L 603 219.48345901435982 L 604 218.78417540053618 L 604 218.78417540053618 L 605 218.12324988120838 L 605 218.12324988120844 L 606 217.50095737124843 L 606 217.50095737124846 L 607 216.91755671595837 L 607 216.91755671595843 L 608 216.3732905834026 L 608 216.3732905834026 L 609 215.86838536346875 L 609 215.8683853634688 L 610 215.4030510737003 L 610 215.40305107370034 L 611 214.97748127193836 L 611 214.9774812719384 L 612 214.5918529758107 L 612 214.5918529758107 L 613 214.2463265891004 L 613 214.24632658910042 L 614 213.9410458350253 L 614 213.9410458350253 L 615 213.67613769645556 L 615 213.67613769645558 L 616 213.45171236309466 L 616 213.4517123630947 L 617 213.26786318564552 L 617 213.26786318564552 L 618 213.12466663698075 L 618 213.12466663698078 L 619 213.0221822803336 L 619 213.02218228033362 L 620 212.96045274452223 L 620 212.96045274452226 L 621 212.93950370621812 L 621 212.95934387926573 L 622 212.93949993772773 L 622 212.95934387926573 L 623 213.019965011058 L 623 213.01996501105796 L 624 213.1213418859689 L 624 213.1213418859689 L 625 213.2634323358422 L 625 213.26343233584217 L 626 213.4461772575313 L 626 213.4461772575313 L 627 213.66950063748365 L 627 213.66950063748362 L 628 213.93330958335864 L 628 213.9333095833586 L 629 214.23749436266684 L 629 214.23749436266684 L 630 214.58192844841363 L 630 214.58192844841358 L 631 214.9664685717285 L 631 214.9664685717285 L 632 215.3909547814587 L 632 215.39095478145867 L 633 215.85521051070128 L 633 215.85521051070126 L 634 216.35904265024703 L 634 216.35904265024703 L 635 216.90224162890522 L 635 216.9022416289052 L 636 217.48458150067532 L 636 217.4845815006753 L 637 218.1058200387306 L 637 218.10582003873054 L 638 218.76569883617321 L 638 218.76569883617316 L 639 219.46394341351973 L 639 219.4639434135197 L 640 220.20026333287217 L 640 220.20026333287217 L 641 220.97435231872686 L 641 220.97435231872686 L 642 221.78588838537092 L 642 221.78588838537092 L 643 222.63453397081395 L 643 222.63453397081395 L 644 223.51993607719817 L 644 223.51993607719817 L 645 224.44172641762952 L 645 224.44172641762952 L 646 225.39952156936823 L 646 225.3995215693682 L 647 226.3929231333151 L 647 226.3929231333151 L 648 227.42151789972752 L 648 227.42151789972752 L 649 228.4848780200957 L 649 228.48487802009566 L 650 229.5825611851082 L 650 229.5825611851082 L 651 230.7141108086326 L 651 230.71411080863257 L 652 231.8790562176341 L 652 231.87905621763406 L 653 233.07691284795447 L 653 233.07691284795445 L 654 234.30718244586842 L 654 234.3071824458684 L 655 235.5693532753344 L 655 235.56935327533438 L 656 236.8629003308536 L 656 236.86290033085356 L 657 238.18728555584818 L 657 238.18728555584812 L 658 239.54195806646817 L 658 239.54195806646817 L 659 240.92635438073435 L 659 240.92635438073432 L 660 242.3398986529208 L 660 242.33989865292077 L 661 243.78200291308036 L 661 243.7820029130803 L 662 245.2520673116136 L 662 245.2520673116136 L 663 246.74948036877876 L 663 246.74948036877873 L 664 248.27361922903947 L 664 248.27361922903944 L 665 249.82384992014394 L 665 249.8238499201439 L 666 251.3995276168291 L 666 251.39952761682906 L 667 252.99999690903806 L 667 252.99999690903803 L 668 254.62459207454083 L 668 254.62459207454083 L 669 256.2726373558446 L 669 256.27263735584455 L 670 257.9434472412778 L 670 257.94344724127774 L 671 259.63632675013173 L 671 259.63632675013173 L 672 261.35057172174123 L 672 261.3505717217412 L 673 263.08546910838294 L 673 263.08546910838294 L 674 264.84029727187067 L 674 264.84029727187067 L 675 266.61432628372427 L 675 266.61432628372427 L 676 268.40681822878605 L 676 268.40681822878605 L 677 270.2170275121607 L 677 270.2170275121607 L 678 272.04420116934784 L 678 272.04420116934784 L 679 273.88757917944145 L 679 273.8875791794414 L 680 275.74639478126375 L 680 275.7463947812637 L 681 277.6198747923029 L 681 277.6198747923029 L 682 279.50723993032153 L 682 279.50723993032153 L 683 281.40770513750306 L 683 281.407705137503 L 684 283.32047990699914 L 684 283.32047990699914 L 685 285.2447686117455 L 685 285.2447686117455 L 686 287.1797708354054 L 686 287.1797708354054 L 687 289.1246817053071 L 687 289.1246817053071 L 688 291.0786922272341 L 688 291.0786922272341 L 689 293.0409896219294 L 689 293.0409896219294 L 690 295.01075766317496 L 690 295.01075766317496 L 691 296.98717701730465 L 691 296.98717701730465 L 692 298.96942558400946 L 692 298.96942558400946 L 693 300.95667883829356 L 693 300.95667883829356 L 694 302.9481101734399 L 694 302.9481101734399 L 695 304.9428912448398 L 695 304.9428912448398 L 696 306.94019231454735 L 696 306.94019231454735 L 697 308.93918259641225 L 697 308.93918259641225 L 698 310.939030601649 L 698 310.939030601649 L 699 312.9389044846981 L 699 312.9389044846981 L 700 314.9379723892365 L 700 314.9379723892365 L 701 316.93540279419096 L 701 316.93540279419096 L 702 318.9303648596135 L 702 318.9303648596135 L 703 320.9220287722732 L 703 320.9220287722732 L 704 322.90956609081985 L 704 322.90956609081985 L 705 324.8921500903781 L 705 324.8921500903781 L 706 326.86895610642785 L 706 326.86895610642785 L 707 328.83916187782626 L 707 328.83916187782626 L 708 330.80194788883114 L 708 330.80194788883114 L 709 332.7564977099827 L 709 332.7564977099827 L 710 334.7019983377 L 710 334.7019983377 L 711 336.637640532454 L 711 336.63764053245393 L 712 338.56261915537425 L 712 338.56261915537425 L 713 340.4761335031497 L 713 340.4761335031497 L 714 342.3773876410849 L 714 342.3773876410849 L 715 344.2655907341727 L 715 344.2655907341727 L 716 346.1399573760451 L 716 346.13995737604506 L 717 347.99970791566676 L 717 347.99970791566676 L 718 349.8440687816346 L 718 349.8440687816346 L 719 351.67227280394735 L 719 351.67227280394735 L 720 353.4835595331143 L 720 353.48355953311426 L 721 355.2771755564668 L 721 355.2771755564668 L 722 357.0523748115438 L 722 357.0523748115438 L 723 358.8084188964204 L 723 358.8084188964204 L 724 360.5445773768482 L 724 360.5445773768482 L 725 362.26012809008375 L 725 362.2601280900837 L 726 363.95435744527464 L 726 363.95435744527464 L 727 365.6265607202811 L 727 365.626560720281 L 728 367.2760423548078 L 728 367.2760423548078 L 729 368.9021162397262 L 729 368.9021162397262 L 730 370.50410600246335 L 730 370.50410600246335 L 731 372.08134528834285 L 731 372.08134528834285 L 732 373.6331780377581 L 732 373.63317803775806 L 733 375.1589587590626 L 733 375.15895875906256 L 734 376.6580527970654 L 734 376.65805279706535 L 735 378.1298365970188 L 735 378.12983659701877 L 736 379.5736979639884 L 736 379.57369796398837 L 737 380.9890363174984 L 737 380.9890363174984 L 738 382.37526294134585 L 738 382.37526294134585 L 739 383.7318012284794 L 739 383.7318012284794 L 740 385.0580869208418 L 740 385.0580869208418 L 741 386.3535683440755 L 741 386.3535683440755 L 742 387.61770663699383 L 742 387.61770663699383 L 743 388.8499759757229 L 743 388.8499759757228 L 744 390.04986379242024 L 744 390.04986379242024 L 745 391.2168709884797 L 745 391.2168709884797 L 746 392.3505121421335 L 746 392.3505121421335 L 747 393.4503157103659 L 747 393.4503157103659 L 748 394.51582422505334 L 748 394.5158242250533 L 749 395.5465944832504 L 749 395.5465944832504 L 750 396.5421977315418 L 750 396.5421977315418 L 751 397.5022198443848 L 751 397.50221984438474 L 752 398.4262614963659 L 752 398.42626149636584 L 753 399.31393832830236 L 753 399.31393832830236 L 754 400.16488110711805 L 754 400.16488110711805 L 755 400.97873587942763 L 755 400.97873587942763 L 756 401.75516411876475 L 756 401.75516411876475 L 757 402.49384286639383 L 757 402.49384286639383 L 758 403.1944648656463 L 758 403.1944648656463 L 759 403.856738689725 L 759 403.856738689725 L 760 404.4803888629246 L 760 404.48038886292454 L 761 405.0651559752171 L 761 405.0651559752171 L 762 405.61079679015444 L 762 405.61079679015444 L 763 406.11708434604355 L 763 406.11708434604355 L 764 406.5838080503525 L 764 406.58380805035245 L 765 407.010773767307 L 765 407.01077376730694 L 766 407.39780389864217 L 766 407.3978038986421 L 767 407.7447374574755 L 767 407.7447374574754 L 768 408.05143013526964 L 768 408.0514301352696 L 769 408.3177543618586 L 769 408.3177543618586 L 770 408.5435993585109 L 770 408.5435993585109 L 771 408.7288711840085 L 771 408.7288711840084 L 772 408.8734927737219 L 772 408.8734927737219 L 773 408.9774039716659 L 773 408.9774039716659 L 774 409.0405615555215 L 774 409.0405615555215 L 775 409.06293925461426 L 775 409.04452776084196 L 776 409.0629874671911 L 776 409.04452776084196 L 777 408.98533473254633 L 777 408.98533473254633 L 778 408.88538479132745 L 778 408.8853847913275 L 779 408.7447195118022 L 779 408.7447195118022 L 780 408.5633974043113 L 780 408.56339740431133 L 781 408.34149389058155 L 781 408.34149389058155 L 782 408.0791012723539 L 782 408.0791012723539 L 783 407.7763286929901 L 783 407.77632869299015 L 784 407.4333020920741 L 784 407.4333020920741 L 785 407.0501641530267 L 785 407.0501641530267 L 786 406.6270742437561 L 786 406.62707424375617 L 787 406.16420835036797 L 787 406.16420835036797 L 788 405.6617590039631 L 788 405.6617590039631 L 789 405.1199352005534 L 789 405.1199352005534 L 790 404.53896231412915 L 790 404.5389623141292 L 791 403.91908200291357 L 791 403.9190820029136 L 792 403.2605521088442 L 792 403.2605521088442 L 793 402.5636465503219 L 793 402.5636465503219 L 794 401.8286552082741 L 794 401.82865520827414 L 795 401.05588380557697 L 795 401.055883805577 L 796 400.2456537798887 L 796 400.24565377988876 L 797 399.3983021499464 L 797 399.3983021499464 L 798 398.51418137538127 L 798 398.51418137538127 L 799 397.59365921011175 L 799 397.59365921011175 L 800 396.63711854937463 L 800 396.6371185493747 L 801 395.6449572704581 L 801 395.6449572704581 L 802 394.6175880672027 L 802 394.61758806720275 L 803 393.5554382783399 L 803 393.5554382783399 L 804 392.45894970973836 L 804 392.4589497097384 L 805 391.328578450633 L 805 391.3285784506331 L 806 390.16479468391265 L 806 390.1647946839127 L 807 388.96808249054544 L 807 388.96808249054544 L 808 387.738939648223 L 808 387.738939648223 L 809 386.47787742430785 L 809 386.4778774243079 L 810 385.1854203631697 L 810 385.1854203631697 L 811 383.8621060679983 L 811 383.8621060679983 L 812 382.5084849771856 L 812 382.5084849771856 L 813 381.1251201353682 L 813 381.1251201353682 L 814 379.71258695922654 L 814 379.7125869592266 L 815 378.271472998138 L 815 378.27147299813805 L 816 376.8023776897826 L 816 376.8023776897826 L 817 375.30591211080485 L 817 375.30591211080485 L 818 373.7826987226336 L 818 373.7826987226336 L 819 372.2333711125661 L 819 372.2333711125661 L 820 370.65857373022504 L 820 370.6585737302251 L 821 369.0589616194969 L 821 369.058961619497 L 822 367.4352001460631 L 822 367.4352001460631 L 823 365.78796472063857 L 823 365.78796472063857 L 824 364.1179405180319 L 824 364.1179405180319 L 825 362.4258221921432 L 825 362.4258221921432 L 826 360.7123135870205 L 826 360.71231358702056 L 827 358.9781274440925 L 827 358.9781274440925 L 828 357.2239851057 L 828 357.2239851057001 L 829 355.4506162150516 L 829 355.4506162150516 L 830 353.65875841272435 L 830 353.65875841272435 L 831 351.84915702983926 L 831 351.84915702983926 L 832 350.0225647780378 L 832 350.0225647780378 L 833 348.179741436388 L 833 348.179741436388 L 834 346.3214535353506 L 834 346.3214535353506 L 835 344.4484740379382 L 835 344.4484740379382 L 836 342.56158201819716 L 836 342.5615820181972 L 837 340.6615623371486 L 837 340.6615623371486 L 838 338.7492053163221 L 838 338.7492053163221 L 839 336.82530640901797 L 839 336.82530640901797 L 840 334.8906658694345 L 840 334.8906658694345 L 841 332.9460884197995 L 841 332.9460884197995 L 842 330.9923829156421 L 842 330.9923829156421 L 843 329.03036200934554 L 843 329.03036200934554 L 844 327.0608418121213 L 844 327.0608418121213 L 845 325.08464155454385 L 845 325.08464155454385 L 846 323.10258324578797 L 846 323.10258324578797 L 847 321.1154913317108 L 847 321.1154913317108 L 848 319.1241923519193 L 848 319.1241923519193 L 849 317.1295145959683 L 849 317.1295145959683 L 850 315.13228775882925 L 850 315.13228775882925 L 851 313.133342595775 L 851 313.133342595775 L 852 311.1335105768238 L 852 311.1335105768238 L 853 309.1336235408855 L 853 309.1336235408855 L 854 307.13451334975423 L 854 307.13451334975423 L 855 305.1370115420924 L 855 305.1370115420924 L 856 303.14194898754835 L 856 303.14194898754835 L 857 301.1501555411519 L 857 301.1501555411519 L 858 299.1624596981334 L 858 299.1624596981334 L 859 297.179688249307 L 859 297.179688249307 L 860 295.2026659371633 L 860 295.2026659371633 L 861 293.23221511281446 L 861 293.23221511281446 L 862 291.26915539393343 L 862 291.26915539393343 L 863 289.3143033238299 L 863 289.3143033238299 L 864 287.368472031807 L 864 287.368472031807 L 865 285.43247089493457 L 865 285.43247089493457 L 866 283.5071052013868 L 866 283.5071052013868 L 867 281.59317581547845 L 867 281.59317581547845 L 868 279.6914788445419 L 868 279.6914788445419 L 869 277.8028053077829 L 869 277.80280530778293 L 870 275.9279408072521 L 870 275.9279408072521 L 871 274.06766520107146 L 871 274.0676652010715 L 872 272.22275227904805 L 872 272.2227522790481 L 873 270.393969440813 L 873 270.393969440813 L 874 268.58207737661826 L 874 268.58207737661826 L 875 266.7878297509243 L 875 266.7878297509243 L 876 265.01197288890944 L 876 265.01197288890944 L 877 263.25524546603367 L 877 263.25524546603367 L 878 261.5183782007824 L 878 261.5183782007824 L 879 259.8020935507215 L 879 259.8020935507215 L 880 258.1071054119875 L 880 258.10710541198756 L 881 256.4341188223398 L 881 256.4341188223398 L 882 254.78382966789633 L 882 254.78382966789633 L 883 253.1569243936776 L 883 253.15692439367763 L 884 251.55407971807637 L 884 251.55407971807637 L 885 249.9759623513737 L 885 249.9759623513737 L 886 248.423228718418 L 886 248.42322871841804 L 887 246.89652468558228 L 887 246.89652468558228 L 888 245.3964852921126 L 888 245.39648529211263 L 889 243.9237344859817 L 889 243.92373448598173 L 890 242.47888486435437 L 890 242.47888486435443 L 891 241.0625374187753 L 891 241.06253741877532 L 892 239.67528128518387 L 892 239.67528128518387 L 893 238.3176934988602 L 893 238.31769349886025 L 894 236.9903387544055 L 894 236.99033875440554 L 895 235.6937691708543 L 895 235.6937691708543 L 896 234.4285240620182 L 896 234.42852406201823 L 897 233.19512971215613 L 897 233.19512971215613 L 898 231.99409915706394 L 898 231.99409915706394 L 899 230.82593197067467 L 899 230.82593197067467 L 900 229.6911140572592 L 900 229.69111405725923 L 901 228.59011744931172 L 901 228.59011744931172 L 902 227.5234001112059 L 902 227.52340011120592 L 903 226.49140574870256 L 903 226.4914057487026 L 904 225.49456362438855 L 904 225.4945636243886 L 905 224.53328837912255 L 905 224.53328837912255 L 906 223.6079798595639 L 906 223.60797985956393 L 907 222.71902295185453 L 907 222.71902295185453 L 908 221.86678742152367 L 908 221.86678742152367 L 909 221.05162775968245 L 909 221.05162775968245 L 910 220.2738830355717 L 910 220.2738830355717 L 911 219.5338767555245 L 911 219.5338767555245 L 912 218.8319167284025 L 912 218.83191672840252 L 913 218.1682949375614 L 913 218.16829493756143 L 914 217.54328741939912 L 914 217.54328741939918 L 915 216.95715414853737 L 915 216.9571541485374 L 916 216.41013892968394 L 916 216.41013892968397 L 917 215.90246929622103 L 917 215.90246929622106 L 918 215.43435641556198 L 918 215.43435641556198 L 919 215.005995001315 L 919 215.005995001315 L 920 214.6175632322914 L 920 214.6175632322914 L 921 214.26922267839103 L 921 214.2692226783911 L 922 213.96111823339706 L 922 213.9611182333971 L 923 213.69337805470616 L 923 213.6933780547062 L 924 213.4661135100214 L 924 213.46611351002144 L 925 213.27941913102808 L 925 213.27941913102808 L 926 213.1333725740729 L 926 213.13337257407295 L 927 213.0280345878626 L 927 213.02803458786263 L 928 212.96344898819507 L 928 212.96344898819507 L 929 212.93964263973405 L 929 212.95662544483477 L 930 212.93949993772773 L 930 212.95662544483477 L 931 213.0143903394249 L 931 213.01439033942484 L 932 213.11291329594277 L 932 213.11291329594275 L 933 213.25215333333207 L 933 213.25215333333205 L 934 213.43205253408786 L 934 213.43205253408783 L 935 213.65253606834756 L 935 213.65253606834756 L 936 213.91351222501697 L 936 213.91351222501694 L 937 214.21487244991772 L 937 214.21487244991772 L 938 214.556491390941 L 938 214.55649139094098 L 939 214.9382269501881 L 939 214.9382269501881 L 940 215.35992034307702 L 940 215.35992034307702 L 941 215.82139616438928 L 941 215.82139616438923 L 942 216.32246246123054 L 942 216.32246246123051 L 943 216.86291081287442 L 943 216.8629108128744 L 944 217.44251641745592 L 944 217.44251641745586 L 945 218.06103818547857 L 945 218.06103818547854 L 946 218.71821884009714 L 946 218.7182188400971 L 947 219.4137850241325 L 947 219.41378502413247 L 948 220.1474474137761 L 948 220.14744741377606 L 949 220.91890083893534 L 949 220.91890083893531 L 950 221.72782441017054 L 950 221.7278244101705 L 951 222.57388165217006 L 951 222.57388165217003 L 952 223.4567206437091 L 952 223.4567206437091 L 953 224.37597416403247" stroke-opacity="0.6980392156862745" stroke-linecap="round" stroke-linejoin="round" stroke-miterlimit="10" stroke-width="2.5"/><g transform="scale(19,19)"><g transform="translate(3,10.83421052631579)"><path fill="rgb(153,51,255)" stroke="none" paint-order="stroke fill markers" d=" M 0.367 -0.4 L 0.367 -0.4 L 0.307 -0.083 Q 0.298 -0.021 0.271 0.059000000000000004 Q 0.261 0.088 0.251 0.108 Q 0.216 0.182 0.164 0.2 Q 0.151 0.20500000000000002 0.138 0.20500000000000002 Q 0.088 0.20500000000000002 0.064 0.171 Q 0.053 0.156 0.053 0.136 Q 0.053 0.096 0.08700000000000001 0.081 Q 0.097 0.076 0.108 0.076 Q 0.137 0.076 0.14400000000000002 0.101 Q 0.145 0.106 0.145 0.111 Q 0.145 0.145 0.115 0.159 Q 0.10400000000000001 0.164 0.09 0.165 Q 0.109 0.183 0.138 0.183 Q 0.182 0.183 0.20700000000000002 0.085 Q 0.212 0.062 0.219 0.025 L 0.225 -0.005 L 0.3 -0.4 L 0.234 -0.4 Q 0.209 -0.4 0.20700000000000002 -0.40800000000000003 L 0.20600000000000002 -0.40800000000000003 L 0.20600000000000002 -0.41200000000000003 Q 0.20600000000000002 -0.429 0.223 -0.431 L 0.223 -0.431 L 0.23600000000000002 -0.431 L 0.305 -0.431 Q 0.329 -0.556 0.338 -0.588 Q 0.368 -0.6880000000000001 0.444 -0.7030000000000001 Q 0.455 -0.705 0.465 -0.705 Q 0.517 -0.705 0.541 -0.671 L 0.541 -0.671 Q 0.552 -0.656 0.552 -0.636 Q 0.552 -0.596 0.518 -0.581 Q 0.508 -0.5760000000000001 0.497 -0.5760000000000001 Q 0.468 -0.5760000000000001 0.461 -0.601 Q 0.46 -0.606 0.46 -0.611 Q 0.46 -0.642 0.488 -0.657 Q 0.499 -0.664 0.514 -0.665 Q 0.495 -0.683 0.465 -0.683 Q 0.434 -0.683 0.418 -0.649 Q 0.41100000000000003 -0.635 0.394 -0.545 L 0.373 -0.431 L 0.456 -0.431 Q 0.481 -0.431 0.483 -0.42 Q 0.483 -0.402 0.467 -0.4 L 0.466 -0.4 L 0.453 -0.4 L 0.367 -0.4 Z"/></g><g transform="translate(3.598,10.83421052631579)"><path fill="rgb(153,51,255)" stroke="none" paint-order="stroke fill markers" d=" M 0.331 0.24 L 0.331 0.24 Q 0.331 0.25 0.321 0.25 Q 0.309 0.25 0.268 0.209 Q 0.20600000000000002 0.147 0.165 0.062 Q 0.099 -0.074 0.099 -0.25 Q 0.099 -0.419 0.162 -0.555 Q 0.214 -0.666 0.294 -0.733 Q 0.315 -0.75 0.321 -0.75 Q 0.331 -0.75 0.331 -0.74 Q 0.331 -0.735 0.318 -0.723 Q 0.157 -0.559 0.157 -0.25 Q 0.157 0.058 0.314 0.218 Q 0.331 0.23500000000000001 0.331 0.24 Z"/></g><g transform="translate(3.987,10.83421052631579)"><path fill="rgb(153,51,255)" stroke="none" paint-order="stroke fill markers" d=" M 0.334 -0.302 L 0.3 -0.165 Q 0.28300000000000003 -0.097 0.28300000000000003 -0.077 Q 0.28300000000000003 -0.025 0.32 -0.014 Q 0.328 -0.011 0.338 -0.011 Q 0.388 -0.011 0.429 -0.061 Q 0.456 -0.093 0.47100000000000003 -0.14200000000000002 Q 0.47400000000000003 -0.153 0.484 -0.153 Q 0.496 -0.153 0.496 -0.14300000000000002 Q 0.496 -0.11800000000000001 0.465 -0.07100000000000001 Q 0.41100000000000003 0.011 0.336 0.011 Q 0.268 0.011 0.23700000000000002 -0.046 Q 0.231 -0.055 0.228 -0.065 Q 0.20400000000000001 -0.017 0.162 0.002 Q 0.14300000000000002 0.011 0.123 0.011 Q 0.063 0.011 0.039 -0.024 Q 0.029 -0.037 0.029 -0.055 Q 0.029 -0.092 0.061 -0.107 Q 0.07200000000000001 -0.113 0.084 -0.113 Q 0.114 -0.113 0.12 -0.088 Q 0.121 -0.083 0.121 -0.078 Q 0.121 -0.044 0.08700000000000001 -0.028 Q 0.081 -0.025 0.074 -0.024 Q 0.095 -0.011 0.124 -0.011 Q 0.177 -0.011 0.20800000000000002 -0.082 Q 0.214 -0.097 0.219 -0.115 Q 0.273 -0.319 0.273 -0.353 Q 0.267 -0.41500000000000004 0.219 -0.42 Q 0.167 -0.42 0.124 -0.367 L 0.124 -0.366 Q 0.124 -0.365 0.123 -0.365 Q 0.108 -0.34500000000000003 0.096 -0.319 Q 0.091 -0.307 0.08700000000000001 -0.295 L 0.085 -0.289 Q 0.083 -0.278 0.07200000000000001 -0.278 Q 0.06 -0.278 0.06 -0.28800000000000003 Q 0.06 -0.313 0.092 -0.36 Q 0.146 -0.442 0.221 -0.442 Q 0.298 -0.442 0.329 -0.366 Q 0.361 -0.428 0.41400000000000003 -0.44 Q 0.424 -0.442 0.434 -0.442 Q 0.493 -0.442 0.517 -0.40900000000000003 Q 0.527 -0.395 0.527 -0.376 Q 0.527 -0.335 0.49 -0.321 Q 0.481 -0.318 0.47300000000000003 -0.318 Q 0.442 -0.318 0.436 -0.34500000000000003 Q 0.435 -0.34900000000000003 0.435 -0.353 Q 0.435 -0.383 0.464 -0.4 Q 0.47300000000000003 -0.405 0.483 -0.40700000000000003 Q 0.462 -0.42 0.433 -0.42 Q 0.365 -0.42 0.337 -0.314 Q 0.335 -0.308 0.334 -0.302 Z"/></g><g transform="translate(4.559,10.83421052631579)"><path fill="rgb(153,51,255)" stroke="none" paint-order="stroke fill markers" d=" M 0.289 -0.25 L 0.289 -0.25 Q 0.289 -0.081 0.226 0.055 Q 0.17400000000000002 0.166 0.094 0.233 Q 0.073 0.25 0.067 0.25 Q 0.057 0.25 0.057 0.24 Q 0.057 0.23500000000000001 0.07 0.223 Q 0.231 0.059000000000000004 0.231 -0.25 Q 0.231 -0.555 0.081 -0.712 L 0.076 -0.717 Q 0.057 -0.735 0.057 -0.74 Q 0.057 -0.75 0.067 -0.75 Q 0.079 -0.75 0.12 -0.709 Q 0.182 -0.647 0.223 -0.562 Q 0.289 -0.426 0.289 -0.25 Z"/></g><g transform="translate(5.503555555555556,10.83421052631579)"><path fill="rgb(153,51,255)" stroke="none" paint-order="stroke fill markers" d=" M 0.687 -0.327 L 0.09 -0.327 Q 0.058 -0.327 0.056 -0.34700000000000003 Q 0.056 -0.367 0.089 -0.367 L 0.6880000000000001 -0.367 Q 0.72 -0.367 0.721 -0.34700000000000003 Q 0.721 -0.327 0.687 -0.327 M 0.6880000000000001 -0.133 L 0.089 -0.133 Q 0.057 -0.133 0.056 -0.153 Q 0.056 -0.17300000000000001 0.09 -0.17300000000000001 L 0.687 -0.17300000000000001 Q 0.719 -0.17300000000000001 0.721 -0.153 Q 0.721 -0.133 0.6880000000000001 -0.133 Z"/></g><g transform="translate(6.837111111111112,10.83421052631579)"><path fill="rgb(153,51,255)" stroke="none" paint-order="stroke fill markers" d=" M 0.661 -0.23 L 0.116 -0.23 Q 0.084 -0.23 0.083 -0.25 Q 0.083 -0.27 0.116 -0.27 L 0.661 -0.27 Q 0.6930000000000001 -0.27 0.6940000000000001 -0.25 Q 0.6940000000000001 -0.23 0.661 -0.23 Z"/></g><g transform="translate(7.615111111111112,10.83421052631579)"><path fill="rgb(153,51,255)" stroke="none" paint-order="stroke fill markers" d=" M 0.028 -0.165 L 0.028 -0.196 L 0.335 -0.665 Q 0.343 -0.677 0.355 -0.677 Q 0.369 -0.677 0.371 -0.666 L 0.371 -0.651 L 0.371 -0.196 L 0.47100000000000003 -0.196 L 0.47100000000000003 -0.165 L 0.371 -0.165 L 0.371 -0.078 Q 0.371 -0.047 0.383 -0.04 Q 0.397 -0.031 0.447 -0.031 L 0.468 -0.031 L 0.468 0 Q 0.427 -0.003 0.332 -0.003 Q 0.23800000000000002 -0.003 0.197 0 L 0.197 -0.031 L 0.218 -0.031 Q 0.28 -0.031 0.29 -0.048 Q 0.294 -0.055 0.294 -0.078 L 0.294 -0.165 L 0.028 -0.165 M 0.3 -0.196 L 0.3 -0.5690000000000001 L 0.056 -0.196 L 0.3 -0.196 Z"/></g><g transform="translate(8.559555555555557,10.83421052631579)"><path fill="rgb(153,51,255)" stroke="none" paint-order="stroke fill markers" d=" M 0.359 -0.386 Q 0.323 -0.423 0.252 -0.423 Q 0.189 -0.423 0.151 -0.363 Q 0.117 -0.309 0.117 -0.218 Q 0.117 -0.074 0.203 -0.029 Q 0.23 -0.014 0.258 -0.014 Q 0.356 -0.014 0.389 -0.11900000000000001 Q 0.392 -0.129 0.402 -0.129 Q 0.41500000000000004 -0.129 0.41500000000000004 -0.11900000000000001 Q 0.41500000000000004 -0.1 0.393 -0.065 Q 0.34400000000000003 0.011 0.249 0.011 Q 0.155 0.011 0.09 -0.063 Q 0.034 -0.128 0.034 -0.216 Q 0.034 -0.319 0.105 -0.388 Q 0.166 -0.448 0.251 -0.448 Q 0.334 -0.448 0.378 -0.403 Q 0.404 -0.376 0.404 -0.341 Q 0.404 -0.303 0.371 -0.295 Q 0.365 -0.294 0.358 -0.294 Q 0.323 -0.294 0.314 -0.326 Q 0.312 -0.332 0.312 -0.34 Q 0.312 -0.376 0.34700000000000003 -0.384 Q 0.353 -0.386 0.359 -0.386 Z"/></g><g transform="translate(9.003555555555558,10.83421052631579)"><path fill="rgb(153,51,255)" stroke="none" paint-order="stroke fill markers" d=" M 0.47100000000000003 -0.214 L 0.47100000000000003 -0.214 Q 0.47100000000000003 -0.111 0.395 -0.044 Q 0.332 0.011 0.249 0.011 Q 0.153 0.011 0.08700000000000001 -0.061 Q 0.028 -0.126 0.028 -0.214 Q 0.028 -0.316 0.101 -0.386 Q 0.164 -0.448 0.25 -0.448 Q 0.34700000000000003 -0.448 0.41300000000000003 -0.371 Q 0.47100000000000003 -0.304 0.47100000000000003 -0.214 M 0.25 -0.014 L 0.25 -0.014 Q 0.317 -0.014 0.356 -0.07 L 0.366 -0.088 Q 0.388 -0.132 0.388 -0.222 Q 0.388 -0.318 0.362 -0.361 Q 0.319 -0.423 0.249 -0.426 Q 0.187 -0.426 0.147 -0.376 Q 0.14 -0.368 0.135 -0.359 Q 0.111 -0.315 0.111 -0.222 Q 0.111 -0.125 0.136 -0.081 Q 0.178 -0.016 0.25 -0.014 Z"/></g><g transform="translate(9.503555555555558,10.83421052631579)"><path fill="rgb(153,51,255)" stroke="none" paint-order="stroke fill markers" d=" M 0.20800000000000002 -0.194 L 0.20800000000000002 -0.194 Q 0.122 -0.211 0.095 -0.227 Q 0.085 -0.232 0.076 -0.24 Q 0.033 -0.275 0.033 -0.325 Q 0.033 -0.395 0.095 -0.427 Q 0.134 -0.448 0.193 -0.448 Q 0.249 -0.448 0.28700000000000003 -0.42 Q 0.298 -0.429 0.304 -0.436 Q 0.317 -0.448 0.324 -0.448 Q 0.334 -0.439 0.335 -0.424 L 0.335 -0.323 Q 0.335 -0.302 0.329 -0.3 L 0.328 -0.3 L 0.327 -0.299 L 0.322 -0.299 Q 0.311 -0.299 0.31 -0.308 Q 0.303 -0.40900000000000003 0.227 -0.426 Q 0.211 -0.429 0.193 -0.429 Q 0.099 -0.429 0.083 -0.371 Q 0.081 -0.362 0.081 -0.353 Q 0.081 -0.302 0.158 -0.281 Q 0.17300000000000001 -0.277 0.20400000000000001 -0.271 Q 0.276 -0.257 0.307 -0.232 Q 0.313 -0.228 0.318 -0.223 Q 0.36 -0.181 0.36 -0.128 Q 0.36 -0.043000000000000003 0.29 -0.008 Q 0.252 0.011 0.199 0.011 Q 0.134 0.011 0.089 -0.032 L 0.069 -0.009000000000000001 Q 0.049 0.011 0.044 0.011 Q 0.034 0.002 0.033 -0.013000000000000001 L 0.033 -0.145 Q 0.033 -0.167 0.04 -0.169 L 0.04 -0.169 L 0.041 -0.17 L 0.046 -0.17 Q 0.056 -0.17 0.059000000000000004 -0.159 Q 0.059000000000000004 -0.157 0.06 -0.153 Q 0.08600000000000001 -0.037 0.159 -0.016 Q 0.177 -0.011 0.199 -0.011 Q 0.289 -0.011 0.308 -0.074 Q 0.312 -0.08700000000000001 0.312 -0.10200000000000001 Q 0.312 -0.17500000000000002 0.20800000000000002 -0.194 Z"/></g><g transform="translate(9.897555555555556,9.72421052631579)"><path fill="rgb(153,51,255)" stroke="none" paint-order="stroke fill markers" d=" M 0.52490234375 1.7568359375 Q 0.431640625 1.67578125 0.365478515625 1.57275390625 Q 0.29931640625 1.4697265625 0.258544921875 1.3525390625 Q 0.2177734375 1.2353515625 0.198974609375 1.11181640625 Q 0.18017578125 0.98828125 0.18017578125 0.85986328125 Q 0.18017578125 0.73095703125 0.198974609375 0.607177734375 Q 0.2177734375 0.4833984375 0.258544921875 0.3662109375 Q 0.29931640625 0.2490234375 0.365478515625 0.14599609375 Q 0.431640625 0.04296875 0.52490234375 -0.0380859375 Q 0.52490234375 -0.0400390625 0.52978515625 -0.0400390625 L 0.55322265625 -0.0400390625 Q 0.55615234375 -0.0400390625 0.55859375 -0.036865234375 Q 0.56103515625 -0.03369140625 0.56103515625 -0.03076171875 Q 0.56103515625 -0.02685546875 0.55908203125 -0.02490234375 Q 0.4736328125 0.060546875 0.416015625 0.16259765625 Q 0.3583984375 0.2646484375 0.32373046875 0.381103515625 Q 0.2890625 0.49755859375 0.2744140625 0.616943359375 Q 0.259765625 0.736328125 0.259765625 0.86083984375 Q 0.259765625 0.98486328125 0.2744140625 1.104736328125 Q 0.2890625 1.224609375 0.32373046875 1.33984375 Q 0.3583984375 1.455078125 0.416748046875 1.5576171875 Q 0.47509765625 1.66015625 0.55908203125 1.744140625 Q 0.56103515625 1.74609375 0.56103515625 1.75 Q 0.56103515625 1.75244140625 0.558349609375 1.755615234375 Q 0.5556640625 1.7587890625 0.55322265625 1.7587890625 L 0.52978515625 1.7587890625 Q 0.52490234375 1.7587890625 0.52490234375 1.7568359375 Z"/></g><g transform="translate(10.557477493022924,10.15770252631579)"><path fill="rgb(153,51,255)" stroke="none" paint-order="stroke fill markers" d=" M 0.334 -0.302 L 0.3 -0.165 Q 0.28300000000000003 -0.097 0.28300000000000003 -0.077 Q 0.28300000000000003 -0.025 0.32 -0.014 Q 0.328 -0.011 0.338 -0.011 Q 0.388 -0.011 0.429 -0.061 Q 0.456 -0.093 0.47100000000000003 -0.14200000000000002 Q 0.47400000000000003 -0.153 0.484 -0.153 Q 0.496 -0.153 0.496 -0.14300000000000002 Q 0.496 -0.11800000000000001 0.465 -0.07100000000000001 Q 0.41100000000000003 0.011 0.336 0.011 Q 0.268 0.011 0.23700000000000002 -0.046 Q 0.231 -0.055 0.228 -0.065 Q 0.20400000000000001 -0.017 0.162 0.002 Q 0.14300000000000002 0.011 0.123 0.011 Q 0.063 0.011 0.039 -0.024 Q 0.029 -0.037 0.029 -0.055 Q 0.029 -0.092 0.061 -0.107 Q 0.07200000000000001 -0.113 0.084 -0.113 Q 0.114 -0.113 0.12 -0.088 Q 0.121 -0.083 0.121 -0.078 Q 0.121 -0.044 0.08700000000000001 -0.028 Q 0.081 -0.025 0.074 -0.024 Q 0.095 -0.011 0.124 -0.011 Q 0.177 -0.011 0.20800000000000002 -0.082 Q 0.214 -0.097 0.219 -0.115 Q 0.273 -0.319 0.273 -0.353 Q 0.267 -0.41500000000000004 0.219 -0.42 Q 0.167 -0.42 0.124 -0.367 L 0.124 -0.366 Q 0.124 -0.365 0.123 -0.365 Q 0.108 -0.34500000000000003 0.096 -0.319 Q 0.091 -0.307 0.08700000000000001 -0.295 L 0.085 -0.289 Q 0.083 -0.278 0.07200000000000001 -0.278 Q 0.06 -0.278 0.06 -0.28800000000000003 Q 0.06 -0.313 0.092 -0.36 Q 0.146 -0.442 0.221 -0.442 Q 0.298 -0.442 0.329 -0.366 Q 0.361 -0.428 0.41400000000000003 -0.44 Q 0.424 -0.442 0.434 -0.442 Q 0.493 -0.442 0.517 -0.40900000000000003 Q 0.527 -0.395 0.527 -0.376 Q 0.527 -0.335 0.49 -0.321 Q 0.481 -0.318 0.47300000000000003 -0.318 Q 0.442 -0.318 0.436 -0.34500000000000003 Q 0.435 -0.34900000000000003 0.435 -0.353 Q 0.435 -0.383 0.464 -0.4 Q 0.47300000000000003 -0.405 0.483 -0.40700000000000003 Q 0.462 -0.42 0.433 -0.42 Q 0.365 -0.42 0.337 -0.314 Q 0.335 -0.308 0.334 -0.302 Z"/></g><rect fill="rgb(153,51,255)" stroke="none" x="10.557477493022924" y="10.564211026315789" width="0.572" height="0.039999"/><g transform="translate(10.593477493022924,11.520161526315789)"><path fill="rgb(153,51,255)" stroke="none" paint-order="stroke fill markers" d=" M 0.449 -0.17400000000000002 L 0.449 -0.17400000000000002 L 0.421 0 L 0.05 0 Q 0.05 -0.025 0.056 -0.032 L 0.061 -0.037 L 0.253 -0.251 Q 0.358 -0.369 0.358 -0.47200000000000003 Q 0.358 -0.561 0.304 -0.607 L 0.303 -0.608 L 0.302 -0.608 Q 0.27 -0.635 0.224 -0.635 Q 0.152 -0.635 0.109 -0.5730000000000001 Q 0.097 -0.555 0.089 -0.533 Q 0.092 -0.534 0.10200000000000001 -0.534 Q 0.14200000000000002 -0.534 0.153 -0.498 L 0.153 -0.497 Q 0.155 -0.49 0.155 -0.482 Q 0.155 -0.442 0.117 -0.431 Q 0.109 -0.429 0.10300000000000001 -0.429 Q 0.066 -0.429 0.054 -0.46 Q 0.05 -0.47100000000000003 0.05 -0.485 Q 0.05 -0.562 0.109 -0.617 Q 0.162 -0.666 0.23700000000000002 -0.666 Q 0.34700000000000003 -0.666 0.40800000000000003 -0.592 Q 0.443 -0.549 0.448 -0.49 Q 0.449 -0.481 0.449 -0.47200000000000003 Q 0.449 -0.399 0.394 -0.333 Q 0.365 -0.299 0.304 -0.243 L 0.243 -0.189 L 0.233 -0.18 L 0.127 -0.077 L 0.307 -0.077 Q 0.395 -0.077 0.402 -0.085 Q 0.41200000000000003 -0.099 0.424 -0.17400000000000002 L 0.449 -0.17400000000000002 Z"/></g><g transform="translate(11.192399430490292,9.72421052631579)"><path fill="rgb(153,51,255)" stroke="none" paint-order="stroke fill markers" d=" M 0.0439453125 1.7587890625 Q 0.03515625 1.7587890625 0.03515625 1.75 Q 0.03515625 1.74609375 0.037109375 1.744140625 Q 0.1220703125 1.6591796875 0.1806640625 1.555419921875 Q 0.2392578125 1.45166015625 0.27294921875 1.33837890625 Q 0.306640625 1.22509765625 0.3212890625 1.10546875 Q 0.3359375 0.98583984375 0.3359375 0.85888671875 Q 0.3359375 0.72900390625 0.321044921875 0.6103515625 Q 0.30615234375 0.49169921875 0.2724609375 0.37890625 Q 0.23876953125 0.26611328125 0.180419921875 0.162353515625 Q 0.1220703125 0.05859375 0.037109375 -0.02490234375 Q 0.03515625 -0.02685546875 0.03515625 -0.03076171875 Q 0.03515625 -0.0400390625 0.0439453125 -0.0400390625 L 0.06689453125 -0.0400390625 Q 0.06982421875 -0.0400390625 0.07177734375 -0.0380859375 Q 0.1640625 0.04150390625 0.23095703125 0.145751953125 Q 0.2978515625 0.25 0.338623046875 0.366943359375 Q 0.37939453125 0.48388671875 0.397705078125 0.607421875 Q 0.416015625 0.73095703125 0.416015625 0.85986328125 Q 0.416015625 0.98828125 0.397705078125 1.111572265625 Q 0.37939453125 1.23486328125 0.338623046875 1.35205078125 Q 0.2978515625 1.46923828125 0.23095703125 1.5732421875 Q 0.1640625 1.67724609375 0.07177734375 1.7568359375 Q 0.06982421875 1.7587890625 0.06689453125 1.7587890625 L 0.0439453125 1.7587890625 Z"/></g></g></g></g></svg>