<svg version="1.1" xmlns="http://www.w3.org/2000/svg" xmlns:xlink="http://www.w3.org/1999/xlink" width="952" height="591"><defs><clipPath id="HeGdrQyWpLMx"><path fill="none" stroke="none" d=" M 0 0 L 952 0 L 952 591 L 0 591 L 0 0 Z"/></clipPath></defs><g transform="scale(1,1)" clip-path="url(#HeGdrQyWpLMx)"><g><rect fill="rgb(255,255,255)" stroke="none" x="0" y="0" width="952" height="591" fill-opacity="1"/><path fill="none" stroke="rgb(192,192,192)" paint-order="fill stroke markers" d=" M 4.5 0.5 L 4.5 591.5 M 4.5 0.5 L 4.5 591.5 M 83.5 0.5 L 83.5 591.5 M 161.5 0.5 L 161.5 591.5 M 240.5 0.5 L 240.5 591.5 M 318.5 0.5 L 318.5 591.5 M 397.5 0.5 L 397.5 591.5 M 554.5 0.5 L 554.5 591.5 M 633.5 0.5 L 633.5 591.5 M 711.5 0.5 L 711.5 591.5 M 790.5 0.5 L 790.5 591.5 M 868.5 0.5 L 868.5 591.5 M 947.5 0.5 L 947.5 591.5" stroke-opacity="1" stroke-linecap="round" stroke-linejoin="round" stroke-miterlimit="10"/><path fill="none" stroke="rgb(192,192,192)" paint-order="fill stroke markers" d=" M 20.5 0.5 L 20.5 591.5 M 36.5 0.5 L 36.5 591.5 M 51.5 0.5 L 51.5 591.5 M 67.5 0.5 L 67.5 591.5 M 99.5 0.5 L 99.5 591.5 M 114.5 0.5 L 114.5 591.5 M 130.5 0.5 L 130.5 591.5 M 146.5 0.5 L 146.5 591.5 M 177.5 0.5 L 177.5 591.5 M 193.5 0.5 L 193.5 591.5 M 208.5 0.5 L 208.5 591.5 M 224.5 0.5 L 224.5 591.5 M 256.5 0.5 L 256.5 591.5 M 271.5 0.5 L 271.5 591.5 M 287.5 0.5 L 287.5 591.5 M 303.5 0.5 L 303.5 591.5 M 334.5 0.5 L 334.5 591.5 M 350.5 0.5 L 350.5 591.5 M 366.5 0.5 L 366.5 591.5 M 381.5 0.5 L 381.5 591.5 M 413.5 0.5 L 413.5 591.5 M 428.5 0.5 L 428.5 591.5 M 444.5 0.5 L 444.5 591.5 M 460.5 0.5 L 460.5 591.5 M 491.5 0.5 L 491.5 591.5 M 507.5 0.5 L 507.5 591.5 M 523.5 0.5 L 523.5 591.5 M 538.5 0.5 L 538.5 591.5 M 570.5 0.5 L 570.5 591.5 M 585.5 0.5 L 585.5 591.5 M 601.5 0.5 L 601.5 591.5 M 617.5 0.5 L 617.5 591.5 M 648.5 0.5 L 648.5 591.5 M 664.5 0.5 L 664.5 591.5 M 680.5 0.5 L 680.5 591.5 M 695.5 0.5 L 695.5 591.5 M 727.5 0.5 L 727.5 591.5 M 743.5 0.5 L 743.5 591.5 M 758.5 0.5 L 758.5 591.5 M 774.5 0.5 L 774.5 591.5 M 805.5 0.5 L 805.5 591.5 M 821.5 0.5 L 821.5 591.5 M 837.5 0.5 L 837.5 591.5 M 852.5 0.5 L 852.5 591.5 M 884.5 0.5 L 884.5 591.5 M 900.5 0.5 L 900.5 591.5 M 915.5 0.5 L 915.5 591.5 M 931.5 0.5 L 931.5 591.5" stroke-opacity="0.23529411764705882" stroke-linecap="round" stroke-linejoin="round" stroke-miterlimit="10"/><path fill="none" stroke="rgb(192,192,192)" paint-order="fill stroke markers" d=" M 0.5 45.5 L 952.5 45.5 M 0.5 45.5 L 952.5 45.5 M 0.5 95.5 L 952.5 95.5 M 0.5 145.5 L 952.5 145.5 M 0.5 195.5 L 952.5 195.5 M 0.5 245.5 L 952.5 245.5 M 0.5 345.5 L 952.5 345.5 M 0.5 395.5 L 952.5 395.5 M 0.5 445.5 L 952.5 445.5 M 0.5 495.5 L 952.5 495.5 M 0.5 545.5 L 952.5 545.5" stroke-opacity="1" stroke-linecap="round" stroke-linejoin="round" stroke-miterlimit="10"/><path fill="none" stroke="rgb(192,192,192)" paint-order="fill stroke markers" d=" M 0.5 5.5 L 952.5 5.5 M 0.5 15.5 L 952.5 15.5 M 0.5 25.5 L 952.5 25.5 M 0.5 35.5 L 952.5 35.5 M 0.5 55.5 L 952.5 55.5 M 0.5 65.5 L 952.5 65.5 M 0.5 75.5 L 952.5 75.5 M 0.5 85.5 L 952.5 85.5 M 0.5 105.5 L 952.5 105.5 M 0.5 115.5 L 952.5 115.5 M 0.5 125.5 L 952.5 125.5 M 0.5 135.5 L 952.5 135.5 M 0.5 155.5 L 952.5 155.5 M 0.5 165.5 L 952.5 165.5 M 0.5 175.5 L 952.5 175.5 M 0.5 185.5 L 952.5 185.5 M 0.5 205.5 L 952.5 205.5 M 0.5 215.5 L 952.5 215.5 M 0.5 225.5 L 952.5 225.5 M 0.5 235.5 L 952.5 235.5 M 0.5 255.5 L 952.5 255.5 M 0.5 265.5 L 952.5 265.5 M 0.5 275.5 L 952.5 275.5 M 0.5 285.5 L 952.5 285.5 M 0.5 305.5 L 952.5 305.5 M 0.5 315.5 L 952.5 315.5 M 0.5 325.5 L 952.5 325.5 M 0.5 335.5 L 952.5 335.5 M 0.5 355.5 L 952.5 355.5 M 0.5 365.5 L 952.5 365.5 M 0.5 375.5 L 952.5 375.5 M 0.5 385.5 L 952.5 385.5 M 0.5 405.5 L 952.5 405.5 M 0.5 415.5 L 952.5 415.5 M 0.5 425.5 L 952.5 425.5 M 0.5 435.5 L 952.5 435.5 M 0.5 455.5 L 952.5 455.5 M 0.5 465.5 L 952.5 465.5 M 0.5 475.5 L 952.5 475.5 M 0.5 485.5 L 952.5 485.5 M 0.5 505.5 L 952.5 505.5 M 0.5 515.5 L 952.5 515.5 M 0.5 525.5 L 952.5 525.5 M 0.5 535.5 L 952.5 535.5 M 0.5 555.5 L 952.5 555.5 M 0.5 565.5 L 952.5 565.5 M 0.5 575.5 L 952.5 575.5 M 0.5 585.5 L 952.5 585.5" stroke-opacity="0.23529411764705882" stroke-linecap="round" stroke-linejoin="round" stroke-miterlimit="10"/><path fill="none" stroke="rgb(37,37,37)" paint-order="fill stroke markers" d=" M 476.5 2.5 L 476.5 591.5" stroke-opacity="1" stroke-miterlimit="10"/><path fill="none" stroke="rgb(37,37,37)" paint-order="fill stroke markers" d=" M 476.5 1.5 L 472.5 5.5" stroke-opacity="1" stroke-miterlimit="10"/><path fill="none" stroke="rgb(37,37,37)" paint-order="fill stroke markers" d=" M 476.5 1.5 L 480.5 5.5" stroke-opacity="1" stroke-miterlimit="10"/><path fill="none" stroke="rgb(37,37,37)" paint-order="fill stroke markers" d=" M 0.5 295.5 L 950.5 295.5" stroke-opacity="1" stroke-miterlimit="10"/><path fill="none" stroke="rgb(37,37,37)" paint-order="fill stroke markers" d=" M 951.5 295.5 L 947.5 291.5" stroke-opacity="1" stroke-miterlimit="10"/><path fill="none" stroke="rgb(37,37,37)" paint-order="fill stroke markers" d=" M 951.5 295.5 L 947.5 299.5" stroke-opacity="1" stroke-miterlimit="10"/><text fill="rgb(37,37,37)" stroke="none" font-family="geogebra-sans-serif, sans-serif" font-size="12px" font-style="normal" font-weight="normal" text-decoration="normal" x="63" y="311" text-anchor="start" dominant-baseline="alphabetic" fill-opacity="1">–5π / 2</text><text fill="none" stroke="rgb(255,255,255)" font-family="geogebra-sans-serif, sans-serif" font-size="12px" font-style="normal" font-weight="normal" text-decoration="normal" x="63" y="311" text-anchor="start" dominant-baseline="alphabetic" stroke-opacity="1" stroke-linejoin="bevel" stroke-miterlimit="10" stroke-width="3">–5π / 2</text><text fill="rgb(37,37,37)" stroke="none" font-family="geogebra-sans-serif, sans-serif" font-size="12px" font-style="normal" font-weight="normal" text-decoration="normal" x="63" y="311" text-anchor="start" dominant-baseline="alphabetic" fill-opacity="1">–5π / 2</text><text fill="rgb(37,37,37)" stroke="none" font-family="geogebra-sans-serif, sans-serif" font-size="12px" font-style="normal" font-weight="normal" text-decoration="normal" x="153" y="311" text-anchor="start" dominant-baseline="alphabetic" fill-opacity="1">–2π</text><text fill="none" stroke="rgb(255,255,255)" font-family="geogebra-sans-serif, sans-serif" font-size="12px" font-style="normal" font-weight="normal" text-decoration="normal" x="153" y="311" text-anchor="start" dominant-baseline="alphabetic" stroke-opacity="1" stroke-linejoin="bevel" stroke-miterlimit="10" stroke-width="3">–2π</text><text fill="rgb(37,37,37)" stroke="none" font-family="geogebra-sans-serif, sans-serif" font-size="12px" font-style="normal" font-weight="normal" text-decoration="normal" x="153" y="311" text-anchor="start" dominant-baseline="alphabetic" fill-opacity="1">–2π</text><text fill="rgb(37,37,37)" stroke="none" font-family="geogebra-sans-serif, sans-serif" font-size="12px" font-style="normal" font-weight="normal" text-decoration="normal" x="220" y="311" text-anchor="start" dominant-baseline="alphabetic" fill-opacity="1">–3π / 2</text><text fill="none" stroke="rgb(255,255,255)" font-family="geogebra-sans-serif, sans-serif" font-size="12px" font-style="normal" font-weight="normal" text-decoration="normal" x="220" y="311" text-anchor="start" dominant-baseline="alphabetic" stroke-opacity="1" stroke-linejoin="bevel" stroke-miterlimit="10" stroke-width="3">–3π / 2</text><text fill="rgb(37,37,37)" stroke="none" font-family="geogebra-sans-serif, sans-serif" font-size="12px" font-style="normal" font-weight="normal" text-decoration="normal" x="220" y="311" text-anchor="start" dominant-baseline="alphabetic" fill-opacity="1">–3π / 2</text><text fill="rgb(37,37,37)" stroke="none" font-family="geogebra-sans-serif, sans-serif" font-size="12px" font-style="normal" font-weight="normal" text-decoration="normal" x="313" y="311" text-anchor="start" dominant-baseline="alphabetic" fill-opacity="1">–π</text><text fill="none" stroke="rgb(255,255,255)" font-family="geogebra-sans-serif, sans-serif" font-size="12px" font-style="normal" font-weight="normal" text-decoration="normal" x="313" y="311" text-anchor="start" dominant-baseline="alphabetic" stroke-opacity="1" stroke-linejoin="bevel" stroke-miterlimit="10" stroke-width="3">–π</text><text fill="rgb(37,37,37)" stroke="none" font-family="geogebra-sans-serif, sans-serif" font-size="12px" font-style="normal" font-weight="normal" text-decoration="normal" x="313" y="311" text-anchor="start" dominant-baseline="alphabetic" fill-opacity="1">–π</text><text fill="rgb(37,37,37)" stroke="none" font-family="geogebra-sans-serif, sans-serif" font-size="12px" font-style="normal" font-weight="normal" text-decoration="normal" x="380" y="311" text-anchor="start" dominant-baseline="alphabetic" fill-opacity="1">–π / 2</text><text fill="none" stroke="rgb(255,255,255)" font-family="geogebra-sans-serif, sans-serif" font-size="12px" font-style="normal" font-weight="normal" text-decoration="normal" x="380" y="311" text-anchor="start" dominant-baseline="alphabetic" stroke-opacity="1" stroke-linejoin="bevel" stroke-miterlimit="10" stroke-width="3">–π / 2</text><text fill="rgb(37,37,37)" stroke="none" font-family="geogebra-sans-serif, sans-serif" font-size="12px" font-style="normal" font-weight="normal" text-decoration="normal" x="380" y="311" text-anchor="start" dominant-baseline="alphabetic" fill-opacity="1">–π / 2</text><text fill="rgb(37,37,37)" stroke="none" font-family="geogebra-sans-serif, sans-serif" font-size="12px" font-style="normal" font-weight="normal" text-decoration="normal" x="540" y="311" text-anchor="start" dominant-baseline="alphabetic" fill-opacity="1">π / 2</text><text fill="none" stroke="rgb(255,255,255)" font-family="geogebra-sans-serif, sans-serif" font-size="12px" font-style="normal" font-weight="normal" text-decoration="normal" x="540" y="311" text-anchor="start" dominant-baseline="alphabetic" stroke-opacity="1" stroke-linejoin="bevel" stroke-miterlimit="10" stroke-width="3">π / 2</text><text fill="rgb(37,37,37)" stroke="none" font-family="geogebra-sans-serif, sans-serif" font-size="12px" font-style="normal" font-weight="normal" text-decoration="normal" x="540" y="311" text-anchor="start" dominant-baseline="alphabetic" fill-opacity="1">π / 2</text><text fill="rgb(37,37,37)" stroke="none" font-family="geogebra-sans-serif, sans-serif" font-size="12px" font-style="normal" font-weight="normal" text-decoration="normal" x="631" y="311" text-anchor="start" dominant-baseline="alphabetic" fill-opacity="1">π</text><text fill="none" stroke="rgb(255,255,255)" font-family="geogebra-sans-serif, sans-serif" font-size="12px" font-style="normal" font-weight="normal" text-decoration="normal" x="631" y="311" text-anchor="start" dominant-baseline="alphabetic" stroke-opacity="1" stroke-linejoin="bevel" stroke-miterlimit="10" stroke-width="3">π</text><text fill="rgb(37,37,37)" stroke="none" font-family="geogebra-sans-serif, sans-serif" font-size="12px" font-style="normal" font-weight="normal" text-decoration="normal" x="631" y="311" text-anchor="start" dominant-baseline="alphabetic" fill-opacity="1">π</text><text fill="rgb(37,37,37)" stroke="none" font-family="geogebra-sans-serif, sans-serif" font-size="12px" font-style="normal" font-weight="normal" text-decoration="normal" x="694" y="311" text-anchor="start" dominant-baseline="alphabetic" fill-opacity="1">3π / 2</text><text fill="none" stroke="rgb(255,255,255)" font-family="geogebra-sans-serif, sans-serif" font-size="12px" font-style="normal" font-weight="normal" text-decoration="normal" x="694" y="311" text-anchor="start" dominant-baseline="alphabetic" stroke-opacity="1" stroke-linejoin="bevel" stroke-miterlimit="10" stroke-width="3">3π / 2</text><text fill="rgb(37,37,37)" stroke="none" font-family="geogebra-sans-serif, sans-serif" font-size="12px" font-style="normal" font-weight="normal" text-decoration="normal" x="694" y="311" text-anchor="start" dominant-baseline="alphabetic" fill-opacity="1">3π / 2</text><text fill="rgb(37,37,37)" stroke="none" font-family="geogebra-sans-serif, sans-serif" font-size="12px" font-style="normal" font-weight="normal" text-decoration="normal" x="785" y="311" text-anchor="start" dominant-baseline="alphabetic" fill-opacity="1">2π</text><text fill="none" stroke="rgb(255,255,255)" font-family="geogebra-sans-serif, sans-serif" font-size="12px" font-style="normal" font-weight="normal" text-decoration="normal" x="785" y="311" text-anchor="start" dominant-baseline="alphabetic" stroke-opacity="1" stroke-linejoin="bevel" stroke-miterlimit="10" stroke-width="3">2π</text><text fill="rgb(37,37,37)" stroke="none" font-family="geogebra-sans-serif, sans-serif" font-size="12px" font-style="normal" font-weight="normal" text-decoration="normal" x="785" y="311" text-anchor="start" dominant-baseline="alphabetic" fill-opacity="1">2π</text><text fill="rgb(37,37,37)" stroke="none" font-family="geogebra-sans-serif, sans-serif" font-size="12px" font-style="normal" font-weight="normal" text-decoration="normal" x="851" y="311" text-anchor="start" dominant-baseline="alphabetic" fill-opacity="1">5π / 2</text><text fill="none" stroke="rgb(255,255,255)" font-family="geogebra-sans-serif, sans-serif" font-size="12px" font-style="normal" font-weight="normal" text-decoration="normal" x="851" y="311" text-anchor="start" dominant-baseline="alphabetic" stroke-opacity="1" stroke-linejoin="bevel" stroke-miterlimit="10" stroke-width="3">5π / 2</text><text fill="rgb(37,37,37)" stroke="none" font-family="geogebra-sans-serif, sans-serif" font-size="12px" font-style="normal" font-weight="normal" text-decoration="normal" x="851" y="311" text-anchor="start" dominant-baseline="alphabetic" fill-opacity="1">5π / 2</text><text fill="rgb(37,37,37)" stroke="none" font-family="geogebra-sans-serif, sans-serif" font-size="12px" font-style="normal" font-weight="normal" text-decoration="normal" x="456" y="550" text-anchor="start" dominant-baseline="alphabetic" fill-opacity="1">–5</text><text fill="none" stroke="rgb(255,255,255)" font-family="geogebra-sans-serif, sans-serif" font-size="12px" font-style="normal" font-weight="normal" text-decoration="normal" x="456" y="550" text-anchor="start" dominant-baseline="alphabetic" stroke-opacity="1" stroke-linejoin="bevel" stroke-miterlimit="10" stroke-width="3">–5</text><text fill="rgb(37,37,37)" stroke="none" font-family="geogebra-sans-serif, sans-serif" font-size="12px" font-style="normal" font-weight="normal" text-decoration="normal" x="456" y="550" text-anchor="start" dominant-baseline="alphabetic" fill-opacity="1">–5</text><text fill="rgb(37,37,37)" stroke="none" font-family="geogebra-sans-serif, sans-serif" font-size="12px" font-style="normal" font-weight="normal" text-decoration="normal" x="456" y="500" text-anchor="start" dominant-baseline="alphabetic" fill-opacity="1">–4</text><text fill="none" stroke="rgb(255,255,255)" font-family="geogebra-sans-serif, sans-serif" font-size="12px" font-style="normal" font-weight="normal" text-decoration="normal" x="456" y="500" text-anchor="start" dominant-baseline="alphabetic" stroke-opacity="1" stroke-linejoin="bevel" stroke-miterlimit="10" stroke-width="3">–4</text><text fill="rgb(37,37,37)" stroke="none" font-family="geogebra-sans-serif, sans-serif" font-size="12px" font-style="normal" font-weight="normal" text-decoration="normal" x="456" y="500" text-anchor="start" dominant-baseline="alphabetic" fill-opacity="1">–4</text><text fill="rgb(37,37,37)" stroke="none" font-family="geogebra-sans-serif, sans-serif" font-size="12px" font-style="normal" font-weight="normal" text-decoration="normal" x="456" y="450" text-anchor="start" dominant-baseline="alphabetic" fill-opacity="1">–3</text><text fill="none" stroke="rgb(255,255,255)" font-family="geogebra-sans-serif, sans-serif" font-size="12px" font-style="normal" font-weight="normal" text-decoration="normal" x="456" y="450" text-anchor="start" dominant-baseline="alphabetic" stroke-opacity="1" stroke-linejoin="bevel" stroke-miterlimit="10" stroke-width="3">–3</text><text fill="rgb(37,37,37)" stroke="none" font-family="geogebra-sans-serif, sans-serif" font-size="12px" font-style="normal" font-weight="normal" text-decoration="normal" x="456" y="450" text-anchor="start" dominant-baseline="alphabetic" fill-opacity="1">–3</text><text fill="rgb(37,37,37)" stroke="none" font-family="geogebra-sans-serif, sans-serif" font-size="12px" font-style="normal" font-weight="normal" text-decoration="normal" x="456" y="400" text-anchor="start" dominant-baseline="alphabetic" fill-opacity="1">–2</text><text fill="none" stroke="rgb(255,255,255)" font-family="geogebra-sans-serif, sans-serif" font-size="12px" font-style="normal" font-weight="normal" text-decoration="normal" x="456" y="400" text-anchor="start" dominant-baseline="alphabetic" stroke-opacity="1" stroke-linejoin="bevel" stroke-miterlimit="10" stroke-width="3">–2</text><text fill="rgb(37,37,37)" stroke="none" font-family="geogebra-sans-serif, sans-serif" font-size="12px" font-style="normal" font-weight="normal" text-decoration="normal" x="456" y="400" text-anchor="start" dominant-baseline="alphabetic" fill-opacity="1">–2</text><text fill="rgb(37,37,37)" stroke="none" font-family="geogebra-sans-serif, sans-serif" font-size="12px" font-style="normal" font-weight="normal" text-decoration="normal" x="456" y="350" text-anchor="start" dominant-baseline="alphabetic" fill-opacity="1">–1</text><text fill="none" stroke="rgb(255,255,255)" font-family="geogebra-sans-serif, sans-serif" font-size="12px" font-style="normal" font-weight="normal" text-decoration="normal" x="456" y="350" text-anchor="start" dominant-baseline="alphabetic" stroke-opacity="1" stroke-linejoin="bevel" stroke-miterlimit="10" stroke-width="3">–1</text><text fill="rgb(37,37,37)" stroke="none" font-family="geogebra-sans-serif, sans-serif" font-size="12px" font-style="normal" font-weight="normal" text-decoration="normal" x="456" y="350" text-anchor="start" dominant-baseline="alphabetic" fill-opacity="1">–1</text><text fill="rgb(37,37,37)" stroke="none" font-family="geogebra-sans-serif, sans-serif" font-size="12px" font-style="normal" font-weight="normal" text-decoration="normal" x="462" y="250" text-anchor="start" dominant-baseline="alphabetic" fill-opacity="1">1</text><text fill="none" stroke="rgb(255,255,255)" font-family="geogebra-sans-serif, sans-serif" font-size="12px" font-style="normal" font-weight="normal" text-decoration="normal" x="462" y="250" text-anchor="start" dominant-baseline="alphabetic" stroke-opacity="1" stroke-linejoin="bevel" stroke-miterlimit="10" stroke-width="3">1</text><text fill="rgb(37,37,37)" stroke="none" font-family="geogebra-sans-serif, sans-serif" font-size="12px" font-style="normal" font-weight="normal" text-decoration="normal" x="462" y="250" text-anchor="start" dominant-baseline="alphabetic" fill-opacity="1">1</text><text fill="rgb(37,37,37)" stroke="none" font-family="geogebra-sans-serif, sans-serif" font-size="12px" font-style="normal" font-weight="normal" text-decoration="normal" x="462" y="200" text-anchor="start" dominant-baseline="alphabetic" fill-opacity="1">2</text><text fill="none" stroke="rgb(255,255,255)" font-family="geogebra-sans-serif, sans-serif" font-size="12px" font-style="normal" font-weight="normal" text-decoration="normal" x="462" y="200" text-anchor="start" dominant-baseline="alphabetic" stroke-opacity="1" stroke-linejoin="bevel" stroke-miterlimit="10" stroke-width="3">2</text><text fill="rgb(37,37,37)" stroke="none" font-family="geogebra-sans-serif, sans-serif" font-size="12px" font-style="normal" font-weight="normal" text-decoration="normal" x="462" y="200" text-anchor="start" dominant-baseline="alphabetic" fill-opacity="1">2</text><text fill="rgb(37,37,37)" stroke="none" font-family="geogebra-sans-serif, sans-serif" font-size="12px" font-style="normal" font-weight="normal" text-decoration="normal" x="462" y="150" text-anchor="start" dominant-baseline="alphabetic" fill-opacity="1">3</text><text fill="none" stroke="rgb(255,255,255)" font-family="geogebra-sans-serif, sans-serif" font-size="12px" font-style="normal" font-weight="normal" text-decoration="normal" x="462" y="150" text-anchor="start" dominant-baseline="alphabetic" stroke-opacity="1" stroke-linejoin="bevel" stroke-miterlimit="10" stroke-width="3">3</text><text fill="rgb(37,37,37)" stroke="none" font-family="geogebra-sans-serif, sans-serif" font-size="12px" font-style="normal" font-weight="normal" text-decoration="normal" x="462" y="150" text-anchor="start" dominant-baseline="alphabetic" fill-opacity="1">3</text><text fill="rgb(37,37,37)" stroke="none" font-family="geogebra-sans-serif, sans-serif" font-size="12px" font-style="normal" font-weight="normal" text-decoration="normal" x="462" y="100" text-anchor="start" dominant-baseline="alphabetic" fill-opacity="1">4</text><text fill="none" stroke="rgb(255,255,255)" font-family="geogebra-sans-serif, sans-serif" font-size="12px" font-style="normal" font-weight="normal" text-decoration="normal" x="462" y="100" text-anchor="start" dominant-baseline="alphabetic" stroke-opacity="1" stroke-linejoin="bevel" stroke-miterlimit="10" stroke-width="3">4</text><text fill="rgb(37,37,37)" stroke="none" font-family="geogebra-sans-serif, sans-serif" font-size="12px" font-style="normal" font-weight="normal" text-decoration="normal" x="462" y="100" text-anchor="start" dominant-baseline="alphabetic" fill-opacity="1">4</text><text fill="rgb(37,37,37)" stroke="none" font-family="geogebra-sans-serif, sans-serif" font-size="12px" font-style="normal" font-weight="normal" text-decoration="normal" x="462" y="50" text-anchor="start" dominant-baseline="alphabetic" fill-opacity="1">5</text><text fill="none" stroke="rgb(255,255,255)" font-family="geogebra-sans-serif, sans-serif" font-size="12px" font-style="normal" font-weight="normal" text-decoration="normal" x="462" y="50" text-anchor="start" dominant-baseline="alphabetic" stroke-opacity="1" stroke-linejoin="bevel" stroke-miterlimit="10" stroke-width="3">5</text><text fill="rgb(37,37,37)" stroke="none" font-family="geogebra-sans-serif, sans-serif" font-size="12px" font-style="normal" font-weight="normal" text-decoration="normal" x="462" y="50" text-anchor="start" dominant-baseline="alphabetic" fill-opacity="1">5</text><text fill="rgb(37,37,37)" stroke="none" font-family="geogebra-sans-serif, sans-serif" font-size="12px" font-style="normal" font-weight="normal" text-decoration="normal" x="462" y="311" text-anchor="start" dominant-baseline="alphabetic" fill-opacity="1">0</text><text fill="none" stroke="rgb(255,255,255)" font-family="geogebra-sans-serif, sans-serif" font-size="12px" font-style="normal" font-weight="normal" text-decoration="normal" x="462" y="311" text-anchor="start" dominant-baseline="alphabetic" stroke-opacity="1" stroke-linejoin="bevel" stroke-miterlimit="10" stroke-width="3">0</text><text fill="rgb(37,37,37)" stroke="none" font-family="geogebra-sans-serif, sans-serif" font-size="12px" font-style="normal" font-weight="normal" text-decoration="normal" x="462" y="311" text-anchor="start" dominant-baseline="alphabetic" fill-opacity="1">0</text><path fill="none" stroke="rgb(153,51,255)" paint-order="fill stroke markers" d=" M 0.9999999999999432 299.2682119378805 L 0.9999999999999432 300.27554435775505 L 0.9999999999999432 299.2682119378805 L 1.9999999999999432 298.2639120251391 L 1.9999999999999432 298.2639120251391 L 3 297.2618305928136 L 3 297.2618305928136 L 4 296.2611607520905 L 4 296.2611607520905 L 4.999999999999943 295.2610751903478 L 4.999999999999943 295.2611001435979 L 5.999999999999943 294.2608483598773 L 5.999999999999943 294.2608483598773 L 6.999999999999943 293.25960438115777 L 6.999999999999943 293.25960438115777 L 8 292.25656400695914 L 8 292.25656400695914 L 9 291.2509172660005 L 9 291.2509172660005 L 9.999999999999943 290.24184578663636 L 9.999999999999943 290.24184578663636 L 10.999999999999943 289.2285201095791 L 10.999999999999943 289.2285201095791 L 12 288.210096923982 L 12 288.210096923982 L 13 287.18571620704523 L 13 287.18571620704523 L 13.999999999999943 286.15449824614274 L 13.999999999999943 286.1544982461428 L 14.999999999999943 285.1155405210425 L 14.999999999999943 285.11554052104253 L 16 284.0679144220599 L 16 284.0679144220599 L 17 283.01066177793484 L 17 283.01066177793484 L 17.999999999999943 281.9427911647934 L 17.999999999999943 281.9427911647934 L 18.999999999999943 280.8632739647187 L 18.999999999999943 280.8632739647187 L 20 279.77104013913686 L 20 279.77104013913686 L 21 278.66497367836814 L 21 278.66497367836814 L 21.999999999999943 277.54390768420814 L 21.999999999999943 277.54390768420814 L 22.999999999999943 276.4066190372026 L 22.999999999999943 276.40661903720263 L 24 275.2518225942331 L 24 275.2518225942331 L 25 274.0781648550123 L 25 274.0781648550123 L 25.999999999999943 272.8842170279223 L 25.999999999999943 272.8842170279223 L 26.999999999999943 271.6684674161277 L 26.999999999999943 271.6684674161277 L 28 270.4293130338033 L 28 270.4293130338033 L 29 269.1650503493654 L 29 269.1650503493654 L 29.999999999999943 267.8738650374203 L 29.999999999999943 267.87386503742033 L 30.999999999999943 266.5538206033368 L 30.999999999999943 266.5538206033368 L 32 265.20284572338943 L 32 265.20284572338943 L 33 263.81872011868944 L 33 263.8187201186895 L 33.99999999999994 262.3990587518524 L 33.99999999999994 262.3990587518524 L 34.99999999999994 260.9412941006139 L 34.99999999999994 260.9412941006139 L 36 259.44265622123584 L 36 259.44265622123584 L 37 257.9001502651222 L 37 257.90015026512225 L 37.99999999999994 256.3105310528 L 37.99999999999994 256.3105310528 L 38.99999999999994 254.67027423811186 L 38.99999999999994 254.6702742381119 L 40 252.9755435093134 L 40 252.97554350931344 L 41 251.2221531692785 L 41 251.22215316927856 L 41.99999999999994 249.40552530974009 L 41.99999999999994 249.4055253097401 L 42.99999999999994 247.52064063878987 L 42.99999999999994 247.52064063878987 L 44 245.56198182948145 L 44 245.56198182948148 L 45 243.5234680210295 L 45 243.52346802102954 L 46 241.39837881070144 L 46 241.39837881070147 L 46.99999999999994 239.17926570836434 L 46.99999999999994 239.17926570836437 L 48 236.85784856614592 L 48 236.85784856614595 L 49 234.42489391560582 L 49 234.42489391560588 L 50 231.8700714079602 L 50 231.87007140796024 L 50.99999999999994 229.18178361074877 L 50.99999999999994 229.18178361074882 L 51.99999999999994 226.34696320125732 L 51.99999999999994 226.34696320125738 L 53 223.35083002363027 L 53 223.3508300236303 L 54 220.17659841994413 L 54 220.17659841994418 L 54.99999999999994 216.8051225347963 L 54.99999999999994 216.80512253479637 L 55.99999999999994 213.214463688644 L 55.99999999999994 213.21446368864406 L 57 209.37935907740854 L 57 209.3793590774086 L 58 205.2705644972909 L 58 205.27056449729096 L 58.99999999999994 200.85403480614133 L 58.99999999999994 200.85403480614139 L 59.99999999999994 196.08989337367478 L 59.99999999999994 196.08989337367484 L 61 190.93112428562878 L 61 190.93112428562887 L 62 185.32189619115195 L 62 185.321896191152 L 62.99999999999994 179.19539077868643 L 62.99999999999994 179.19539077868652 L 63.99999999999994 172.4709562196016 L 63.99999999999994 172.47095621960167 L 65 165.05032738260363 L 65 165.05032738260374 L 66 156.81253523092067 L 66 156.81253523092073 L 66.99999999999994 147.6069425054802 L 66.99999999999994 147.60694250548025 L 67.99999999999994 137.24354848994025 L 67.99999999999994 137.24354848994037 L 69 125.47922612949853 L 69 125.47922612949864 L 70 111.99775078404721 L 70 111.99775078404735 L 70.99999999999994 96.38008766237837 L 70.99999999999994 96.38008766237846 L 71.99999999999994 78.05890398163422 L 71.99999999999994 78.0589039816343 L 73 56.24658574640145 L 73 56.24658574640159 L 74 29.816818356228055 L 74 29.816818356228225 L 74.99999999999994 -2.8994276631236175 L 74.99999999999994 -2.899427663123447 L 75.99999999999994 -44.485572760519744 L 75.99999999999994 -44.485572760519574 L 76.99999999999994 -99.16503006769733 L 76.99999999999994 -99.16503006769705 L 78 -174.34810065302935 L 78 -174.34810065302918 L 78.99999999999994 -284.336866350164 L 78.99999999999994 -284.33686635016375 L 80 -460.76437731558997 L 80 -460.7643773155895 L 81 -790.2556340577468 L 81 -790.2556340577461 L 82 -1625.7857891167732 L 82 -1625.7857891167723 L 83 -8012.30250087342 M 85 1766.3166387351166 L 85 3871.3869062128974 L 85 1766.3166387351175 L 86 1220.8410824766606 L 86 1220.841082476661 L 87 970.1099355580402 L 87 970.1099355580407 L 88 825.9515575155039 L 88 825.9515575155041 L 89 732.2658216132253 L 89 732.2658216132254 L 90 666.4497729603434 L 90 666.4497729603436 L 91 617.6436236750767 L 91 617.6436236750769 L 91.99999999999994 579.9810937122893 L 91.99999999999994 579.9810937122895 L 93 550.0151938655226 L 93 550.0151938655229 L 93.99999999999994 525.5876188060655 L 93.99999999999994 525.5876188060656 L 95 505.2779840512354 L 95 505.27798405123553 L 95.99999999999994 488.1132847344003 L 95.99999999999994 488.1132847344004 L 97 473.4046072187812 L 97 473.40460721878134 L 97.99999999999994 460.65049317666023 L 97.99999999999994 460.65049317666035 L 99 449.4772367354691 L 99 449.47723673546915 L 99.99999999999994 439.60063291274673 L 99.99999999999994 439.6006329127468 L 101 430.8006933387228 L 101 430.8006933387229 L 101.99999999999994 422.9044749627626 L 101.99999999999994 422.90447496276266 L 103 415.77413882260674 L 103 415.7741388226068 L 103.99999999999994 409.2984701771411 L 103.99999999999994 409.2984701771411 L 105 403.38674338599384 L 105 403.3867433859939 L 105.99999999999994 397.96420845645946 L 105.99999999999994 397.96420845645946 L 107 392.96872026511323 L 107 392.9687202651133 L 107.99999999999994 388.34818660653934 L 107.99999999999994 388.3481866065394 L 109 384.0586120337213 L 109 384.0586120337214 L 109.99999999999994 380.0625812840125 L 109.99999999999994 380.06258128401254 L 111 376.32807119971335 L 111 376.3280711997134 L 111.99999999999994 372.82751101936134 L 111.99999999999994 372.8275110193614 L 113 369.5370324986401 L 113 369.5370324986402 L 113.99999999999994 366.43586657524344 L 113.99999999999994 366.4358665752435 L 115 363.50585421610697 L 115 363.50585421610697 L 115.99999999999994 360.73104700281067 L 115.99999999999994 360.7310470028107 L 117 358.0973788138247 L 117 358.0973788138247 L 118 355.59239426004694 L 118 355.592394260047 L 119 353.20502274434085 L 119 353.2050227443409 L 120 350.92538944178733 L 120 350.92538944178733 L 121 348.7446563441918 L 121 348.74465634419187 L 122 346.65488792971536 L 122 346.6548879297154 L 123 344.64893711449156 L 123 344.64893711449156 L 124 342.72034799673213 L 124 342.72034799673213 L 125 340.8632725732016 L 125 340.8632725732016 L 126 339.07239913623476 L 126 339.07239913623476 L 127 337.34289047894583 L 127 337.34289047894583 L 128 335.6703303712928 L 128 335.6703303712928 L 129 334.05067703868366 L 129 334.05067703868366 L 130 332.4802225919884 L 130 332.4802225919885 L 131 330.95555753400066 L 131 330.9555575340007 L 132 329.4735396110166 L 132 329.4735396110166 L 133 328.0312663957953 L 133 328.03126639579534 L 134 326.6260510848808 L 134 326.6260510848808 L 134.99999999999994 325.25540107313094 L 134.99999999999994 325.255401073131 L 136 323.916998934517 L 136 323.916998934517 L 136.99999999999994 322.6086854933605 L 136.99999999999994 322.6086854933605 L 138 321.32844471620035 L 138 321.32844471620035 L 138.99999999999994 320.0743901930573 L 138.99999999999994 320.0743901930573 L 140 318.8447530092962 L 140 318.8447530092962 L 140.99999999999994 317.6378708366486 L 140.99999999999994 317.63787083664863 L 142 316.4521780951008 L 142 316.4521780951008 L 142.99999999999994 315.2861970569914 L 142.99999999999994 315.2861970569914 L 144 314.13852978136447 L 144 314.1385297813645 L 144.99999999999994 313.0078507808693 L 144.99999999999994 313.0078507808693 L 146 311.89290033566846 L 146 311.89290033566846 L 146.99999999999994 310.79247837924567 L 146.99999999999994 310.79247837924567 L 148 309.70543888994507 L 148 309.70543888994507 L 148.99999999999994 308.6306847297642 L 148.99999999999994 308.6306847297642 L 150 307.5671628785328 L 150 307.5671628785329 L 150.99999999999994 306.51386001730606 L 150.99999999999994 306.51386001730606 L 152 305.4697984197025 L 152 305.4697984197025 L 152.99999999999994 304.4340321141443 L 152.99999999999994 304.4340321141443 L 154 303.40564328358545 L 154 303.40564328358545 L 155 302.38373887243733 L 155 302.38373887243733 L 156 301.36744737306486 L 156 301.36744737306486 L 157 300.3559157665041 L 157 300.3559157665041 L 158 299.3483065939661 L 158 299.3483065939661 L 159 298.3437951373019 L 159 298.3437951373019 L 160 297.34156668792156 L 160 297.34156668792156 L 161 296.34081388471975 L 161 296.34081388471975 L 162 295.34071239288147 L 162 295.34073410238403 L 163 294.3405268720522 L 163 294.3405268720522 L 164 293.33939131666835 L 164 293.33939131666835 L 165 292.3365235835588 L 165 292.3365235835588 L 166 291.3311142567142 L 166 291.3311142567142 L 167 290.3223457310311 L 167 290.3223457310311 L 168 289.30938953031216 L 168 289.30938953031216 L 169 288.2914035501669 L 169 288.2914035501669 L 170 287.2675292060516 L 170 287.2675292060516 L 171 286.2368884655542 L 171 286.2368884655542 L 172 285.19858074261487 L 172 285.19858074261487 L 173 284.15167962967666 L 173 284.15167962967666 L 174 283.0952294417289 L 174 283.0952294417289 L 175 282.0282415438158 L 175 282.02824154381585 L 176 280.949690430774 L 176 280.949690430774 L 177 279.8585095246907 L 177 279.8585095246907 L 177.99999999999994 278.7535866517594 L 177.99999999999994 278.7535866517594 L 179 277.6337591557822 L 179 277.63375915578223 L 179.99999999999994 276.497808600424 L 179.99999999999994 276.497808600424 L 181 275.3444550063509 L 181 275.3444550063509 L 181.99999999999994 274.17235056245187 L 181.99999999999994 274.1723505624519 L 183 272.9800727422717 L 183 272.9800727422717 L 183.99999999999994 271.76611674739917 L 183.99999999999994 271.76611674739917 L 185 270.5288871885974 L 185 270.5288871885974 L 185.99999999999994 269.2666889026735 L 185.99999999999994 269.2666889026735 L 187 267.97771678809903 L 187 267.97771678809903 L 187.99999999999994 266.66004452481604 L 187.99999999999994 266.66004452481604 L 189 265.31161202297113 L 189 265.31161202297113 L 189.99999999999994 263.9302114209212 L 189.99999999999994 263.9302114209212 L 191 262.5134714239763 L 191 262.5134714239763 L 192 261.05883974108417 L 192 261.05883974108417 L 193 259.5635633358665 L 193 259.5635633358665 L 194 258.0246661596968 L 194 258.02466615969684 L 195 256.43892397610443 L 195 256.43892397610443 L 196 254.80283581553238 L 196 254.80283581553238 L 197 253.11259151462212 L 197 253.11259151462215 L 198 251.3640346913209 L 198 251.3640346913209 L 199 249.5526203818312 L 199 249.55262038183122 L 200 247.67336641222664 L 200 247.67336641222667 L 201 245.7207973893266 L 201 245.72079738932663 L 202 243.68887996305628 L 202 243.6888799630563 L 203 241.57094772418395 L 203 241.570947724184 L 204 239.35961374166612 L 204 239.35961374166615 L 205 237.0466682926608 L 205 237.04666829266083 L 206 234.6229587689982 L 206 234.62295876899825 L 207 232.0782480211193 L 207 232.0782480211193 L 208 229.4010464768301 L 208 229.40104647683012 L 209 226.57841218362753 L 209 226.57841218362756 L 210 223.59571138265628 L 210 223.59571138265633 L 211 220.43633020968753 L 211 220.43633020968758 L 212 217.0813254675948 L 212 217.08132546759487 L 213 213.50899889250888 L 213 213.50899889250894 L 214 209.6943746118842 L 214 209.69437461188426 L 215 205.6085530936158 L 215 205.60855309361585 L 216 201.21790612405943 L 216 201.21790612405945 L 217 196.4830652189698 L 217 196.48306521896984 L 218 191.35763885811252 L 218 191.35763885811258 L 219 185.78656975939742 L 219 185.78656975939745 L 220 179.70400855792084 L 220 179.70400855792087 L 220.99999999999997 173.03052922084356 L 220.99999999999997 173.03052922084362 L 222 165.669435505676 L 222 165.66943550567606 L 222.99999999999997 157.50179237973344 L 222.99999999999997 157.5017923797335 L 224 148.37963752985473 L 224 148.37963752985485 L 224.99999999999997 138.1165446838147 L 224.99999999999997 138.1165446838148 L 226 126.47424968780066 L 226 126.47424968780078 L 226.99999999999997 113.14327958035841 L 226.99999999999997 113.14327958035852 L 228 97.71419393850647 L 228 97.71419393850655 L 228.99999999999997 79.63366424976584 L 228.99999999999997 79.63366424976596 L 230 58.1351670139602 L 230 58.135167013960285 L 230.99999999999997 32.12534670896406 L 230.99999999999997 32.12534670896417 L 232 -0.010978892522018668 L 232 -0.010978892521904982 L 232.99999999999997 -40.76433379686233 L 232.99999999999997 -40.76433379686216 L 234 -94.18652942952639 L 234 -94.18652942952616 L 234.99999999999997 -167.34152702643894 L 234.99999999999997 -167.34152702643865 L 236 -273.74353271077746 L 236 -273.7435327107771 L 236.99999999999997 -442.8972251282154 L 236.99999999999997 -442.8972251282148 L 238 -753.8834103895991 L 238 -753.8834103895987 L 238.99999999999997 -1514.9109848229286 L 238.99999999999997 -1514.9109848229273 L 240 -6273.795187991818 M 242 1838.695064584795 L 242 4331.138148442118 L 242 1838.695064584796 L 242.99999999999997 1249.0258720490938 L 242.99999999999997 1249.0258720490942 L 244 985.0059598107232 L 244 985.0059598107237 L 244.99999999999997 835.1493901227747 L 244.99999999999997 835.1493901227749 L 246 738.5087447832377 L 246 738.5087447832381 L 246.99999999999997 670.9658728166388 L 246.99999999999997 670.9658728166391 L 248 621.0639569490189 L 248 621.063956949019 L 248.99999999999997 582.6628828919885 L 248.99999999999997 582.6628828919886 L 250 552.1757217395234 L 250 552.1757217395234 L 251 527.3666027277961 L 251 527.3666027277962 L 252 506.7693351513712 L 252 506.76933515137125 L 253 489.3824502901103 L 253 489.38245029011034 L 254 474.4985915141846 L 254 474.49859151418474 L 255 461.60392474938624 L 255 461.60392474938635 L 256 450.3161890325984 L 256 450.3161890325985 L 257 440.3451122112191 L 257 440.34511221121915 L 258 431.46630637720995 L 258 431.46630637721 L 259 423.50357531590976 L 259 423.50357531590987 L 260 416.3166326562807 L 260 416.3166326562808 L 261 409.7923938684147 L 261 409.7923938684148 L 262 403.8386849584094 L 262 403.83868495840943 L 263 398.3796199690785 L 263 398.37961996907853 L 264 393.3521527087034 L 264 393.35215270870344 L 265 388.7034688412446 L 265 388.70346884124467 L 266 384.3889887254861 L 266 384.3889887254861 L 267 380.37082039648317 L 267 380.3708203964832 L 268 376.61654860251116 L 268 376.6165486025112 L 269 373.0982777013609 L 269 373.098277701361 L 270 369.79186842037865 L 270 369.7918684203787 L 271 366.6763241597503 L 271 366.6763241597504 L 272 363.73329373196725 L 272 363.7332937319673 L 273 360.9466655499359 L 273 360.9466655499359 L 274 358.3022342221199 L 274 358.30223422212 L 275 355.78742491325 L 275 355.78742491325005 L 276 353.39106411750373 L 276 353.39106411750373 L 277 351.103187971224 L 277 351.103187971224 L 278 348.9148811190664 L 278 348.9148811190665 L 279 346.8181405945638 L 279 346.8181405945638 L 280 344.8057602944697 L 280 344.8057602944697 L 281 342.87123249681474 L 281 342.87123249681474 L 282 341.00866355491473 L 282 341.00866355491473 L 283 339.21270143778975 L 283 339.21270143778975 L 284 337.47847321461575 L 284 337.47847321461575 L 285 335.8015309218234 L 285 335.8015309218235 L 286 334.17780452517326 L 286 334.1778045251733 L 287 332.6035609100011 L 287 332.60356091000114 L 288 331.0753680119435 L 288 331.0753680119435 L 289 329.5900633464007 L 289 329.5900633464007 L 290 328.1447263144629 L 290 328.1447263144629 L 291 326.7366537612429 L 291 326.73665376124296 L 292 325.36333834363944 L 292 325.3633383436395 L 293 324.0224493317567 L 293 324.0224493317567 L 294 322.7118155241174 L 294 322.7118155241174 L 295 321.4294100034891 L 295 321.4294100034891 L 296 320.17333649925837 L 296 320.1733364992584 L 297 318.94181715517084 L 297 318.94181715517084 L 298 317.7331815289844 L 298 317.7331815289844 L 299 316.54585667403524 L 299 316.54585667403524 L 300 315.3783581726108 L 300 315.3783581726108 L 301 314.22928200794183 L 301 314.2292820079419 L 302 313.0972971760508 L 302 313.0972971760508 L 303 311.98113895101704 L 303 311.98113895101704 L 304 310.8796027277767 L 304 310.8796027277768 L 305 309.79153837562666 L 305 309.79153837562666 L 306 308.7158450433826 L 306 308.7158450433826 L 307 307.65146636383497 L 307 307.65146636383497 L 308 306.59738601090476 L 308 306.59738601090476 L 309 305.55262356786886 L 309 305.55262356786886 L 310 304.51623066929614 L 310 304.51623066929614 L 311 303.4872873830125 L 311 303.4872873830125 L 312 302.46489880157094 L 312 302.46489880157094 L 313 301.4481918154057 L 313 301.4481918154057 L 314 300.4363120421497 L 314 300.4363120421497 L 315 299.4284208885433 L 315 299.4284208885433 L 316 298.42369272298953 L 316 298.42369272298953 L 317 297.421312138154 L 317 297.421312138154 L 318 296.4204712840877 L 318 296.4204712840877 L 319 295.4203538613006 L 319 295.4203672531902 L 320 294.4201994989414 L 320 294.4201994989414 L 321 293.4191672707288 L 321 293.4191672707288 L 322 292.4164670472844 L 322 292.4164670472844 L 323 291.4112899512297 L 323 291.4112899512297 L 324 290.40281912700505 L 324 290.40281912700505 L 325 289.3902270640305 L 325 289.3902270640305 L 326 288.37267284629684 L 326 288.37267284629684 L 327 287.3492993087096 L 327 287.3492993087096 L 328 286.31923007938764 L 328 286.31923007938764 L 329 285.2815664857348 L 329 285.2815664857348 L 330 284.2353843004209 L 330 284.2353843004209 L 331 283.17973030141286 L 331 283.17973030141286 L 332 282.113618617831 L 332 282.11361861783104 L 333 281.0360268306359 L 333 281.0360268306359 L 334 279.945891793915 L 334 279.945891793915 L 335 278.8421051387734 L 335 278.8421051387734 L 336 277.723508417453 L 336 277.72350841745305 L 337 276.5888878402251 L 337 276.58888784022514 L 338 275.4369685516972 L 338 275.4369685516972 L 339 274.2664083863241 L 339 274.2664083863241 L 340 273.0757910349409 L 340 273.0757910349409 L 341 271.86361854486097 L 341 271.86361854486097 L 342 270.62830306526354 L 342 270.62830306526354 L 343 269.36815773696065 L 343 269.36815773696065 L 344 268.08138661083905 L 344 268.08138661083905 L 345 266.7660734619156 L 345 266.7660734619156 L 346 265.42016934552635 L 346 265.42016934552635 L 347 264.0414787180871 L 347 264.0414787180871 L 348 262.6276439163757 L 348 262.6276439163757 L 349 261.17612775549026 L 349 261.1761277554903 L 350 259.684193965414 L 350 259.684193965414 L 351 258.14888513808324 L 351 258.1488851380833 L 352 256.56699779929966 L 352 256.56699779929966 L 353 254.93505415060008 L 353 254.9350541506001 L 354 253.24926994262827 L 354 253.2492699426283 L 355 251.5055178402495 L 355 251.50551784024952 L 356 249.69928551634865 L 356 249.69928551634865 L 357 247.82562756051038 L 357 247.8256275605104 L 358 245.87911010364923 L 358 245.87911010364925 L 359 243.85374683119193 L 359 243.85374683119196 L 360 241.74292477405194 L 360 241.74292477405197 L 361 239.53931791331684 L 361 239.53931791331686 L 362 237.23478619156788 L 362 237.23478619156793 L 363 234.82025696504337 L 363 234.82025696504337 L 364 232.2855852218613 L 364 232.28558522186137 L 365 229.6193879859386 L 365 229.61938798593866 L 366 226.80884716159028 L 366 226.80884716159034 L 367 223.83947356502213 L 367 223.83947356502216 L 368 220.69482291921972 L 368 220.69482291921977 L 369 217.3561519961446 L 369 217.35615199614466 L 370 213.80199964783196 L 370 213.80199964783202 L 371 210.0076728548155 L 371 210.00767285481555 L 372 205.94461167640816 L 372 205.94461167640821 L 373 201.57959844605492 L 373 201.57959844605497 L 374 196.8737647369647 L 374 196.87376473696474 L 375 191.78133306963156 L 375 191.7813330696316 L 376 186.2480068369841 L 376 186.2480068369842 L 377 180.2088880916929 L 377 180.20888809169293 L 378 173.58575336259673 L 378 173.5857533625968 L 379 166.2834440675591 L 379 166.28344406755915 L 380 158.18501655284385 L 380 158.18501655284393 L 381 149.14512426621067 L 381 149.14512426621076 L 382 138.980831615502 L 382 138.98083161550213 L 383 127.45861622189531 L 383 127.45861622189543 L 384 114.2755773327442 L 384 114.27557733274429 L 385 99.03159547464048 L 385 99.0315954746406 L 386 81.18691626879837 L 386 81.18691626879846 L 387 59.99540419452882 L 387 59.9954041945289 L 388 34.395463439838636 L 388 34.39546343983875 L 389 2.823599365829125 L 389 2.8235993658292386 L 390 -37.12196686529927 L 390 -37.12196686529904 L 391 -89.33010697232947 L 391 -89.3301069723293 L 392 -160.538546780601 L 392 -160.53854678060083 L 393 -263.52751772752356 L 393 -263.52751772752333 L 394 -425.85123833870557 L 394 -425.8512383387051 L 395 -719.864102050918 L 395 -719.8641020509174 L 396 -1416.12663676565 L 396 -1416.126636765649 L 397 -5136.960180119419 M 399 1918.5569456538583 L 399 4926.524815924641 L 399 1918.5569456538587 L 400 1278.9763910319882 L 400 1278.976391031989 L 401 1000.5709973606661 L 401 1000.5709973606665 L 402 844.6689657175723 L 402 844.6689657175725 L 403 744.9303800870638 L 403 744.9303800870641 L 404 675.5913031018997 L 404 675.5913031018999 L 405 624.5559728101763 L 405 624.5559728101764 L 406 585.3941857745059 L 406 585.3941857745061 L 407 554.3718694318115 L 407 554.3718694318117 L 408 529.1720601496665 L 408 529.1720601496667 L 409 508.2808945871734 L 409 508.2808945871735 L 410 490.6673893750009 L 410 490.667389375001 L 411 475.6051223985453 L 411 475.6051223985454 L 412 462.56749905589584 L 412 462.56749905589595 L 413 451.16345671336865 L 413 451.16345671336876 L 414 441.09649305786047 L 414 441.0964930578606 L 415 432.1377099654245 L 415 432.1377099654246 L 416 424.1075811063956 L 416 424.10758110639574 L 417 416.8633180700835 L 417 416.86331807008355 L 418 410.28992702467605 L 418 410.2899270246761 L 419 404.293756563304 L 419 404.2937565633041 L 420 398.7977630690807 L 420 398.79776306908076 L 421 393.73798286248365 L 421 393.7379828624837 L 422 389.0608668949411 L 422 389.0608668949411 L 423 384.7212415797446 L 423 384.7212415797446 L 424 380.68073061299776 L 424 380.68073061299776 L 425 376.906520610666 L 425 376.90652061066606 L 426 373.3703862327811 L 426 373.37038623278113 L 427 370.04791330384944 L 427 370.0479133038495 L 428 366.91787454621254 L 428 366.9178745462126 L 429 363.96172405440836 L 429 363.9617240544084 L 430 361.163184966041 L 430 361.16318496604106 L 431 358.5079108775442 L 431 358.50791087754425 L 432 355.9832060584894 L 432 355.98320605848943 L 433 353.5777928824471 L 433 353.57779288244717 L 434 351.2816174281005 L 434 351.28161742810056 L 435 349.0856861320763 L 435 349.0856861320764 L 436 346.9819278525399 L 436 346.98192785253997 L 437 344.96307684385107 L 437 344.9630768438511 L 438 343.0225730304602 L 438 343.0225730304602 L 439 341.1544766637344 L 439 341.1544766637344 L 440 339.3533949937604 L 440 339.3533949937604 L 441 337.614419023172 L 441 337.614419023172 L 442 335.9330687571457 L 442 335.9330687571457 L 443 334.3052456422001 L 443 334.3052456422001 L 444 332.7271911110646 L 444 332.72719111106466 L 445 331.19545033297794 L 445 331.19545033297794 L 446 329.70684041710007 L 446 329.7068404171001 L 447 328.25842243809046 L 447 328.2584224380905 L 448 326.84747675264964 L 448 326.84747675264964 L 449 325.47148115813883 L 449 325.47148115813883 L 450 324.12809151259745 L 450 324.12809151259745 L 451 322.8151244922032 L 451 322.8151244922032 L 452 321.5305422095763 L 452 321.53054220957637 L 453 320.2724384559906 L 453 320.2724384559906 L 454 319.039026363894 L 454 319.039026363894 L 455 317.8286273142424 L 455 317.8286273142424 L 456 316.63966093692056 L 456 316.63966093692056 L 457 315.4706360726735 L 457 315.4706360726735 L 458 314.3201425821134 L 458 314.3201425821134 L 459 313.18684390196796 L 459 313.186843901968 L 460 312.06947026122344 L 460 312.06947026122344 L 461 310.9668124804927 L 461 310.9668124804927 L 462 309.8777162871103 L 462 309.8777162871103 L 463 308.80107708632454 L 463 308.80107708632454 L 464 307.7358351357344 L 464 307.7358351357344 L 465 306.6809710759453 L 465 306.6809710759453 L 466 305.6355017754446 L 466 305.6355017754446 L 467 304.5984764520208 L 467 304.5984764520208 L 468 303.56897303677135 L 468 303.56897303677135 L 469 302.54609474994203 L 469 302.54609474994203 L 470 301.52896686057596 L 470 301.52896686057596 L 471 300.51673360428316 L 471 300.51673360428316 L 472 299.50855523541424 L 472 299.50855523541424 L 473 298.50360519157545 L 473 298.50360519157545 L 474 297.50106734978624 L 474 297.50106734978624 L 475 296.5001333546806 L 475 296.5001333546806 L 476 295.5000000000105 L 476 295.5000000000105 L 477 294.49986664534043 L 477 294.49986664534043 L 478 293.4989326502348 L 478 293.4989326502348 L 479 292.49639480844564 L 479 292.49639480844564 L 480 291.4914447646069 L 480 291.4914447646069 L 481 290.4832663957381 L 481 290.4832663957381 L 482 289.47103313944535 L 482 289.47103313944535 L 483 288.4539052500794 L 483 288.4539052500794 L 484 287.4310269632502 L 484 287.4310269632502 L 485 286.4015235480009 L 485 286.4015235480009 L 486 285.3644982245773 L 486 285.3644982245773 L 487 284.31902892407675 L 487 284.31902892407675 L 488 283.2641648642878 L 488 283.26416486428786 L 489 282.1989229136979 L 489 282.19892291369797 L 490 281.12228371291246 L 490 281.12228371291246 L 491 280.0331875195303 L 491 280.0331875195303 L 492 278.93052973879986 L 492 278.93052973879986 L 493 277.81315609805563 L 493 277.81315609805563 L 494 276.67985741791057 L 494 276.67985741791057 L 495 275.5293639273508 L 495 275.5293639273508 L 496 274.36033906310416 L 496 274.3603390631042 L 497 273.1713726857828 L 497 273.1713726857828 L 498 271.96097363613165 L 498 271.96097363613165 L 499 270.7275615440355 L 499 270.7275615440355 L 500 269.4694577904503 L 500 269.46945779045035 L 501 268.184875507824 L 501 268.184875507824 L 502 266.87190848743035 L 502 266.8719084874304 L 503 265.52851884188965 L 503 265.52851884188965 L 504 264.1525232473796 L 504 264.1525232473796 L 505 262.74157756193944 L 505 262.7415775619395 L 506 261.2931595829306 L 506 261.2931595829306 L 507 259.80454966705366 L 507 259.80454966705366 L 508 258.2728088889679 L 508 258.2728088889679 L 509 256.69475435783346 L 509 256.69475435783346 L 510 255.06693124288887 L 510 255.0669312428889 L 511 253.38558097686376 L 511 253.38558097686376 L 512 251.64660500627662 L 512 251.64660500627664 L 513 249.84552333630396 L 513 249.84552333630398 L 514 247.9774269695796 L 514 247.97742696957962 L 515 246.03692315619026 L 515 246.03692315619026 L 516 244.0180721475031 L 516 244.01807214750312 L 517 241.91431386796853 L 517 241.9143138679686 L 518 239.71838257194636 L 518 239.7183825719464 L 519 237.4222071176019 L 519 237.42220711760194 L 520 235.01679394156204 L 520 235.01679394156207 L 521 232.49208912250978 L 521 232.49208912250984 L 522 229.83681503401579 L 522 229.83681503401584 L 523 227.03827594565155 L 523 227.0382759456516 L 524 224.08212545385084 L 524 224.0821254538509 L 525 220.95208669621772 L 525 220.95208669621778 L 526 217.62961376729027 L 526 217.62961376729032 L 527 214.09347938941005 L 527 214.0934793894101 L 528 210.31926938708364 L 528 210.3192693870837 L 529 206.27875842034257 L 529 206.27875842034263 L 530 201.93913310515262 L 530 201.93913310515268 L 531 197.26201713761762 L 531 197.26201713761768 L 532 192.20223693102895 L 532 192.202236931029 L 533 186.70624343681544 L 533 186.7062434368155 L 534 180.71007297545444 L 534 180.71007297545452 L 535 174.13668193006 L 535 174.1366819300601 L 536 166.89241889376274 L 536 166.89241889376282 L 537 158.86229003475174 L 537 158.8622900347518 L 538 149.90350694233666 L 538 149.90350694233675 L 539 139.83654328685392 L 539 139.836543286854 L 540 128.43250094435703 L 540 128.43250094435712 L 541 115.39487760174549 L 541 115.3948776017456 L 542 100.33261062533663 L 542 100.33261062533674 L 543 82.71910541322424 L 543 82.71910541322436 L 544 61.82793985080812 L 544 61.827939850808264 L 545 36.62813056876695 L 545 36.62813056876706 L 546 5.605814226213397 L 546 5.6058142262135675 L 547 -33.55597280925457 L 547 -33.5559728092544 L 548 -84.5913031006782 L 548 -84.59130310067792 L 549 -153.93038008536246 L 549 -153.9303800853623 L 550 -253.66896571504503 L 550 -253.6689657150447 L 551 -409.5709973565157 L 551 -409.57099735651536 L 552 -687.9763910239244 L 552 -687.9763910239241 L 553 -1327.556945631908 L 553 -1327.5569456319076 L 554 -4335.524815746277 M 556 2007.1266367900325 L 556 5727.960180364591 L 556 2007.1266367900334 L 557 1310.864102059521 L 557 1310.8641020595214 L 558 1016.8512383430533 L 558 1016.8512383430538 L 559 854.5275177301403 L 559 854.5275177301406 L 560 751.5385467823512 L 560 751.5385467823514 L 561 680.3301069735832 L 561 680.3301069735835 L 562 628.12196686624 L 562 628.1219668662402 L 563 588.1764006349033 L 563 588.1764006349035 L 564 556.6045365607492 L 564 556.6045365607494 L 565 531.0045958059538 L 565 531.0045958059538 L 566 509.8130837316045 L 566 509.8130837316046 L 567 491.9684045257011 L 567 491.9684045257012 L 568 476.72442266754985 L 568 476.72442266754996 L 569 463.5413837783607 L 569 463.5413837783608 L 570 452.01916838472266 L 570 452.0191683847227 L 571 441.8548757339882 L 571 441.85487573398825 L 572 432.81498344733393 L 572 432.814983447334 L 573 424.7165559326006 L 573 424.7165559326006 L 574 417.4142466375479 L 574 417.414246637548 L 575 410.79111190843855 L 575 410.79111190843855 L 576 404.7519931631361 L 576 404.75199316313615 L 577 399.218666930479 L 577 399.21866693047906 L 578 394.1262352631372 L 578 394.12623526313723 L 579 389.42040155403936 L 579 389.42040155403936 L 580 385.0553883236795 L 580 385.05538832367955 L 581 380.9923271452663 L 581 380.99232714526636 L 582 377.19800035224455 L 582 377.19800035224455 L 583 373.64384800392713 L 583 373.6438480039272 L 584 370.3051770808477 L 584 370.3051770808478 L 585 367.16052643504156 L 585 367.16052643504156 L 586 364.19115283847 L 586 364.19115283847003 L 587 361.38061201411847 L 587 361.3806120141185 L 588 358.71441477819286 L 588 358.7144147781929 L 589 356.17974303500824 L 589 356.1797430350083 L 590 353.76521380848135 L 590 353.7652138084814 L 591 351.46068208673023 L 591 351.46068208673023 L 592 349.25707522599305 L 592 349.2570752259931 L 593 347.1462531688512 L 593 347.1462531688513 L 594 345.1208898963922 L 594 345.12088989639227 L 595 343.1743724395295 L 595 343.1743724395295 L 596 341.3007144836898 L 596 341.30071448368983 L 597 339.4944821597876 L 597 339.4944821597876 L 598 337.75073005740757 L 598 337.7507300574076 L 599 336.0649458494346 L 599 336.0649458494346 L 600 334.43300220073394 L 600 334.433002200734 L 601 332.8511148619493 L 601 332.8511148619494 L 602 331.3158060346177 L 602 331.3158060346177 L 603 329.8238722445405 L 603 329.82387224454055 L 604 328.37235608365427 L 604 328.3723560836543 L 605 326.9585212819421 L 605 326.9585212819422 L 606 325.5798306545022 L 606 325.57983065450225 L 607 324.23392653811226 L 607 324.2339265381123 L 608 322.9186133891882 L 608 322.9186133891882 L 609 321.631842263066 L 609 321.63184226306606 L 610 320.3716969347626 L 610 320.37169693476267 L 611 319.1363814551647 L 611 319.1363814551647 L 612 317.9242089650843 L 612 317.9242089650843 L 613 316.7335916137007 L 613 316.7335916137007 L 614 315.5630314483272 L 614 315.5630314483272 L 615 314.41111215979885 L 615 314.4111121597989 L 616 313.2764915825706 L 616 313.2764915825706 L 617 312.15789486124993 L 617 312.15789486125 L 618 311.0541082061081 L 618 311.0541082061081 L 619 309.9639731693869 L 619 309.9639731693869 L 620 308.8863813821915 L 620 308.8863813821915 L 621 307.8202696986094 L 621 307.8202696986094 L 622 306.76461569960117 L 622 306.76461569960117 L 623 305.7184335142871 L 623 305.7184335142871 L 624 304.6807699206341 L 624 304.6807699206341 L 625 303.650700691312 L 625 303.650700691312 L 626 302.6273271537246 L 626 302.6273271537246 L 627 301.60977293599086 L 627 301.60977293599086 L 628 300.5971808730162 L 628 300.5971808730162 L 629 299.5887100487914 L 629 299.5887100487914 L 630 298.5835329527367 L 630 298.5835329527367 L 631 297.5808327292923 L 631 297.5808327292923 L 632 296.57980050107966 L 632 296.57980050107966 L 633 295.57963274683084 L 633 295.5796461387204 L 634 294.57952871593335 L 634 294.57952871593335 L 635 293.5786878618671 L 635 293.5786878618671 L 636 292.57630727703156 L 636 292.57630727703156 L 637 291.57157911147783 L 637 291.57157911147783 L 638 290.5636879578715 L 638 290.5636879578715 L 639 289.5518081846156 L 639 289.5518081846156 L 640 288.53510119845043 L 640 288.5351011984505 L 641 287.5127126170091 L 641 287.5127126170091 L 642 286.4837693307255 L 642 286.4837693307256 L 643 285.447376432153 L 643 285.447376432153 L 644 284.4026139891173 L 644 284.4026139891173 L 645 283.34853363618726 L 645 283.34853363618726 L 646 282.28415495663984 L 646 282.28415495663984 L 647 281.2084616243961 L 647 281.2084616243961 L 648 280.12039727224624 L 648 280.12039727224624 L 649 279.0188610490062 L 649 279.0188610490062 L 650 277.9027028239728 L 650 277.9027028239728 L 651 276.7707179920821 L 651 276.7707179920821 L 652 275.6216418274135 L 652 275.62164182741355 L 653 274.45414332598943 L 653 274.45414332598943 L 654 273.2668184710407 L 654 273.2668184710407 L 655 272.05818284485474 L 655 272.05818284485474 L 656 270.82666350076767 L 656 270.82666350076767 L 657 269.5705899965374 L 657 269.5705899965374 L 658 268.28818447590976 L 658 268.28818447590976 L 659 266.9775506682711 L 659 266.97755066827114 L 660 265.6366616563889 L 660 265.636661656389 L 661 264.26334623878614 L 661 264.2633462387862 L 662 262.855273685567 L 662 262.855273685567 L 663 261.40993665363 L 663 261.40993665363 L 664 259.924631988088 L 664 259.92463198808804 L 665 258.3964390900313 L 665 258.3964390900314 L 666 256.82219547486017 L 666 256.82219547486017 L 667 255.19846907821108 L 667 255.19846907821108 L 668 253.5215267854199 L 668 253.52152678541995 L 669 251.78729856224714 L 669 251.78729856224717 L 670 249.99133644512344 L 670 249.99133644512347 L 671 248.1287675032249 L 671 248.12876750322494 L 672 246.1942397055716 L 672 246.19423970557162 L 673 244.18185940547914 L 673 244.18185940547917 L 674 242.08511888097826 L 674 242.0851188809783 L 675 239.89681202882275 L 675 239.89681202882278 L 676 237.60893588254515 L 676 237.60893588254518 L 677 235.21257508680122 L 677 235.21257508680125 L 678 232.69776577793385 L 678 232.69776577793388 L 679 230.0533344501207 L 679 230.05333445012076 L 680 227.26670626809243 L 680 227.2667062680925 L 681 224.3236758403128 L 681 224.32367584031283 L 682 221.2081315796882 L 682 221.20813157968826 L 683 217.90172229871013 L 683 217.90172229871015 L 684 214.38345139756456 L 684 214.3834513975646 L 685 210.62917960359772 L 685 210.62917960359778 L 686 206.61101127460057 L 686 206.61101127460063 L 687 202.2965311588486 L 687 202.29653115884864 L 688 197.6478472913972 L 688 197.64784729139726 L 689 192.6203800310305 L 689 192.62038003103055 L 690 187.1613150417092 L 690 187.16131504170926 L 691 181.20760613171484 L 691 181.2076061317149 L 692 174.68336734386165 L 692 174.6833673438617 L 693 167.49642468424742 L 693 167.49642468424747 L 694 159.5336936229647 L 694 159.5336936229648 L 695 150.6548877889763 L 695 150.6548877889764 L 696 140.6838109676218 L 696 140.6838109676219 L 697 129.3960752508641 L 697 129.39607525086421 L 698 116.50140848610269 L 698 116.5014084861028 L 699 101.61754971022324 L 699 101.61754971022333 L 700 84.23066484902085 L 700 84.23066484902094 L 701 63.63339727267186 L 701 63.633397272672 L 702 38.824278261045436 L 702 38.82427826104555 L 703 8.337117108718076 L 703 8.337117108718303 L 704 -30.063956948116697 L 704 -30.06395694811647 L 705 -79.96587281544578 L 705 -79.96587281544555 L 706 -147.50874478158494 L 706 -147.50874478158477 L 707 -244.1493901203322 L 707 -244.149390120332 L 708 -394.00595980674905 L 708 -394.0059598067486 L 709 -658.0258720415122 L 709 -658.0258720415118 L 710 -1247.6950645649717 L 710 -1247.6950645649708 L 711 -3740.1381483066625 M 713 2105.9109848502044 L 713 6864.795188350712 L 713 2105.9109848502053 L 714 1344.883410398777 L 714 1344.8834103987779 L 715 1033.89722513277 L 715 1033.8972251327705 L 716 864.7435327134928 L 716 864.743532713493 L 717 758.3415270282412 L 717 758.3415270282413 L 718 685.18652943081 L 718 685.1865294308102 L 719 631.7643337978235 L 719 631.7643337978237 L 720 591.0109788932691 L 720 591.0109788932693 L 721 558.8746532916336 L 721 558.8746532916339 L 722 532.8648329865292 L 722 532.8648329865293 L 723 511.3663357506425 L 723 511.3663357506427 L 724 493.2858060618398 L 724 493.2858060618399 L 725 477.85672041993905 L 725 477.85672041993917 L 726 464.52575031245783 L 726 464.52575031245794 L 727 452.8834553164122 L 727 452.8834553164123 L 728 442.62036247034615 L 728 442.6203624703462 L 729 433.4982076204459 L 729 433.49820762044595 L 730 425.3305644944851 L 730 425.3305644944852 L 731 417.9694707793021 L 731 417.9694707793022 L 732 411.29599144221163 L 732 411.2959914422117 L 733 405.21343024072365 L 733 405.2134302407237 L 734 399.6423611419986 L 734 399.64236114199866 L 735 394.5169347811327 L 735 394.5169347811327 L 736 389.78209387603545 L 736 389.7820938760355 L 737 385.39144690647237 L 737 385.3914469064724 L 738 381.305625388198 L 738 381.30562538819805 L 739 377.49100110756797 L 739 377.4910011075681 L 740 373.91867453247727 L 740 373.9186745324773 L 741 370.56366979038035 L 741 370.56366979038035 L 742 367.4042886174077 L 742 367.4042886174077 L 743 364.4215878164329 L 743 364.421587816433 L 744 361.59895352322724 L 744 361.59895352322724 L 745 358.92175197893516 L 745 358.9217519789352 L 746 356.3770412310536 L 746 356.3770412310536 L 747 353.9533317073886 L 747 353.95333170738866 L 748 351.6403862583811 L 748 351.6403862583811 L 749 349.4290522758612 L 749 349.42905227586124 L 750 347.311120036987 L 750 347.31112003698706 L 751 345.279202610715 L 751 345.27920261071506 L 752 343.3266335878134 L 752 343.3266335878134 L 753 341.4473796182074 L 753 341.4473796182074 L 754 339.6359653087163 L 754 339.6359653087163 L 755 337.8874084854138 L 755 337.88740848541386 L 756 336.1971641845024 L 756 336.1971641845024 L 757 334.5610760239293 L 757 334.5610760239293 L 758 332.9753338403359 L 758 332.9753338403359 L 759 331.4364366641652 L 759 331.4364366641653 L 760 329.9411602589467 L 760 329.94116025894675 L 761 328.4865285760538 L 761 328.4865285760538 L 762 327.0697885791081 L 762 327.06978857910815 L 763 325.68838797705746 L 763 325.68838797705746 L 764 324.33995547521187 L 764 324.33995547521187 L 765 323.0222832119283 L 765 323.0222832119283 L 766 321.7333110973533 L 766 321.7333110973533 L 767 320.4711128114288 L 767 320.4711128114288 L 768 319.2338832526265 L 768 319.2338832526265 L 769 318.0199272577535 L 769 318.0199272577535 L 770 316.8276494375729 L 770 316.8276494375729 L 771 315.65554499367346 L 771 315.65554499367346 L 772 314.5021913996 L 772 314.50219139960006 L 773 313.3662408442415 L 773 313.3662408442415 L 774 312.24641334826396 L 774 312.24641334826396 L 775 311.1414904753324 L 775 311.1414904753324 L 776 310.0503095692488 L 776 310.0503095692488 L 777 308.9717584562067 L 777 308.9717584562067 L 778 307.9047705582934 L 778 307.9047705582934 L 779 306.84832037034545 L 779 306.84832037034545 L 780 305.801419257407 L 780 305.801419257407 L 781 304.7631115344675 L 781 304.7631115344675 L 782 303.73247079397 L 782 303.73247079397 L 783 302.70859644985455 L 783 302.70859644985455 L 784 301.69061046970916 L 784 301.69061046970916 L 785 300.6776542689902 L 785 300.6776542689902 L 786 299.66888574330693 L 786 299.66888574330693 L 787 298.6634764164623 L 787 298.6634764164623 L 788 297.6606086833527 L 788 297.6606086833527 L 789 296.65947312796885 L 789 296.65947312796885 L 790 295.659265897637 L 790 295.6592876071395 L 791 294.6591861153013 L 791 294.6591861153013 L 792 293.6584333120995 L 792 293.65843331209953 L 793 292.6562048627191 L 793 292.6562048627191 L 794 291.6516934060551 L 794 291.6516934060551 L 795 290.6440842335171 L 795 290.6440842335171 L 796 289.63255262695645 L 796 289.63255262695645 L 797 288.6162611275841 L 797 288.6162611275841 L 798 287.59435671643604 L 798 287.59435671643604 L 799 286.5659678858774 L 799 286.5659678858774 L 800 285.53020158031933 L 800 285.53020158031933 L 801 284.486139982716 L 801 284.486139982716 L 802 283.4328371214894 L 802 283.4328371214894 L 803 282.36931527025826 L 803 282.36931527025826 L 804 281.2945611100776 L 804 281.2945611100776 L 805 280.20752162077724 L 805 280.20752162077724 L 806 279.10709966435473 L 806 279.10709966435473 L 807 277.9921492191542 L 807 277.9921492191542 L 808 276.8614702186594 L 808 276.8614702186594 L 809 275.71380294303293 L 809 275.71380294303293 L 810 274.5478219049239 L 810 274.5478219049239 L 811 273.3621291633765 L 811 273.3621291633765 L 812 272.1552469907293 L 812 272.1552469907294 L 813 270.9256098069687 L 813 270.92560980696874 L 814 269.6715552838262 L 814 269.6715552838262 L 815 268.3913145066666 L 815 268.3913145066667 L 816 267.08300106551076 L 816 267.08300106551076 L 817 265.7445989268974 L 817 265.7445989268975 L 818 264.3739489151483 L 818 264.37394891514833 L 819 262.96873360423456 L 819 262.96873360423456 L 820 261.52646038901406 L 820 261.52646038901406 L 821 260.0444424660308 L 821 260.0444424660308 L 822 258.51977740804386 L 822 258.51977740804386 L 823 256.94932296134965 L 823 256.9493229613497 L 824 255.32966962874164 L 824 255.32966962874167 L 825 253.65710952108972 L 825 253.65710952108975 L 826 251.92760086380207 L 826 251.9276008638021 L 827 250.13672742683656 L 827 250.1367274268366 L 828 248.27965200330743 L 828 248.27965200330746 L 829 246.35106288554954 L 829 246.35106288554957 L 830 244.34511207032733 L 830 244.3451120703274 L 831 242.2553436558527 L 831 242.25534365585273 L 832 240.07461055825922 L 832 240.07461055825925 L 833 237.7949772557078 L 833 237.79497725570783 L 834 235.4076057400041 L 834 235.40760574000413 L 835 232.9026211862289 L 835 232.90262118622894 L 836 230.26895299724566 L 836 230.26895299724572 L 837 227.4941457839525 L 837 227.49414578395252 L 838 224.56413342481935 L 838 224.5641334248194 L 839 221.46296750142636 L 839 221.46296750142642 L 840 218.17248898070935 L 840 218.1724889807094 L 841 214.6719288003619 L 841 214.67192880036197 L 842 210.937418716068 L 842 210.93741871606807 L 843 206.9413879663649 L 843 206.94138796636497 L 844 202.6518133935533 L 844 202.65181339355334 L 845 198.03127973498673 L 845 198.03127973498675 L 846 193.03579154364877 L 846 193.03579154364883 L 847 187.61325661412386 L 847 187.61325661412388 L 848 181.70152982298757 L 848 181.70152982298762 L 849 175.2258611775345 L 849 175.22586117753457 L 850 168.09552503739337 L 850 168.09552503739343 L 851 160.1993066614504 L 851 160.19930666145046 L 852 151.3993670874469 L 852 151.399367087447 L 853 141.52276326474905 L 853 141.52276326474913 L 854 130.34950682358746 L 854 130.34950682358755 L 855 117.59539278150282 L 855 117.59539278150294 L 856 102.88671526592913 L 856 102.88671526592927 L 857 85.72201594915143 L 857 85.72201594915151 L 858 65.41238119439566 L 858 65.41238119439575 L 859 40.98480613503696 L 859 40.984806135037104 L 860 11.018906288404594 L 860 11.018906288404764 L 861 -26.643623674192895 L 861 -26.643623674192725 L 862 -75.44977295917823 L 862 -75.449772959178 L 863 -141.26582161161815 L 863 -141.26582161161798 L 864 -234.95155751314326 L 864 -234.95155751314303 L 865 -379.1099355542351 L 865 -379.10993555423465 L 866 -629.8410824695196 L 866 -629.8410824695193 L 867 -1175.3166387171068 L 867 -1175.316638717106 L 868 -3280.386906106542 M 870 2216.7857891474896 L 870 8603.302501447395 L 870 2216.7857891474905 L 871 1381.25563406757 L 871 1381.255634067571 L 872 1051.7643773203665 L 872 1051.764377320367 L 873 875.3368663529806 L 873 875.3368663529809 L 874 765.3481006548859 L 874 765.3481006548861 L 875 690.1650300690135 L 875 690.1650300690137 L 876 635.4855727615018 L 876 635.485572761502 L 877 593.8994276638849 L 877 593.8994276638851 L 878 561.1831816443798 L 878 561.1831816443799 L 879 534.7534142540954 L 879 534.7534142540956 L 880 512.9410960187798 L 880 512.94109601878 L 881 494.61991233797227 L 881 494.6199123379723 L 882 479.00224921625363 L 882 479.00224921625374 L 883 465.5207738707628 L 883 465.52077387076287 L 884 453.7564515102889 L 884 453.756451510289 L 885 443.3930574947226 L 885 443.3930574947227 L 886 434.1874647692602 L 886 434.18746476926026 L 887 425.9496726175588 L 887 425.9496726175589 L 888 418.5290437805452 L 888 418.5290437805453 L 889 411.804609221447 L 889 411.80460922144704 L 890 405.6781038089699 L 890 405.67810380897 L 891 400.0688757144831 L 891 400.06887571448317 L 892 394.9101066264284 L 892 394.91010662642844 L 893 390.1459651939541 L 893 390.14596519395417 L 894 385.72943550279774 L 894 385.7294355027978 L 895 381.62064092267406 L 895 381.62064092267417 L 896.0000000000001 377.78553631143325 L 896.0000000000001 377.7855363114333 L 897 374.19487746527614 L 897 374.1948774652762 L 898 370.823401580124 L 898 370.8234015801241 L 899 367.649169976434 L 899 367.64916997643405 L 900.0000000000001 364.65303679880344 L 900.0000000000001 364.65303679880344 L 901 361.81821638930876 L 901 361.8182163893088 L 902 359.1299285920944 L 902 359.1299285920945 L 903 356.5751060844462 L 903 356.5751060844462 L 904 354.1421514339037 L 904 354.1421514339037 L 905 351.82073429168304 L 905 351.82073429168304 L 906 349.6016211893439 L 906 349.6016211893439 L 907 347.47653197901394 L 907 347.476531979014 L 908 345.43801817056027 L 908 345.4380181705603 L 909 343.47935936125026 L 909 343.4793593612503 L 910 341.59447469029857 L 910 341.5944746902986 L 911 339.7778468307588 L 911 339.7778468307588 L 912 338.0244564907226 L 912 338.0244564907226 L 913 336.329725761923 L 913 336.32972576192304 L 914 334.68946894723376 L 914 334.6894689472338 L 915 333.09984973491055 L 915 333.09984973491055 L 916 331.557343778796 L 916 331.557343778796 L 917 330.0587058994171 L 917 330.0587058994171 L 918 328.6009412481777 L 918 328.6009412481777 L 919 327.1812798813399 L 919 327.1812798813399 L 920 325.7971542766392 L 920 325.7971542766392 L 921 324.44617939669115 L 921 324.44617939669115 L 922 323.12613496260707 L 922 323.12613496260707 L 923 321.8349496506614 L 923 321.8349496506614 L 924 320.570686966223 L 924 320.570686966223 L 925 319.331532583898 L 925 319.331532583898 L 926 318.115782972103 L 926 318.115782972103 L 927 316.92183514501255 L 927 316.92183514501255 L 928 315.7481774057913 L 928 315.74817740579135 L 929 314.59338096282147 L 929 314.59338096282147 L 930 313.45609231581557 L 930 313.45609231581557 L 931 312.3350263216552 L 931 312.3350263216552 L 932 311.22895986088616 L 932 311.2289598608862 L 933.0000000000001 310.1367260353041 L 933.0000000000001 310.1367260353041 L 934 309.0572088352292 L 934 309.0572088352292 L 935 307.9893382220875 L 935 307.9893382220875 L 936 306.9320855779622 L 936 306.9320855779622 L 937.0000000000001 305.8844594789794 L 937.0000000000001 305.8844594789794 L 938 304.845501753879 L 938 304.845501753879 L 939 303.81428379297637 L 939 303.81428379297637 L 940 302.7899030760394 L 940 302.7899030760394 L 941.0000000000001 301.7714798904422 L 941.0000000000001 301.7714798904422 L 942 300.75815421338484 L 942 300.75815421338484 L 943 299.74908273402065 L 943 299.74908273402065 L 944 298.74343599306195 L 944 298.74343599306195 L 945.0000000000001 297.74039561886326 L 945.0000000000001 297.74039561886326 L 946 296.73915164014375 L 946 296.73915164014375 L 947 295.73889985642313 L 947 295.7389248096732 L 948 294.7388392479305 L 948 294.7388392479305 L 949 293.7381694072074 L 949 293.7381694072074 L 950 292.73608797488197 L 950 292.73608797488197 L 951 291.73178806214065 L 951 291.73178806214065 L 952 290.72445564226615" stroke-opacity="0.6980392156862745" stroke-linecap="round" stroke-linejoin="round" stroke-miterlimit="10" stroke-width="2.5"/><g transform="scale(19,19)"><g transform="translate(3.473684210526316,11.855263157894736)"><path fill="rgb(153,51,255)" stroke="none" paint-order="stroke fill markers" d=" M 0.367 -0.4 L 0.367 -0.4 L 0.307 -0.083 Q 0.298 -0.021 0.271 0.059000000000000004 Q 0.261 0.088 0.251 0.108 Q 0.216 0.182 0.164 0.2 Q 0.151 0.20500000000000002 0.138 0.20500000000000002 Q 0.088 0.20500000000000002 0.064 0.171 Q 0.053 0.156 0.053 0.136 Q 0.053 0.096 0.08700000000000001 0.081 Q 0.097 0.076 0.108 0.076 Q 0.137 0.076 0.14400000000000002 0.101 Q 0.145 0.106 0.145 0.111 Q 0.145 0.145 0.115 0.159 Q 0.10400000000000001 0.164 0.09 0.165 Q 0.109 0.183 0.138 0.183 Q 0.182 0.183 0.20700000000000002 0.085 Q 0.212 0.062 0.219 0.025 L 0.225 -0.005 L 0.3 -0.4 L 0.234 -0.4 Q 0.209 -0.4 0.20700000000000002 -0.40800000000000003 L 0.20600000000000002 -0.40800000000000003 L 0.20600000000000002 -0.41200000000000003 Q 0.20600000000000002 -0.429 0.223 -0.431 L 0.223 -0.431 L 0.23600000000000002 -0.431 L 0.305 -0.431 Q 0.329 -0.556 0.338 -0.588 Q 0.368 -0.6880000000000001 0.444 -0.7030000000000001 Q 0.455 -0.705 0.465 -0.705 Q 0.517 -0.705 0.541 -0.671 L 0.541 -0.671 Q 0.552 -0.656 0.552 -0.636 Q 0.552 -0.596 0.518 -0.581 Q 0.508 -0.5760000000000001 0.497 -0.5760000000000001 Q 0.468 -0.5760000000000001 0.461 -0.601 Q 0.46 -0.606 0.46 -0.611 Q 0.46 -0.642 0.488 -0.657 Q 0.499 -0.664 0.514 -0.665 Q 0.495 -0.683 0.465 -0.683 Q 0.434 -0.683 0.418 -0.649 Q 0.41100000000000003 -0.635 0.394 -0.545 L 0.373 -0.431 L 0.456 -0.431 Q 0.481 -0.431 0.483 -0.42 Q 0.483 -0.402 0.467 -0.4 L 0.466 -0.4 L 0.453 -0.4 L 0.367 -0.4 Z"/></g><g transform="translate(4.071684210526316,11.855263157894736)"><path fill="rgb(153,51,255)" stroke="none" paint-order="stroke fill markers" d=" M 0.331 0.24 L 0.331 0.24 Q 0.331 0.25 0.321 0.25 Q 0.309 0.25 0.268 0.209 Q 0.20600000000000002 0.147 0.165 0.062 Q 0.099 -0.074 0.099 -0.25 Q 0.099 -0.419 0.162 -0.555 Q 0.214 -0.666 0.294 -0.733 Q 0.315 -0.75 0.321 -0.75 Q 0.331 -0.75 0.331 -0.74 Q 0.331 -0.735 0.318 -0.723 Q 0.157 -0.559 0.157 -0.25 Q 0.157 0.058 0.314 0.218 Q 0.331 0.23500000000000001 0.331 0.24 Z"/></g><g transform="translate(4.460684210526316,11.855263157894736)"><path fill="rgb(153,51,255)" stroke="none" paint-order="stroke fill markers" d=" M 0.334 -0.302 L 0.3 -0.165 Q 0.28300000000000003 -0.097 0.28300000000000003 -0.077 Q 0.28300000000000003 -0.025 0.32 -0.014 Q 0.328 -0.011 0.338 -0.011 Q 0.388 -0.011 0.429 -0.061 Q 0.456 -0.093 0.47100000000000003 -0.14200000000000002 Q 0.47400000000000003 -0.153 0.484 -0.153 Q 0.496 -0.153 0.496 -0.14300000000000002 Q 0.496 -0.11800000000000001 0.465 -0.07100000000000001 Q 0.41100000000000003 0.011 0.336 0.011 Q 0.268 0.011 0.23700000000000002 -0.046 Q 0.231 -0.055 0.228 -0.065 Q 0.20400000000000001 -0.017 0.162 0.002 Q 0.14300000000000002 0.011 0.123 0.011 Q 0.063 0.011 0.039 -0.024 Q 0.029 -0.037 0.029 -0.055 Q 0.029 -0.092 0.061 -0.107 Q 0.07200000000000001 -0.113 0.084 -0.113 Q 0.114 -0.113 0.12 -0.088 Q 0.121 -0.083 0.121 -0.078 Q 0.121 -0.044 0.08700000000000001 -0.028 Q 0.081 -0.025 0.074 -0.024 Q 0.095 -0.011 0.124 -0.011 Q 0.177 -0.011 0.20800000000000002 -0.082 Q 0.214 -0.097 0.219 -0.115 Q 0.273 -0.319 0.273 -0.353 Q 0.267 -0.41500000000000004 0.219 -0.42 Q 0.167 -0.42 0.124 -0.367 L 0.124 -0.366 Q 0.124 -0.365 0.123 -0.365 Q 0.108 -0.34500000000000003 0.096 -0.319 Q 0.091 -0.307 0.08700000000000001 -0.295 L 0.085 -0.289 Q 0.083 -0.278 0.07200000000000001 -0.278 Q 0.06 -0.278 0.06 -0.28800000000000003 Q 0.06 -0.313 0.092 -0.36 Q 0.146 -0.442 0.221 -0.442 Q 0.298 -0.442 0.329 -0.366 Q 0.361 -0.428 0.41400000000000003 -0.44 Q 0.424 -0.442 0.434 -0.442 Q 0.493 -0.442 0.517 -0.40900000000000003 Q 0.527 -0.395 0.527 -0.376 Q 0.527 -0.335 0.49 -0.321 Q 0.481 -0.318 0.47300000000000003 -0.318 Q 0.442 -0.318 0.436 -0.34500000000000003 Q 0.435 -0.34900000000000003 0.435 -0.353 Q 0.435 -0.383 0.464 -0.4 Q 0.47300000000000003 -0.405 0.483 -0.40700000000000003 Q 0.462 -0.42 0.433 -0.42 Q 0.365 -0.42 0.337 -0.314 Q 0.335 -0.308 0.334 -0.302 Z"/></g><g transform="translate(5.032684210526316,11.855263157894736)"><path fill="rgb(153,51,255)" stroke="none" paint-order="stroke fill markers" d=" M 0.289 -0.25 L 0.289 -0.25 Q 0.289 -0.081 0.226 0.055 Q 0.17400000000000002 0.166 0.094 0.233 Q 0.073 0.25 0.067 0.25 Q 0.057 0.25 0.057 0.24 Q 0.057 0.23500000000000001 0.07 0.223 Q 0.231 0.059000000000000004 0.231 -0.25 Q 0.231 -0.555 0.081 -0.712 L 0.076 -0.717 Q 0.057 -0.735 0.057 -0.74 Q 0.057 -0.75 0.067 -0.75 Q 0.079 -0.75 0.12 -0.709 Q 0.182 -0.647 0.223 -0.562 Q 0.289 -0.426 0.289 -0.25 Z"/></g><g transform="translate(5.977239766081872,11.855263157894736)"><path fill="rgb(153,51,255)" stroke="none" paint-order="stroke fill markers" d=" M 0.687 -0.327 L 0.09 -0.327 Q 0.058 -0.327 0.056 -0.34700000000000003 Q 0.056 -0.367 0.089 -0.367 L 0.6880000000000001 -0.367 Q 0.72 -0.367 0.721 -0.34700000000000003 Q 0.721 -0.327 0.687 -0.327 M 0.6880000000000001 -0.133 L 0.089 -0.133 Q 0.057 -0.133 0.056 -0.153 Q 0.056 -0.17300000000000001 0.09 -0.17300000000000001 L 0.687 -0.17300000000000001 Q 0.719 -0.17300000000000001 0.721 -0.153 Q 0.721 -0.133 0.6880000000000001 -0.133 Z"/></g><g transform="translate(7.310795321637427,11.855263157894736)"><path fill="rgb(153,51,255)" stroke="none" paint-order="stroke fill markers" d=" M 0.17300000000000001 -0.4 L 0.17300000000000001 -0.4 L 0.17300000000000001 -0.122 Q 0.17300000000000001 -0.022 0.231 -0.015 Q 0.23500000000000001 -0.014 0.24 -0.014 Q 0.28300000000000003 -0.014 0.3 -0.07 Q 0.307 -0.094 0.307 -0.126 L 0.307 -0.181 L 0.332 -0.181 L 0.332 -0.124 Q 0.332 -0.042 0.28600000000000003 -0.006 Q 0.264 0.011 0.233 0.011 Q 0.149 0.011 0.11800000000000001 -0.052000000000000005 Q 0.10400000000000001 -0.082 0.10400000000000001 -0.124 L 0.10400000000000001 -0.4 L 0.019 -0.4 L 0.019 -0.422 Q 0.108 -0.426 0.137 -0.534 Q 0.147 -0.5720000000000001 0.148 -0.615 L 0.17300000000000001 -0.615 L 0.17300000000000001 -0.431 L 0.316 -0.431 L 0.316 -0.4 L 0.17300000000000001 -0.4 Z"/></g><g transform="translate(7.699795321637427,11.855263157894736)"><path fill="rgb(153,51,255)" stroke="none" paint-order="stroke fill markers" d=" M 0.333 -0.076 Q 0.308 -0.014 0.245 0.005 Q 0.225 0.011 0.202 0.011 Q 0.117 0.011 0.07100000000000001 -0.03 Q 0.042 -0.056 0.042 -0.095 Q 0.042 -0.17200000000000001 0.127 -0.218 Q 0.134 -0.222 0.14200000000000002 -0.225 Q 0.203 -0.254 0.321 -0.261 L 0.326 -0.261 L 0.326 -0.298 Q 0.326 -0.383 0.265 -0.41500000000000004 Q 0.244 -0.426 0.22 -0.426 Q 0.154 -0.426 0.11800000000000001 -0.387 Q 0.115 -0.383 0.112 -0.38 Q 0.159 -0.374 0.163 -0.334 Q 0.163 -0.3 0.132 -0.29 Q 0.125 -0.28800000000000003 0.117 -0.28800000000000003 Q 0.081 -0.28800000000000003 0.073 -0.321 Q 0.07100000000000001 -0.326 0.07100000000000001 -0.335 Q 0.07100000000000001 -0.395 0.134 -0.427 Q 0.17300000000000001 -0.448 0.222 -0.448 Q 0.304 -0.448 0.359 -0.393 Q 0.394 -0.357 0.395 -0.293 L 0.395 -0.292 L 0.395 -0.275 L 0.395 -0.075 Q 0.395 -0.046 0.41300000000000003 -0.032 Q 0.421 -0.025 0.432 -0.025 Q 0.467 -0.025 0.468 -0.089 L 0.468 -0.145 L 0.493 -0.145 L 0.493 -0.089 Q 0.493 -0.016 0.433 0.002 Q 0.421 0.006 0.41100000000000003 0.006 Q 0.362 0.006 0.341 -0.046 Q 0.335 -0.06 0.333 -0.076 M 0.326 -0.24 Q 0.17200000000000001 -0.234 0.13 -0.146 Q 0.11900000000000001 -0.122 0.11900000000000001 -0.096 Q 0.11900000000000001 -0.045 0.165 -0.021 Q 0.185 -0.011 0.209 -0.011 Q 0.261 -0.011 0.296 -0.052000000000000005 Q 0.326 -0.08600000000000001 0.326 -0.14 L 0.326 -0.24 Z"/></g><g transform="translate(8.199795321637428,11.855263157894736)"><path fill="rgb(153,51,255)" stroke="none" paint-order="stroke fill markers" d=" M 0.11 -0.34400000000000003 Q 0.11 -0.383 0.095 -0.392 Q 0.083 -0.399 0.052000000000000005 -0.4 L 0.032 -0.4 L 0.032 -0.431 L 0.17300000000000001 -0.442 L 0.17300000000000001 -0.337 Q 0.22 -0.442 0.321 -0.442 Q 0.396 -0.442 0.426 -0.405 Q 0.453 -0.374 0.456 -0.32 Q 0.457 -0.301 0.457 -0.252 L 0.457 -0.061 Q 0.458 -0.037 0.486 -0.033 Q 0.498 -0.031 0.535 -0.031 L 0.535 0 Q 0.433 -0.003 0.423 -0.003 Q 0.41500000000000004 -0.003 0.31 0 L 0.31 -0.031 Q 0.369 -0.031 0.379 -0.04 L 0.381 -0.042 Q 0.388 -0.05 0.388 -0.076 L 0.388 -0.309 Q 0.388 -0.40800000000000003 0.331 -0.418 Q 0.323 -0.42 0.314 -0.42 Q 0.253 -0.42 0.212 -0.367 Q 0.179 -0.324 0.179 -0.26 L 0.179 -0.076 Q 0.179 -0.042 0.195 -0.036000000000000004 Q 0.20600000000000002 -0.031 0.257 -0.031 L 0.257 0 Q 0.155 -0.003 0.145 -0.003 Q 0.137 -0.003 0.032 0 L 0.032 -0.031 Q 0.091 -0.031 0.101 -0.04 L 0.10300000000000001 -0.042 Q 0.11 -0.05 0.11 -0.076 L 0.11 -0.34400000000000003 Z"/></g><g transform="translate(8.755795321637427,11.855263157894736)"><path fill="rgb(153,51,255)" stroke="none" paint-order="stroke fill markers" d=" M 0.331 0.24 L 0.331 0.24 Q 0.331 0.25 0.321 0.25 Q 0.309 0.25 0.268 0.209 Q 0.20600000000000002 0.147 0.165 0.062 Q 0.099 -0.074 0.099 -0.25 Q 0.099 -0.419 0.162 -0.555 Q 0.214 -0.666 0.294 -0.733 Q 0.315 -0.75 0.321 -0.75 Q 0.331 -0.75 0.331 -0.74 Q 0.331 -0.735 0.318 -0.723 Q 0.157 -0.559 0.157 -0.25 Q 0.157 0.058 0.314 0.218 Q 0.331 0.23500000000000001 0.331 0.24 Z"/></g><g transform="translate(9.144795321637426,11.855263157894736)"><path fill="rgb(153,51,255)" stroke="none" paint-order="stroke fill markers" d=" M 0.334 -0.302 L 0.3 -0.165 Q 0.28300000000000003 -0.097 0.28300000000000003 -0.077 Q 0.28300000000000003 -0.025 0.32 -0.014 Q 0.328 -0.011 0.338 -0.011 Q 0.388 -0.011 0.429 -0.061 Q 0.456 -0.093 0.47100000000000003 -0.14200000000000002 Q 0.47400000000000003 -0.153 0.484 -0.153 Q 0.496 -0.153 0.496 -0.14300000000000002 Q 0.496 -0.11800000000000001 0.465 -0.07100000000000001 Q 0.41100000000000003 0.011 0.336 0.011 Q 0.268 0.011 0.23700000000000002 -0.046 Q 0.231 -0.055 0.228 -0.065 Q 0.20400000000000001 -0.017 0.162 0.002 Q 0.14300000000000002 0.011 0.123 0.011 Q 0.063 0.011 0.039 -0.024 Q 0.029 -0.037 0.029 -0.055 Q 0.029 -0.092 0.061 -0.107 Q 0.07200000000000001 -0.113 0.084 -0.113 Q 0.114 -0.113 0.12 -0.088 Q 0.121 -0.083 0.121 -0.078 Q 0.121 -0.044 0.08700000000000001 -0.028 Q 0.081 -0.025 0.074 -0.024 Q 0.095 -0.011 0.124 -0.011 Q 0.177 -0.011 0.20800000000000002 -0.082 Q 0.214 -0.097 0.219 -0.115 Q 0.273 -0.319 0.273 -0.353 Q 0.267 -0.41500000000000004 0.219 -0.42 Q 0.167 -0.42 0.124 -0.367 L 0.124 -0.366 Q 0.124 -0.365 0.123 -0.365 Q 0.108 -0.34500000000000003 0.096 -0.319 Q 0.091 -0.307 0.08700000000000001 -0.295 L 0.085 -0.289 Q 0.083 -0.278 0.07200000000000001 -0.278 Q 0.06 -0.278 0.06 -0.28800000000000003 Q 0.06 -0.313 0.092 -0.36 Q 0.146 -0.442 0.221 -0.442 Q 0.298 -0.442 0.329 -0.366 Q 0.361 -0.428 0.41400000000000003 -0.44 Q 0.424 -0.442 0.434 -0.442 Q 0.493 -0.442 0.517 -0.40900000000000003 Q 0.527 -0.395 0.527 -0.376 Q 0.527 -0.335 0.49 -0.321 Q 0.481 -0.318 0.47300000000000003 -0.318 Q 0.442 -0.318 0.436 -0.34500000000000003 Q 0.435 -0.34900000000000003 0.435 -0.353 Q 0.435 -0.383 0.464 -0.4 Q 0.47300000000000003 -0.405 0.483 -0.40700000000000003 Q 0.462 -0.42 0.433 -0.42 Q 0.365 -0.42 0.337 -0.314 Q 0.335 -0.308 0.334 -0.302 Z"/></g><g transform="translate(9.716795321637425,11.855263157894736)"><path fill="rgb(153,51,255)" stroke="none" paint-order="stroke fill markers" d=" M 0.289 -0.25 L 0.289 -0.25 Q 0.289 -0.081 0.226 0.055 Q 0.17400000000000002 0.166 0.094 0.233 Q 0.073 0.25 0.067 0.25 Q 0.057 0.25 0.057 0.24 Q 0.057 0.23500000000000001 0.07 0.223 Q 0.231 0.059000000000000004 0.231 -0.25 Q 0.231 -0.555 0.081 -0.712 L 0.076 -0.717 Q 0.057 -0.735 0.057 -0.74 Q 0.057 -0.75 0.067 -0.75 Q 0.079 -0.75 0.12 -0.709 Q 0.182 -0.647 0.223 -0.562 Q 0.289 -0.426 0.289 -0.25 Z"/></g></g></g></g></svg>