<svg version="1.1" xmlns="http://www.w3.org/2000/svg" xmlns:xlink="http://www.w3.org/1999/xlink" width="952" height="591"><defs><clipPath id="LaiAbEOtaaRu"><path fill="none" stroke="none" d=" M 0 0 L 952 0 L 952 591 L 0 591 L 0 0 Z"/></clipPath></defs><g transform="scale(1,1)" clip-path="url(#LaiAbEOtaaRu)"><g><rect fill="rgb(255,255,255)" stroke="none" x="0" y="0" width="952" height="591" fill-opacity="1"/><path fill="none" stroke="rgb(192,192,192)" paint-order="fill stroke markers" d=" M 82.5 0.5 L 82.5 591.5 M 82.5 0.5 L 82.5 591.5 M 166.5 0.5 L 166.5 591.5 M 251.5 0.5 L 251.5 591.5 M 335.5 0.5 L 335.5 591.5 M 420.5 0.5 L 420.5 591.5 M 588.5 0.5 L 588.5 591.5 M 673.5 0.5 L 673.5 591.5 M 757.5 0.5 L 757.5 591.5 M 842.5 0.5 L 842.5 591.5 M 926.5 0.5 L 926.5 591.5" stroke-opacity="1" stroke-linecap="round" stroke-linejoin="round" stroke-miterlimit="10"/><path fill="none" stroke="rgb(192,192,192)" paint-order="fill stroke markers" d=" M 14.5 0.5 L 14.5 591.5 M 31.5 0.5 L 31.5 591.5 M 48.5 0.5 L 48.5 591.5 M 65.5 0.5 L 65.5 591.5 M 99.5 0.5 L 99.5 591.5 M 116.5 0.5 L 116.5 591.5 M 133.5 0.5 L 133.5 591.5 M 149.5 0.5 L 149.5 591.5 M 183.5 0.5 L 183.5 591.5 M 200.5 0.5 L 200.5 591.5 M 217.5 0.5 L 217.5 591.5 M 234.5 0.5 L 234.5 591.5 M 268.5 0.5 L 268.5 591.5 M 285.5 0.5 L 285.5 591.5 M 301.5 0.5 L 301.5 591.5 M 318.5 0.5 L 318.5 591.5 M 352.5 0.5 L 352.5 591.5 M 369.5 0.5 L 369.5 591.5 M 386.5 0.5 L 386.5 591.5 M 403.5 0.5 L 403.5 591.5 M 436.5 0.5 L 436.5 591.5 M 453.5 0.5 L 453.5 591.5 M 470.5 0.5 L 470.5 591.5 M 487.5 0.5 L 487.5 591.5 M 521.5 0.5 L 521.5 591.5 M 538.5 0.5 L 538.5 591.5 M 555.5 0.5 L 555.5 591.5 M 572.5 0.5 L 572.5 591.5 M 605.5 0.5 L 605.5 591.5 M 622.5 0.5 L 622.5 591.5 M 639.5 0.5 L 639.5 591.5 M 656.5 0.5 L 656.5 591.5 M 690.5 0.5 L 690.5 591.5 M 707.5 0.5 L 707.5 591.5 M 724.5 0.5 L 724.5 591.5 M 740.5 0.5 L 740.5 591.5 M 774.5 0.5 L 774.5 591.5 M 791.5 0.5 L 791.5 591.5 M 808.5 0.5 L 808.5 591.5 M 825.5 0.5 L 825.5 591.5 M 859.5 0.5 L 859.5 591.5 M 876.5 0.5 L 876.5 591.5 M 892.5 0.5 L 892.5 591.5 M 909.5 0.5 L 909.5 591.5 M 943.5 0.5 L 943.5 591.5" stroke-opacity="0.23529411764705882" stroke-linecap="round" stroke-linejoin="round" stroke-miterlimit="10"/><path fill="none" stroke="rgb(192,192,192)" paint-order="fill stroke markers" d=" M 0.5 25.5 L 952.5 25.5 M 0.5 25.5 L 952.5 25.5 M 0.5 110.5 L 952.5 110.5 M 0.5 194.5 L 952.5 194.5 M 0.5 279.5 L 952.5 279.5 M 0.5 363.5 L 952.5 363.5 M 0.5 448.5 L 952.5 448.5" stroke-opacity="1" stroke-linecap="round" stroke-linejoin="round" stroke-miterlimit="10"/><path fill="none" stroke="rgb(192,192,192)" paint-order="fill stroke markers" d=" M 0.5 9.5 L 952.5 9.5 M 0.5 9.5 L 952.5 9.5 M 0.5 42.5 L 952.5 42.5 M 0.5 59.5 L 952.5 59.5 M 0.5 76.5 L 952.5 76.5 M 0.5 93.5 L 952.5 93.5 M 0.5 127.5 L 952.5 127.5 M 0.5 144.5 L 952.5 144.5 M 0.5 161.5 L 952.5 161.5 M 0.5 177.5 L 952.5 177.5 M 0.5 211.5 L 952.5 211.5 M 0.5 228.5 L 952.5 228.5 M 0.5 245.5 L 952.5 245.5 M 0.5 262.5 L 952.5 262.5 M 0.5 296.5 L 952.5 296.5 M 0.5 313.5 L 952.5 313.5 M 0.5 329.5 L 952.5 329.5 M 0.5 346.5 L 952.5 346.5 M 0.5 380.5 L 952.5 380.5 M 0.5 397.5 L 952.5 397.5 M 0.5 414.5 L 952.5 414.5 M 0.5 431.5 L 952.5 431.5 M 0.5 465.5 L 952.5 465.5 M 0.5 481.5 L 952.5 481.5 M 0.5 498.5 L 952.5 498.5 M 0.5 515.5 L 952.5 515.5 M 0.5 549.5 L 952.5 549.5 M 0.5 566.5 L 952.5 566.5 M 0.5 583.5 L 952.5 583.5" stroke-opacity="0.23529411764705882" stroke-linecap="round" stroke-linejoin="round" stroke-miterlimit="10"/><path fill="none" stroke="rgb(37,37,37)" paint-order="fill stroke markers" d=" M 504.5 2.5 L 504.5 591.5" stroke-opacity="1" stroke-miterlimit="10"/><path fill="none" stroke="rgb(37,37,37)" paint-order="fill stroke markers" d=" M 504.5 1.5 L 500.5 5.5" stroke-opacity="1" stroke-miterlimit="10"/><path fill="none" stroke="rgb(37,37,37)" paint-order="fill stroke markers" d=" M 504.5 1.5 L 508.5 5.5" stroke-opacity="1" stroke-miterlimit="10"/><path fill="none" stroke="rgb(37,37,37)" paint-order="fill stroke markers" d=" M 0.5 532.5 L 950.5 532.5" stroke-opacity="1" stroke-miterlimit="10"/><path fill="none" stroke="rgb(37,37,37)" paint-order="fill stroke markers" d=" M 951.5 532.5 L 947.5 528.5" stroke-opacity="1" stroke-miterlimit="10"/><path fill="none" stroke="rgb(37,37,37)" paint-order="fill stroke markers" d=" M 951.5 532.5 L 947.5 536.5" stroke-opacity="1" stroke-miterlimit="10"/><text fill="rgb(37,37,37)" stroke="none" font-family="geogebra-sans-serif, sans-serif" font-size="12px" font-style="normal" font-weight="normal" text-decoration="normal" x="77" y="548" text-anchor="start" dominant-baseline="alphabetic" fill-opacity="1">–5</text><text fill="none" stroke="rgb(255,255,255)" font-family="geogebra-sans-serif, sans-serif" font-size="12px" font-style="normal" font-weight="normal" text-decoration="normal" x="77" y="548" text-anchor="start" dominant-baseline="alphabetic" stroke-opacity="1" stroke-linejoin="bevel" stroke-miterlimit="10" stroke-width="3">–5</text><text fill="rgb(37,37,37)" stroke="none" font-family="geogebra-sans-serif, sans-serif" font-size="12px" font-style="normal" font-weight="normal" text-decoration="normal" x="77" y="548" text-anchor="start" dominant-baseline="alphabetic" fill-opacity="1">–5</text><text fill="rgb(37,37,37)" stroke="none" font-family="geogebra-sans-serif, sans-serif" font-size="12px" font-style="normal" font-weight="normal" text-decoration="normal" x="161" y="548" text-anchor="start" dominant-baseline="alphabetic" fill-opacity="1">–4</text><text fill="none" stroke="rgb(255,255,255)" font-family="geogebra-sans-serif, sans-serif" font-size="12px" font-style="normal" font-weight="normal" text-decoration="normal" x="161" y="548" text-anchor="start" dominant-baseline="alphabetic" stroke-opacity="1" stroke-linejoin="bevel" stroke-miterlimit="10" stroke-width="3">–4</text><text fill="rgb(37,37,37)" stroke="none" font-family="geogebra-sans-serif, sans-serif" font-size="12px" font-style="normal" font-weight="normal" text-decoration="normal" x="161" y="548" text-anchor="start" dominant-baseline="alphabetic" fill-opacity="1">–4</text><text fill="rgb(37,37,37)" stroke="none" font-family="geogebra-sans-serif, sans-serif" font-size="12px" font-style="normal" font-weight="normal" text-decoration="normal" x="246" y="548" text-anchor="start" dominant-baseline="alphabetic" fill-opacity="1">–3</text><text fill="none" stroke="rgb(255,255,255)" font-family="geogebra-sans-serif, sans-serif" font-size="12px" font-style="normal" font-weight="normal" text-decoration="normal" x="246" y="548" text-anchor="start" dominant-baseline="alphabetic" stroke-opacity="1" stroke-linejoin="bevel" stroke-miterlimit="10" stroke-width="3">–3</text><text fill="rgb(37,37,37)" stroke="none" font-family="geogebra-sans-serif, sans-serif" font-size="12px" font-style="normal" font-weight="normal" text-decoration="normal" x="246" y="548" text-anchor="start" dominant-baseline="alphabetic" fill-opacity="1">–3</text><text fill="rgb(37,37,37)" stroke="none" font-family="geogebra-sans-serif, sans-serif" font-size="12px" font-style="normal" font-weight="normal" text-decoration="normal" x="330" y="548" text-anchor="start" dominant-baseline="alphabetic" fill-opacity="1">–2</text><text fill="none" stroke="rgb(255,255,255)" font-family="geogebra-sans-serif, sans-serif" font-size="12px" font-style="normal" font-weight="normal" text-decoration="normal" x="330" y="548" text-anchor="start" dominant-baseline="alphabetic" stroke-opacity="1" stroke-linejoin="bevel" stroke-miterlimit="10" stroke-width="3">–2</text><text fill="rgb(37,37,37)" stroke="none" font-family="geogebra-sans-serif, sans-serif" font-size="12px" font-style="normal" font-weight="normal" text-decoration="normal" x="330" y="548" text-anchor="start" dominant-baseline="alphabetic" fill-opacity="1">–2</text><text fill="rgb(37,37,37)" stroke="none" font-family="geogebra-sans-serif, sans-serif" font-size="12px" font-style="normal" font-weight="normal" text-decoration="normal" x="415" y="548" text-anchor="start" dominant-baseline="alphabetic" fill-opacity="1">–1</text><text fill="none" stroke="rgb(255,255,255)" font-family="geogebra-sans-serif, sans-serif" font-size="12px" font-style="normal" font-weight="normal" text-decoration="normal" x="415" y="548" text-anchor="start" dominant-baseline="alphabetic" stroke-opacity="1" stroke-linejoin="bevel" stroke-miterlimit="10" stroke-width="3">–1</text><text fill="rgb(37,37,37)" stroke="none" font-family="geogebra-sans-serif, sans-serif" font-size="12px" font-style="normal" font-weight="normal" text-decoration="normal" x="415" y="548" text-anchor="start" dominant-baseline="alphabetic" fill-opacity="1">–1</text><text fill="rgb(37,37,37)" stroke="none" font-family="geogebra-sans-serif, sans-serif" font-size="12px" font-style="normal" font-weight="normal" text-decoration="normal" x="586" y="548" text-anchor="start" dominant-baseline="alphabetic" fill-opacity="1">1</text><text fill="none" stroke="rgb(255,255,255)" font-family="geogebra-sans-serif, sans-serif" font-size="12px" font-style="normal" font-weight="normal" text-decoration="normal" x="586" y="548" text-anchor="start" dominant-baseline="alphabetic" stroke-opacity="1" stroke-linejoin="bevel" stroke-miterlimit="10" stroke-width="3">1</text><text fill="rgb(37,37,37)" stroke="none" font-family="geogebra-sans-serif, sans-serif" font-size="12px" font-style="normal" font-weight="normal" text-decoration="normal" x="586" y="548" text-anchor="start" dominant-baseline="alphabetic" fill-opacity="1">1</text><text fill="rgb(37,37,37)" stroke="none" font-family="geogebra-sans-serif, sans-serif" font-size="12px" font-style="normal" font-weight="normal" text-decoration="normal" x="671" y="548" text-anchor="start" dominant-baseline="alphabetic" fill-opacity="1">2</text><text fill="none" stroke="rgb(255,255,255)" font-family="geogebra-sans-serif, sans-serif" font-size="12px" font-style="normal" font-weight="normal" text-decoration="normal" x="671" y="548" text-anchor="start" dominant-baseline="alphabetic" stroke-opacity="1" stroke-linejoin="bevel" stroke-miterlimit="10" stroke-width="3">2</text><text fill="rgb(37,37,37)" stroke="none" font-family="geogebra-sans-serif, sans-serif" font-size="12px" font-style="normal" font-weight="normal" text-decoration="normal" x="671" y="548" text-anchor="start" dominant-baseline="alphabetic" fill-opacity="1">2</text><text fill="rgb(37,37,37)" stroke="none" font-family="geogebra-sans-serif, sans-serif" font-size="12px" font-style="normal" font-weight="normal" text-decoration="normal" x="755" y="548" text-anchor="start" dominant-baseline="alphabetic" fill-opacity="1">3</text><text fill="none" stroke="rgb(255,255,255)" font-family="geogebra-sans-serif, sans-serif" font-size="12px" font-style="normal" font-weight="normal" text-decoration="normal" x="755" y="548" text-anchor="start" dominant-baseline="alphabetic" stroke-opacity="1" stroke-linejoin="bevel" stroke-miterlimit="10" stroke-width="3">3</text><text fill="rgb(37,37,37)" stroke="none" font-family="geogebra-sans-serif, sans-serif" font-size="12px" font-style="normal" font-weight="normal" text-decoration="normal" x="755" y="548" text-anchor="start" dominant-baseline="alphabetic" fill-opacity="1">3</text><text fill="rgb(37,37,37)" stroke="none" font-family="geogebra-sans-serif, sans-serif" font-size="12px" font-style="normal" font-weight="normal" text-decoration="normal" x="840" y="548" text-anchor="start" dominant-baseline="alphabetic" fill-opacity="1">4</text><text fill="none" stroke="rgb(255,255,255)" font-family="geogebra-sans-serif, sans-serif" font-size="12px" font-style="normal" font-weight="normal" text-decoration="normal" x="840" y="548" text-anchor="start" dominant-baseline="alphabetic" stroke-opacity="1" stroke-linejoin="bevel" stroke-miterlimit="10" stroke-width="3">4</text><text fill="rgb(37,37,37)" stroke="none" font-family="geogebra-sans-serif, sans-serif" font-size="12px" font-style="normal" font-weight="normal" text-decoration="normal" x="840" y="548" text-anchor="start" dominant-baseline="alphabetic" fill-opacity="1">4</text><text fill="rgb(37,37,37)" stroke="none" font-family="geogebra-sans-serif, sans-serif" font-size="12px" font-style="normal" font-weight="normal" text-decoration="normal" x="924" y="548" text-anchor="start" dominant-baseline="alphabetic" fill-opacity="1">5</text><text fill="none" stroke="rgb(255,255,255)" font-family="geogebra-sans-serif, sans-serif" font-size="12px" font-style="normal" font-weight="normal" text-decoration="normal" x="924" y="548" text-anchor="start" dominant-baseline="alphabetic" stroke-opacity="1" stroke-linejoin="bevel" stroke-miterlimit="10" stroke-width="3">5</text><text fill="rgb(37,37,37)" stroke="none" font-family="geogebra-sans-serif, sans-serif" font-size="12px" font-style="normal" font-weight="normal" text-decoration="normal" x="924" y="548" text-anchor="start" dominant-baseline="alphabetic" fill-opacity="1">5</text><text fill="rgb(37,37,37)" stroke="none" font-family="geogebra-sans-serif, sans-serif" font-size="12px" font-style="normal" font-weight="normal" text-decoration="normal" x="490" y="453" text-anchor="start" dominant-baseline="alphabetic" fill-opacity="1">1</text><text fill="none" stroke="rgb(255,255,255)" font-family="geogebra-sans-serif, sans-serif" font-size="12px" font-style="normal" font-weight="normal" text-decoration="normal" x="490" y="453" text-anchor="start" dominant-baseline="alphabetic" stroke-opacity="1" stroke-linejoin="bevel" stroke-miterlimit="10" stroke-width="3">1</text><text fill="rgb(37,37,37)" stroke="none" font-family="geogebra-sans-serif, sans-serif" font-size="12px" font-style="normal" font-weight="normal" text-decoration="normal" x="490" y="453" text-anchor="start" dominant-baseline="alphabetic" fill-opacity="1">1</text><text fill="rgb(37,37,37)" stroke="none" font-family="geogebra-sans-serif, sans-serif" font-size="12px" font-style="normal" font-weight="normal" text-decoration="normal" x="490" y="368" text-anchor="start" dominant-baseline="alphabetic" fill-opacity="1">2</text><text fill="none" stroke="rgb(255,255,255)" font-family="geogebra-sans-serif, sans-serif" font-size="12px" font-style="normal" font-weight="normal" text-decoration="normal" x="490" y="368" text-anchor="start" dominant-baseline="alphabetic" stroke-opacity="1" stroke-linejoin="bevel" stroke-miterlimit="10" stroke-width="3">2</text><text fill="rgb(37,37,37)" stroke="none" font-family="geogebra-sans-serif, sans-serif" font-size="12px" font-style="normal" font-weight="normal" text-decoration="normal" x="490" y="368" text-anchor="start" dominant-baseline="alphabetic" fill-opacity="1">2</text><text fill="rgb(37,37,37)" stroke="none" font-family="geogebra-sans-serif, sans-serif" font-size="12px" font-style="normal" font-weight="normal" text-decoration="normal" x="490" y="284" text-anchor="start" dominant-baseline="alphabetic" fill-opacity="1">3</text><text fill="none" stroke="rgb(255,255,255)" font-family="geogebra-sans-serif, sans-serif" font-size="12px" font-style="normal" font-weight="normal" text-decoration="normal" x="490" y="284" text-anchor="start" dominant-baseline="alphabetic" stroke-opacity="1" stroke-linejoin="bevel" stroke-miterlimit="10" stroke-width="3">3</text><text fill="rgb(37,37,37)" stroke="none" font-family="geogebra-sans-serif, sans-serif" font-size="12px" font-style="normal" font-weight="normal" text-decoration="normal" x="490" y="284" text-anchor="start" dominant-baseline="alphabetic" fill-opacity="1">3</text><text fill="rgb(37,37,37)" stroke="none" font-family="geogebra-sans-serif, sans-serif" font-size="12px" font-style="normal" font-weight="normal" text-decoration="normal" x="490" y="199" text-anchor="start" dominant-baseline="alphabetic" fill-opacity="1">4</text><text fill="none" stroke="rgb(255,255,255)" font-family="geogebra-sans-serif, sans-serif" font-size="12px" font-style="normal" font-weight="normal" text-decoration="normal" x="490" y="199" text-anchor="start" dominant-baseline="alphabetic" stroke-opacity="1" stroke-linejoin="bevel" stroke-miterlimit="10" stroke-width="3">4</text><text fill="rgb(37,37,37)" stroke="none" font-family="geogebra-sans-serif, sans-serif" font-size="12px" font-style="normal" font-weight="normal" text-decoration="normal" x="490" y="199" text-anchor="start" dominant-baseline="alphabetic" fill-opacity="1">4</text><text fill="rgb(37,37,37)" stroke="none" font-family="geogebra-sans-serif, sans-serif" font-size="12px" font-style="normal" font-weight="normal" text-decoration="normal" x="490" y="115" text-anchor="start" dominant-baseline="alphabetic" fill-opacity="1">5</text><text fill="none" stroke="rgb(255,255,255)" font-family="geogebra-sans-serif, sans-serif" font-size="12px" font-style="normal" font-weight="normal" text-decoration="normal" x="490" y="115" text-anchor="start" dominant-baseline="alphabetic" stroke-opacity="1" stroke-linejoin="bevel" stroke-miterlimit="10" stroke-width="3">5</text><text fill="rgb(37,37,37)" stroke="none" font-family="geogebra-sans-serif, sans-serif" font-size="12px" font-style="normal" font-weight="normal" text-decoration="normal" x="490" y="115" text-anchor="start" dominant-baseline="alphabetic" fill-opacity="1">5</text><text fill="rgb(37,37,37)" stroke="none" font-family="geogebra-sans-serif, sans-serif" font-size="12px" font-style="normal" font-weight="normal" text-decoration="normal" x="490" y="30" text-anchor="start" dominant-baseline="alphabetic" fill-opacity="1">6</text><text fill="none" stroke="rgb(255,255,255)" font-family="geogebra-sans-serif, sans-serif" font-size="12px" font-style="normal" font-weight="normal" text-decoration="normal" x="490" y="30" text-anchor="start" dominant-baseline="alphabetic" stroke-opacity="1" stroke-linejoin="bevel" stroke-miterlimit="10" stroke-width="3">6</text><text fill="rgb(37,37,37)" stroke="none" font-family="geogebra-sans-serif, sans-serif" font-size="12px" font-style="normal" font-weight="normal" text-decoration="normal" x="490" y="30" text-anchor="start" dominant-baseline="alphabetic" fill-opacity="1">6</text><text fill="rgb(37,37,37)" stroke="none" font-family="geogebra-sans-serif, sans-serif" font-size="12px" font-style="normal" font-weight="normal" text-decoration="normal" x="490" y="548" text-anchor="start" dominant-baseline="alphabetic" fill-opacity="1">0</text><text fill="none" stroke="rgb(255,255,255)" font-family="geogebra-sans-serif, sans-serif" font-size="12px" font-style="normal" font-weight="normal" text-decoration="normal" x="490" y="548" text-anchor="start" dominant-baseline="alphabetic" stroke-opacity="1" stroke-linejoin="bevel" stroke-miterlimit="10" stroke-width="3">0</text><text fill="rgb(37,37,37)" stroke="none" font-family="geogebra-sans-serif, sans-serif" font-size="12px" font-style="normal" font-weight="normal" text-decoration="normal" x="490" y="548" text-anchor="start" dominant-baseline="alphabetic" fill-opacity="1">0</text><path fill="none" stroke="rgb(0,100,0)" paint-order="fill stroke markers" d=" M 1 -2482.1885719017737 L 1 -2470.249947810705 L 1 -2470.249947810706 L 2 -2458.3350095385663 L 2 -2458.3350095385676 L 3 -2446.4437570853565 L 3 -2446.4437570853574 L 4 -2434.5761904510746 L 4 -2434.576190451076 L 5 -2422.7323096357222 L 5 -2422.7323096357236 L 6 -2410.912114639298 L 6 -2410.9121146392995 L 7.000000000000057 -2399.1156054618027 L 7.000000000000057 -2399.115605461804 L 8.000000000000057 -2387.3427821032355 L 8.000000000000057 -2387.342782103237 L 9.000000000000057 -2375.5936445635975 L 9.000000000000057 -2375.593644563599 L 9.999999999999943 -2363.8681928428887 L 9.999999999999943 -2363.86819284289 L 10.999999999999943 -2352.166426941108 L 10.999999999999943 -2352.166426941109 L 12 -2340.488346858255 L 12 -2340.4883468582566 L 13 -2328.833952594332 L 13 -2328.8339525943334 L 14 -2317.203244149337 L 14 -2317.2032441493384 L 15 -2305.5962215232707 L 15 -2305.596221523272 L 16 -2294.0128847161327 L 16 -2294.012884716134 L 17 -2282.4532337279243 L 17 -2282.453233727925 L 18 -2270.9172685586436 L 18 -2270.917268558645 L 19 -2259.404989208292 L 19 -2259.404989208293 L 20 -2247.9163956768684 L 20 -2247.91639567687 L 21 -2236.4514879643743 L 21 -2236.4514879643757 L 22 -2225.010266070808 L 22 -2225.0102660708094 L 23 -2213.5927299961713 L 23 -2213.5927299961727 L 24 -2202.1988797404624 L 24 -2202.198879740464 L 25.000000000000057 -2190.828715303682 L 25.000000000000057 -2190.8287153036836 L 26.000000000000057 -2179.482236685831 L 26.000000000000057 -2179.4822366858325 L 27.000000000000057 -2168.1594438869092 L 27.000000000000057 -2168.1594438869097 L 27.999999999999943 -2156.8603369069156 L 27.999999999999943 -2156.8603369069165 L 28.999999999999943 -2145.5849157458506 L 28.999999999999943 -2145.584915745851 L 30 -2134.333180403714 L 30 -2134.3331804037143 L 31 -2123.105130880506 L 31 -2123.1051308805063 L 32 -2111.9007671762265 L 32 -2111.900767176227 L 33 -2100.7200892908754 L 33 -2100.720089290876 L 34 -2089.5630972244535 L 34 -2089.563097224454 L 35 -2078.42979097696 L 35 -2078.4297909769602 L 36 -2067.3201705483953 L 36 -2067.3201705483957 L 37 -2056.234235938759 L 37 -2056.2342359387594 L 38 -2045.1719871480514 L 38 -2045.1719871480518 L 39 -2034.1334241762725 L 39 -2034.133424176273 L 40 -2023.1185470234223 L 40 -2023.1185470234227 L 41 -2012.1273556895003 L 41 -2012.1273556895012 L 42 -2001.1598501745075 L 42 -2001.159850174508 L 43.00000000000006 -1990.216030478443 L 43.00000000000006 -1990.2160304784438 L 44.00000000000006 -1979.2958966013075 L 44.00000000000006 -1979.295896601308 L 45.00000000000006 -1968.3994485431003 L 45.00000000000006 -1968.3994485431008 L 46.00000000000006 -1957.5266863038219 L 46.00000000000006 -1957.5266863038228 L 46.99999999999994 -1946.677609883473 L 46.99999999999994 -1946.677609883474 L 48 -1935.852219282052 L 48 -1935.8522192820524 L 49 -1925.0505144995595 L 49 -1925.05051449956 L 50 -1914.2724955359954 L 50 -1914.2724955359959 L 51 -1903.5181623913604 L 51 -1903.5181623913609 L 52 -1892.7875150656537 L 52 -1892.7875150656541 L 53 -1882.080553558876 L 53 -1882.0805535588765 L 54 -1871.3972778710263 L 54 -1871.3972778710272 L 55 -1860.737688002106 L 55 -1860.7376880021066 L 56 -1850.1017839521137 L 56 -1850.1017839521141 L 57 -1839.4895657210504 L 57 -1839.4895657210513 L 58 -1828.9010333089159 L 58 -1828.9010333089163 L 59 -1818.33618671571 L 59 -1818.3361867157105 L 60 -1807.795025941432 L 60 -1807.7950259414329 L 61 -1797.2775509860835 L 61 -1797.2775509860844 L 62.00000000000006 -1786.7837618496633 L 62.00000000000006 -1786.7837618496637 L 63.00000000000006 -1776.3136585321718 L 63.00000000000006 -1776.3136585321727 L 64.00000000000006 -1765.8672410336094 L 64.00000000000006 -1765.8672410336098 L 64.99999999999994 -1755.4445093539753 L 64.99999999999994 -1755.4445093539762 L 66 -1745.0454634932698 L 66 -1745.0454634932707 L 67 -1734.670103451493 L 67 -1734.670103451494 L 68 -1724.3184292286446 L 68 -1724.3184292286455 L 69 -1713.9904408247253 L 69 -1713.9904408247257 L 70 -1703.6861382397342 L 70 -1703.6861382397346 L 71 -1693.4055214736718 L 71 -1693.4055214736727 L 72 -1683.148590526538 L 72 -1683.1485905265386 L 73 -1672.915345398333 L 73 -1672.9153453983336 L 74 -1662.7057860890568 L 74 -1662.7057860890573 L 75 -1652.5199125987087 L 75 -1652.5199125987097 L 76 -1642.3577249272898 L 76 -1642.3577249272903 L 77 -1632.2192230747992 L 77 -1632.2192230747996 L 78 -1622.1044070412372 L 78 -1622.1044070412381 L 79 -1612.013276826604 L 79 -1612.0132768266049 L 80.00000000000006 -1601.9458324308994 L 80.00000000000006 -1601.9458324309003 L 81.00000000000006 -1591.9020738541235 L 81.00000000000006 -1591.902073854124 L 82.00000000000006 -1581.8820010962763 L 82.00000000000006 -1581.8820010962768 L 82.99999999999994 -1571.8856141573583 L 82.99999999999994 -1571.8856141573592 L 84 -1561.9129130373685 L 84 -1561.912913037369 L 85 -1551.963897736307 L 85 -1551.9638977363074 L 86 -1542.0385682541742 L 86 -1542.038568254175 L 87 -1532.13692459097 L 87 -1532.136924590971 L 88 -1522.258966746695 L 88 -1522.2589667466955 L 89 -1512.4046947213483 L 89 -1512.4046947213487 L 90 -1502.5741085149298 L 90 -1502.5741085149302 L 91 -1492.7672081274404 L 91 -1492.7672081274409 L 92 -1482.9839935588798 L 92 -1482.9839935588802 L 93 -1473.2244648092474 L 93 -1473.2244648092478 L 94 -1463.4886218785437 L 94 -1463.488621878544 L 95 -1453.7764647667686 L 95 -1453.776464766769 L 96 -1444.0879934739223 L 96 -1444.0879934739232 L 97 -1434.4232080000047 L 97 -1434.4232080000052 L 98.00000000000006 -1424.7821083450158 L 98.00000000000006 -1424.7821083450162 L 99.00000000000006 -1415.1646945089556 L 99.00000000000006 -1415.164694508956 L 100.00000000000006 -1405.570966491824 L 100.00000000000006 -1405.5709664918245 L 101.00000000000006 -1396.0009242936208 L 101.00000000000006 -1396.0009242936212 L 102 -1386.454567914347 L 102 -1386.4545679143475 L 103 -1376.9318973540012 L 103 -1376.931897354002 L 104 -1367.432912612584 L 104 -1367.4329126125845 L 105 -1357.9576136900955 L 105 -1357.957613690096 L 106 -1348.5060005865357 L 106 -1348.5060005865362 L 107 -1339.0780733019042 L 107 -1339.078073301905 L 108 -1329.6738318362018 L 108 -1329.6738318362022 L 109 -1320.2932761894276 L 109 -1320.2932761894285 L 110 -1310.9364063615826 L 110 -1310.936406361583 L 111 -1301.6032223526659 L 111 -1301.6032223526668 L 112 -1292.2937241626782 L 112 -1292.2937241626787 L 113 -1283.0079117916184 L 113 -1283.0079117916193 L 114 -1273.7457852394878 L 114 -1273.7457852394887 L 115 -1264.5073445062858 L 115 -1264.5073445062862 L 116.00000000000006 -1255.292589592012 L 116.00000000000006 -1255.292589592013 L 117.00000000000006 -1246.1015204966675 L 117.00000000000006 -1246.1015204966684 L 118.00000000000006 -1236.9341372202516 L 118.00000000000006 -1236.934137220252 L 119.00000000000006 -1227.790439762764 L 119.00000000000006 -1227.7904397627644 L 120 -1218.6704281242055 L 120 -1218.6704281242064 L 121 -1209.5741023045757 L 121 -1209.5741023045762 L 122 -1200.5014623038742 L 122 -1200.5014623038746 L 123 -1191.4525081221009 L 123 -1191.4525081221018 L 124 -1182.4272397592567 L 124 -1182.4272397592572 L 125 -1173.4256572153408 L 125 -1173.4256572153413 L 126 -1164.447760490354 L 126 -1164.4477604903545 L 127 -1155.4935495842956 L 127 -1155.4935495842965 L 128 -1146.5630244971662 L 128 -1146.5630244971667 L 129 -1137.6561852289647 L 129 -1137.6561852289656 L 130 -1128.7730317796922 L 130 -1128.7730317796932 L 131 -1119.9135641493485 L 131 -1119.9135641493494 L 132 -1111.0777823379335 L 132 -1111.0777823379344 L 133 -1102.2656863454467 L 133 -1102.2656863454476 L 134.00000000000006 -1093.4772761718891 L 134.00000000000006 -1093.4772761718896 L 135.00000000000006 -1084.7125518172597 L 135.00000000000006 -1084.7125518172602 L 136.00000000000006 -1075.971513281559 L 136.00000000000006 -1075.97151328156 L 137.00000000000006 -1067.2541605647875 L 137.00000000000006 -1067.254160564788 L 138 -1058.5604936669447 L 138 -1058.5604936669451 L 139 -1049.89051258803 L 139 -1049.8905125880306 L 140.00000000000006 -1041.2442173280433 L 140.00000000000006 -1041.2442173280438 L 141 -1032.6216078869866 L 141 -1032.6216078869875 L 142.00000000000006 -1024.0226842648572 L 142.00000000000006 -1024.022684264858 L 143 -1015.4474464616577 L 143 -1015.4474464616584 L 144 -1006.8958944773864 L 144 -1006.8958944773868 L 145 -998.3680283120435 L 145 -998.3680283120442 L 146 -989.8638479656296 L 146 -989.86384796563 L 147 -981.3833534381439 L 147 -981.3833534381444 L 148 -972.9265447295869 L 148 -972.9265447295876 L 149 -964.4934218399588 L 149 -964.4934218399595 L 150 -956.0839847692592 L 150 -956.0839847692599 L 151 -947.6982335174881 L 151 -947.6982335174888 L 151.99999999999994 -939.3361680846464 L 151.99999999999994 -939.336168084647 L 153.00000000000006 -930.9977884707324 L 153.00000000000006 -930.9977884707329 L 153.99999999999994 -922.6830946757481 L 153.99999999999994 -922.6830946757485 L 155.00000000000006 -914.3920866996908 L 155.00000000000006 -914.3920866996915 L 156 -906.1247645425641 L 156 -906.1247645425645 L 157.00000000000006 -897.8811282043642 L 157.00000000000006 -897.8811282043647 L 158 -889.6611776850942 L 158 -889.6611776850949 L 159.00000000000006 -881.464912984752 L 159.00000000000006 -881.4649129847527 L 160 -873.2923341033394 L 160 -873.2923341033401 L 161 -865.1434410408548 L 161 -865.1434410408555 L 162 -857.0182337972989 L 162 -857.0182337972996 L 163 -848.9167123726719 L 163 -848.9167123726724 L 164 -840.8388767669732 L 164 -840.8388767669738 L 165 -832.7847269802031 L 165 -832.7847269802038 L 166 -824.7542630123618 L 166 -824.7542630123625 L 167 -816.7474848634494 L 167 -816.7474848634498 L 168 -808.7643925334654 L 168 -808.7643925334656 L 169 -800.8049860224099 L 169 -800.8049860224104 L 170 -792.8692653302836 L 170 -792.8692653302838 L 171 -784.9572304570855 L 171 -784.9572304570858 L 172 -777.0688814028159 L 172 -777.0688814028164 L 173 -769.2042181674752 L 173 -769.2042181674757 L 174 -761.363240751063 L 174 -761.3632407510635 L 175 -753.5459491535795 L 175 -753.54594915358 L 176 -745.7523433750247 L 176 -745.7523433750249 L 177 -737.9824234153983 L 177 -737.9824234153988 L 178 -730.2361892747009 L 178 -730.2361892747011 L 179 -722.5136409529322 L 179 -722.5136409529324 L 180 -714.8147784500917 L 180 -714.8147784500921 L 181 -707.1396017661804 L 181 -707.1396017661806 L 182 -699.4881109011973 L 182 -699.4881109011975 L 183 -691.8603058551429 L 183 -691.8603058551431 L 184 -684.256186628017 L 184 -684.2561866280174 L 185 -676.67575321982 L 185 -676.6757532198202 L 186 -669.1190056305517 L 186 -669.1190056305519 L 187 -661.5859438602118 L 187 -661.5859438602121 L 188.00000000000006 -654.0765679088005 L 188.00000000000006 -654.0765679088009 L 189 -646.5908777763183 L 189 -646.5908777763187 L 190 -639.1288734627643 L 190 -639.1288734627648 L 191 -631.690554968139 L 191 -631.6905549681395 L 192 -624.2759222924427 L 192 -624.2759222924429 L 193 -616.8849754356746 L 193 -616.8849754356751 L 194 -609.5177143978352 L 194 -609.5177143978357 L 195 -602.1741391789245 L 195 -602.174139178925 L 196 -594.8542497789427 L 196 -594.854249778943 L 197.00000000000006 -587.5580461978892 L 197.00000000000006 -587.5580461978897 L 198 -580.2855284357648 L 198 -580.2855284357651 L 199 -573.0366964925687 L 199 -573.0366964925689 L 200 -565.8115503683013 L 200 -565.8115503683015 L 201 -558.6100900629625 L 201 -558.6100900629627 L 202 -551.4323155765522 L 202 -551.4323155765527 L 203 -544.2782269090707 L 203 -544.2782269090711 L 204 -537.147824060518 L 204 -537.1478240605182 L 205 -530.0411070308936 L 205 -530.0411070308941 L 206.00000000000006 -522.9580758201981 L 206.00000000000006 -522.9580758201984 L 207 -515.8987304284313 L 207 -515.8987304284316 L 208 -508.86307085559304 L 208 -508.8630708555935 L 209 -501.8510971016834 L 209 -501.85109710168365 L 210 -494.8628091667023 L 210 -494.86280916670273 L 211 -487.89820705065006 L 211 -487.8982070506504 L 212 -480.9572907535263 L 212 -480.95729075352654 L 213 -474.04006027533114 L 213 -474.04006027533137 L 214 -467.1465156160648 L 214 -467.146515616065 L 215.00000000000006 -460.2766567757269 L 215.00000000000006 -460.27665677572713 L 216 -453.43048375431795 L 216 -453.4304837543183 L 217 -446.60799655183735 L 217 -446.6079965518377 L 218 -439.80919516828556 L 218 -439.8091951682859 L 219 -433.03407960366235 L 219 -433.0340796036626 L 220 -426.2826498579676 L 220 -426.28264985796795 L 221 -419.5549059312018 L 221 -419.55490593120203 L 222 -412.85084782336446 L 222 -412.8508478233647 L 223 -406.1704755344558 L 223 -406.17047553445616 L 224.00000000000006 -399.51378906447576 L 224.00000000000006 -399.5137890644761 L 225 -392.8807884134246 L 225 -392.88078841342485 L 226 -386.27147358130185 L 226 -386.2714735813021 L 227 -379.68584456810777 L 227 -379.6858445681081 L 228 -373.1239013738423 L 228 -373.1239013738426 L 229 -366.5856439985056 L 229 -366.5856439985058 L 230 -360.07107244209726 L 230 -360.0710724420976 L 231 -353.58018670461774 L 231 -353.580186704618 L 232 -347.1129867860669 L 232 -347.11298678606715 L 233.00000000000006 -340.6694726864446 L 233.00000000000006 -340.6694726864449 L 234 -334.24964440575127 L 234 -334.2496444057515 L 235 -327.8535019439863 L 235 -327.85350194398666 L 236 -321.48104530114995 L 236 -321.4810453011503 L 237 -315.1322744772424 L 237 -315.1322744772426 L 238 -308.8071894722633 L 238 -308.80718947226353 L 239 -302.5057902862129 L 239 -302.50579028621326 L 240 -296.2280769190911 L 240 -296.22807691909145 L 241 -289.9740493708981 L 241 -289.97404937089846 L 242.00000000000006 -283.7437076416336 L 242.00000000000006 -283.74370764163393 L 243 -277.537051731298 L 243 -277.53705173129833 L 244 -271.35408163989086 L 244 -271.3540816398912 L 245 -265.1947973674123 L 245 -265.19479736741255 L 246 -259.0591989138625 L 246 -259.0591989138628 L 247 -252.9472862792411 L 247 -252.94728627924144 L 248 -246.85905946354865 L 248 -246.85905946354887 L 249.00000000000003 -240.79451846678455 L 249.00000000000003 -240.7945184667849 L 250.00000000000003 -234.75366328894927 L 250.00000000000003 -234.7536632889496 L 251.00000000000003 -228.73649393004257 L 251.00000000000003 -228.7364939300429 L 252 -222.7430103900648 L 252 -222.74301039006502 L 253 -216.77321266901538 L 253 -216.77321266901572 L 254 -210.82710076689455 L 254 -210.8271007668949 L 255 -204.90467468370252 L 255 -204.90467468370286 L 256 -199.00593441943897 L 256 -199.0059344194393 L 257 -193.13087997410423 L 257 -193.13087997410457 L 258 -187.2795113476982 L 258 -187.27951134769842 L 259 -181.4518285402205 L 259 -181.45182854022084 L 260 -175.64783155167174 L 260 -175.64783155167197 L 261 -169.86752038205134 L 261 -169.86752038205168 L 262 -164.11089503135997 L 262 -164.11089503136031 L 263 -158.37795549959708 L 263 -158.3779554995973 L 264 -152.66870178676265 L 264 -152.668701786763 L 265 -146.98313389285704 L 265 -146.98313389285738 L 266 -141.32125181788 L 266 -141.32125181788024 L 267 -135.68305556183168 L 267 -135.6830555618319 L 268 -130.06854512471193 L 268 -130.06854512471205 L 269 -124.47772050652077 L 269 -124.477720506521 L 270 -118.9105817072583 L 270 -118.91058170725853 L 271 -113.36712872692476 L 271 -113.36712872692488 L 272 -107.84736156551958 L 272 -107.84736156551969 L 273 -102.35128022304298 L 273 -102.3512802230432 L 274 -96.87888469949507 L 274 -96.8788846994953 L 275 -91.43017499487587 L 275 -91.4301749948761 L 276 -86.00515110918525 L 276 -86.00515110918536 L 277 -80.60381304242333 L 277 -80.60381304242344 L 278 -75.22616079458999 L 278 -75.2261607945901 L 279 -69.87219436568535 L 279 -69.87219436568546 L 280 -64.5419137557094 L 280 -64.54191375570963 L 281 -59.23531896466204 L 281 -59.235318964662156 L 282 -53.95240999254327 L 282 -53.952409992543494 L 283 -48.69318683935319 L 283 -48.6931868393533 L 284 -43.457649505091695 L 284 -43.45764950509181 L 285 -38.2457979897589 L 285 -38.24579798975901 L 286 -33.057632293354686 L 286 -33.0576322933548 L 287 -27.89315241587917 L 287 -27.893152415879285 L 288 -22.75235835733224 L 288 -22.752358357332355 L 289 -17.635250117714236 L 289 -17.63525011771435 L 290 -12.541827697024587 L 290 -12.541827697024814 L 291 -7.472091095263636 L 291 -7.47209109526375 L 292 -2.426040312431269 L 292 -2.426040312431496 L 293 2.5963246514724005 L 293 2.596324651472287 L 294 7.595003796447372 L 294 7.5950037964472585 L 295 12.569997122493874 L 295 12.569997122493646 L 296 17.521304629611564 L 296 17.52130462961145 L 297 22.448926317800726 L 297 22.448926317800556 L 298 27.35286218706102 L 298 27.35286218706085 L 299 32.23311223739279 L 299 32.233112237392675 L 300 37.08967646879603 L 300 37.089676468795915 L 301 41.92255488127057 L 301 41.9225548812704 L 302 46.73174747481647 L 302 46.73174747481636 L 303 51.51725424943373 L 303 51.51725424943356 L 304 56.2790752051223 L 304 56.27907520512218 L 305 61.01721034188233 L 305 61.01721034188216 L 306 65.73165965971361 L 306 65.7316596597135 L 307 70.42242315861614 L 307 70.42242315861603 L 308 75.08950083859014 L 308 75.08950083859003 L 309 79.73289269963561 L 309 79.73289269963544 L 310 84.35259874175233 L 310 84.35259874175222 L 311 88.94861896494047 L 311 88.9486189649403 L 312 93.52095336919996 L 312 93.52095336919984 L 313 98.06960195453081 L 313 98.06960195453064 L 314 102.59456472093296 L 314 102.5945647209328 L 315 107.09584166840654 L 315 107.09584166840642 L 316 111.57343279695147 L 316 111.5734327969513 L 317 116.0273381065677 L 317 116.02733810656753 L 318.00000000000006 120.45755759725529 L 318.00000000000006 120.45755759725512 L 319 124.86409126901407 L 319 124.86409126901395 L 320 129.2469391218445 L 320 129.24693912184432 L 321 133.60610115574616 L 321 133.606101155746 L 322 137.9415773707192 L 322 137.94157737071902 L 323 142.2533677667634 L 323 142.2533677667633 L 324 146.5414723438792 L 324 146.54147234387904 L 325 150.80589110206637 L 325 150.8058911020662 L 326 155.04662404132483 L 326 155.04662404132466 L 327 159.26367116165466 L 327 159.26367116165449 L 328 163.45703246305584 L 328 163.45703246305567 L 329 167.62670794552838 L 329 167.6267079455282 L 330 171.77269760907228 L 330 171.7726976090721 L 331 175.89500145368754 L 331 175.89500145368737 L 332 179.99361947937416 L 332 179.993619479374 L 333 184.0685516861322 L 333 184.06855168613203 L 334 188.11979807396153 L 334 188.11979807396136 L 335 192.14735864286223 L 335 192.14735864286206 L 336 196.15123339283411 L 336 196.15123339283406 L 337 200.13142232387747 L 337 200.13142232387742 L 338 204.08792543599225 L 338 204.08792543599213 L 339 208.02074272917832 L 339 208.02074272917827 L 340 211.92987420343582 L 340 211.92987420343576 L 341 215.81531985876467 L 341 215.8153198587646 L 342 219.67707969516476 L 342 219.6770796951647 L 343 223.51515371263633 L 343 223.51515371263628 L 344 227.32954191117926 L 344 227.32954191117915 L 345 231.1202442907935 L 345 231.12024429079344 L 346 234.88726085147908 L 346 234.88726085147897 L 347 238.63059159323603 L 347 238.63059159323598 L 348 242.3502365160644 L 348 242.35023651606434 L 349 246.04619561996412 L 349 246.046195619964 L 350 249.71846890493515 L 350 249.71846890493504 L 351 253.36705637097748 L 351 253.36705637097742 L 352 256.9919580180912 L 352 256.99195801809117 L 353 260.5931738462764 L 353 260.59317384627633 L 354 264.17070385553285 L 354 264.1707038555328 L 355 267.7245480458607 L 355 267.72454804586056 L 356 271.2547064172598 L 356 271.25470641725974 L 357 274.7611789697304 L 357 274.76117896973034 L 358 278.24396570327235 L 358 278.24396570327224 L 359 281.70306661788555 L 359 281.7030666178855 L 360 285.1384817135701 L 360 285.13848171357006 L 361 288.55021099032615 L 361 288.55021099032604 L 362 291.9382544481535 L 362 291.93825444815343 L 363 295.3026120870521 L 363 295.3026120870521 L 364 298.6432839070221 L 364 298.6432839070221 L 365 301.96026990806354 L 365 301.9602699080635 L 366 305.25357009017637 L 366 305.25357009017625 L 367 308.52318445336044 L 367 308.5231844533604 L 368 311.76911299761593 L 368 311.7691129976159 L 369 314.9913557229428 L 369 314.99135572294267 L 370 318.18991262934094 L 370 318.1899126293408 L 371 321.3647837168105 L 371 321.36478371681045 L 372 324.5159689853514 L 372 324.5159689853514 L 373 327.64346843496367 L 373 327.6434684349636 L 374 330.74728206564725 L 374 330.74728206564714 L 375 333.82740987740226 L 375 333.82740987740215 L 376 336.88385187022857 L 376 336.88385187022857 L 377 339.9166080441263 L 377 339.9166080441262 L 378 342.9256783990953 L 378 342.9256783990952 L 379 345.9110629351357 L 379 345.91106293513565 L 380 348.8727616522475 L 380 348.8727616522474 L 381 351.8107745504306 L 381 351.81077455043055 L 382 354.7251016296851 L 382 354.725101629685 L 383 357.6157428900109 L 383 357.6157428900108 L 384 360.4826983314081 L 384 360.482698331408 L 385 363.32596795387667 L 385 363.3259679538766 L 386 366.14555175741657 L 386 366.1455517574165 L 387 368.94144974202777 L 387 368.94144974202777 L 388 371.7136619077104 L 388 371.7136619077104 L 389 374.4621882544644 L 389 374.46218825446437 L 390 377.18702878228976 L 390 377.18702878228976 L 391 379.88818349118645 L 391 379.8881834911864 L 392 382.56565238115445 L 392 382.56565238115445 L 393 385.2194354521939 L 393 385.21943545219386 L 394 387.8495327043047 L 394 387.84953270430464 L 395 390.4559441374868 L 395 390.45594413748677 L 396 393.03866975174026 L 396 393.03866975174026 L 397 395.59770954706516 L 397 395.5977095470651 L 398 398.13306352346126 L 398 398.13306352346126 L 399 400.6447316809289 L 399 400.6447316809288 L 400 403.13271401946776 L 400 403.1327140194677 L 401 405.59701053907804 L 401 405.597010539078 L 402 408.0376212397597 L 402 408.03762123975963 L 403 410.45454612151264 L 403 410.45454612151264 L 404 412.847785184337 L 404 412.84778518433694 L 405 415.2173384282327 L 405 415.21733842823267 L 406 417.56320585319975 L 406 417.56320585319975 L 407 419.88538745923813 L 407 419.88538745923813 L 408 422.18388324634793 L 408 422.1838832463479 L 409 424.45869321452903 L 409 424.458693214529 L 410 426.7098173637815 L 410 426.7098173637815 L 411 428.9372556941054 L 411 428.9372556941054 L 412 431.1410082055006 L 412 431.14100820550055 L 413 433.32107489796715 L 413 433.32107489796715 L 414 435.4774557715051 L 414 435.47745577150505 L 415 437.61015082611436 L 415 437.6101508261143 L 416 439.719160061795 L 416 439.7191600617949 L 417 441.80448347854696 L 417 441.8044834785469 L 418 443.8661210763703 L 418 443.86612107637023 L 419 445.904072855265 L 419 445.9040728552649 L 420 447.91833881523104 L 420 447.918338815231 L 421 449.90891895626845 L 421 449.90891895626845 L 422 451.8758132783772 L 422 451.8758132783772 L 423 453.81902178155735 L 423 453.81902178155735 L 424 455.73854446580884 L 424 455.73854446580884 L 425 457.6343813311317 L 425 457.6343813311317 L 426 459.5065323775259 L 426 459.5065323775259 L 427 461.35499760499147 L 427 461.35499760499147 L 428 463.1797770135284 L 428 463.1797770135284 L 429 464.9808706031367 L 429 464.9808706031366 L 430 466.7582783738163 L 430 466.75827837381627 L 431 468.5120003255673 L 431 468.51200032556727 L 432 470.24203645838963 L 432 470.24203645838963 L 433 471.94838677228336 L 433 471.94838677228336 L 434 473.6310512672484 L 434 473.6310512672484 L 435 475.2900299432848 L 435 475.2900299432848 L 436 476.9253228003926 L 436 476.9253228003926 L 437 478.5369298385717 L 437 478.5369298385717 L 438 480.12485105782224 L 438 480.12485105782224 L 439 481.68908645814406 L 439 481.68908645814406 L 440 483.2296360395373 L 440 483.2296360395373 L 441 484.7464998020019 L 441 484.74649980200184 L 442 486.2396777455378 L 442 486.2396777455378 L 443 487.70916987014505 L 443 487.70916987014505 L 444 489.1549761758237 L 444 489.15497617582366 L 445 490.5770966625737 L 445 490.5770966625737 L 446 491.97553133039503 L 446 491.97553133039503 L 447 493.3502801792878 L 447 493.3502801792877 L 448 494.70134320925183 L 448 494.70134320925183 L 449 496.02872042028724 L 449 496.02872042028724 L 450 497.33241181239407 L 450 497.33241181239407 L 451 498.6124173855722 L 451 498.61241738557214 L 452 499.8687371398217 L 452 499.8687371398217 L 453 501.10137107514254 L 453 501.10137107514254 L 454 502.31031919153475 L 454 502.31031919153475 L 455 503.4955814889983 L 455 503.4955814889983 L 456 504.65715796753324 L 456 504.65715796753324 L 457 505.7950486271395 L 457 505.7950486271395 L 458 506.90925346781717 L 458 506.90925346781717 L 459 507.99977248956617 L 459 507.99977248956617 L 460 509.06660569238653 L 460 509.06660569238653 L 461 510.10975307627825 L 461 510.10975307627825 L 462 511.12921464124133 L 462 511.12921464124133 L 463 512.1249903872757 L 463 512.1249903872757 L 464 513.0970803143815 L 464 513.0970803143815 L 465 514.0454844225587 L 465 514.0454844225587 L 466 514.9702027118071 L 466 514.9702027118071 L 467 515.8712351821271 L 467 515.8712351821271 L 468 516.7485818335183 L 468 516.7485818335183 L 469 517.6022426659808 L 469 517.6022426659808 L 470 518.4322176795148 L 470 518.4322176795148 L 471 519.23850687412 L 471 519.23850687412 L 472 520.0211102497967 L 472 520.0211102497967 L 473 520.7800278065447 L 473 520.7800278065447 L 474 521.5152595443641 L 474 521.5152595443641 L 475 522.2268054632548 L 475 522.2268054632548 L 476 522.9146655632169 L 476 522.9146655632169 L 477 523.5788398442503 L 477 523.5788398442503 L 478 524.2193283063551 L 478 524.2193283063551 L 479 524.8361309495313 L 479 524.8361309495313 L 480 525.4292477737787 L 480 525.4292477737787 L 481 525.9986787790976 L 481 525.9986787790976 L 482 526.5444239654878 L 482 526.5444239654878 L 483 527.0664833329494 L 483 527.0664833329494 L 484 527.5648568814823 L 484 527.5648568814823 L 485 528.0395446110866 L 485 528.0395446110866 L 486 528.4905465217623 L 486 528.4905465217623 L 487 528.9178626135093 L 487 528.9178626135093 L 488 529.3214928863276 L 488 529.3214928863276 L 489 529.7014373402174 L 489 529.7014373402174 L 490 530.0576959751785 L 490 530.0576959751785 L 491 530.3902687912109 L 491 530.3902687912109 L 492 530.6991557883147 L 492 530.6991557883147 L 493 530.9843569664898 L 493 530.9843569664898 L 494 531.2458723257364 L 494 531.2458723257364 L 495 531.4837018660542 L 495 531.4837018660542 L 496 531.6978455874435 L 496 531.6978455874435 L 497 531.888303489904 L 497 531.888303489904 L 498 532.0550755734359 L 498 532.0550755734359 L 499 532.1981618380393 L 499 532.1981618380393 L 500 532.3175622837139 L 500 532.3175622837139 L 501 532.4132769104599 L 501 532.4132769104599 L 502 532.4853057182773 L 502 532.4853057182773 L 503 532.533648707166 L 503 532.533648707166 L 504 532.5583058771261 L 504 532.5583058771261 L 505 532.5617721974705 L 505 532.5592772281575 L 506 532.5365627602604 L 506 532.5365627602604 L 507 532.4901624734345 L 507 532.4901624734345 L 508 532.42007636768 L 508 532.42007636768 L 509 532.3263044429968 L 509 532.3263044429968 L 510 532.2088466993852 L 510 532.2088466993852 L 511 532.0677031368447 L 511 532.0677031368447 L 512 531.9028737553757 L 512 531.9028737553757 L 513 531.7143585549779 L 513 531.7143585549779 L 514 531.5021575356516 L 514 531.5021575356516 L 515 531.2662706973966 L 515 531.2662706973966 L 516 531.006698040213 L 516 531.006698040213 L 517 530.7234395641008 L 517 530.7234395641008 L 518 530.4164952690599 L 518 530.4164952690599 L 519 530.0858651550902 L 519 530.0858651550902 L 520 529.731549222192 L 520 529.731549222192 L 521 529.3535474703652 L 521 529.3535474703652 L 522 528.9518598996098 L 522 528.9518598996098 L 523 528.5264865099257 L 523 528.5264865099257 L 524 528.0774273013128 L 524 528.0774273013128 L 525 527.6046822737715 L 525 527.6046822737715 L 526 527.1082514273014 L 526 527.1082514273014 L 527 526.5881347619027 L 527 526.5881347619027 L 528 526.0443322775753 L 528 526.0443322775753 L 529 525.4768439743194 L 529 525.4768439743194 L 530 524.8856698521348 L 530 524.8856698521348 L 531 524.2708099110215 L 531 524.2708099110215 L 532 523.6322641509796 L 532 523.6322641509796 L 533 522.970032572009 L 533 522.970032572009 L 534 522.2841151741098 L 534 522.2841151741098 L 535 521.574511957282 L 535 521.5745119572821 L 536 520.8412229215255 L 536 520.8412229215255 L 537 520.0842480668405 L 537 520.0842480668405 L 538 519.3035873932266 L 538 519.3035873932266 L 539 518.4992409006843 L 539 518.4992409006843 L 540 517.6712085892132 L 540 517.6712085892132 L 541 516.8194904588136 L 541 516.8194904588136 L 542 515.9440865094851 L 542 515.9440865094851 L 543 515.0449967412283 L 543 515.0449967412283 L 544 514.1222211540426 L 544 514.1222211540426 L 545 513.1757597479283 L 545 513.1757597479283 L 546 512.2056125228854 L 546 512.2056125228854 L 547 511.21177947891385 L 547 511.2117794789139 L 548 510.1942606160137 L 548 510.1942606160137 L 549 509.15305593418486 L 549 509.15305593418486 L 550 508.0881654334274 L 550 508.0881654334274 L 551 506.9995891137413 L 551 506.9995891137413 L 552 505.8873269751265 L 552 505.88732697512654 L 553 504.75137901758313 L 553 504.75137901758313 L 554 503.5917452411111 L 554 503.5917452411111 L 555 502.4084256457104 L 555 502.4084256457104 L 556 501.20142023138106 L 556 501.20142023138106 L 557 499.9707289981231 L 557 499.9707289981231 L 558 498.7163519459365 L 558 498.7163519459365 L 559 497.4382890748212 L 559 497.4382890748212 L 560 496.13654038477733 L 560 496.13654038477733 L 561 494.8111058758048 L 561 494.8111058758048 L 562 493.4619855479036 L 562 493.4619855479036 L 563 492.08917940107375 L 563 492.0891794010738 L 564 490.6926874353153 L 564 490.6926874353153 L 565 489.2725096506282 L 565 489.2725096506282 L 566 487.82864604701246 L 566 487.82864604701246 L 567 486.361096624468 L 567 486.3610966244681 L 568 484.869861382995 L 568 484.869861382995 L 569 483.3549403225933 L 569 483.35494032259334 L 570 481.816333443263 L 570 481.81633344326303 L 571 480.25404074500403 L 571 480.25404074500403 L 572 478.6680622278164 L 572 478.66806222781645 L 573 477.05839789170017 L 573 477.05839789170017 L 574 475.42504773665524 L 574 475.42504773665524 L 575 473.76801176268174 L 575 473.76801176268174 L 576 472.08728996977953 L 576 472.0872899697796 L 577 470.38288235794874 L 577 470.38288235794874 L 578 468.65478892718926 L 578 468.65478892718926 L 579 466.90300967750113 L 579 466.9030096775012 L 580 465.1275446088844 L 580 465.1275446088844 L 581 463.328393721339 L 581 463.328393721339 L 582 461.50555701486496 L 582 461.50555701486496 L 583 459.6590344894623 L 583 459.65903448946233 L 584 457.788826145131 L 584 457.788826145131 L 585 455.894931981871 L 585 455.894931981871 L 586 453.9773519996824 L 586 453.9773519996824 L 587 452.03608619856516 L 587 452.03608619856516 L 588 450.07113457851926 L 588 450.07113457851926 L 589 448.0824971395447 L 589 448.0824971395448 L 590 446.07017388164155 L 590 446.0701738816416 L 591 444.03416480480973 L 591 444.03416480480973 L 592 441.9744699090493 L 592 441.9744699090493 L 593 439.8910891943602 L 593 439.89108919436023 L 594 437.78402266074244 L 594 437.7840226607425 L 595 435.65327030819606 L 595 435.65327030819606 L 596 433.498832136721 L 596 433.49883213672103 L 597 431.3207081463173 L 597 431.3207081463174 L 598 429.118898336985 L 598 429.11889833698507 L 599 426.89340270872407 L 599 426.8934027087241 L 600 424.6442212615344 L 600 424.6442212615345 L 601 422.3713539954162 L 601 422.37135399541626 L 602 420.07480091036933 L 602 420.0748009103694 L 603 417.7545620063938 L 603 417.7545620063938 L 604 415.4106372834896 L 604 415.4106372834897 L 605 413.04302674165683 L 605 413.04302674165683 L 606 410.65173038089534 L 606 410.6517303808954 L 607 408.2367482012053 L 607 408.2367482012053 L 608 405.7980802025865 L 608 405.79808020258656 L 609 403.33572638503915 L 609 403.33572638503915 L 610 400.8496867485631 L 610 400.84968674856316 L 611 398.33996129315847 L 611 398.33996129315847 L 612 395.80655001882513 L 612 395.8065500188252 L 613 393.24945292556316 L 613 393.2494529255632 L 614 390.66867001337255 L 614 390.6686700133726 L 615 388.0642012822533 L 615 388.06420128225335 L 616 385.43604673220545 L 616 385.4360467322055 L 617 382.7842063632289 L 617 382.784206363229 L 618 380.10868017532374 L 618 380.1086801753238 L 619 377.40946816849 L 619 377.40946816849 L 620 374.6865703427275 L 620 374.6865703427276 L 621 371.93998669803636 L 621 371.9399866980365 L 622 369.1697172344167 L 622 369.1697172344167 L 623 366.3757619518683 L 623 366.3757619518683 L 624 363.5581208503912 L 624 363.55812085039133 L 625 360.71679392998556 L 625 360.71679392998567 L 626 357.8517811906513 L 626 357.85178119065137 L 627 354.96308263238836 L 627 354.96308263238836 L 628 352.0506982551967 L 628 352.05069825519683 L 629 349.1146280590765 L 629 349.11462805907655 L 630 346.1548720440276 L 630 346.1548720440277 L 631 343.17143021005006 L 631 343.1714302100502 L 632 340.1643025571439 L 632 340.16430255714397 L 633 337.13348908530907 L 633 337.1334890853092 L 634 334.0789897945457 L 634 334.0789897945458 L 635 331.0008046848536 L 635 331.0008046848537 L 636 327.89893375623285 L 636 327.89893375623296 L 637 324.7733770086835 L 637 324.77337700868355 L 638 321.62413444220545 L 638 321.62413444220556 L 639 318.4512060567988 L 639 318.4512060567989 L 640 315.2545918524635 L 640 315.2545918524636 L 641 312.03429182919956 L 641 312.0342918291996 L 642 308.79030598700695 L 642 308.79030598700706 L 643 305.52263432588575 L 643 305.52263432588586 L 644 302.23127684583585 L 644 302.23127684583596 L 645 298.91623354685726 L 645 298.91623354685737 L 646 295.5775044289502 L 646 295.5775044289503 L 647 292.21508949211443 L 647 292.21508949211454 L 648 288.82898873634997 L 648 288.82898873635 L 649 285.41920216165687 L 649 285.4192021616569 L 650 281.9857297680351 L 650 281.9857297680352 L 651 278.52857155548475 L 651 278.5285715554848 L 652 275.0477275240057 L 652 275.0477275240058 L 653 271.543197673598 L 653 271.5431976735981 L 654 268.0149820042617 L 654 268.0149820042618 L 655 264.46308051599686 L 655 264.463080515997 L 656 260.88749320880333 L 656 260.8874932088034 L 657 257.28822008268105 L 657 257.2882200826811 L 658 253.66526113763013 L 658 253.66526113763024 L 659 250.01861637365062 L 659 250.01861637365073 L 660 246.34828579074247 L 660 246.34828579074252 L 661 242.65426938890567 L 661 242.65426938890573 L 662 238.9365671681402 L 662 238.93656716814024 L 663 235.1951791284461 L 663 235.19517912844617 L 664 231.4301052698235 L 664 231.43010526982357 L 665 227.6413455922721 L 665 227.64134559227222 L 666 223.8289000957921 L 666 223.82890009579216 L 667 219.99276878038341 L 667 219.99276878038353 L 668 216.13295164604614 L 668 216.1329516460462 L 669 212.24944869278016 L 669 212.24944869278022 L 670 208.34225992058555 L 670 208.3422599205856 L 671 204.41138532946235 L 671 204.4113853294624 L 672 200.45682491941045 L 672 200.4568249194105 L 673 196.47857869043008 L 673 196.47857869043014 L 674 192.47664664252085 L 674 192.47664664252102 L 675 188.45102877568308 L 675 188.45102877568326 L 676 184.40172508991657 L 676 184.40172508991674 L 677 180.32873558522152 L 677 180.3287355852217 L 678 176.23206026159778 L 678 176.2320602615979 L 679 172.1116991190454 L 679 172.11169911904557 L 680 167.96765215756437 L 680 167.9676521575645 L 681 163.7999193771547 L 681 163.79991937715488 L 682 159.60850077781652 L 682 159.6085007778167 L 683 155.39339635954963 L 683 155.39339635954974 L 684 151.15460612235398 L 684 151.15460612235415 L 685 146.8921300662298 L 685 146.89213006622992 L 686 142.60596819117688 L 686 142.605968191177 L 687 138.29612049719537 L 687 138.29612049719555 L 688 133.96258698428522 L 688 133.96258698428534 L 689 129.60536765244638 L 689 129.6053676524465 L 690 125.22446250167894 L 690 125.22446250167911 L 691 120.81987153198298 L 691 120.81987153198315 L 692 116.39159474335827 L 692 116.39159474335844 L 693 111.93963213580491 L 693 111.93963213580503 L 694 107.46398370932292 L 694 107.46398370932309 L 695 102.96464946391222 L 695 102.9646494639124 L 696 98.44162939957289 L 696 98.44162939957306 L 697 93.89492351630497 L 697 93.89492351630514 L 698 89.32453181410835 L 698 89.32453181410852 L 699 84.7304542929831 L 699 84.73045429298327 L 700 80.11269095292931 L 700 80.11269095292943 L 701 75.47124179394689 L 701 75.47124179394706 L 702 70.80610681603571 L 702 70.80610681603588 L 703 66.117286019196 L 703 66.11728601919611 L 704 61.40477940342754 L 704 61.40477940342765 L 705 56.66858696873038 L 705 56.66858696873055 L 706 51.90870871510475 L 706 51.908708715104865 L 707 47.12514464255031 L 707 47.12514464255048 L 708 42.317894751067286 L 708 42.317894751067456 L 709 37.48695904065562 L 709 37.48695904065579 L 710 32.63233751131554 L 710 32.63233751131571 L 711 27.754030163046593 L 711 27.754030163046707 L 712 22.852036995848948 L 712 22.85203699584912 L 713 17.926358009722776 L 713 17.92635800972289 L 714 12.976993204667792 L 714 12.97699320466802 L 715 8.003942580684338 L 715 8.003942580684566 L 716 3.0072061377721866 L 716 3.007206137772414 L 717 -2.013216124068549 L 717 -2.0132161240684354 L 718 -7.057324204838096 L 718 -7.057324204837869 L 719 -12.125118104535886 L 719 -12.125118104535773 L 720 -17.2165978231626 L 720 -17.216597823162488 L 721 -22.331763360718014 L 721 -22.3317633607179 L 722 -27.47061471720201 L 722 -27.470614717201897 L 723 -32.633151892614706 L 723 -32.63315189261459 L 724 -37.819374886955984 L 724 -37.81937488695587 L 725 -43.02928370022596 L 725 -43.02928370022585 L 726 -48.26287833242452 L 726 -48.26287833242441 L 727 -53.52015878355178 L 727 -53.520158783551665 L 728 -58.80112505360739 L 728 -58.80112505360728 L 729 -64.10577714259193 L 729 -64.10577714259182 L 730 -69.43411505050506 L 730 -69.43411505050494 L 731 -74.78613877734688 L 731 -74.78613877734676 L 732 -80.16184832311728 L 732 -80.16184832311717 L 733 -85.56124368781639 L 733 -85.56124368781627 L 734 -90.98432487144419 L 734 -90.98432487144396 L 735 -96.43109187400046 L 735 -96.43109187400034 L 736 -101.90154469548554 L 736 -101.90154469548531 L 737 -107.39568333589898 L 737 -107.39568333589887 L 738 -112.91350779524134 L 738 -112.91350779524112 L 739 -118.45501807351218 L 739 -118.45501807351206 L 740 -124.02021417071182 L 740 -124.0202141707116 L 741 -129.60909608684005 L 741 -129.60909608683983 L 742 -135.22166382189687 L 742 -135.22166382189675 L 743 -140.85791737588238 L 743 -140.85791737588227 L 744 -146.5178567487966 L 744 -146.51785674879625 L 745 -152.20148194063938 L 745 -152.20148194063904 L 746 -157.90879295141065 L 746 -157.9087929514103 L 747 -163.63978978111072 L 747 -163.63978978111038 L 748 -169.39447242973938 L 748 -169.39447242973915 L 749 -175.17284089729674 L 749 -175.1728408972965 L 750 -180.9748951837828 L 750 -180.97489518378245 L 751 -186.80063528919754 L 751 -186.8006352891972 L 752 -192.65006121354088 L 752 -192.65006121354054 L 753 -198.5231729568128 L 753 -198.52317295681246 L 754 -204.4199705190133 L 754 -204.41997051901296 L 755 -210.3404539001424 L 755 -210.34045390014205 L 756 -216.28462310020018 L 756 -216.28462310019995 L 757 -222.25247811918666 L 757 -222.25247811918643 L 758 -228.24401895710184 L 758 -228.2440189571015 L 759 -234.2592456139456 L 759 -234.25924561394527 L 760 -240.29815808971796 L 760 -240.29815808971773 L 761 -246.360756384419 L 761 -246.36075638441878 L 762 -252.44704049804886 L 762 -252.44704049804864 L 763 -258.5570104306072 L 763 -258.55701043060697 L 764 -264.6906661820939 L 764 -264.69066618209365 L 765 -270.8480077525097 L 765 -270.8480077525094 L 766 -277.0290351418539 L 766 -277.0290351418537 L 767 -283.2337483501269 L 767 -283.2337483501266 L 768 -289.4621473773284 L 768 -289.46214737732805 L 769 -295.71423222345857 L 769 -295.71423222345834 L 770 -301.99000288851755 L 770 -301.9900028885173 L 771 -308.289459372505 L 771 -308.2894593725048 L 772 -314.61260167542116 L 772 -314.6126016754208 L 773 -320.9594297972659 L 773 -320.95942979726567 L 774 -327.3299437380392 L 774 -327.3299437380389 L 775 -333.72414349774124 L 775 -333.7241434977409 L 776 -340.14202907637184 L 776 -340.1420290763716 L 777 -346.58360047393137 L 777 -346.583600473931 L 778 -353.04885769041937 L 778 -353.048857690419 L 779 -359.53780072583595 L 779 -359.5378007258356 L 780 -366.05042958018123 L 780 -366.0504295801809 L 781 -372.5867442534552 L 781 -372.586744253455 L 782 -379.14674474565777 L 782 -379.14674474565743 L 783 -385.7304310567888 L 783 -385.73043105678846 L 784 -392.33780318684865 L 784 -392.3378031868483 L 785 -398.9688611358371 L 785 -398.96886113583673 L 786 -405.6236049037542 L 786 -405.62360490375386 L 787 -412.3020344906 L 787 -412.3020344905998 L 788 -419.00414989637443 L 788 -419.0041498963741 L 789 -425.7299511210774 L 789 -425.7299511210772 L 790 -432.47943816470934 L 790 -432.479438164709 L 791 -439.2526110272696 L 791 -439.25261102726927 L 792 -446.04946970875835 L 792 -446.0494697087581 L 793 -452.870014209176 L 793 -452.8700142091757 L 794 -459.7142445285223 L 794 -459.71424452852193 L 795 -466.5821606667972 L 795 -466.582160666797 L 796 -473.47376262400076 L 796 -473.4737626240005 L 797 -480.389050400133 L 797 -480.38905040013265 L 798 -487.3280239951939 L 798 -487.3280239951936 L 799 -494.2906834091833 L 799 -494.2906834091831 L 800 -501.2770286421015 L 800 -501.2770286421011 L 801 -508.287059693948 L 801 -508.28705969394775 L 802 -515.3207765647234 L 802 -515.3207765647231 L 803 -522.3781792544274 L 803 -522.3781792544272 L 804 -529.4592677630602 L 804 -529.45926776306 L 805 -536.5640420906217 L 805 -536.5640420906212 L 806 -543.6925022371116 L 806 -543.6925022371112 L 807 -550.8446482025303 L 807 -550.8446482025298 L 808 -558.0204799868776 L 808 -558.0204799868771 L 809 -565.2199975901534 L 809 -565.2199975901532 L 810 -572.4432010123577 L 810 -572.4432010123575 L 811 -579.6900902534909 L 811 -579.6900902534907 L 812 -586.9606653135528 L 812 -586.9606653135526 L 813 -594.2549261925432 L 813 -594.2549261925429 L 814 -601.5728728904627 L 814 -601.5728728904622 L 815 -608.91450540731 L 815 -608.9145054073095 L 816 -616.2798237430865 L 816 -616.279823743086 L 817 -623.6688278977914 L 817 -623.6688278977912 L 818 -631.081517871425 L 818 -631.0815178714248 L 819 -638.5178936639876 L 819 -638.5178936639871 L 820 -645.9779552754784 L 820 -645.9779552754782 L 821 -653.4617027058981 L 821 -653.4617027058979 L 822 -660.9691359552463 L 822 -660.9691359552461 L 823 -668.5002550235234 L 823 -668.500255023523 L 824 -676.0550599107288 L 824 -676.0550599107286 L 825 -683.6335506168631 L 825 -683.6335506168629 L 826 -691.2357271419258 L 826 -691.2357271419256 L 827 -698.8615894859175 L 827 -698.8615894859171 L 828 -706.5111376488375 L 828 -706.5111376488372 L 829 -714.1843716306863 L 829 -714.1843716306861 L 830 -721.8812914314636 L 830 -721.8812914314634 L 831 -729.6018970511699 L 831 -729.6018970511697 L 832 -737.3461884898044 L 832 -737.3461884898041 L 833 -745.1141657473673 L 833 -745.1141657473671 L 834 -752.9058288238595 L 834 -752.905828823859 L 835 -760.7211777192798 L 835 -760.7211777192796 L 836 -768.5602124336293 L 836 -768.5602124336289 L 837 -776.4229329669071 L 837 -776.4229329669068 L 838 -784.3093393191137 L 838 -784.3093393191135 L 839 -792.2194314902489 L 839 -792.2194314902484 L 840 -800.1532094803127 L 840 -800.1532094803125 L 841 -808.110673289305 L 841 -808.1106732893048 L 842 -816.0918229172263 L 842 -816.0918229172261 L 843 -824.0966583640762 L 843 -824.0966583640756 L 844 -832.1251796298546 L 844 -832.1251796298542 L 845 -840.1773867145617 L 845 -840.1773867145611 L 846 -848.2532796181973 L 846 -848.2532796181969 L 847 -856.352858340762 L 847 -856.3528583407614 L 848 -864.4761228822548 L 848 -864.4761228822541 L 849 -872.6230732426765 L 849 -872.623073242676 L 850 -880.7937094220266 L 850 -880.7937094220259 L 851 -888.9880314203052 L 851 -888.9880314203045 L 852 -897.2060392375128 L 852 -897.2060392375121 L 853 -905.4477328736488 L 853 -905.4477328736483 L 854 -913.7131123287137 L 854 -913.7131123287132 L 855 -922.0021776027071 L 855 -922.0021776027064 L 856 -930.3149286956292 L 856 -930.3149286956287 L 857 -938.65136560748 L 857 -938.6513656074793 L 858 -947.0114883382595 L 858 -947.0114883382588 L 859 -955.3952968879674 L 859 -955.3952968879668 L 860 -963.8027912566041 L 860 -963.8027912566037 L 861 -972.2339714441695 L 861 -972.2339714441688 L 862 -980.6888374506635 L 862 -980.6888374506628 L 863 -989.1673892760863 L 863 -989.1673892760856 L 864 -997.6696269204375 L 864 -997.669626920437 L 865 -1006.1955503837174 L 865 -1006.1955503837167 L 866 -1014.745159665926 L 866 -1014.7451596659254 L 867 -1023.3184547670631 L 867 -1023.3184547670625 L 868 -1031.915435687129 L 868 -1031.9154356871281 L 869 -1040.5361024261233 L 869 -1040.5361024261229 L 870 -1049.1804549840458 L 870 -1049.1804549840454 L 871 -1057.8484933608975 L 871 -1057.848493360897 L 872 -1066.5402175566778 L 872 -1066.5402175566774 L 873 -1075.2556275713873 L 873 -1075.2556275713869 L 874 -1083.9947234050246 L 874 -1083.9947234050242 L 875 -1092.757505057591 L 875 -1092.7575050575906 L 876 -1101.5439725290862 L 876 -1101.5439725290857 L 877 -1110.3541258195096 L 877 -1110.3541258195091 L 878 -1119.1879649288621 L 878 -1119.1879649288617 L 879 -1128.045489857143 L 879 -1128.0454898571425 L 880 -1136.9267006043524 L 880 -1136.926700604352 L 881 -1145.831597170491 L 881 -1145.83159717049 L 882 -1154.760179555558 L 882 -1154.760179555557 L 883 -1163.712447759553 L 883 -1163.7124477595526 L 884 -1172.6884017824773 L 884 -1172.6884017824768 L 885 -1181.6880416243298 L 885 -1181.6880416243293 L 886 -1190.7113672851115 L 886 -1190.7113672851106 L 887 -1199.7583787648214 L 887 -1199.758378764821 L 888 -1208.8290760634595 L 888 -1208.8290760634586 L 889 -1217.9234591810268 L 889 -1217.9234591810264 L 890 -1227.0415281175228 L 890 -1227.0415281175224 L 891 -1236.1832828729475 L 891 -1236.1832828729466 L 892 -1245.3487234473005 L 892 -1245.3487234473 L 893 -1254.5378498405826 L 893 -1254.5378498405817 L 894 -1263.750662052793 L 894 -1263.7506620527924 L 895 -1272.9871600839324 L 895 -1272.987160083932 L 896 -1282.2473439340001 L 896 -1282.2473439339997 L 897 -1291.5312136029966 L 897 -1291.531213602996 L 898 -1300.8387690909217 L 898 -1300.8387690909212 L 899 -1310.1700103977755 L 899 -1310.1700103977746 L 900 -1319.5249375235576 L 900 -1319.5249375235571 L 901 -1328.9035504682688 L 901 -1328.9035504682683 L 902 -1338.3058492319087 L 902 -1338.3058492319083 L 903 -1347.7318338144769 L 903 -1347.7318338144764 L 904 -1357.1815042159737 L 904 -1357.1815042159733 L 905 -1366.6548604363998 L 905 -1366.6548604363993 L 906 -1376.151902475753 L 906 -1376.1519024757526 L 907 -1385.672630334036 L 907 -1385.6726303340356 L 908 -1395.2170440112477 L 908 -1395.2170440112473 L 909 -1404.7851435073876 L 909 -1404.7851435073871 L 910 -1414.3769288224566 L 910 -1414.3769288224562 L 911 -1423.992399956454 L 911 -1423.9923999564535 L 912 -1433.63155690938 L 912 -1433.6315569093795 L 913 -1443.294399681235 L 913 -1443.2943996812346 L 914 -1452.9809282720184 L 914 -1452.980928272018 L 915 -1462.6911426817305 L 915 -1462.6911426817296 L 916 -1472.4250429103708 L 916 -1472.4250429103704 L 917 -1482.1826289579403 L 917 -1482.1826289579399 L 918 -1491.9639008244385 L 918 -1491.963900824438 L 919 -1501.768858509865 L 919 -1501.7688585098645 L 920 -1511.59750201422 L 920 -1511.5975020142196 L 921 -1521.4498313375043 L 921 -1521.4498313375038 L 922 -1531.3258464797168 L 922 -1531.3258464797163 L 923 -1541.225547440858 L 923 -1541.2255474408576 L 924 -1551.148934220928 L 924 -1551.148934220927 L 925 -1561.0960068199256 L 925 -1561.0960068199247 L 926 -1571.0667652378525 L 926 -1571.066765237852 L 927 -1581.0612094747084 L 927 -1581.061209474708 L 928 -1591.0793395304931 L 928 -1591.0793395304922 L 929 -1601.1211554052056 L 929 -1601.1211554052052 L 930 -1611.1866570988477 L 930 -1611.1866570988468 L 931 -1621.275844611418 L 931 -1621.2758446114176 L 932 -1631.388717942917 L 932 -1631.3887179429162 L 933 -1641.5252770933444 L 933 -1641.525277093344 L 934 -1651.6855220627008 L 934 -1651.6855220626999 L 935 -1661.869452850986 L 935 -1661.869452850985 L 936 -1672.0770694581993 L 936 -1672.0770694581988 L 937 -1682.3083718843413 L 937 -1682.3083718843409 L 938 -1692.5633601294126 L 938 -1692.5633601294116 L 939 -1702.8420341934116 L 939 -1702.842034193411 L 940 -1713.1443940763397 L 940 -1713.1443940763393 L 941 -1723.4704397781966 L 941 -1723.4704397781961 L 942 -1733.8201712989821 L 942 -1733.8201712989817 L 943 -1744.1935886386955 L 943 -1744.1935886386946 L 944 -1754.590691797338 L 944 -1754.5906917973375 L 945 -1765.0114807749092 L 945 -1765.0114807749087 L 946 -1775.455955571409 L 946 -1775.4559555714086 L 947 -1785.9241161868376 L 947 -1785.9241161868372 L 948 -1796.415962621195 L 948 -1796.4159626211945 L 949 -1806.931494874481 L 949 -1806.9314948744804 L 950 -1817.4707129466956 L 950 -1817.4707129466951 L 951 -1828.0336168378385 L 951 -1828.033616837838 L 952 -1838.6202065479106" stroke-opacity="0.6980392156862745" stroke-linecap="round" stroke-linejoin="round" stroke-miterlimit="10" stroke-width="2.5"/><g transform="scale(19,19)"><g transform="translate(16.94736842105263,2.9163235789473685)"><path fill="rgb(0,100,0)" stroke="none" paint-order="stroke fill markers" d=" M 0.367 -0.4 L 0.367 -0.4 L 0.307 -0.083 Q 0.298 -0.021 0.271 0.059000000000000004 Q 0.261 0.088 0.251 0.108 Q 0.216 0.182 0.164 0.2 Q 0.151 0.20500000000000002 0.138 0.20500000000000002 Q 0.088 0.20500000000000002 0.064 0.171 Q 0.053 0.156 0.053 0.136 Q 0.053 0.096 0.08700000000000001 0.081 Q 0.097 0.076 0.108 0.076 Q 0.137 0.076 0.14400000000000002 0.101 Q 0.145 0.106 0.145 0.111 Q 0.145 0.145 0.115 0.159 Q 0.10400000000000001 0.164 0.09 0.165 Q 0.109 0.183 0.138 0.183 Q 0.182 0.183 0.20700000000000002 0.085 Q 0.212 0.062 0.219 0.025 L 0.225 -0.005 L 0.3 -0.4 L 0.234 -0.4 Q 0.209 -0.4 0.20700000000000002 -0.40800000000000003 L 0.20600000000000002 -0.40800000000000003 L 0.20600000000000002 -0.41200000000000003 Q 0.20600000000000002 -0.429 0.223 -0.431 L 0.223 -0.431 L 0.23600000000000002 -0.431 L 0.305 -0.431 Q 0.329 -0.556 0.338 -0.588 Q 0.368 -0.6880000000000001 0.444 -0.7030000000000001 Q 0.455 -0.705 0.465 -0.705 Q 0.517 -0.705 0.541 -0.671 L 0.541 -0.671 Q 0.552 -0.656 0.552 -0.636 Q 0.552 -0.596 0.518 -0.581 Q 0.508 -0.5760000000000001 0.497 -0.5760000000000001 Q 0.468 -0.5760000000000001 0.461 -0.601 Q 0.46 -0.606 0.46 -0.611 Q 0.46 -0.642 0.488 -0.657 Q 0.499 -0.664 0.514 -0.665 Q 0.495 -0.683 0.465 -0.683 Q 0.434 -0.683 0.418 -0.649 Q 0.41100000000000003 -0.635 0.394 -0.545 L 0.373 -0.431 L 0.456 -0.431 Q 0.481 -0.431 0.483 -0.42 Q 0.483 -0.402 0.467 -0.4 L 0.466 -0.4 L 0.453 -0.4 L 0.367 -0.4 Z"/></g><g transform="translate(17.54536842105263,2.9163235789473685)"><path fill="rgb(0,100,0)" stroke="none" paint-order="stroke fill markers" d=" M 0.331 0.24 L 0.331 0.24 Q 0.331 0.25 0.321 0.25 Q 0.309 0.25 0.268 0.209 Q 0.20600000000000002 0.147 0.165 0.062 Q 0.099 -0.074 0.099 -0.25 Q 0.099 -0.419 0.162 -0.555 Q 0.214 -0.666 0.294 -0.733 Q 0.315 -0.75 0.321 -0.75 Q 0.331 -0.75 0.331 -0.74 Q 0.331 -0.735 0.318 -0.723 Q 0.157 -0.559 0.157 -0.25 Q 0.157 0.058 0.314 0.218 Q 0.331 0.23500000000000001 0.331 0.24 Z"/></g><g transform="translate(17.93436842105263,2.9163235789473685)"><path fill="rgb(0,100,0)" stroke="none" paint-order="stroke fill markers" d=" M 0.334 -0.302 L 0.3 -0.165 Q 0.28300000000000003 -0.097 0.28300000000000003 -0.077 Q 0.28300000000000003 -0.025 0.32 -0.014 Q 0.328 -0.011 0.338 -0.011 Q 0.388 -0.011 0.429 -0.061 Q 0.456 -0.093 0.47100000000000003 -0.14200000000000002 Q 0.47400000000000003 -0.153 0.484 -0.153 Q 0.496 -0.153 0.496 -0.14300000000000002 Q 0.496 -0.11800000000000001 0.465 -0.07100000000000001 Q 0.41100000000000003 0.011 0.336 0.011 Q 0.268 0.011 0.23700000000000002 -0.046 Q 0.231 -0.055 0.228 -0.065 Q 0.20400000000000001 -0.017 0.162 0.002 Q 0.14300000000000002 0.011 0.123 0.011 Q 0.063 0.011 0.039 -0.024 Q 0.029 -0.037 0.029 -0.055 Q 0.029 -0.092 0.061 -0.107 Q 0.07200000000000001 -0.113 0.084 -0.113 Q 0.114 -0.113 0.12 -0.088 Q 0.121 -0.083 0.121 -0.078 Q 0.121 -0.044 0.08700000000000001 -0.028 Q 0.081 -0.025 0.074 -0.024 Q 0.095 -0.011 0.124 -0.011 Q 0.177 -0.011 0.20800000000000002 -0.082 Q 0.214 -0.097 0.219 -0.115 Q 0.273 -0.319 0.273 -0.353 Q 0.267 -0.41500000000000004 0.219 -0.42 Q 0.167 -0.42 0.124 -0.367 L 0.124 -0.366 Q 0.124 -0.365 0.123 -0.365 Q 0.108 -0.34500000000000003 0.096 -0.319 Q 0.091 -0.307 0.08700000000000001 -0.295 L 0.085 -0.289 Q 0.083 -0.278 0.07200000000000001 -0.278 Q 0.06 -0.278 0.06 -0.28800000000000003 Q 0.06 -0.313 0.092 -0.36 Q 0.146 -0.442 0.221 -0.442 Q 0.298 -0.442 0.329 -0.366 Q 0.361 -0.428 0.41400000000000003 -0.44 Q 0.424 -0.442 0.434 -0.442 Q 0.493 -0.442 0.517 -0.40900000000000003 Q 0.527 -0.395 0.527 -0.376 Q 0.527 -0.335 0.49 -0.321 Q 0.481 -0.318 0.47300000000000003 -0.318 Q 0.442 -0.318 0.436 -0.34500000000000003 Q 0.435 -0.34900000000000003 0.435 -0.353 Q 0.435 -0.383 0.464 -0.4 Q 0.47300000000000003 -0.405 0.483 -0.40700000000000003 Q 0.462 -0.42 0.433 -0.42 Q 0.365 -0.42 0.337 -0.314 Q 0.335 -0.308 0.334 -0.302 Z"/></g><g transform="translate(18.506368421052628,2.9163235789473685)"><path fill="rgb(0,100,0)" stroke="none" paint-order="stroke fill markers" d=" M 0.289 -0.25 L 0.289 -0.25 Q 0.289 -0.081 0.226 0.055 Q 0.17400000000000002 0.166 0.094 0.233 Q 0.073 0.25 0.067 0.25 Q 0.057 0.25 0.057 0.24 Q 0.057 0.23500000000000001 0.07 0.223 Q 0.231 0.059000000000000004 0.231 -0.25 Q 0.231 -0.555 0.081 -0.712 L 0.076 -0.717 Q 0.057 -0.735 0.057 -0.74 Q 0.057 -0.75 0.067 -0.75 Q 0.079 -0.75 0.12 -0.709 Q 0.182 -0.647 0.223 -0.562 Q 0.289 -0.426 0.289 -0.25 Z"/></g><g transform="translate(19.450923976608184,2.9163235789473685)"><path fill="rgb(0,100,0)" stroke="none" paint-order="stroke fill markers" d=" M 0.687 -0.327 L 0.09 -0.327 Q 0.058 -0.327 0.056 -0.34700000000000003 Q 0.056 -0.367 0.089 -0.367 L 0.6880000000000001 -0.367 Q 0.72 -0.367 0.721 -0.34700000000000003 Q 0.721 -0.327 0.687 -0.327 M 0.6880000000000001 -0.133 L 0.089 -0.133 Q 0.057 -0.133 0.056 -0.153 Q 0.056 -0.17300000000000001 0.09 -0.17300000000000001 L 0.687 -0.17300000000000001 Q 0.719 -0.17300000000000001 0.721 -0.153 Q 0.721 -0.133 0.6880000000000001 -0.133 Z"/></g><g transform="translate(20.78447953216374,2.9163235789473685)"><path fill="rgb(0,100,0)" stroke="none" paint-order="stroke fill markers" d=" M 0.334 -0.302 L 0.3 -0.165 Q 0.28300000000000003 -0.097 0.28300000000000003 -0.077 Q 0.28300000000000003 -0.025 0.32 -0.014 Q 0.328 -0.011 0.338 -0.011 Q 0.388 -0.011 0.429 -0.061 Q 0.456 -0.093 0.47100000000000003 -0.14200000000000002 Q 0.47400000000000003 -0.153 0.484 -0.153 Q 0.496 -0.153 0.496 -0.14300000000000002 Q 0.496 -0.11800000000000001 0.465 -0.07100000000000001 Q 0.41100000000000003 0.011 0.336 0.011 Q 0.268 0.011 0.23700000000000002 -0.046 Q 0.231 -0.055 0.228 -0.065 Q 0.20400000000000001 -0.017 0.162 0.002 Q 0.14300000000000002 0.011 0.123 0.011 Q 0.063 0.011 0.039 -0.024 Q 0.029 -0.037 0.029 -0.055 Q 0.029 -0.092 0.061 -0.107 Q 0.07200000000000001 -0.113 0.084 -0.113 Q 0.114 -0.113 0.12 -0.088 Q 0.121 -0.083 0.121 -0.078 Q 0.121 -0.044 0.08700000000000001 -0.028 Q 0.081 -0.025 0.074 -0.024 Q 0.095 -0.011 0.124 -0.011 Q 0.177 -0.011 0.20800000000000002 -0.082 Q 0.214 -0.097 0.219 -0.115 Q 0.273 -0.319 0.273 -0.353 Q 0.267 -0.41500000000000004 0.219 -0.42 Q 0.167 -0.42 0.124 -0.367 L 0.124 -0.366 Q 0.124 -0.365 0.123 -0.365 Q 0.108 -0.34500000000000003 0.096 -0.319 Q 0.091 -0.307 0.08700000000000001 -0.295 L 0.085 -0.289 Q 0.083 -0.278 0.07200000000000001 -0.278 Q 0.06 -0.278 0.06 -0.28800000000000003 Q 0.06 -0.313 0.092 -0.36 Q 0.146 -0.442 0.221 -0.442 Q 0.298 -0.442 0.329 -0.366 Q 0.361 -0.428 0.41400000000000003 -0.44 Q 0.424 -0.442 0.434 -0.442 Q 0.493 -0.442 0.517 -0.40900000000000003 Q 0.527 -0.395 0.527 -0.376 Q 0.527 -0.335 0.49 -0.321 Q 0.481 -0.318 0.47300000000000003 -0.318 Q 0.442 -0.318 0.436 -0.34500000000000003 Q 0.435 -0.34900000000000003 0.435 -0.353 Q 0.435 -0.383 0.464 -0.4 Q 0.47300000000000003 -0.405 0.483 -0.40700000000000003 Q 0.462 -0.42 0.433 -0.42 Q 0.365 -0.42 0.337 -0.314 Q 0.335 -0.308 0.334 -0.302 Z"/></g><g transform="translate(21.35647953216374,2.5034315789473687) scale(0.7,0.7)"><path fill="rgb(0,100,0)" stroke="none" paint-order="stroke fill markers" d=" M 0.449 -0.17400000000000002 L 0.449 -0.17400000000000002 L 0.421 0 L 0.05 0 Q 0.05 -0.025 0.056 -0.032 L 0.061 -0.037 L 0.253 -0.251 Q 0.358 -0.369 0.358 -0.47200000000000003 Q 0.358 -0.561 0.304 -0.607 L 0.303 -0.608 L 0.302 -0.608 Q 0.27 -0.635 0.224 -0.635 Q 0.152 -0.635 0.109 -0.5730000000000001 Q 0.097 -0.555 0.089 -0.533 Q 0.092 -0.534 0.10200000000000001 -0.534 Q 0.14200000000000002 -0.534 0.153 -0.498 L 0.153 -0.497 Q 0.155 -0.49 0.155 -0.482 Q 0.155 -0.442 0.117 -0.431 Q 0.109 -0.429 0.10300000000000001 -0.429 Q 0.066 -0.429 0.054 -0.46 Q 0.05 -0.47100000000000003 0.05 -0.485 Q 0.05 -0.562 0.109 -0.617 Q 0.162 -0.666 0.23700000000000002 -0.666 Q 0.34700000000000003 -0.666 0.40800000000000003 -0.592 Q 0.443 -0.549 0.448 -0.49 Q 0.449 -0.481 0.449 -0.47200000000000003 Q 0.449 -0.399 0.394 -0.333 Q 0.365 -0.299 0.304 -0.243 L 0.243 -0.189 L 0.233 -0.18 L 0.127 -0.077 L 0.307 -0.077 Q 0.395 -0.077 0.402 -0.085 Q 0.41200000000000003 -0.099 0.424 -0.17400000000000002 L 0.449 -0.17400000000000002 Z"/></g></g><path fill="none" stroke="rgb(102,102,102)" paint-order="fill stroke markers" d=" M 673.4184301832685 194.80693145916473 L 673.4184301832685 532.5617721974705" stroke-opacity="0.6980392156862745" stroke-linejoin="round" stroke-miterlimit="10" stroke-width="2.5" stroke-dasharray="6.5,4"/><path fill="none" stroke="rgb(102,102,102)" paint-order="fill stroke markers" d=" M 673.4184301832685 194.80693145916473 L 335.663589444963 194.80693145916473" stroke-opacity="0.6980392156862745" stroke-linejoin="round" stroke-miterlimit="10" stroke-width="2.5" stroke-dasharray="6.5,4"/><path fill="none" stroke="rgb(102,102,102)" paint-order="fill stroke markers" d=" M 335.663589444963 194.80693145916473 L 335.663589444963 532.5617721974705" stroke-opacity="0.6980392156862745" stroke-linejoin="round" stroke-miterlimit="10" stroke-width="2.5" stroke-dasharray="6.5,4"/><path fill="none" stroke="rgb(102,102,102)" paint-order="fill stroke markers" d=" M 420.1022996295394 448.1230620128941 L 420.1022996295394 532.5617721974705" stroke-opacity="0.6980392156862745" stroke-linejoin="round" stroke-miterlimit="10" stroke-width="2.5" stroke-dasharray="6.5,4"/><path fill="none" stroke="rgb(102,102,102)" paint-order="fill stroke markers" d=" M 420.1022996295394 448.1230620128941 L 588.9797199986921 448.1230620128941" stroke-opacity="0.6980392156862745" stroke-linejoin="round" stroke-miterlimit="10" stroke-width="2.5" stroke-dasharray="6.5,4"/><path fill="none" stroke="rgb(102,102,102)" paint-order="fill stroke markers" d=" M 588.9797199986921 448.1230620128941 L 588.9797199986921 532.5617721974705" stroke-opacity="0.6980392156862745" stroke-linejoin="round" stroke-miterlimit="10" stroke-width="2.5" stroke-dasharray="6.5,4"/><path fill="rgb(153,51,255)" stroke="none" paint-order="stroke fill markers" d=" M 425.1022996295394 448.1230620128941 C 425.1022996295394 450.88448576204803 422.86372337869335 453.1230620128941 420.1022996295394 453.1230620128941 C 417.34087588038545 453.1230620128941 415.1022996295394 450.88448576204803 415.1022996295394 448.1230620128941 C 415.1022996295394 445.36163826374013 417.34087588038545 443.1230620128941 420.1022996295394 443.1230620128941 C 422.86372337869335 443.1230620128941 425.1022996295394 445.36163826374013 425.1022996295394 448.1230620128941 Z" fill-opacity="1"/><path fill="none" stroke="rgb(0,0,0)" paint-order="fill stroke markers" d=" M 425.1022996295394 448.1230620128941 C 425.1022996295394 450.88448576204803 422.86372337869335 453.1230620128941 420.1022996295394 453.1230620128941 C 417.34087588038545 453.1230620128941 415.1022996295394 450.88448576204803 415.1022996295394 448.1230620128941 C 415.1022996295394 445.36163826374013 417.34087588038545 443.1230620128941 420.1022996295394 443.1230620128941 C 422.86372337869335 443.1230620128941 425.1022996295394 445.36163826374013 425.1022996295394 448.1230620128941 Z" stroke-opacity="1" stroke-linecap="round" stroke-linejoin="round" stroke-miterlimit="10"/><path fill="rgb(153,51,255)" stroke="none" paint-order="stroke fill markers" d=" M 593.9797199986921 448.1230620128941 C 593.9797199986921 450.88448576204803 591.7411437478461 453.1230620128941 588.9797199986921 453.1230620128941 C 586.2182962495381 453.1230620128941 583.9797199986921 450.88448576204803 583.9797199986921 448.1230620128941 C 583.9797199986921 445.36163826374013 586.2182962495381 443.1230620128941 588.9797199986921 443.1230620128941 C 591.7411437478461 443.1230620128941 593.9797199986921 445.36163826374013 593.9797199986921 448.1230620128941 Z" fill-opacity="1"/><path fill="none" stroke="rgb(0,0,0)" paint-order="fill stroke markers" d=" M 593.9797199986921 448.1230620128941 C 593.9797199986921 450.88448576204803 591.7411437478461 453.1230620128941 588.9797199986921 453.1230620128941 C 586.2182962495381 453.1230620128941 583.9797199986921 450.88448576204803 583.9797199986921 448.1230620128941 C 583.9797199986921 445.36163826374013 586.2182962495381 443.1230620128941 588.9797199986921 443.1230620128941 C 591.7411437478461 443.1230620128941 593.9797199986921 445.36163826374013 593.9797199986921 448.1230620128941 Z" stroke-opacity="1" stroke-linecap="round" stroke-linejoin="round" stroke-miterlimit="10"/><path fill="rgb(153,51,255)" stroke="none" paint-order="stroke fill markers" d=" M 678.4184301832685 194.80693145916473 C 678.4184301832685 197.5683552083187 676.1798539324225 199.80693145916473 673.4184301832685 199.80693145916473 C 670.6570064341145 199.80693145916473 668.4184301832685 197.5683552083187 668.4184301832685 194.80693145916473 C 668.4184301832685 192.04550771001075 670.6570064341145 189.80693145916473 673.4184301832685 189.80693145916473 C 676.1798539324225 189.80693145916473 678.4184301832685 192.04550771001075 678.4184301832685 194.80693145916473 Z" fill-opacity="1"/><path fill="none" stroke="rgb(0,0,0)" paint-order="fill stroke markers" d=" M 678.4184301832685 194.80693145916473 C 678.4184301832685 197.5683552083187 676.1798539324225 199.80693145916473 673.4184301832685 199.80693145916473 C 670.6570064341145 199.80693145916473 668.4184301832685 197.5683552083187 668.4184301832685 194.80693145916473 C 668.4184301832685 192.04550771001075 670.6570064341145 189.80693145916473 673.4184301832685 189.80693145916473 C 676.1798539324225 189.80693145916473 678.4184301832685 192.04550771001075 678.4184301832685 194.80693145916473 Z" stroke-opacity="1" stroke-linecap="round" stroke-linejoin="round" stroke-miterlimit="10"/><text fill="rgb(153,51,255)" stroke="none" font-family="geogebra-sans-serif, sans-serif" font-size="16px" font-style="normal" font-weight="normal" text-decoration="normal" x="705" y="191" text-anchor="start" dominant-baseline="alphabetic" fill-opacity="1">P = (2, 4)</text><text fill="none" stroke="rgb(255,255,255)" font-family="geogebra-sans-serif, sans-serif" font-size="16px" font-style="normal" font-weight="normal" text-decoration="normal" x="705" y="191" text-anchor="start" dominant-baseline="alphabetic" stroke-opacity="1" stroke-linejoin="bevel" stroke-miterlimit="10" stroke-width="3">P = (2, 4)</text><text fill="rgb(153,51,255)" stroke="none" font-family="geogebra-sans-serif, sans-serif" font-size="16px" font-style="normal" font-weight="normal" text-decoration="normal" x="705" y="191" text-anchor="start" dominant-baseline="alphabetic" fill-opacity="1">P = (2, 4)</text><path fill="rgb(153,51,255)" stroke="none" paint-order="stroke fill markers" d=" M 340.663589444963 194.80693145916473 C 340.663589444963 197.5683552083187 338.42501319411696 199.80693145916473 335.663589444963 199.80693145916473 C 332.90216569580906 199.80693145916473 330.663589444963 197.5683552083187 330.663589444963 194.80693145916473 C 330.663589444963 192.04550771001075 332.90216569580906 189.80693145916473 335.663589444963 189.80693145916473 C 338.42501319411696 189.80693145916473 340.663589444963 192.04550771001075 340.663589444963 194.80693145916473 Z" fill-opacity="1"/><path fill="none" stroke="rgb(0,0,0)" paint-order="fill stroke markers" d=" M 340.663589444963 194.80693145916473 C 340.663589444963 197.5683552083187 338.42501319411696 199.80693145916473 335.663589444963 199.80693145916473 C 332.90216569580906 199.80693145916473 330.663589444963 197.5683552083187 330.663589444963 194.80693145916473 C 330.663589444963 192.04550771001075 332.90216569580906 189.80693145916473 335.663589444963 189.80693145916473 C 338.42501319411696 189.80693145916473 340.663589444963 192.04550771001075 340.663589444963 194.80693145916473 Z" stroke-opacity="1" stroke-linecap="round" stroke-linejoin="round" stroke-miterlimit="10"/><path fill="rgb(153,51,255)" stroke="none" paint-order="stroke fill markers" d=" M 678.4184301832685 532.5617721974705 C 678.4184301832685 535.3231959466245 676.1798539324225 537.5617721974705 673.4184301832685 537.5617721974705 C 670.6570064341145 537.5617721974705 668.4184301832685 535.3231959466245 668.4184301832685 532.5617721974705 C 668.4184301832685 529.8003484483165 670.6570064341145 527.5617721974705 673.4184301832685 527.5617721974705 C 676.1798539324225 527.5617721974705 678.4184301832685 529.8003484483165 678.4184301832685 532.5617721974705 Z" fill-opacity="1"/><path fill="none" stroke="rgb(0,0,0)" paint-order="fill stroke markers" d=" M 678.4184301832685 532.5617721974705 C 678.4184301832685 535.3231959466245 676.1798539324225 537.5617721974705 673.4184301832685 537.5617721974705 C 670.6570064341145 537.5617721974705 668.4184301832685 535.3231959466245 668.4184301832685 532.5617721974705 C 668.4184301832685 529.8003484483165 670.6570064341145 527.5617721974705 673.4184301832685 527.5617721974705 C 676.1798539324225 527.5617721974705 678.4184301832685 529.8003484483165 678.4184301832685 532.5617721974705 Z" stroke-opacity="1" stroke-linecap="round" stroke-linejoin="round" stroke-miterlimit="10"/><path fill="rgb(153,51,255)" stroke="none" paint-order="stroke fill markers" d=" M 340.663589444963 532.5617721974705 C 340.663589444963 535.3231959466245 338.42501319411696 537.5617721974705 335.663589444963 537.5617721974705 C 332.90216569580906 537.5617721974705 330.663589444963 535.3231959466245 330.663589444963 532.5617721974705 C 330.663589444963 529.8003484483165 332.90216569580906 527.5617721974705 335.663589444963 527.5617721974705 C 338.42501319411696 527.5617721974705 340.663589444963 529.8003484483165 340.663589444963 532.5617721974705 Z" fill-opacity="1"/><path fill="none" stroke="rgb(0,0,0)" paint-order="fill stroke markers" d=" M 340.663589444963 532.5617721974705 C 340.663589444963 535.3231959466245 338.42501319411696 537.5617721974705 335.663589444963 537.5617721974705 C 332.90216569580906 537.5617721974705 330.663589444963 535.3231959466245 330.663589444963 532.5617721974705 C 330.663589444963 529.8003484483165 332.90216569580906 527.5617721974705 335.663589444963 527.5617721974705 C 338.42501319411696 527.5617721974705 340.663589444963 529.8003484483165 340.663589444963 532.5617721974705 Z" stroke-opacity="1" stroke-linecap="round" stroke-linejoin="round" stroke-miterlimit="10"/><path fill="rgb(153,51,255)" stroke="none" paint-order="stroke fill markers" d=" M 425.1022996295394 532.5617721974705 C 425.1022996295394 535.3231959466245 422.86372337869335 537.5617721974705 420.1022996295394 537.5617721974705 C 417.34087588038545 537.5617721974705 415.1022996295394 535.3231959466245 415.1022996295394 532.5617721974705 C 415.1022996295394 529.8003484483165 417.34087588038545 527.5617721974705 420.1022996295394 527.5617721974705 C 422.86372337869335 527.5617721974705 425.1022996295394 529.8003484483165 425.1022996295394 532.5617721974705 Z" fill-opacity="1"/><path fill="none" stroke="rgb(0,0,0)" paint-order="fill stroke markers" d=" M 425.1022996295394 532.5617721974705 C 425.1022996295394 535.3231959466245 422.86372337869335 537.5617721974705 420.1022996295394 537.5617721974705 C 417.34087588038545 537.5617721974705 415.1022996295394 535.3231959466245 415.1022996295394 532.5617721974705 C 415.1022996295394 529.8003484483165 417.34087588038545 527.5617721974705 420.1022996295394 527.5617721974705 C 422.86372337869335 527.5617721974705 425.1022996295394 529.8003484483165 425.1022996295394 532.5617721974705 Z" stroke-opacity="1" stroke-linecap="round" stroke-linejoin="round" stroke-miterlimit="10"/><path fill="rgb(153,51,255)" stroke="none" paint-order="stroke fill markers" d=" M 593.9797199986921 532.5617721974705 C 593.9797199986921 535.3231959466245 591.7411437478461 537.5617721974705 588.9797199986921 537.5617721974705 C 586.2182962495381 537.5617721974705 583.9797199986921 535.3231959466245 583.9797199986921 532.5617721974705 C 583.9797199986921 529.8003484483165 586.2182962495381 527.5617721974705 588.9797199986921 527.5617721974705 C 591.7411437478461 527.5617721974705 593.9797199986921 529.8003484483165 593.9797199986921 532.5617721974705 Z" fill-opacity="1"/><path fill="none" stroke="rgb(0,0,0)" paint-order="fill stroke markers" d=" M 593.9797199986921 532.5617721974705 C 593.9797199986921 535.3231959466245 591.7411437478461 537.5617721974705 588.9797199986921 537.5617721974705 C 586.2182962495381 537.5617721974705 583.9797199986921 535.3231959466245 583.9797199986921 532.5617721974705 C 583.9797199986921 529.8003484483165 586.2182962495381 527.5617721974705 588.9797199986921 527.5617721974705 C 591.7411437478461 527.5617721974705 593.9797199986921 529.8003484483165 593.9797199986921 532.5617721974705 Z" stroke-opacity="1" stroke-linecap="round" stroke-linejoin="round" stroke-miterlimit="10"/><g transform="scale(19,19)"><g transform="translate(36.1578947368421,29.588894736842107)"><path fill="rgb(0,0,0)" stroke="none" paint-order="stroke fill markers" d=" M 0.334 -0.302 L 0.3 -0.165 Q 0.28300000000000003 -0.097 0.28300000000000003 -0.077 Q 0.28300000000000003 -0.025 0.32 -0.014 Q 0.328 -0.011 0.338 -0.011 Q 0.388 -0.011 0.429 -0.061 Q 0.456 -0.093 0.47100000000000003 -0.14200000000000002 Q 0.47400000000000003 -0.153 0.484 -0.153 Q 0.496 -0.153 0.496 -0.14300000000000002 Q 0.496 -0.11800000000000001 0.465 -0.07100000000000001 Q 0.41100000000000003 0.011 0.336 0.011 Q 0.268 0.011 0.23700000000000002 -0.046 Q 0.231 -0.055 0.228 -0.065 Q 0.20400000000000001 -0.017 0.162 0.002 Q 0.14300000000000002 0.011 0.123 0.011 Q 0.063 0.011 0.039 -0.024 Q 0.029 -0.037 0.029 -0.055 Q 0.029 -0.092 0.061 -0.107 Q 0.07200000000000001 -0.113 0.084 -0.113 Q 0.114 -0.113 0.12 -0.088 Q 0.121 -0.083 0.121 -0.078 Q 0.121 -0.044 0.08700000000000001 -0.028 Q 0.081 -0.025 0.074 -0.024 Q 0.095 -0.011 0.124 -0.011 Q 0.177 -0.011 0.20800000000000002 -0.082 Q 0.214 -0.097 0.219 -0.115 Q 0.273 -0.319 0.273 -0.353 Q 0.267 -0.41500000000000004 0.219 -0.42 Q 0.167 -0.42 0.124 -0.367 L 0.124 -0.366 Q 0.124 -0.365 0.123 -0.365 Q 0.108 -0.34500000000000003 0.096 -0.319 Q 0.091 -0.307 0.08700000000000001 -0.295 L 0.085 -0.289 Q 0.083 -0.278 0.07200000000000001 -0.278 Q 0.06 -0.278 0.06 -0.28800000000000003 Q 0.06 -0.313 0.092 -0.36 Q 0.146 -0.442 0.221 -0.442 Q 0.298 -0.442 0.329 -0.366 Q 0.361 -0.428 0.41400000000000003 -0.44 Q 0.424 -0.442 0.434 -0.442 Q 0.493 -0.442 0.517 -0.40900000000000003 Q 0.527 -0.395 0.527 -0.376 Q 0.527 -0.335 0.49 -0.321 Q 0.481 -0.318 0.47300000000000003 -0.318 Q 0.442 -0.318 0.436 -0.34500000000000003 Q 0.435 -0.34900000000000003 0.435 -0.353 Q 0.435 -0.383 0.464 -0.4 Q 0.47300000000000003 -0.405 0.483 -0.40700000000000003 Q 0.462 -0.42 0.433 -0.42 Q 0.365 -0.42 0.337 -0.314 Q 0.335 -0.308 0.334 -0.302 Z"/></g><g transform="translate(36.729894736842105,29.738894736842106) scale(0.7,0.7)"><path fill="rgb(0,0,0)" stroke="none" paint-order="stroke fill markers" d=" M 0.46 -0.32 Q 0.46 -0.17400000000000002 0.423 -0.094 Q 0.364 0.018000000000000002 0.249 0.022 Q 0.158 0.022 0.10300000000000001 -0.05 Q 0.092 -0.063 0.084 -0.079 Q 0.039 -0.162 0.039 -0.32 Q 0.039 -0.467 0.076 -0.547 Q 0.126 -0.659 0.23800000000000002 -0.666 L 0.25 -0.666 Q 0.339 -0.666 0.395 -0.595 L 0.395 -0.594 Q 0.40900000000000003 -0.5760000000000001 0.42 -0.554 Q 0.46 -0.46900000000000003 0.46 -0.32 M 0.249 0 L 0.249 0 Q 0.312 0 0.34600000000000003 -0.061 Q 0.36 -0.088 0.366 -0.125 Q 0.377 -0.189 0.377 -0.332 Q 0.377 -0.47100000000000003 0.367 -0.527 Q 0.34900000000000003 -0.622 0.275 -0.641 Q 0.262 -0.644 0.249 -0.644 Q 0.179 -0.644 0.147 -0.5740000000000001 Q 0.136 -0.55 0.13 -0.516 Q 0.122 -0.462 0.122 -0.332 Q 0.122 -0.181 0.133 -0.121 Q 0.151 -0.025 0.221 -0.004 Q 0.23500000000000001 0 0.249 0 Z"/></g></g></g></g></svg>