<svg version="1.1" xmlns="http://www.w3.org/2000/svg" xmlns:xlink="http://www.w3.org/1999/xlink" width="952" height="591"><defs><clipPath id="xPZOLwLgmqkI"><path fill="none" stroke="none" d=" M 0 0 L 952 0 L 952 591 L 0 591 L 0 0 Z"/></clipPath></defs><g transform="scale(1,1)" clip-path="url(#xPZOLwLgmqkI)"><g><rect fill="rgb(255,255,255)" stroke="none" x="0" y="0" width="952" height="591" fill-opacity="1"/><path fill="none" stroke="rgb(192,192,192)" paint-order="fill stroke markers" d=" M 15.5 0.5 L 15.5 591.5 M 15.5 0.5 L 15.5 591.5 M 66.5 0.5 L 66.5 591.5 M 116.5 0.5 L 116.5 591.5 M 167.5 0.5 L 167.5 591.5 M 217.5 0.5 L 217.5 591.5 M 268.5 0.5 L 268.5 591.5 M 319.5 0.5 L 319.5 591.5 M 369.5 0.5 L 369.5 591.5 M 420.5 0.5 L 420.5 591.5 M 521.5 0.5 L 521.5 591.5 M 572.5 0.5 L 572.5 591.5 M 622.5 0.5 L 622.5 591.5 M 673.5 0.5 L 673.5 591.5 M 723.5 0.5 L 723.5 591.5 M 774.5 0.5 L 774.5 591.5 M 825.5 0.5 L 825.5 591.5 M 875.5 0.5 L 875.5 591.5 M 926.5 0.5 L 926.5 591.5" stroke-opacity="1" stroke-linecap="round" stroke-linejoin="round" stroke-miterlimit="10"/><path fill="none" stroke="rgb(192,192,192)" paint-order="fill stroke markers" d=" M 5.5 0.5 L 5.5 591.5 M 25.5 0.5 L 25.5 591.5 M 35.5 0.5 L 35.5 591.5 M 45.5 0.5 L 45.5 591.5 M 56.5 0.5 L 56.5 591.5 M 76.5 0.5 L 76.5 591.5 M 86.5 0.5 L 86.5 591.5 M 96.5 0.5 L 96.5 591.5 M 106.5 0.5 L 106.5 591.5 M 126.5 0.5 L 126.5 591.5 M 136.5 0.5 L 136.5 591.5 M 147.5 0.5 L 147.5 591.5 M 157.5 0.5 L 157.5 591.5 M 177.5 0.5 L 177.5 591.5 M 187.5 0.5 L 187.5 591.5 M 197.5 0.5 L 197.5 591.5 M 207.5 0.5 L 207.5 591.5 M 228.5 0.5 L 228.5 591.5 M 238.5 0.5 L 238.5 591.5 M 248.5 0.5 L 248.5 591.5 M 258.5 0.5 L 258.5 591.5 M 278.5 0.5 L 278.5 591.5 M 288.5 0.5 L 288.5 591.5 M 298.5 0.5 L 298.5 591.5 M 309.5 0.5 L 309.5 591.5 M 329.5 0.5 L 329.5 591.5 M 339.5 0.5 L 339.5 591.5 M 349.5 0.5 L 349.5 591.5 M 359.5 0.5 L 359.5 591.5 M 379.5 0.5 L 379.5 591.5 M 389.5 0.5 L 389.5 591.5 M 400.5 0.5 L 400.5 591.5 M 410.5 0.5 L 410.5 591.5 M 430.5 0.5 L 430.5 591.5 M 440.5 0.5 L 440.5 591.5 M 450.5 0.5 L 450.5 591.5 M 460.5 0.5 L 460.5 591.5 M 481.5 0.5 L 481.5 591.5 M 491.5 0.5 L 491.5 591.5 M 501.5 0.5 L 501.5 591.5 M 511.5 0.5 L 511.5 591.5 M 531.5 0.5 L 531.5 591.5 M 541.5 0.5 L 541.5 591.5 M 551.5 0.5 L 551.5 591.5 M 562.5 0.5 L 562.5 591.5 M 582.5 0.5 L 582.5 591.5 M 592.5 0.5 L 592.5 591.5 M 602.5 0.5 L 602.5 591.5 M 612.5 0.5 L 612.5 591.5 M 632.5 0.5 L 632.5 591.5 M 642.5 0.5 L 642.5 591.5 M 653.5 0.5 L 653.5 591.5 M 663.5 0.5 L 663.5 591.5 M 683.5 0.5 L 683.5 591.5 M 693.5 0.5 L 693.5 591.5 M 703.5 0.5 L 703.5 591.5 M 713.5 0.5 L 713.5 591.5 M 734.5 0.5 L 734.5 591.5 M 744.5 0.5 L 744.5 591.5 M 754.5 0.5 L 754.5 591.5 M 764.5 0.5 L 764.5 591.5 M 784.5 0.5 L 784.5 591.5 M 794.5 0.5 L 794.5 591.5 M 804.5 0.5 L 804.5 591.5 M 814.5 0.5 L 814.5 591.5 M 835.5 0.5 L 835.5 591.5 M 845.5 0.5 L 845.5 591.5 M 855.5 0.5 L 855.5 591.5 M 865.5 0.5 L 865.5 591.5 M 885.5 0.5 L 885.5 591.5 M 895.5 0.5 L 895.5 591.5 M 906.5 0.5 L 906.5 591.5 M 916.5 0.5 L 916.5 591.5 M 936.5 0.5 L 936.5 591.5 M 946.5 0.5 L 946.5 591.5" stroke-opacity="0.23529411764705882" stroke-linecap="round" stroke-linejoin="round" stroke-miterlimit="10"/><path fill="none" stroke="rgb(192,192,192)" paint-order="fill stroke markers" d=" M 0.5 32.5 L 952.5 32.5 M 0.5 32.5 L 952.5 32.5 M 0.5 82.5 L 952.5 82.5 M 0.5 133.5 L 952.5 133.5 M 0.5 183.5 L 952.5 183.5 M 0.5 234.5 L 952.5 234.5 M 0.5 285.5 L 952.5 285.5 M 0.5 335.5 L 952.5 335.5 M 0.5 386.5 L 952.5 386.5 M 0.5 436.5 L 952.5 436.5 M 0.5 487.5 L 952.5 487.5 M 0.5 588.5 L 952.5 588.5" stroke-opacity="1" stroke-linecap="round" stroke-linejoin="round" stroke-miterlimit="10"/><path fill="none" stroke="rgb(192,192,192)" paint-order="fill stroke markers" d=" M 0.5 1.5 L 952.5 1.5 M 0.5 1.5 L 952.5 1.5 M 0.5 11.5 L 952.5 11.5 M 0.5 22.5 L 952.5 22.5 M 0.5 42.5 L 952.5 42.5 M 0.5 52.5 L 952.5 52.5 M 0.5 62.5 L 952.5 62.5 M 0.5 72.5 L 952.5 72.5 M 0.5 92.5 L 952.5 92.5 M 0.5 103.5 L 952.5 103.5 M 0.5 113.5 L 952.5 113.5 M 0.5 123.5 L 952.5 123.5 M 0.5 143.5 L 952.5 143.5 M 0.5 153.5 L 952.5 153.5 M 0.5 163.5 L 952.5 163.5 M 0.5 173.5 L 952.5 173.5 M 0.5 194.5 L 952.5 194.5 M 0.5 204.5 L 952.5 204.5 M 0.5 214.5 L 952.5 214.5 M 0.5 224.5 L 952.5 224.5 M 0.5 244.5 L 952.5 244.5 M 0.5 254.5 L 952.5 254.5 M 0.5 264.5 L 952.5 264.5 M 0.5 275.5 L 952.5 275.5 M 0.5 295.5 L 952.5 295.5 M 0.5 305.5 L 952.5 305.5 M 0.5 315.5 L 952.5 315.5 M 0.5 325.5 L 952.5 325.5 M 0.5 345.5 L 952.5 345.5 M 0.5 355.5 L 952.5 355.5 M 0.5 366.5 L 952.5 366.5 M 0.5 376.5 L 952.5 376.5 M 0.5 396.5 L 952.5 396.5 M 0.5 406.5 L 952.5 406.5 M 0.5 416.5 L 952.5 416.5 M 0.5 426.5 L 952.5 426.5 M 0.5 447.5 L 952.5 447.5 M 0.5 457.5 L 952.5 457.5 M 0.5 467.5 L 952.5 467.5 M 0.5 477.5 L 952.5 477.5 M 0.5 497.5 L 952.5 497.5 M 0.5 507.5 L 952.5 507.5 M 0.5 517.5 L 952.5 517.5 M 0.5 528.5 L 952.5 528.5 M 0.5 548.5 L 952.5 548.5 M 0.5 558.5 L 952.5 558.5 M 0.5 568.5 L 952.5 568.5 M 0.5 578.5 L 952.5 578.5" stroke-opacity="0.23529411764705882" stroke-linecap="round" stroke-linejoin="round" stroke-miterlimit="10"/><path fill="none" stroke="rgb(37,37,37)" paint-order="fill stroke markers" d=" M 470.5 2.5 L 470.5 591.5" stroke-opacity="1" stroke-miterlimit="10"/><path fill="none" stroke="rgb(37,37,37)" paint-order="fill stroke markers" d=" M 470.5 1.5 L 466.5 5.5" stroke-opacity="1" stroke-miterlimit="10"/><path fill="none" stroke="rgb(37,37,37)" paint-order="fill stroke markers" d=" M 470.5 1.5 L 474.5 5.5" stroke-opacity="1" stroke-miterlimit="10"/><path fill="none" stroke="rgb(37,37,37)" paint-order="fill stroke markers" d=" M 0.5 538.5 L 950.5 538.5" stroke-opacity="1" stroke-miterlimit="10"/><path fill="none" stroke="rgb(37,37,37)" paint-order="fill stroke markers" d=" M 951.5 538.5 L 947.5 534.5" stroke-opacity="1" stroke-miterlimit="10"/><path fill="none" stroke="rgb(37,37,37)" paint-order="fill stroke markers" d=" M 951.5 538.5 L 947.5 542.5" stroke-opacity="1" stroke-miterlimit="10"/><text fill="rgb(37,37,37)" stroke="none" font-family="geogebra-sans-serif, sans-serif" font-size="12px" font-style="normal" font-weight="normal" text-decoration="normal" x="4" y="554" text-anchor="start" dominant-baseline="alphabetic" fill-opacity="1">–4.5</text><text fill="none" stroke="rgb(255,255,255)" font-family="geogebra-sans-serif, sans-serif" font-size="12px" font-style="normal" font-weight="normal" text-decoration="normal" x="4" y="554" text-anchor="start" dominant-baseline="alphabetic" stroke-opacity="1" stroke-linejoin="bevel" stroke-miterlimit="10" stroke-width="3">–4.5</text><text fill="rgb(37,37,37)" stroke="none" font-family="geogebra-sans-serif, sans-serif" font-size="12px" font-style="normal" font-weight="normal" text-decoration="normal" x="4" y="554" text-anchor="start" dominant-baseline="alphabetic" fill-opacity="1">–4.5</text><text fill="rgb(37,37,37)" stroke="none" font-family="geogebra-sans-serif, sans-serif" font-size="12px" font-style="normal" font-weight="normal" text-decoration="normal" x="61" y="554" text-anchor="start" dominant-baseline="alphabetic" fill-opacity="1">–4</text><text fill="none" stroke="rgb(255,255,255)" font-family="geogebra-sans-serif, sans-serif" font-size="12px" font-style="normal" font-weight="normal" text-decoration="normal" x="61" y="554" text-anchor="start" dominant-baseline="alphabetic" stroke-opacity="1" stroke-linejoin="bevel" stroke-miterlimit="10" stroke-width="3">–4</text><text fill="rgb(37,37,37)" stroke="none" font-family="geogebra-sans-serif, sans-serif" font-size="12px" font-style="normal" font-weight="normal" text-decoration="normal" x="61" y="554" text-anchor="start" dominant-baseline="alphabetic" fill-opacity="1">–4</text><text fill="rgb(37,37,37)" stroke="none" font-family="geogebra-sans-serif, sans-serif" font-size="12px" font-style="normal" font-weight="normal" text-decoration="normal" x="105" y="554" text-anchor="start" dominant-baseline="alphabetic" fill-opacity="1">–3.5</text><text fill="none" stroke="rgb(255,255,255)" font-family="geogebra-sans-serif, sans-serif" font-size="12px" font-style="normal" font-weight="normal" text-decoration="normal" x="105" y="554" text-anchor="start" dominant-baseline="alphabetic" stroke-opacity="1" stroke-linejoin="bevel" stroke-miterlimit="10" stroke-width="3">–3.5</text><text fill="rgb(37,37,37)" stroke="none" font-family="geogebra-sans-serif, sans-serif" font-size="12px" font-style="normal" font-weight="normal" text-decoration="normal" x="105" y="554" text-anchor="start" dominant-baseline="alphabetic" fill-opacity="1">–3.5</text><text fill="rgb(37,37,37)" stroke="none" font-family="geogebra-sans-serif, sans-serif" font-size="12px" font-style="normal" font-weight="normal" text-decoration="normal" x="162" y="554" text-anchor="start" dominant-baseline="alphabetic" fill-opacity="1">–3</text><text fill="none" stroke="rgb(255,255,255)" font-family="geogebra-sans-serif, sans-serif" font-size="12px" font-style="normal" font-weight="normal" text-decoration="normal" x="162" y="554" text-anchor="start" dominant-baseline="alphabetic" stroke-opacity="1" stroke-linejoin="bevel" stroke-miterlimit="10" stroke-width="3">–3</text><text fill="rgb(37,37,37)" stroke="none" font-family="geogebra-sans-serif, sans-serif" font-size="12px" font-style="normal" font-weight="normal" text-decoration="normal" x="162" y="554" text-anchor="start" dominant-baseline="alphabetic" fill-opacity="1">–3</text><text fill="rgb(37,37,37)" stroke="none" font-family="geogebra-sans-serif, sans-serif" font-size="12px" font-style="normal" font-weight="normal" text-decoration="normal" x="206" y="554" text-anchor="start" dominant-baseline="alphabetic" fill-opacity="1">–2.5</text><text fill="none" stroke="rgb(255,255,255)" font-family="geogebra-sans-serif, sans-serif" font-size="12px" font-style="normal" font-weight="normal" text-decoration="normal" x="206" y="554" text-anchor="start" dominant-baseline="alphabetic" stroke-opacity="1" stroke-linejoin="bevel" stroke-miterlimit="10" stroke-width="3">–2.5</text><text fill="rgb(37,37,37)" stroke="none" font-family="geogebra-sans-serif, sans-serif" font-size="12px" font-style="normal" font-weight="normal" text-decoration="normal" x="206" y="554" text-anchor="start" dominant-baseline="alphabetic" fill-opacity="1">–2.5</text><text fill="rgb(37,37,37)" stroke="none" font-family="geogebra-sans-serif, sans-serif" font-size="12px" font-style="normal" font-weight="normal" text-decoration="normal" x="263" y="554" text-anchor="start" dominant-baseline="alphabetic" fill-opacity="1">–2</text><text fill="none" stroke="rgb(255,255,255)" font-family="geogebra-sans-serif, sans-serif" font-size="12px" font-style="normal" font-weight="normal" text-decoration="normal" x="263" y="554" text-anchor="start" dominant-baseline="alphabetic" stroke-opacity="1" stroke-linejoin="bevel" stroke-miterlimit="10" stroke-width="3">–2</text><text fill="rgb(37,37,37)" stroke="none" font-family="geogebra-sans-serif, sans-serif" font-size="12px" font-style="normal" font-weight="normal" text-decoration="normal" x="263" y="554" text-anchor="start" dominant-baseline="alphabetic" fill-opacity="1">–2</text><text fill="rgb(37,37,37)" stroke="none" font-family="geogebra-sans-serif, sans-serif" font-size="12px" font-style="normal" font-weight="normal" text-decoration="normal" x="308" y="554" text-anchor="start" dominant-baseline="alphabetic" fill-opacity="1">–1.5</text><text fill="none" stroke="rgb(255,255,255)" font-family="geogebra-sans-serif, sans-serif" font-size="12px" font-style="normal" font-weight="normal" text-decoration="normal" x="308" y="554" text-anchor="start" dominant-baseline="alphabetic" stroke-opacity="1" stroke-linejoin="bevel" stroke-miterlimit="10" stroke-width="3">–1.5</text><text fill="rgb(37,37,37)" stroke="none" font-family="geogebra-sans-serif, sans-serif" font-size="12px" font-style="normal" font-weight="normal" text-decoration="normal" x="308" y="554" text-anchor="start" dominant-baseline="alphabetic" fill-opacity="1">–1.5</text><text fill="rgb(37,37,37)" stroke="none" font-family="geogebra-sans-serif, sans-serif" font-size="12px" font-style="normal" font-weight="normal" text-decoration="normal" x="364" y="554" text-anchor="start" dominant-baseline="alphabetic" fill-opacity="1">–1</text><text fill="none" stroke="rgb(255,255,255)" font-family="geogebra-sans-serif, sans-serif" font-size="12px" font-style="normal" font-weight="normal" text-decoration="normal" x="364" y="554" text-anchor="start" dominant-baseline="alphabetic" stroke-opacity="1" stroke-linejoin="bevel" stroke-miterlimit="10" stroke-width="3">–1</text><text fill="rgb(37,37,37)" stroke="none" font-family="geogebra-sans-serif, sans-serif" font-size="12px" font-style="normal" font-weight="normal" text-decoration="normal" x="364" y="554" text-anchor="start" dominant-baseline="alphabetic" fill-opacity="1">–1</text><text fill="rgb(37,37,37)" stroke="none" font-family="geogebra-sans-serif, sans-serif" font-size="12px" font-style="normal" font-weight="normal" text-decoration="normal" x="409" y="554" text-anchor="start" dominant-baseline="alphabetic" fill-opacity="1">–0.5</text><text fill="none" stroke="rgb(255,255,255)" font-family="geogebra-sans-serif, sans-serif" font-size="12px" font-style="normal" font-weight="normal" text-decoration="normal" x="409" y="554" text-anchor="start" dominant-baseline="alphabetic" stroke-opacity="1" stroke-linejoin="bevel" stroke-miterlimit="10" stroke-width="3">–0.5</text><text fill="rgb(37,37,37)" stroke="none" font-family="geogebra-sans-serif, sans-serif" font-size="12px" font-style="normal" font-weight="normal" text-decoration="normal" x="409" y="554" text-anchor="start" dominant-baseline="alphabetic" fill-opacity="1">–0.5</text><text fill="rgb(37,37,37)" stroke="none" font-family="geogebra-sans-serif, sans-serif" font-size="12px" font-style="normal" font-weight="normal" text-decoration="normal" x="513" y="554" text-anchor="start" dominant-baseline="alphabetic" fill-opacity="1">0.5</text><text fill="none" stroke="rgb(255,255,255)" font-family="geogebra-sans-serif, sans-serif" font-size="12px" font-style="normal" font-weight="normal" text-decoration="normal" x="513" y="554" text-anchor="start" dominant-baseline="alphabetic" stroke-opacity="1" stroke-linejoin="bevel" stroke-miterlimit="10" stroke-width="3">0.5</text><text fill="rgb(37,37,37)" stroke="none" font-family="geogebra-sans-serif, sans-serif" font-size="12px" font-style="normal" font-weight="normal" text-decoration="normal" x="513" y="554" text-anchor="start" dominant-baseline="alphabetic" fill-opacity="1">0.5</text><text fill="rgb(37,37,37)" stroke="none" font-family="geogebra-sans-serif, sans-serif" font-size="12px" font-style="normal" font-weight="normal" text-decoration="normal" x="570" y="554" text-anchor="start" dominant-baseline="alphabetic" fill-opacity="1">1</text><text fill="none" stroke="rgb(255,255,255)" font-family="geogebra-sans-serif, sans-serif" font-size="12px" font-style="normal" font-weight="normal" text-decoration="normal" x="570" y="554" text-anchor="start" dominant-baseline="alphabetic" stroke-opacity="1" stroke-linejoin="bevel" stroke-miterlimit="10" stroke-width="3">1</text><text fill="rgb(37,37,37)" stroke="none" font-family="geogebra-sans-serif, sans-serif" font-size="12px" font-style="normal" font-weight="normal" text-decoration="normal" x="570" y="554" text-anchor="start" dominant-baseline="alphabetic" fill-opacity="1">1</text><text fill="rgb(37,37,37)" stroke="none" font-family="geogebra-sans-serif, sans-serif" font-size="12px" font-style="normal" font-weight="normal" text-decoration="normal" x="614" y="554" text-anchor="start" dominant-baseline="alphabetic" fill-opacity="1">1.5</text><text fill="none" stroke="rgb(255,255,255)" font-family="geogebra-sans-serif, sans-serif" font-size="12px" font-style="normal" font-weight="normal" text-decoration="normal" x="614" y="554" text-anchor="start" dominant-baseline="alphabetic" stroke-opacity="1" stroke-linejoin="bevel" stroke-miterlimit="10" stroke-width="3">1.5</text><text fill="rgb(37,37,37)" stroke="none" font-family="geogebra-sans-serif, sans-serif" font-size="12px" font-style="normal" font-weight="normal" text-decoration="normal" x="614" y="554" text-anchor="start" dominant-baseline="alphabetic" fill-opacity="1">1.5</text><text fill="rgb(37,37,37)" stroke="none" font-family="geogebra-sans-serif, sans-serif" font-size="12px" font-style="normal" font-weight="normal" text-decoration="normal" x="671" y="554" text-anchor="start" dominant-baseline="alphabetic" fill-opacity="1">2</text><text fill="none" stroke="rgb(255,255,255)" font-family="geogebra-sans-serif, sans-serif" font-size="12px" font-style="normal" font-weight="normal" text-decoration="normal" x="671" y="554" text-anchor="start" dominant-baseline="alphabetic" stroke-opacity="1" stroke-linejoin="bevel" stroke-miterlimit="10" stroke-width="3">2</text><text fill="rgb(37,37,37)" stroke="none" font-family="geogebra-sans-serif, sans-serif" font-size="12px" font-style="normal" font-weight="normal" text-decoration="normal" x="671" y="554" text-anchor="start" dominant-baseline="alphabetic" fill-opacity="1">2</text><text fill="rgb(37,37,37)" stroke="none" font-family="geogebra-sans-serif, sans-serif" font-size="12px" font-style="normal" font-weight="normal" text-decoration="normal" x="715" y="554" text-anchor="start" dominant-baseline="alphabetic" fill-opacity="1">2.5</text><text fill="none" stroke="rgb(255,255,255)" font-family="geogebra-sans-serif, sans-serif" font-size="12px" font-style="normal" font-weight="normal" text-decoration="normal" x="715" y="554" text-anchor="start" dominant-baseline="alphabetic" stroke-opacity="1" stroke-linejoin="bevel" stroke-miterlimit="10" stroke-width="3">2.5</text><text fill="rgb(37,37,37)" stroke="none" font-family="geogebra-sans-serif, sans-serif" font-size="12px" font-style="normal" font-weight="normal" text-decoration="normal" x="715" y="554" text-anchor="start" dominant-baseline="alphabetic" fill-opacity="1">2.5</text><text fill="rgb(37,37,37)" stroke="none" font-family="geogebra-sans-serif, sans-serif" font-size="12px" font-style="normal" font-weight="normal" text-decoration="normal" x="772" y="554" text-anchor="start" dominant-baseline="alphabetic" fill-opacity="1">3</text><text fill="none" stroke="rgb(255,255,255)" font-family="geogebra-sans-serif, sans-serif" font-size="12px" font-style="normal" font-weight="normal" text-decoration="normal" x="772" y="554" text-anchor="start" dominant-baseline="alphabetic" stroke-opacity="1" stroke-linejoin="bevel" stroke-miterlimit="10" stroke-width="3">3</text><text fill="rgb(37,37,37)" stroke="none" font-family="geogebra-sans-serif, sans-serif" font-size="12px" font-style="normal" font-weight="normal" text-decoration="normal" x="772" y="554" text-anchor="start" dominant-baseline="alphabetic" fill-opacity="1">3</text><text fill="rgb(37,37,37)" stroke="none" font-family="geogebra-sans-serif, sans-serif" font-size="12px" font-style="normal" font-weight="normal" text-decoration="normal" x="817" y="554" text-anchor="start" dominant-baseline="alphabetic" fill-opacity="1">3.5</text><text fill="none" stroke="rgb(255,255,255)" font-family="geogebra-sans-serif, sans-serif" font-size="12px" font-style="normal" font-weight="normal" text-decoration="normal" x="817" y="554" text-anchor="start" dominant-baseline="alphabetic" stroke-opacity="1" stroke-linejoin="bevel" stroke-miterlimit="10" stroke-width="3">3.5</text><text fill="rgb(37,37,37)" stroke="none" font-family="geogebra-sans-serif, sans-serif" font-size="12px" font-style="normal" font-weight="normal" text-decoration="normal" x="817" y="554" text-anchor="start" dominant-baseline="alphabetic" fill-opacity="1">3.5</text><text fill="rgb(37,37,37)" stroke="none" font-family="geogebra-sans-serif, sans-serif" font-size="12px" font-style="normal" font-weight="normal" text-decoration="normal" x="873" y="554" text-anchor="start" dominant-baseline="alphabetic" fill-opacity="1">4</text><text fill="none" stroke="rgb(255,255,255)" font-family="geogebra-sans-serif, sans-serif" font-size="12px" font-style="normal" font-weight="normal" text-decoration="normal" x="873" y="554" text-anchor="start" dominant-baseline="alphabetic" stroke-opacity="1" stroke-linejoin="bevel" stroke-miterlimit="10" stroke-width="3">4</text><text fill="rgb(37,37,37)" stroke="none" font-family="geogebra-sans-serif, sans-serif" font-size="12px" font-style="normal" font-weight="normal" text-decoration="normal" x="873" y="554" text-anchor="start" dominant-baseline="alphabetic" fill-opacity="1">4</text><text fill="rgb(37,37,37)" stroke="none" font-family="geogebra-sans-serif, sans-serif" font-size="12px" font-style="normal" font-weight="normal" text-decoration="normal" x="918" y="554" text-anchor="start" dominant-baseline="alphabetic" fill-opacity="1">4.5</text><text fill="none" stroke="rgb(255,255,255)" font-family="geogebra-sans-serif, sans-serif" font-size="12px" font-style="normal" font-weight="normal" text-decoration="normal" x="918" y="554" text-anchor="start" dominant-baseline="alphabetic" stroke-opacity="1" stroke-linejoin="bevel" stroke-miterlimit="10" stroke-width="3">4.5</text><text fill="rgb(37,37,37)" stroke="none" font-family="geogebra-sans-serif, sans-serif" font-size="12px" font-style="normal" font-weight="normal" text-decoration="normal" x="918" y="554" text-anchor="start" dominant-baseline="alphabetic" fill-opacity="1">4.5</text><text fill="rgb(37,37,37)" stroke="none" font-family="geogebra-sans-serif, sans-serif" font-size="12px" font-style="normal" font-weight="normal" text-decoration="normal" x="446" y="492" text-anchor="start" dominant-baseline="alphabetic" fill-opacity="1">0.5</text><text fill="none" stroke="rgb(255,255,255)" font-family="geogebra-sans-serif, sans-serif" font-size="12px" font-style="normal" font-weight="normal" text-decoration="normal" x="446" y="492" text-anchor="start" dominant-baseline="alphabetic" stroke-opacity="1" stroke-linejoin="bevel" stroke-miterlimit="10" stroke-width="3">0.5</text><text fill="rgb(37,37,37)" stroke="none" font-family="geogebra-sans-serif, sans-serif" font-size="12px" font-style="normal" font-weight="normal" text-decoration="normal" x="446" y="492" text-anchor="start" dominant-baseline="alphabetic" fill-opacity="1">0.5</text><text fill="rgb(37,37,37)" stroke="none" font-family="geogebra-sans-serif, sans-serif" font-size="12px" font-style="normal" font-weight="normal" text-decoration="normal" x="456" y="441" text-anchor="start" dominant-baseline="alphabetic" fill-opacity="1">1</text><text fill="none" stroke="rgb(255,255,255)" font-family="geogebra-sans-serif, sans-serif" font-size="12px" font-style="normal" font-weight="normal" text-decoration="normal" x="456" y="441" text-anchor="start" dominant-baseline="alphabetic" stroke-opacity="1" stroke-linejoin="bevel" stroke-miterlimit="10" stroke-width="3">1</text><text fill="rgb(37,37,37)" stroke="none" font-family="geogebra-sans-serif, sans-serif" font-size="12px" font-style="normal" font-weight="normal" text-decoration="normal" x="456" y="441" text-anchor="start" dominant-baseline="alphabetic" fill-opacity="1">1</text><text fill="rgb(37,37,37)" stroke="none" font-family="geogebra-sans-serif, sans-serif" font-size="12px" font-style="normal" font-weight="normal" text-decoration="normal" x="446" y="391" text-anchor="start" dominant-baseline="alphabetic" fill-opacity="1">1.5</text><text fill="none" stroke="rgb(255,255,255)" font-family="geogebra-sans-serif, sans-serif" font-size="12px" font-style="normal" font-weight="normal" text-decoration="normal" x="446" y="391" text-anchor="start" dominant-baseline="alphabetic" stroke-opacity="1" stroke-linejoin="bevel" stroke-miterlimit="10" stroke-width="3">1.5</text><text fill="rgb(37,37,37)" stroke="none" font-family="geogebra-sans-serif, sans-serif" font-size="12px" font-style="normal" font-weight="normal" text-decoration="normal" x="446" y="391" text-anchor="start" dominant-baseline="alphabetic" fill-opacity="1">1.5</text><text fill="rgb(37,37,37)" stroke="none" font-family="geogebra-sans-serif, sans-serif" font-size="12px" font-style="normal" font-weight="normal" text-decoration="normal" x="456" y="340" text-anchor="start" dominant-baseline="alphabetic" fill-opacity="1">2</text><text fill="none" stroke="rgb(255,255,255)" font-family="geogebra-sans-serif, sans-serif" font-size="12px" font-style="normal" font-weight="normal" text-decoration="normal" x="456" y="340" text-anchor="start" dominant-baseline="alphabetic" stroke-opacity="1" stroke-linejoin="bevel" stroke-miterlimit="10" stroke-width="3">2</text><text fill="rgb(37,37,37)" stroke="none" font-family="geogebra-sans-serif, sans-serif" font-size="12px" font-style="normal" font-weight="normal" text-decoration="normal" x="456" y="340" text-anchor="start" dominant-baseline="alphabetic" fill-opacity="1">2</text><text fill="rgb(37,37,37)" stroke="none" font-family="geogebra-sans-serif, sans-serif" font-size="12px" font-style="normal" font-weight="normal" text-decoration="normal" x="446" y="290" text-anchor="start" dominant-baseline="alphabetic" fill-opacity="1">2.5</text><text fill="none" stroke="rgb(255,255,255)" font-family="geogebra-sans-serif, sans-serif" font-size="12px" font-style="normal" font-weight="normal" text-decoration="normal" x="446" y="290" text-anchor="start" dominant-baseline="alphabetic" stroke-opacity="1" stroke-linejoin="bevel" stroke-miterlimit="10" stroke-width="3">2.5</text><text fill="rgb(37,37,37)" stroke="none" font-family="geogebra-sans-serif, sans-serif" font-size="12px" font-style="normal" font-weight="normal" text-decoration="normal" x="446" y="290" text-anchor="start" dominant-baseline="alphabetic" fill-opacity="1">2.5</text><text fill="rgb(37,37,37)" stroke="none" font-family="geogebra-sans-serif, sans-serif" font-size="12px" font-style="normal" font-weight="normal" text-decoration="normal" x="456" y="239" text-anchor="start" dominant-baseline="alphabetic" fill-opacity="1">3</text><text fill="none" stroke="rgb(255,255,255)" font-family="geogebra-sans-serif, sans-serif" font-size="12px" font-style="normal" font-weight="normal" text-decoration="normal" x="456" y="239" text-anchor="start" dominant-baseline="alphabetic" stroke-opacity="1" stroke-linejoin="bevel" stroke-miterlimit="10" stroke-width="3">3</text><text fill="rgb(37,37,37)" stroke="none" font-family="geogebra-sans-serif, sans-serif" font-size="12px" font-style="normal" font-weight="normal" text-decoration="normal" x="456" y="239" text-anchor="start" dominant-baseline="alphabetic" fill-opacity="1">3</text><text fill="rgb(37,37,37)" stroke="none" font-family="geogebra-sans-serif, sans-serif" font-size="12px" font-style="normal" font-weight="normal" text-decoration="normal" x="446" y="188" text-anchor="start" dominant-baseline="alphabetic" fill-opacity="1">3.5</text><text fill="none" stroke="rgb(255,255,255)" font-family="geogebra-sans-serif, sans-serif" font-size="12px" font-style="normal" font-weight="normal" text-decoration="normal" x="446" y="188" text-anchor="start" dominant-baseline="alphabetic" stroke-opacity="1" stroke-linejoin="bevel" stroke-miterlimit="10" stroke-width="3">3.5</text><text fill="rgb(37,37,37)" stroke="none" font-family="geogebra-sans-serif, sans-serif" font-size="12px" font-style="normal" font-weight="normal" text-decoration="normal" x="446" y="188" text-anchor="start" dominant-baseline="alphabetic" fill-opacity="1">3.5</text><text fill="rgb(37,37,37)" stroke="none" font-family="geogebra-sans-serif, sans-serif" font-size="12px" font-style="normal" font-weight="normal" text-decoration="normal" x="456" y="138" text-anchor="start" dominant-baseline="alphabetic" fill-opacity="1">4</text><text fill="none" stroke="rgb(255,255,255)" font-family="geogebra-sans-serif, sans-serif" font-size="12px" font-style="normal" font-weight="normal" text-decoration="normal" x="456" y="138" text-anchor="start" dominant-baseline="alphabetic" stroke-opacity="1" stroke-linejoin="bevel" stroke-miterlimit="10" stroke-width="3">4</text><text fill="rgb(37,37,37)" stroke="none" font-family="geogebra-sans-serif, sans-serif" font-size="12px" font-style="normal" font-weight="normal" text-decoration="normal" x="456" y="138" text-anchor="start" dominant-baseline="alphabetic" fill-opacity="1">4</text><text fill="rgb(37,37,37)" stroke="none" font-family="geogebra-sans-serif, sans-serif" font-size="12px" font-style="normal" font-weight="normal" text-decoration="normal" x="446" y="87" text-anchor="start" dominant-baseline="alphabetic" fill-opacity="1">4.5</text><text fill="none" stroke="rgb(255,255,255)" font-family="geogebra-sans-serif, sans-serif" font-size="12px" font-style="normal" font-weight="normal" text-decoration="normal" x="446" y="87" text-anchor="start" dominant-baseline="alphabetic" stroke-opacity="1" stroke-linejoin="bevel" stroke-miterlimit="10" stroke-width="3">4.5</text><text fill="rgb(37,37,37)" stroke="none" font-family="geogebra-sans-serif, sans-serif" font-size="12px" font-style="normal" font-weight="normal" text-decoration="normal" x="446" y="87" text-anchor="start" dominant-baseline="alphabetic" fill-opacity="1">4.5</text><text fill="rgb(37,37,37)" stroke="none" font-family="geogebra-sans-serif, sans-serif" font-size="12px" font-style="normal" font-weight="normal" text-decoration="normal" x="456" y="37" text-anchor="start" dominant-baseline="alphabetic" fill-opacity="1">5</text><text fill="none" stroke="rgb(255,255,255)" font-family="geogebra-sans-serif, sans-serif" font-size="12px" font-style="normal" font-weight="normal" text-decoration="normal" x="456" y="37" text-anchor="start" dominant-baseline="alphabetic" stroke-opacity="1" stroke-linejoin="bevel" stroke-miterlimit="10" stroke-width="3">5</text><text fill="rgb(37,37,37)" stroke="none" font-family="geogebra-sans-serif, sans-serif" font-size="12px" font-style="normal" font-weight="normal" text-decoration="normal" x="456" y="37" text-anchor="start" dominant-baseline="alphabetic" fill-opacity="1">5</text><text fill="rgb(37,37,37)" stroke="none" font-family="geogebra-sans-serif, sans-serif" font-size="12px" font-style="normal" font-weight="normal" text-decoration="normal" x="456" y="554" text-anchor="start" dominant-baseline="alphabetic" fill-opacity="1">0</text><text fill="none" stroke="rgb(255,255,255)" font-family="geogebra-sans-serif, sans-serif" font-size="12px" font-style="normal" font-weight="normal" text-decoration="normal" x="456" y="554" text-anchor="start" dominant-baseline="alphabetic" stroke-opacity="1" stroke-linejoin="bevel" stroke-miterlimit="10" stroke-width="3">0</text><text fill="rgb(37,37,37)" stroke="none" font-family="geogebra-sans-serif, sans-serif" font-size="12px" font-style="normal" font-weight="normal" text-decoration="normal" x="456" y="554" text-anchor="start" dominant-baseline="alphabetic" fill-opacity="1">0</text><path fill="none" stroke="rgb(0,100,0)" paint-order="fill stroke markers" d=" M 0.9999999999999432 2315.6884995071905 L 0.9999999999999432 2324.9862413513665 L 0.9999999999999432 2315.6884995071914 L 1.9999999999999432 2306.410522009999 L 1.9999999999999432 2306.41052201 L 3 2297.1523088597905 L 3 2297.1523088597914 L 4 2287.913860056567 L 4 2287.9138600565675 L 4.999999999999943 2278.6951756003273 L 4.999999999999943 2278.695175600328 L 5.999999999999943 2269.4962554910717 L 5.999999999999943 2269.4962554910726 L 7 2260.317099728799 L 7 2260.3170997287993 L 8 2251.1577083135103 L 8 2251.1577083135107 L 9 2242.0180812452063 L 9 2242.0180812452068 L 9.999999999999943 2232.8982185238856 L 9.999999999999943 2232.898218523886 L 10.999999999999943 2223.7981201495486 L 10.999999999999943 2223.7981201495495 L 12 2214.717786122195 L 12 2214.7177861221953 L 13 2205.6572164418258 L 13 2205.6572164418267 L 13.999999999999943 2196.616411108441 L 13.999999999999943 2196.6164111084418 L 14.999999999999943 2187.5953701220396 L 14.999999999999943 2187.5953701220405 L 16 2178.5940934826212 L 16 2178.5940934826217 L 17 2169.6125811901875 L 17 2169.612581190188 L 18 2160.650833244738 L 18 2160.6508332447384 L 18.999999999999943 2151.708849646272 L 18.999999999999943 2151.7088496462725 L 19.999999999999943 2142.7866303947894 L 19.999999999999943 2142.7866303947903 L 21 2133.8841754902905 L 21 2133.8841754902915 L 22 2125.0014849327763 L 22 2125.0014849327767 L 22.999999999999943 2116.1385587222458 L 22.999999999999943 2116.138558722246 L 23.999999999999943 2107.295396858699 L 23.999999999999943 2107.2953968586994 L 25 2098.471999342135 L 25 2098.471999342136 L 26 2089.6683661725556 L 26 2089.6683661725565 L 27 2080.884497349961 L 27 2080.8844973499617 L 27.999999999999943 2072.12039287435 L 27.999999999999943 2072.1203928743503 L 28.999999999999943 2063.376052745722 L 28.999999999999943 2063.3760527457225 L 30 2054.6514769640776 L 30 2054.6514769640785 L 31 2045.946665529418 L 31 2045.9466655294186 L 31.999999999999943 2037.2616184417418 L 31.999999999999943 2037.2616184417425 L 32.99999999999994 2028.5963357010496 L 32.99999999999994 2028.5963357010503 L 34 2019.9508173073407 L 34 2019.9508173073414 L 35 2011.325063260616 L 35 2011.3250632606168 L 36 2002.7190735608756 L 36 2002.7190735608763 L 36.99999999999994 1994.1328482081187 L 36.99999999999994 1994.1328482081194 L 37.99999999999994 1985.5663872023456 L 37.99999999999994 1985.5663872023463 L 39 1977.019690543556 L 39 1977.0196905435569 L 40 1968.492758231751 L 40 1968.4927582317516 L 40.99999999999994 1959.9855902669294 L 40.99999999999994 1959.98559026693 L 41.99999999999994 1951.4981866490918 L 41.99999999999994 1951.4981866490925 L 43 1943.0305473782375 L 43 1943.0305473782382 L 44 1934.5826724543676 L 44 1934.5826724543683 L 45 1926.1545618774817 L 45 1926.1545618774824 L 45.99999999999994 1917.7462156475794 L 45.99999999999994 1917.7462156475801 L 46.99999999999994 1909.3576337646612 L 46.99999999999994 1909.3576337646618 L 48 1900.988816228726 L 48 1900.9888162287266 L 49 1892.6397630397753 L 49 1892.639763039776 L 49.99999999999994 1884.3104741978086 L 49.99999999999994 1884.3104741978093 L 50.99999999999994 1876.0009497028257 L 50.99999999999994 1876.0009497028263 L 52 1867.7111895548255 L 52 1867.7111895548264 L 53 1859.4411937538105 L 53 1859.4411937538111 L 54 1851.1909622997794 L 54 1851.19096229978 L 54.99999999999994 1842.9604951927315 L 54.99999999999994 1842.9604951927322 L 55.99999999999994 1834.7497924326678 L 55.99999999999994 1834.7497924326685 L 57 1826.5588540195872 L 57 1826.5588540195881 L 58 1818.3876799534914 L 58 1818.3876799534921 L 58.99999999999994 1810.2362702343792 L 58.99999999999994 1810.2362702343798 L 59.99999999999994 1802.1046248622508 L 59.99999999999994 1802.1046248622515 L 61 1793.9927438371055 L 61 1793.9927438371062 L 62 1785.9006271589449 L 62 1785.9006271589456 L 63 1777.828274827768 L 63 1777.8282748277686 L 63.99999999999994 1769.7756868435754 L 63.99999999999994 1769.775686843576 L 64.99999999999994 1761.742863206366 L 64.99999999999994 1761.7428632063668 L 66 1753.7298039161399 L 66 1753.7298039161406 L 67 1745.736508972899 L 67 1745.7365089728992 L 67.99999999999994 1737.7629783766413 L 67.99999999999994 1737.7629783766415 L 68.99999999999994 1729.8092121273676 L 68.99999999999994 1729.809212127368 L 70 1721.875210225077 L 70 1721.8752102250774 L 71 1713.9609726697709 L 71 1713.9609726697713 L 72 1706.0664994614488 L 72 1706.0664994614492 L 73 1698.19179060011 L 73 1698.1917906001104 L 74 1690.3368460857555 L 74 1690.336846085756 L 74.99999999999994 1682.501665918385 L 74.99999999999994 1682.5016659183852 L 76 1674.6862500979976 L 76 1674.686250097998 L 76.99999999999994 1666.8905986245948 L 76.99999999999994 1666.8905986245952 L 78 1659.1147114981752 L 78 1659.1147114981757 L 79 1651.35858871874 L 79 1651.3585887187403 L 80 1643.6222302862882 L 80 1643.6222302862886 L 81 1635.9056362008207 L 81 1635.905636200821 L 82 1628.2088064623365 L 82 1628.208806462337 L 83 1620.5317410708367 L 83 1620.5317410708371 L 83.99999999999994 1612.8744400263206 L 83.99999999999994 1612.8744400263208 L 85 1605.236903328788 L 85 1605.2369033287885 L 85.99999999999994 1597.6191309782396 L 85.99999999999994 1597.61913097824 L 87 1590.0211229746747 L 87 1590.021122974675 L 88 1582.4428793180941 L 88 1582.4428793180944 L 89 1574.884400008497 L 89 1574.8844000084973 L 90 1567.345685045884 L 90 1567.3456850458842 L 91 1559.8267344302544 L 91 1559.8267344302549 L 92 1552.3275481616092 L 92 1552.3275481616095 L 92.99999999999994 1544.8481262399478 L 92.99999999999994 1544.8481262399482 L 94 1537.3884686652698 L 94 1537.38846866527 L 94.99999999999994 1529.948575437576 L 94.99999999999994 1529.9485754375764 L 96 1522.5284465568657 L 96 1522.5284465568661 L 97 1515.1280820231398 L 97 1515.12808202314 L 98 1507.7474818363971 L 98 1507.7474818363976 L 99 1500.386645996639 L 99 1500.3866459966393 L 100 1493.045574503864 L 100 1493.0455745038644 L 101 1485.7242673580731 L 101 1485.7242673580736 L 101.99999999999994 1478.4227245592663 L 101.99999999999994 1478.4227245592665 L 103 1471.1409461074431 L 103 1471.1409461074436 L 103.99999999999994 1463.878932002604 L 103.99999999999994 1463.8789320026042 L 105 1456.6366822447483 L 105 1456.6366822447485 L 106 1449.4141968338768 L 106 1449.4141968338772 L 107 1442.2114757699887 L 107 1442.2114757699892 L 108 1435.028519053085 L 108 1435.0285190530853 L 109 1427.8653266831648 L 109 1427.8653266831652 L 110 1420.7218986602286 L 110 1420.721898660229 L 110.99999999999994 1413.5982349842764 L 110.99999999999994 1413.5982349842766 L 112 1406.4943356553076 L 112 1406.494335655308 L 112.99999999999994 1399.410200673323 L 112.99999999999994 1399.4102006733233 L 114 1392.345830038322 L 114 1392.3458300383222 L 115 1385.3012237503053 L 115 1385.3012237503056 L 116 1378.2763818092717 L 116 1378.2763818092722 L 117 1371.2713042152227 L 117 1371.271304215223 L 118 1364.285990968157 L 118 1364.2859909681574 L 119 1357.3204420680754 L 119 1357.3204420680759 L 119.99999999999994 1350.374657514978 L 119.99999999999994 1350.3746575149783 L 121 1343.448637308864 L 121 1343.4486373088644 L 121.99999999999994 1336.542381449734 L 121.99999999999994 1336.5423814497344 L 123 1329.6558899375875 L 123 1329.6558899375877 L 124 1322.7891627724252 L 124 1322.7891627724257 L 125 1315.9421999542465 L 125 1315.9421999542467 L 126 1309.1150014830519 L 126 1309.1150014830523 L 127 1302.3075673588407 L 127 1302.307567358841 L 128 1295.5198975816138 L 128 1295.5198975816143 L 128.99999999999994 1288.7519921513708 L 128.99999999999994 1288.7519921513713 L 130 1282.0038510681113 L 130 1282.0038510681115 L 130.99999999999994 1275.275474331836 L 130.99999999999994 1275.2754743318364 L 132 1268.5668619425442 L 132 1268.5668619425446 L 133 1261.8780139002365 L 133 1261.878013900237 L 134 1255.2089302049126 L 134 1255.2089302049128 L 135 1248.5596108565724 L 135 1248.5596108565728 L 136 1241.930055855216 L 136 1241.9300558552163 L 137 1235.3202652008436 L 137 1235.320265200844 L 137.99999999999994 1228.7302388934554 L 137.99999999999994 1228.7302388934559 L 139 1222.1599769330505 L 139 1222.1599769330508 L 139.99999999999994 1215.6094793196296 L 139.99999999999994 1215.6094793196298 L 141 1209.0787460531924 L 141 1209.0787460531928 L 142 1202.5677771337396 L 142 1202.5677771337398 L 143 1196.07657256127 L 143 1196.0765725612703 L 144 1189.6051323357847 L 144 1189.605132335785 L 145 1183.1534564572826 L 145 1183.153456457283 L 146 1176.7215449257649 L 146 1176.7215449257653 L 146.99999999999994 1170.3093977412314 L 146.99999999999994 1170.3093977412316 L 148 1163.9170149036809 L 148 1163.9170149036813 L 148.99999999999994 1157.5443964131146 L 148.99999999999994 1157.544396413115 L 150 1151.191542269532 L 150 1151.1915422695324 L 151 1144.8584524729335 L 151 1144.858452472934 L 152 1138.5451270233189 L 152 1138.5451270233193 L 153 1132.251565920688 L 153 1132.2515659206883 L 154 1125.9777691650406 L 154 1125.977769165041 L 155 1119.7237367563778 L 155 1119.723736756378 L 156 1113.4894686946982 L 156 1113.4894686946986 L 157 1107.274964980003 L 157 1107.2749649800032 L 157.99999999999994 1101.080225612291 L 157.99999999999994 1101.0802256122915 L 159 1094.9052505915633 L 159 1094.9052505915638 L 160 1088.7500399178193 L 160 1088.7500399178198 L 161 1082.614593591059 L 161 1082.6145935910595 L 162 1076.498911611283 L 162 1076.4989116112833 L 163 1070.4029939784905 L 163 1070.4029939784907 L 164 1064.3268406926818 L 164 1064.3268406926823 L 165 1058.2704517538568 L 165 1058.2704517538573 L 166 1052.233827162016 L 166 1052.2338271620165 L 166.99999999999994 1046.2169669171592 L 166.99999999999994 1046.2169669171594 L 168 1040.2198710192858 L 168 1040.2198710192863 L 169 1034.2425394683964 L 169 1034.242539468397 L 170 1028.284972264491 L 170 1028.2849722644912 L 171 1022.3471694075694 L 171 1022.3471694075697 L 172 1016.4291308976312 L 172 1016.4291308976317 L 173 1010.5308567346774 L 173 1010.5308567346779 L 174 1004.6523469187073 L 174 1004.6523469187075 L 175 998.793601449721 L 175 998.7936014497213 L 175.99999999999994 992.9546203277187 L 175.99999999999994 992.9546203277191 L 177 987.1354035526999 L 177 987.1354035527004 L 178 981.3359511246651 L 178 981.3359511246656 L 179 975.5562630436143 L 179 975.5562630436145 L 180 969.7963393095473 L 180 969.7963393095476 L 181 964.0561799224638 L 181 964.0561799224641 L 182 958.3357848823645 L 182 958.3357848823648 L 183 952.6351541892489 L 183 952.6351541892492 L 184 946.9542878431173 L 184 946.9542878431178 L 184.99999999999994 941.2931858439697 L 184.99999999999994 941.2931858439698 L 186 935.6518481918056 L 186 935.6518481918057 L 187 930.0302748866254 L 187 930.0302748866256 L 188 924.428465928429 L 188 924.4284659284292 L 189 918.8464213172166 L 189 918.8464213172167 L 190 913.2841410529878 L 190 913.2841410529879 L 191 907.7416251357431 L 191 907.7416251357433 L 192 902.2188735654821 L 192 902.2188735654822 L 193 896.7158863422051 L 193 896.7158863422053 L 193.99999999999994 891.232663465912 L 193.99999999999994 891.2326634659121 L 195 885.7692049366024 L 195 885.7692049366026 L 196 880.325510754277 L 196 880.3255107542772 L 197 874.9015809189352 L 197 874.9015809189353 L 198 869.4974154305773 L 198 869.4974154305776 L 199 864.1130142892032 L 199 864.1130142892034 L 200 858.7483774948132 L 200 858.7483774948134 L 201 853.4035050474067 L 201 853.403505047407 L 202 848.0783969469843 L 202 848.0783969469845 L 202.99999999999994 842.7730531935458 L 202.99999999999994 842.7730531935459 L 204 837.4874737870908 L 204 837.487473787091 L 204.99999999999994 832.22165872762 L 204.99999999999994 832.2216587276203 L 206 826.9756080151328 L 206 826.975608015133 L 207 821.7493216496296 L 207 821.7493216496298 L 208 816.54279963111 L 208 816.5427996311103 L 209 811.3560419595746 L 209 811.3560419595747 L 210 806.1890486350228 L 210 806.1890486350229 L 211 801.0418196574549 L 211 801.0418196574551 L 211.99999999999994 795.9143550268709 L 211.99999999999994 795.9143550268711 L 213 790.8066547432707 L 213 790.8066547432709 L 213.99999999999994 785.7187188066544 L 213.99999999999994 785.7187188066546 L 215 780.6505472170218 L 215 780.650547217022 L 215.99999999999997 775.6021399743732 L 215.99999999999997 775.6021399743734 L 217 770.5734970787083 L 217 770.5734970787084 L 217.99999999999997 765.5646185300275 L 217.99999999999997 765.5646185300277 L 219 760.5755043283302 L 219 760.5755043283303 L 220 755.606154473617 L 220 755.6061544736172 L 220.99999999999997 750.6565689658878 L 220.99999999999997 750.6565689658879 L 222 745.7267478051419 L 222 745.7267478051422 L 222.99999999999997 740.8166909913804 L 222.99999999999997 740.8166909913805 L 224 735.9263985246023 L 224 735.9263985246025 L 224.99999999999997 731.0558704048084 L 224.99999999999997 731.0558704048085 L 226 726.205106631998 L 226 726.2051066319982 L 226.99999999999997 721.3741072061717 L 226.99999999999997 721.3741072061719 L 228 716.5628721273291 L 228 716.5628721273292 L 229 711.7714013954705 L 229 711.7714013954708 L 229.99999999999997 706.9996950105958 L 229.99999999999997 706.999695010596 L 231 702.2477529727048 L 231 702.2477529727049 L 231.99999999999997 697.5155752817977 L 231.99999999999997 697.5155752817979 L 233 692.8031619378744 L 233 692.8031619378745 L 233.99999999999997 688.110512940935 L 233.99999999999997 688.1105129409351 L 235 683.4376282909793 L 235 683.4376282909794 L 235.99999999999997 678.7845079880076 L 235.99999999999997 678.7845079880077 L 237 674.1511520320196 L 237 674.1511520320197 L 238 669.5375604230155 L 238 669.5375604230157 L 238.99999999999997 664.9437331609954 L 238.99999999999997 664.9437331609956 L 240 660.369670245959 L 240 660.3696702459591 L 240.99999999999997 655.8153716779066 L 240.99999999999997 655.8153716779067 L 242 651.2808374568377 L 242 651.2808374568378 L 242.99999999999997 646.766067582753 L 242.99999999999997 646.7660675827531 L 244 642.2710620556519 L 244 642.271062055652 L 244.99999999999997 637.7958208755348 L 244.99999999999997 637.7958208755349 L 246 633.3403440424013 L 246 633.3403440424015 L 246.99999999999997 628.904631556252 L 246.99999999999997 628.9046315562522 L 247.99999999999997 624.4886834170865 L 247.99999999999997 624.4886834170867 L 249 620.0924996249046 L 249 620.0924996249048 L 249.99999999999997 615.7160801797068 L 249.99999999999997 615.716080179707 L 251 611.3594250814925 L 251 611.3594250814928 L 251.99999999999997 607.0225343302624 L 251.99999999999997 607.0225343302626 L 253 602.7054079260159 L 253 602.705407926016 L 253.99999999999997 598.4080458687534 L 253.99999999999997 598.4080458687537 L 255 594.1304481584747 L 255 594.1304481584749 L 255.99999999999997 589.8726147951799 L 255.99999999999997 589.8726147951801 L 257 585.634545778869 L 257 585.6345457788692 L 258 581.4162411095417 L 258 581.4162411095418 L 259 577.2177007871984 L 259 577.2177007871986 L 260 573.0389248118389 L 260 573.0389248118391 L 261 568.8799131834634 L 261 568.8799131834635 L 262 564.7406659020714 L 262 564.7406659020717 L 263 560.6211829676636 L 263 560.6211829676638 L 264 556.5214643802394 L 264 556.5214643802396 L 265 552.4415101397992 L 265 552.4415101397994 L 266 548.3813202463429 L 266 548.3813202463431 L 267 544.3408946998703 L 267 544.3408946998704 L 268 540.3202335003816 L 268 540.3202335003817 L 269 536.3193366478768 L 269 536.3193366478768 L 270 532.3382041423557 L 270 532.3382041423558 L 271 528.3768359838185 L 271 528.3768359838185 L 272 524.4352321722653 L 272 524.4352321722654 L 273 520.5133927076956 L 273 520.5133927076957 L 274 516.61131759011 L 274 516.6113175901102 L 275 512.7290068195083 L 275 512.7290068195083 L 276 508.86646039589033 L 276 508.8664603958904 L 277 505.0236783192562 L 277 505.0236783192563 L 278 501.2006605896059 L 278 501.200660589606 L 279 497.39740720693953 L 279 497.3974072069396 L 280 493.613918171257 L 280 493.6139181712571 L 281 489.85019348255827 L 281 489.8501934825583 L 282 486.10623314084336 L 282 486.1062331408434 L 283 482.38203714611234 L 283 482.3820371461124 L 284 478.6776054983651 L 284 478.6776054983652 L 285 474.99293819760175 L 285 474.99293819760186 L 286 471.3280352438223 L 286 471.32803524382234 L 287 467.6828966370266 L 287 467.6828966370267 L 288 464.05752237721475 L 288 464.05752237721487 L 289 460.45191246438685 L 289 460.45191246438696 L 290 456.8660668985427 L 290 456.86606689854284 L 291 453.29998567968244 L 291 453.29998567968255 L 292 449.75366880780604 L 292 449.7536688078061 L 293 446.22711628291347 L 293 446.2271162829135 L 294 442.7203281050047 L 294 442.7203281050048 L 295 439.2333042740798 L 295 439.23330427407984 L 296 435.7660447901387 L 296 435.7660447901388 L 297 432.3185496531815 L 297 432.3185496531816 L 298 428.8908188632082 L 298 428.8908188632083 L 299 425.4828524202187 L 299 425.48285242021876 L 300 422.094650324213 L 300 422.0946503242131 L 301 418.72621257519114 L 301 418.72621257519125 L 302 415.3775391731532 L 302 415.3775391731533 L 303 412.048630118099 L 303 412.04863011809914 L 304 408.73948541002875 L 304 408.7394854100288 L 305 405.4501050489423 L 305 405.4501050489424 L 306 402.1804890348397 L 306 402.18048903483975 L 307 398.93063736772103 L 307 398.9306373677211 L 308 395.70055004758603 L 308 395.70055004758615 L 309 392.490227074435 L 309 392.4902270744351 L 310 389.29966844826777 L 310 389.2996684482679 L 311 386.1288741690844 L 311 386.1288741690845 L 312 382.97784423688483 L 312 382.97784423688495 L 313 379.8465786516692 L 313 379.84657865166923 L 314 376.73507741343735 L 314 376.7350774134374 L 315 373.6433405221893 L 315 373.6433405221894 L 316 370.5713679779252 L 316 370.57136797792526 L 317 367.51915978064494 L 317 367.51915978064505 L 318 364.48671593034845 L 318 364.4867159303485 L 319 361.47403642703586 L 319 361.4740364270359 L 320 358.48112127070704 L 320 358.48112127070715 L 321 355.5079704613621 L 321 355.5079704613622 L 322 352.554583999001 L 322 352.5545839990011 L 323 349.62096188362375 L 323 349.62096188362386 L 324 346.70710411523044 L 324 346.70710411523055 L 325 343.81301069382084 L 325 343.81301069382096 L 326 340.9386816193952 L 326 340.9386816193953 L 327 338.0841168919534 L 327 338.08411689195344 L 328 335.2493165114954 L 328 335.2493165114954 L 329 332.4342804780212 L 329 332.43428047802126 L 330 329.6390087915309 L 330 329.6390087915309 L 331 326.86350145202437 L 331 326.8635014520245 L 332 324.1077584595017 L 332 324.10775845950184 L 333 321.3717798139629 L 333 321.37177981396303 L 334 318.65556551540806 L 334 318.65556551540806 L 335 315.959115563837 L 335 315.95911556383703 L 336 313.2824299592497 L 336 313.28242995924984 L 337 310.62550870164637 L 337 310.62550870164637 L 338 307.98835179102673 L 338 307.98835179102684 L 339 305.37095922739104 L 339 305.3709592273911 L 340 302.7733310107392 L 340 302.7733310107392 L 341 300.19546714107116 L 341 300.19546714107116 L 342 297.637367618387 L 342 297.63736761838703 L 343 295.0990324426866 L 343 295.0990324426867 L 344 292.58046161397016 L 344 292.5804616139703 L 345 290.08165513223753 L 345 290.08165513223753 L 346 287.60261299748873 L 346 287.6026129974888 L 347 285.1433352097238 L 347 285.1433352097238 L 348 282.70382176894265 L 348 282.7038217689427 L 349 280.2840726751454 L 349 280.28407267514547 L 350 277.884087928332 L 350 277.884087928332 L 351 275.5038675285024 L 351 275.5038675285025 L 352 273.1434114756567 L 352 273.1434114756567 L 353 270.8027197697948 L 353 270.8027197697949 L 354 268.4817924109168 L 354 268.48179241091685 L 355 266.1806293990226 L 355 266.1806293990226 L 356 263.8992307341122 L 356 263.8992307341123 L 357 261.6375964161857 L 357 261.6375964161858 L 358 259.3957264452431 L 358 259.3957264452431 L 359 257.17362082128426 L 359 257.1736208212843 L 360 254.97127954430925 L 360 254.97127954430937 L 361 252.7887026143182 L 361 252.7887026143182 L 362 250.62589003131092 L 362 250.62589003131097 L 363 248.48284179528747 L 363 248.48284179528758 L 364 246.35955790624791 L 364 246.35955790624797 L 365 244.2560383641922 L 365 244.2560383641922 L 366 242.17228316912025 L 366 242.1722831691203 L 367 240.1082923210322 L 367 240.1082923210322 L 368 238.06406581992798 L 368 238.06406581992803 L 369 236.03960366580765 L 369 236.0396036658077 L 370 234.0349058586711 L 370 234.03490585867115 L 371 232.0499723985185 L 371 232.0499723985185 L 372 230.08480328534966 L 372 230.08480328534972 L 373 228.13939851916467 L 373 228.13939851916473 L 374 226.2137580999635 L 374 226.21375809996357 L 375 224.30788202774625 L 375 224.3078820277463 L 376 222.4217703025128 L 376 222.4217703025128 L 377 220.5554229242632 L 377 220.5554229242632 L 378 218.70883989299745 L 378 218.7088398929975 L 379 216.88202120871557 L 379 216.88202120871557 L 380 215.07496687141747 L 380 215.07496687141747 L 381 213.28767688110327 L 381 213.28767688110327 L 382 211.5201512377729 L 382 211.5201512377729 L 383 209.77238994142635 L 383 209.7723899414264 L 384 208.0443929920637 L 384 208.0443929920637 L 385 206.33616038968484 L 385 206.33616038968484 L 386 204.6476921342898 L 386 204.64769213428985 L 387 202.9789882258787 L 387 202.9789882258787 L 388 201.33004866445134 L 388 201.3300486644514 L 389 199.70087345000792 L 389 199.70087345000798 L 390 198.09146258254833 L 390 198.09146258254833 L 391 196.50181606207252 L 391 196.50181606207258 L 392 194.93193388858066 L 392 194.93193388858066 L 393 193.38181606207252 L 393 193.38181606207257 L 394 191.85146258254832 L 394 191.85146258254832 L 395 190.3408734500079 L 395 190.34087345000796 L 396 188.85004866445144 L 396 188.85004866445144 L 397 187.3789882258787 L 397 187.3789882258787 L 398 185.92769213428983 L 398 185.92769213428983 L 399 184.4961603896848 L 399 184.4961603896848 L 400 183.08439299206367 L 400 183.08439299206367 L 401 181.69238994142637 L 401 181.69238994142637 L 402 180.3201512377729 L 402 180.3201512377729 L 403 178.96767688110322 L 403 178.96767688110327 L 404 177.63496687141748 L 404 177.63496687141753 L 405 176.32202120871557 L 405 176.32202120871557 L 406 175.02883989299744 L 406 175.02883989299744 L 407 173.7554229242632 L 407 173.7554229242632 L 408 172.5017703025128 L 408 172.5017703025128 L 409 171.26788202774623 L 409 171.26788202774628 L 410 170.05375809996355 L 410 170.05375809996355 L 411 168.8593985191647 L 411 168.8593985191647 L 412 167.68480328534963 L 412 167.6848032853497 L 413 166.52997239851845 L 413 166.5299723985185 L 414 165.3949058586711 L 414 165.3949058586711 L 415 164.27960366580766 L 415 164.27960366580766 L 416 163.18406581992798 L 416 163.18406581992798 L 417 162.10829232103225 L 417 162.10829232103225 L 418 161.05228316912024 L 418 161.0522831691203 L 419 160.01603836419218 L 419 160.01603836419218 L 420 158.9995579062479 L 420 158.9995579062479 L 421 158.0028417952875 L 421 158.0028417952875 L 422 157.0258900313109 L 422 157.0258900313109 L 423 156.06870261431823 L 423 156.06870261431823 L 424 155.13127954430934 L 424 155.13127954430934 L 425 154.21362082128428 L 425 154.21362082128428 L 426 153.31572644524306 L 426 153.31572644524311 L 427 152.43759641618578 L 427 152.43759641618578 L 428 151.57923073411223 L 428 151.57923073411223 L 429 150.74062939902257 L 429 150.74062939902257 L 430 149.9217924109168 L 430 149.9217924109168 L 431 149.1227197697948 L 431 149.12271976979486 L 432 148.3434114756567 L 432 148.3434114756567 L 433 147.58386752850242 L 433 147.58386752850242 L 434 146.844087928332 L 434 146.844087928332 L 435 146.12407267514544 L 435 146.12407267514544 L 436 145.42382176894267 L 436 145.42382176894267 L 437 144.7433352097238 L 437 144.7433352097238 L 438 144.08261299748875 L 438 144.08261299748875 L 439 143.44165513223754 L 439 143.44165513223754 L 440 142.82046161397017 L 440 142.82046161397017 L 441 142.21903244268663 L 441 142.21903244268663 L 442 141.63736761838697 L 442 141.63736761838697 L 443 141.07546714107116 L 443 141.07546714107116 L 444 140.53333101073918 L 444 140.53333101073918 L 445 140.01095922739103 L 445 140.01095922739103 L 446 139.50835179102677 L 446 139.50835179102677 L 447 139.02550870164634 L 447 139.02550870164634 L 448 138.56242995924976 L 448 138.56242995924976 L 449 138.11911556383694 L 449 138.11911556383694 L 450 137.69556551540802 L 450 137.69556551540802 L 451 137.291779813963 L 451 137.291779813963 L 452 136.9077584595018 L 452 136.9077584595018 L 453 136.54350145202437 L 453 136.54350145202437 L 454 136.1990087915309 L 454 136.1990087915309 L 455 135.8742804780212 L 455 135.8742804780212 L 456 135.56931651149534 L 456 135.5693165114954 L 457 135.28411689195337 L 457 135.28411689195337 L 458 135.01868161939518 L 458 135.01868161939518 L 459 134.77301069382094 L 459 134.77301069382094 L 460 134.54710411523047 L 460 134.54710411523047 L 461 134.34096188362383 L 461 134.34096188362383 L 462 134.1545839990011 L 462 134.1545839990011 L 463 133.98797046136218 L 463 133.98797046136218 L 464 133.8411212707071 L 464 133.8411212707071 L 465 133.71403642703586 L 465 133.71403642703586 L 466 133.60671593034846 L 466 133.60671593034846 L 467 133.51915978064494 L 467 133.51915978064494 L 468 133.4513679779252 L 468 133.4513679779252 L 469 133.40334052218935 L 469 133.40334052218935 L 470 133.3750774134374 L 470 133.3750774134374 L 471 133.36653023549843 L 471 133.36657865166922 L 472 133.37784423688487 L 472 133.37784423688487 L 473 133.4088741690844 L 473 133.4088741690844 L 474 133.4596684482678 L 474 133.4596684482678 L 475 133.530227074435 L 475 133.530227074435 L 476 133.62055004758605 L 476 133.62055004758605 L 477 133.730637367721 L 477 133.730637367721 L 478 133.8604890348397 L 478 133.8604890348397 L 479 134.01010504894236 L 479 134.01010504894236 L 480 134.17948541002875 L 480 134.17948541002875 L 481 134.36863011809908 L 481 134.36863011809908 L 482 134.57753917315318 L 482 134.57753917315318 L 483 134.80621257519118 L 483 134.80621257519118 L 484 135.05465032421301 L 484 135.05465032421301 L 485 135.32285242021868 L 485 135.32285242021868 L 486 135.61081886320818 L 486 135.61081886320818 L 487 135.91854965318157 L 487 135.91854965318157 L 488 136.24604479013874 L 488 136.24604479013874 L 489 136.5933042740798 L 489 136.5933042740798 L 490 136.9603281050047 L 490 136.9603281050047 L 491 137.34711628291342 L 491 137.34711628291342 L 492 137.75366880780604 L 492 137.75366880780604 L 493 138.1799856796825 L 493 138.1799856796825 L 494 138.62606689854272 L 494 138.62606689854272 L 495 139.09191246438684 L 495 139.09191246438684 L 496 139.5775223772148 L 496 139.5775223772148 L 497 140.08289663702664 L 497 140.08289663702664 L 498 140.60803524382231 L 498 140.60803524382231 L 499 141.15293819760177 L 499 141.15293819760177 L 500 141.71760549836512 L 500 141.71760549836512 L 501 142.3020371461123 L 501 142.3020371461123 L 502 142.90623314084337 L 502 142.90623314084337 L 503 143.53019348255822 L 503 143.53019348255822 L 504 144.17391817125696 L 504 144.17391817125696 L 505 144.83740720693953 L 505 144.83740720693953 L 506 145.52066058960594 L 506 145.52066058960594 L 507 146.22367831925624 L 507 146.22367831925624 L 508 146.9464603958903 L 508 146.9464603958903 L 509 147.68900681950828 L 509 147.68900681950828 L 510 148.45131759011008 L 510 148.45131759011008 L 511 149.2333927076957 L 511 149.2333927076957 L 512 150.03523217226524 L 512 150.03523217226524 L 513 150.85683598381854 L 513 150.85683598381854 L 514 151.69820414235573 L 514 151.69820414235568 L 515 152.55933664787676 L 515 152.55933664787676 L 516 153.44023350038162 L 516 153.44023350038157 L 517 154.34089469987032 L 517 154.34089469987032 L 518 155.26132024634285 L 518 155.26132024634285 L 519 156.20151013979927 L 519 156.20151013979927 L 520 157.16146438023952 L 520 157.16146438023952 L 521 158.1411829676636 L 521 158.1411829676636 L 522 159.1406659020716 L 522 159.14066590207153 L 523 160.15991318346335 L 523 160.15991318346335 L 524 161.198924811839 L 524 161.198924811839 L 525 162.25770078719847 L 525 162.25770078719847 L 526 163.33624110954173 L 526 163.33624110954173 L 527 164.43454577886894 L 527 164.43454577886888 L 528 165.55261479517992 L 528 165.55261479517992 L 529 166.6904481584748 L 529 166.6904481584748 L 530 167.8480458687535 L 530 167.8480458687535 L 531 169.02540792601604 L 531 169.025407926016 L 532 170.22253433026242 L 532 170.22253433026242 L 533 171.43942508149263 L 533 171.43942508149263 L 534 172.67608017970673 L 534 172.67608017970673 L 535 173.93249962490466 L 535 173.9324996249046 L 536 175.20868341708643 L 536 175.20868341708643 L 537 176.50463155625204 L 537 176.50463155625204 L 538 177.82034404240147 L 538 177.82034404240147 L 539 179.1558208755348 L 539 179.1558208755348 L 540 180.51106205565196 L 540 180.5110620556519 L 541 181.88606758275296 L 541 181.8860675827529 L 542 183.2808374568378 L 542 183.2808374568378 L 543 184.69537167790645 L 543 184.69537167790645 L 544 186.129670245959 L 544 186.129670245959 L 545 187.5837331609954 L 545 187.58373316099534 L 546 189.05756042301562 L 546 189.05756042301556 L 547 190.55115203201967 L 547 190.55115203201967 L 548 192.06450798800756 L 548 192.06450798800756 L 549 193.59762829097934 L 549 193.59762829097934 L 550 195.1505129409349 L 550 195.1505129409349 L 551 196.72316193787435 L 551 196.72316193787435 L 552 198.31557528179763 L 552 198.31557528179763 L 553 199.9277529727048 L 553 199.9277529727048 L 554 201.55969501059576 L 554 201.55969501059576 L 555 203.2114013954706 L 555 203.2114013954706 L 556 204.88287212732922 L 556 204.88287212732922 L 557 206.5741072061718 L 557 206.57410720617173 L 558 208.28510663199813 L 558 208.28510663199813 L 559 210.01587040480837 L 559 210.01587040480837 L 560 211.76639852460244 L 560 211.76639852460244 L 561 213.53669099138028 L 561 213.53669099138028 L 562 215.32674780514202 L 562 215.32674780514202 L 563 217.13656896588765 L 563 217.1365689658876 L 564 218.96615447361705 L 564 218.96615447361705 L 565 220.81550432833035 L 565 220.81550432833035 L 566 222.68461853002742 L 566 222.68461853002742 L 567 224.57349707870844 L 567 224.57349707870844 L 568 226.48213997437324 L 568 226.48213997437318 L 569 228.41054721702193 L 569 228.41054721702187 L 570 230.3587188066544 L 570 230.3587188066544 L 571 232.3266547432707 L 571 232.3266547432707 L 572 234.31435502687094 L 572 234.31435502687094 L 573 236.32181965745497 L 573 236.32181965745497 L 574 238.34904863502294 L 574 238.34904863502283 L 575 240.39604195957457 L 575 240.39604195957452 L 576 242.46279963111016 L 576 242.46279963111016 L 577 244.54932164962958 L 577 244.54932164962952 L 578 246.65560801513283 L 578 246.65560801513283 L 579 248.78165872761997 L 579 248.7816587276199 L 580 250.9274737870909 L 580 250.9274737870909 L 581 253.0930531935457 L 581 253.0930531935457 L 582 255.2783969469843 L 582 255.2783969469843 L 583 257.4835050474068 L 583 257.48350504740677 L 584 259.70837749481313 L 584 259.7083774948131 L 585 261.95301428920334 L 585 261.9530142892033 L 586 264.2174154305774 L 586 264.2174154305774 L 587 266.50158091893525 L 587 266.5015809189352 L 588 268.80551075427695 L 588 268.80551075427695 L 589 271.1292049366025 L 589 271.1292049366025 L 590 273.472663465912 L 590 273.47266346591186 L 591 275.83588634220513 L 591 275.8358863422051 L 592 278.2188735654822 L 592 278.2188735654822 L 593 280.6216251357432 L 593 280.6216251357431 L 594 283.0441410529879 L 594 283.0441410529879 L 595 285.4864213172166 L 595 285.4864213172166 L 596 287.9484659284291 L 596 287.948465928429 L 597 290.4302748866254 L 597 290.4302748866254 L 598 292.93184819180556 L 598 292.93184819180556 L 599 295.45318584396955 L 599 295.45318584396955 L 600 297.9942878431174 L 600 297.9942878431174 L 601 300.55515418924915 L 601 300.55515418924904 L 602 303.13578488236465 L 602 303.1357848823646 L 603 305.73617992246403 L 603 305.736179922464 L 604 308.3563393095473 L 604 308.35633930954725 L 605 310.99626304361436 L 605 310.99626304361436 L 606 313.6559511246653 L 606 313.65595112466525 L 607 316.3354035527001 L 607 316.3354035527001 L 608 319.0346203277187 L 608 319.03462032771864 L 609 321.7536014497211 L 609 321.7536014497211 L 610 324.4923469187074 L 610 324.49234691870737 L 611 327.25085673467754 L 611 327.25085673467754 L 612 330.0291308976316 L 612 330.02913089763155 L 613 332.8271694075694 L 613 332.8271694075694 L 614 335.6449722644911 L 614 335.6449722644911 L 615 338.4825394683967 L 615 338.48253946839657 L 616 341.3398710192861 L 616 341.33987101928597 L 617 344.2169669171593 L 617 344.2169669171592 L 618 347.11382716201626 L 618 347.1138271620162 L 619 350.0304517538572 L 619 350.03045175385716 L 620 352.96684069268196 L 620 352.9668406926819 L 621 355.9229939784906 L 621 355.92299397849047 L 622 358.8989116112831 L 622 358.898911611283 L 623 361.89459359105933 L 623 361.8945935910593 L 624 364.91003991781946 L 624 364.9100399178194 L 625 367.9452505915634 L 625 367.94525059156337 L 626 371.0002256122913 L 626 371.0002256122912 L 627 374.07496498000296 L 627 374.07496498000285 L 628 377.1694686946985 L 628 377.16946869469837 L 629 380.28373675637783 L 629 380.2837367563777 L 630 383.417769165041 L 630 383.4177691650409 L 631 386.5715659206881 L 631 386.571565920688 L 632 389.745127023319 L 632 389.7451270233189 L 633 392.9384524729337 L 633 392.93845247293365 L 634 396.15154226953234 L 634 396.15154226953223 L 635 399.3843964131148 L 635 399.3843964131147 L 636 402.637014903681 L 636 402.6370149036809 L 637 405.90939774123115 L 637 405.90939774123103 L 638 409.20154492576506 L 638 409.201544925765 L 639 412.5134564572829 L 639 412.5134564572828 L 640 415.84513233578457 L 640 415.84513233578446 L 641 419.1965725612701 L 641 419.19657256127005 L 642 422.56777713373947 L 642 422.56777713373936 L 643 425.9587460531926 L 643 425.95874605319256 L 644 429.3694793196297 L 644 429.3694793196296 L 645 432.79997693305063 L 645 432.7999769330505 L 646 436.2502388934553 L 646 436.25023889345516 L 647 439.72026520084387 L 647 439.72026520084376 L 648 443.21005585521624 L 648 443.2100558552162 L 649 446.71961085657256 L 649 446.71961085657244 L 650 450.24893020491265 L 650 450.24893020491254 L 651 453.7980139002366 L 651 453.79801390023647 L 652 457.3668619425444 L 652 457.36686194254435 L 653 460.95547433183606 L 653 460.95547433183594 L 654 464.56385106811155 L 654 464.5638510681115 L 655 468.1919921513708 L 655 468.1919921513707 L 656 471.83989758161397 L 656 471.8398975816139 L 657 475.5075673588411 L 657 475.50756735884096 L 658 479.19500148305195 L 658 479.19500148305184 L 659 482.9021999542466 L 659 482.90219995424656 L 660 486.6291627724252 L 660 486.62916277242516 L 661 490.3758899375876 L 661 490.37588993758754 L 662 494.1423814497339 L 662 494.1423814497338 L 663 497.928637308864 L 663 497.92863730886387 L 664 501.73465751497787 L 664 501.73465751497775 L 665 505.56044206807564 L 665 505.56044206807553 L 666 509.4059909681573 L 666 509.4059909681572 L 667 513.2713042152228 L 667 513.2713042152227 L 668 517.156381809272 L 668 517.156381809272 L 669 521.0612237503053 L 669 521.0612237503052 L 670 524.9858300383223 L 670 524.9858300383222 L 671 528.9302006733232 L 671 528.930200673323 L 672 532.8943356553078 L 672 532.8943356553077 L 673 536.8782349842763 L 673 536.8782349842762 L 674 540.8818986602288 L 674 540.8818986602286 L 675 544.9053266831648 L 675 544.9053266831647 L 676 548.9485190530851 L 676 548.9485190530849 L 677 553.0114757699891 L 677 553.0114757699889 L 678 557.0941968338768 L 678 557.0941968338767 L 679 561.1966822447484 L 679 561.1966822447482 L 680 565.3189320026039 L 680 565.3189320026038 L 681 569.4609461074431 L 681 569.460946107443 L 682 573.6227245592663 L 682 573.6227245592662 L 683 577.8042673580734 L 683 577.8042673580732 L 684 582.0055745038643 L 684 582.0055745038641 L 685 586.2266459966389 L 685 586.2266459966387 L 686 590.4674818363975 L 686 590.4674818363974 L 687 594.7280820231398 L 687 594.7280820231396 L 688 599.0084465568659 L 688 599.0084465568657 L 689 603.3085754375761 L 689 603.3085754375759 L 690 607.62846866527 L 690 607.6284686652698 L 691 611.9681262399478 L 691 611.9681262399477 L 692 616.3275481616093 L 692 616.3275481616091 L 693 620.7067344302549 L 693 620.7067344302548 L 694 625.105685045884 L 694 625.1056850458839 L 695 629.5244000084973 L 695 629.5244000084972 L 696 633.9628793180941 L 696 633.962879318094 L 697 638.4211229746749 L 697 638.4211229746747 L 698 642.8991309782398 L 698 642.8991309782396 L 699 647.3969033287882 L 699 647.396903328788 L 700 651.9144400263207 L 700 651.9144400263204 L 701 656.4517410708368 L 701 656.4517410708365 L 702 661.0088064623369 L 702 661.0088064623368 L 703 665.5856362008207 L 703 665.5856362008205 L 704 670.1822302862886 L 704 670.1822302862884 L 705 674.7985887187401 L 705 674.7985887187399 L 706 679.4347114981755 L 706 679.4347114981753 L 707 684.0905986245948 L 707 684.0905986245947 L 708 688.7662500979978 L 708 688.7662500979977 L 709 693.4616659183849 L 709 693.4616659183848 L 710 698.1768460857556 L 710 698.1768460857554 L 711 702.9117906001104 L 711 702.9117906001103 L 712 707.6664994614489 L 712 707.6664994614487 L 713 712.4409726697713 L 713 712.4409726697711 L 714 717.2352102250775 L 714 717.2352102250773 L 715 722.0492121273674 L 715 722.0492121273671 L 716 726.8829783766413 L 716 726.8829783766412 L 717 731.736508972899 L 717 731.7365089728987 L 718 736.6098039161407 L 718 736.6098039161405 L 719 741.502863206366 L 719 741.5028632063659 L 720 746.4156868435754 L 720 746.4156868435753 L 721 751.3482748277684 L 721 751.3482748277681 L 722 756.3006271589454 L 722 756.3006271589453 L 723 761.2727438371062 L 723 761.272743837106 L 724 766.2646248622507 L 724 766.2646248622505 L 725 771.2762702343792 L 725 771.2762702343791 L 726 776.3076799534915 L 726 776.3076799534914 L 727 781.3588540195879 L 727 781.3588540195877 L 728 786.4297924326677 L 728 786.4297924326676 L 729 791.5204951927318 L 729 791.5204951927316 L 730 796.6309622997794 L 730 796.6309622997792 L 731 801.7611937538111 L 731 801.7611937538109 L 732 806.9111895548264 L 732 806.9111895548263 L 733 812.0809497028255 L 733 812.0809497028254 L 734 817.2704741978087 L 734 817.2704741978085 L 735 822.4797630397755 L 735 822.4797630397754 L 736 827.7088162287265 L 736 827.7088162287264 L 737 832.9576337646611 L 737 832.9576337646608 L 738 838.2262156475797 L 738 838.2262156475795 L 739 843.5145618774818 L 739 843.5145618774816 L 740 848.8226724543681 L 740 848.822672454368 L 741 854.1505473782381 L 741 854.1505473782379 L 742 859.4981866490918 L 742 859.4981866490916 L 743 864.8655902669295 L 743 864.8655902669294 L 744 870.2527582317512 L 744 870.2527582317509 L 745 875.6596905435566 L 745 875.6596905435565 L 746 881.0863872023458 L 746 881.0863872023456 L 747 886.5328482081188 L 747 886.5328482081187 L 748 891.9990735608758 L 748 891.9990735608756 L 749 897.4850632606167 L 749 897.4850632606165 L 750 902.9908173073411 L 750 902.990817307341 L 751 908.5163357010495 L 751 908.5163357010492 L 752 914.061618441742 L 752 914.0616184417418 L 753 919.626665529418 L 753 919.6266655294178 L 754 925.2114769640782 L 754 925.211476964078 L 755 930.8160527457219 L 755 930.8160527457217 L 756 936.4403928743498 L 756 936.4403928743495 L 757 942.0844973499611 L 757 942.0844973499609 L 758 947.7483661725568 L 758 947.7483661725564 L 759 953.4319993421358 L 759 953.4319993421354 L 760 959.1353968586989 L 760 959.1353968586985 L 761 964.8585587222458 L 761 964.8585587222453 L 762 970.6014849327764 L 762 970.6014849327761 L 763 976.3641754902912 L 763 976.3641754902908 L 764 982.1466303947896 L 764 982.1466303947891 L 765 987.948849646272 L 765 987.9488496462717 L 766 993.770833244738 L 766 993.7708332447377 L 767 999.6125811901882 L 767 999.6125811901878 L 768 1005.4740934826218 L 768 1005.4740934826215 L 769 1011.3553701220394 L 769 1011.3553701220391 L 770 1017.2564111084411 L 770 1017.2564111084407 L 771 1023.1772164418263 L 771 1023.177216441826 L 772 1029.1177861221959 L 772 1029.1177861221954 L 773 1035.0781201495488 L 773 1035.0781201495483 L 774 1041.0582185238857 L 774 1041.0582185238854 L 775 1047.0580812452063 L 775 1047.0580812452058 L 776 1053.077708313511 L 776 1053.0777083135106 L 777 1059.1170997287993 L 777 1059.117099728799 L 778 1065.1762554910715 L 778 1065.176255491071 L 779 1071.2551756003277 L 779 1071.2551756003272 L 780 1077.3538600565676 L 780 1077.3538600565673 L 781 1083.4723088597916 L 781 1083.4723088597912 L 782 1089.6105220099992 L 782 1089.610522009999 L 783 1095.7684995071909 L 783 1095.7684995071904 L 784 1101.946241351366 L 784 1101.9462413513656 L 785 1108.1437475425255 L 785 1108.143747542525 L 786 1114.3610180806681 L 786 1114.361018080668 L 787 1120.598052965795 L 787 1120.5980529657945 L 788 1126.854852197906 L 788 1126.8548521979055 L 789 1133.1314157770005 L 789 1133.131415777 L 790 1139.427743703079 L 790 1139.4277437030787 L 791 1145.7438359761409 L 791 1145.7438359761406 L 792 1152.0796925961872 L 792 1152.079692596187 L 793 1158.4353135632173 L 793 1158.4353135632168 L 794 1164.810698877231 L 794 1164.8106988772308 L 795 1171.2058485382286 L 795 1171.2058485382283 L 796 1177.6207625462098 L 796 1177.6207625462096 L 797 1184.0554409011754 L 797 1184.0554409011752 L 798 1190.5098836031245 L 798 1190.5098836031243 L 799 1196.9840906520578 L 799 1196.9840906520576 L 800 1203.4780620479746 L 800 1203.4780620479742 L 801 1209.9917977908754 L 801 1209.991797790875 L 802 1216.5252978807598 L 802 1216.5252978807594 L 803 1223.0785623176284 L 803 1223.078562317628 L 804 1229.6515911014803 L 804 1229.65159110148 L 805 1236.2443842323169 L 805 1236.2443842323164 L 806 1242.8569417101364 L 806 1242.8569417101362 L 807 1249.4892635349402 L 807 1249.4892635349397 L 808 1256.1413497067279 L 808 1256.1413497067276 L 809 1262.8132002254993 L 809 1262.8132002254988 L 810 1269.5048150912548 L 810 1269.5048150912544 L 811 1276.216194303994 L 811 1276.2161943039935 L 812 1282.947337863717 L 812 1282.9473378637167 L 813 1289.698245770424 L 813 1289.6982457704235 L 814 1296.4689180241148 L 814 1296.4689180241144 L 815 1303.259354624789 L 815 1303.2593546247886 L 816 1310.0695555724474 L 816 1310.069555572447 L 817 1316.8995208670897 L 817 1316.8995208670894 L 818 1323.7492505087157 L 818 1323.7492505087152 L 819 1330.6187444973257 L 819 1330.6187444973252 L 820 1337.5080028329194 L 820 1337.508002832919 L 821 1344.4170255154972 L 821 1344.4170255154968 L 822 1351.3458125450584 L 822 1351.345812545058 L 823 1358.294363921604 L 823 1358.2943639216037 L 824 1365.2626796451332 L 824 1365.2626796451327 L 825 1372.250759715646 L 825 1372.2507597156455 L 826 1379.2586041331429 L 826 1379.2586041331424 L 827 1386.2862128976235 L 827 1386.286212897623 L 828 1393.333586009088 L 828 1393.3335860090879 L 829 1400.4007234675364 L 829 1400.400723467536 L 830 1407.4876252729687 L 830 1407.4876252729682 L 831 1414.5942914253847 L 831 1414.5942914253842 L 832 1421.7207219247848 L 832 1421.7207219247844 L 833 1428.8669167711682 L 833 1428.866916771168 L 834 1436.0328759645358 L 834 1436.0328759645354 L 835 1443.2185995048876 L 835 1443.2185995048872 L 836 1450.4240873922226 L 836 1450.4240873922222 L 837 1457.6493396265419 L 837 1457.6493396265416 L 838 1464.8943562078448 L 838 1464.8943562078443 L 839 1472.1591371361317 L 839 1472.1591371361314 L 840 1479.4436824114023 L 840 1479.4436824114018 L 841 1486.747992033657 L 841 1486.7479920336568 L 842 1494.072066002895 L 842 1494.0720660028946 L 843 1501.415904319117 L 843 1501.4159043191169 L 844 1508.7795069823235 L 844 1508.7795069823233 L 845 1516.1628739925134 L 845 1516.1628739925131 L 846 1523.5660053496872 L 846 1523.5660053496867 L 847 1530.9889010538448 L 847 1530.9889010538445 L 848 1538.4315611049863 L 848 1538.431561104986 L 849 1545.8939855031113 L 849 1545.893985503111 L 850 1553.3761742482207 L 850 1553.3761742482204 L 851 1560.8781273403135 L 851 1560.8781273403133 L 852 1568.3998447793902 L 852 1568.3998447793897 L 853 1575.9413265654512 L 853 1575.9413265654507 L 854 1583.5025726984954 L 854 1583.502572698495 L 855 1591.083583178524 L 855 1591.0835831785237 L 856 1598.684358005536 L 856 1598.6843580055356 L 857 1606.3048971795324 L 857 1606.304897179532 L 858 1613.945200700512 L 858 1613.9452007005116 L 859 1621.6052685684758 L 859 1621.6052685684756 L 860 1629.2851007834233 L 860 1629.2851007834229 L 861 1636.9846973453546 L 861 1636.9846973453543 L 862 1644.70405825427 L 862 1644.7040582542695 L 863 1652.4431835101689 L 863 1652.4431835101686 L 864 1660.2020731130522 L 864 1660.2020731130517 L 865 1667.9807270629187 L 865 1667.9807270629183 L 866 1675.7791453597695 L 866 1675.7791453597692 L 867 1683.597328003604 L 867 1683.5973280036037 L 868 1691.4352749944223 L 868 1691.4352749944221 L 869 1699.2929863322245 L 869 1699.2929863322242 L 870 1707.1704620170103 L 870 1707.17046201701 L 871 1715.0677020487806 L 871 1715.0677020487801 L 872 1722.984706427534 L 872 1722.9847064275336 L 873 1730.9214751532718 L 873 1730.9214751532713 L 874 1738.878008225993 L 874 1738.8780082259925 L 875 1746.8543056456986 L 875 1746.854305645698 L 876 1754.8503674123876 L 876 1754.850367412387 L 877 1762.8661935260602 L 877 1762.8661935260595 L 878 1770.9017839867172 L 878 1770.9017839867163 L 879 1778.9571387943574 L 879 1778.9571387943568 L 880 1787.0322579489825 L 880 1787.0322579489819 L 881 1795.1271414505904 L 881 1795.1271414505898 L 882 1803.2417892991825 L 882 1803.2417892991818 L 883 1811.3762014947592 L 883 1811.3762014947586 L 884 1819.530378037319 L 884 1819.5303780373183 L 885 1827.7043189268625 L 885 1827.7043189268618 L 886 1835.89802416339 L 886 1835.8980241633892 L 887 1844.1114937469017 L 887 1844.111493746901 L 888 1852.3447276773968 L 888 1852.3447276773961 L 889 1860.5977259548756 L 889 1860.597725954875 L 890 1868.8704885793386 L 890 1868.870488579338 L 891 1877.163015550785 L 891 1877.1630155507844 L 892 1885.4753068692164 L 892 1885.4753068692157 L 893 1893.8073625346306 L 893 1893.8073625346299 L 894 1902.1591825470289 L 894 1902.1591825470282 L 895 1910.5307669064107 L 895 1910.53076690641 L 896 1918.9221156127774 L 896 1918.9221156127765 L 897 1927.333228666127 L 897 1927.3332286661264 L 898 1935.7641060664605 L 898 1935.7641060664598 L 899 1944.2147478137779 L 899 1944.2147478137772 L 900 1952.6851539080792 L 900 1952.6851539080785 L 901 1961.175324349365 L 901 1961.1753243493642 L 902 1969.6852591376337 L 902 1969.685259137633 L 903 1978.2149582728864 L 903 1978.2149582728857 L 904 1986.7644217551233 L 904 1986.7644217551226 L 905 1995.3336495843444 L 905 1995.3336495843437 L 906 2003.9226417605487 L 906 2003.922641760548 L 907 2012.5313982837367 L 907 2012.531398283736 L 908 2021.159919153909 L 908 2021.159919153908 L 909 2029.8082043710644 L 909 2029.8082043710638 L 910 2038.476253935205 L 910 2038.476253935204 L 911 2047.1640678463284 L 911 2047.1640678463277 L 912 2055.871646104436 L 912 2055.871646104435 L 913 2064.598988709527 L 913 2064.5989887095266 L 914 2073.3460956616027 L 914 2073.3460956616022 L 915 2082.1129669606617 L 915 2082.1129669606607 L 916 2090.8996026067043 L 916 2090.8996026067034 L 917 2099.7060025997307 L 917 2099.7060025997303 L 918 2108.5321669397417 L 918 2108.532166939741 L 919 2117.3780956267365 L 919 2117.3780956267356 L 920 2126.243788660715 L 920 2126.243788660714 L 921 2135.129246041676 L 921 2135.1292460416757 L 922 2144.0344677696226 L 922 2144.0344677696216 L 923 2152.9594538445526 L 923 2152.959453844552 L 924 2161.904204266466 L 924 2161.9042042664655 L 925 2170.8687190353635 L 925 2170.868719035363 L 926 2179.8529981512447 L 926 2179.852998151244 L 927 2188.85704161411 L 927 2188.857041614109 L 928 2197.8808494239593 L 928 2197.880849423959 L 929 2206.924421580792 L 929 2206.924421580791 L 930 2215.9877580846087 L 930 2215.987758084608 L 931 2225.070858935409 L 931 2225.070858935408 L 932 2234.173724133194 L 932 2234.1737241331934 L 933 2243.296353677962 L 933 2243.2963536779616 L 934 2252.438747569714 L 934 2252.4387475697135 L 935 2261.60090580845 L 935 2261.600905808449 L 936 2270.78282839417 L 936 2270.782828394169 L 937 2279.9845153268734 L 937 2279.984515326873 L 938 2289.205966606561 L 938 2289.2059666065607 L 939 2298.4471822332325 L 939 2298.4471822332316 L 940 2307.708162206887 L 940 2307.7081622068868 L 941 2316.988906527527 L 941 2316.9889065275265 L 942 2326.2894151951496 L 942 2326.2894151951486 L 943 2335.6096882097563 L 943 2335.6096882097554 L 944 2344.949725571347 L 944 2344.949725571346 L 945 2354.309527279921 L 945 2354.30952727992 L 946 2363.68909333548 L 946 2363.689093335479 L 947 2373.0884237380214 L 947 2373.0884237380205 L 948 2382.5075184875473 L 948 2382.507518487547 L 949 2391.946377584057 L 949 2391.9463775840563 L 950 2401.4050010275514 L 950 2401.4050010275505 L 951 2410.8833888180284 L 951 2410.883388818028 L 952 2420.38154095549" stroke-opacity="0.6980392156862745" stroke-linecap="round" stroke-linejoin="round" stroke-miterlimit="10" stroke-width="2.5"/><g transform="scale(19,19)"><g transform="translate(15.105263157894736,27.021586736842107)"><path fill="rgb(0,100,0)" stroke="none" paint-order="stroke fill markers" d=" M 0.367 -0.4 L 0.367 -0.4 L 0.307 -0.083 Q 0.298 -0.021 0.271 0.059000000000000004 Q 0.261 0.088 0.251 0.108 Q 0.216 0.182 0.164 0.2 Q 0.151 0.20500000000000002 0.138 0.20500000000000002 Q 0.088 0.20500000000000002 0.064 0.171 Q 0.053 0.156 0.053 0.136 Q 0.053 0.096 0.08700000000000001 0.081 Q 0.097 0.076 0.108 0.076 Q 0.137 0.076 0.14400000000000002 0.101 Q 0.145 0.106 0.145 0.111 Q 0.145 0.145 0.115 0.159 Q 0.10400000000000001 0.164 0.09 0.165 Q 0.109 0.183 0.138 0.183 Q 0.182 0.183 0.20700000000000002 0.085 Q 0.212 0.062 0.219 0.025 L 0.225 -0.005 L 0.3 -0.4 L 0.234 -0.4 Q 0.209 -0.4 0.20700000000000002 -0.40800000000000003 L 0.20600000000000002 -0.40800000000000003 L 0.20600000000000002 -0.41200000000000003 Q 0.20600000000000002 -0.429 0.223 -0.431 L 0.223 -0.431 L 0.23600000000000002 -0.431 L 0.305 -0.431 Q 0.329 -0.556 0.338 -0.588 Q 0.368 -0.6880000000000001 0.444 -0.7030000000000001 Q 0.455 -0.705 0.465 -0.705 Q 0.517 -0.705 0.541 -0.671 L 0.541 -0.671 Q 0.552 -0.656 0.552 -0.636 Q 0.552 -0.596 0.518 -0.581 Q 0.508 -0.5760000000000001 0.497 -0.5760000000000001 Q 0.468 -0.5760000000000001 0.461 -0.601 Q 0.46 -0.606 0.46 -0.611 Q 0.46 -0.642 0.488 -0.657 Q 0.499 -0.664 0.514 -0.665 Q 0.495 -0.683 0.465 -0.683 Q 0.434 -0.683 0.418 -0.649 Q 0.41100000000000003 -0.635 0.394 -0.545 L 0.373 -0.431 L 0.456 -0.431 Q 0.481 -0.431 0.483 -0.42 Q 0.483 -0.402 0.467 -0.4 L 0.466 -0.4 L 0.453 -0.4 L 0.367 -0.4 Z"/></g><g transform="translate(15.703263157894737,27.021586736842107)"><path fill="rgb(0,100,0)" stroke="none" paint-order="stroke fill markers" d=" M 0.331 0.24 L 0.331 0.24 Q 0.331 0.25 0.321 0.25 Q 0.309 0.25 0.268 0.209 Q 0.20600000000000002 0.147 0.165 0.062 Q 0.099 -0.074 0.099 -0.25 Q 0.099 -0.419 0.162 -0.555 Q 0.214 -0.666 0.294 -0.733 Q 0.315 -0.75 0.321 -0.75 Q 0.331 -0.75 0.331 -0.74 Q 0.331 -0.735 0.318 -0.723 Q 0.157 -0.559 0.157 -0.25 Q 0.157 0.058 0.314 0.218 Q 0.331 0.23500000000000001 0.331 0.24 Z"/></g><g transform="translate(16.092263157894738,27.021586736842107)"><path fill="rgb(0,100,0)" stroke="none" paint-order="stroke fill markers" d=" M 0.334 -0.302 L 0.3 -0.165 Q 0.28300000000000003 -0.097 0.28300000000000003 -0.077 Q 0.28300000000000003 -0.025 0.32 -0.014 Q 0.328 -0.011 0.338 -0.011 Q 0.388 -0.011 0.429 -0.061 Q 0.456 -0.093 0.47100000000000003 -0.14200000000000002 Q 0.47400000000000003 -0.153 0.484 -0.153 Q 0.496 -0.153 0.496 -0.14300000000000002 Q 0.496 -0.11800000000000001 0.465 -0.07100000000000001 Q 0.41100000000000003 0.011 0.336 0.011 Q 0.268 0.011 0.23700000000000002 -0.046 Q 0.231 -0.055 0.228 -0.065 Q 0.20400000000000001 -0.017 0.162 0.002 Q 0.14300000000000002 0.011 0.123 0.011 Q 0.063 0.011 0.039 -0.024 Q 0.029 -0.037 0.029 -0.055 Q 0.029 -0.092 0.061 -0.107 Q 0.07200000000000001 -0.113 0.084 -0.113 Q 0.114 -0.113 0.12 -0.088 Q 0.121 -0.083 0.121 -0.078 Q 0.121 -0.044 0.08700000000000001 -0.028 Q 0.081 -0.025 0.074 -0.024 Q 0.095 -0.011 0.124 -0.011 Q 0.177 -0.011 0.20800000000000002 -0.082 Q 0.214 -0.097 0.219 -0.115 Q 0.273 -0.319 0.273 -0.353 Q 0.267 -0.41500000000000004 0.219 -0.42 Q 0.167 -0.42 0.124 -0.367 L 0.124 -0.366 Q 0.124 -0.365 0.123 -0.365 Q 0.108 -0.34500000000000003 0.096 -0.319 Q 0.091 -0.307 0.08700000000000001 -0.295 L 0.085 -0.289 Q 0.083 -0.278 0.07200000000000001 -0.278 Q 0.06 -0.278 0.06 -0.28800000000000003 Q 0.06 -0.313 0.092 -0.36 Q 0.146 -0.442 0.221 -0.442 Q 0.298 -0.442 0.329 -0.366 Q 0.361 -0.428 0.41400000000000003 -0.44 Q 0.424 -0.442 0.434 -0.442 Q 0.493 -0.442 0.517 -0.40900000000000003 Q 0.527 -0.395 0.527 -0.376 Q 0.527 -0.335 0.49 -0.321 Q 0.481 -0.318 0.47300000000000003 -0.318 Q 0.442 -0.318 0.436 -0.34500000000000003 Q 0.435 -0.34900000000000003 0.435 -0.353 Q 0.435 -0.383 0.464 -0.4 Q 0.47300000000000003 -0.405 0.483 -0.40700000000000003 Q 0.462 -0.42 0.433 -0.42 Q 0.365 -0.42 0.337 -0.314 Q 0.335 -0.308 0.334 -0.302 Z"/></g><g transform="translate(16.664263157894737,27.021586736842107)"><path fill="rgb(0,100,0)" stroke="none" paint-order="stroke fill markers" d=" M 0.289 -0.25 L 0.289 -0.25 Q 0.289 -0.081 0.226 0.055 Q 0.17400000000000002 0.166 0.094 0.233 Q 0.073 0.25 0.067 0.25 Q 0.057 0.25 0.057 0.24 Q 0.057 0.23500000000000001 0.07 0.223 Q 0.231 0.059000000000000004 0.231 -0.25 Q 0.231 -0.555 0.081 -0.712 L 0.076 -0.717 Q 0.057 -0.735 0.057 -0.74 Q 0.057 -0.75 0.067 -0.75 Q 0.079 -0.75 0.12 -0.709 Q 0.182 -0.647 0.223 -0.562 Q 0.289 -0.426 0.289 -0.25 Z"/></g><g transform="translate(17.608818713450294,27.021586736842107)"><path fill="rgb(0,100,0)" stroke="none" paint-order="stroke fill markers" d=" M 0.687 -0.327 L 0.09 -0.327 Q 0.058 -0.327 0.056 -0.34700000000000003 Q 0.056 -0.367 0.089 -0.367 L 0.6880000000000001 -0.367 Q 0.72 -0.367 0.721 -0.34700000000000003 Q 0.721 -0.327 0.687 -0.327 M 0.6880000000000001 -0.133 L 0.089 -0.133 Q 0.057 -0.133 0.056 -0.153 Q 0.056 -0.17300000000000001 0.09 -0.17300000000000001 L 0.687 -0.17300000000000001 Q 0.719 -0.17300000000000001 0.721 -0.153 Q 0.721 -0.133 0.6880000000000001 -0.133 Z"/></g><g transform="translate(18.94237426900585,27.021586736842107)"><path fill="rgb(0,100,0)" stroke="none" paint-order="stroke fill markers" d=" M 0.661 -0.23 L 0.116 -0.23 Q 0.084 -0.23 0.083 -0.25 Q 0.083 -0.27 0.116 -0.27 L 0.661 -0.27 Q 0.6930000000000001 -0.27 0.6940000000000001 -0.25 Q 0.6940000000000001 -0.23 0.661 -0.23 Z"/></g><g transform="translate(19.72037426900585,27.021586736842107)"><path fill="rgb(0,100,0)" stroke="none" paint-order="stroke fill markers" d=" M 0.334 -0.302 L 0.3 -0.165 Q 0.28300000000000003 -0.097 0.28300000000000003 -0.077 Q 0.28300000000000003 -0.025 0.32 -0.014 Q 0.328 -0.011 0.338 -0.011 Q 0.388 -0.011 0.429 -0.061 Q 0.456 -0.093 0.47100000000000003 -0.14200000000000002 Q 0.47400000000000003 -0.153 0.484 -0.153 Q 0.496 -0.153 0.496 -0.14300000000000002 Q 0.496 -0.11800000000000001 0.465 -0.07100000000000001 Q 0.41100000000000003 0.011 0.336 0.011 Q 0.268 0.011 0.23700000000000002 -0.046 Q 0.231 -0.055 0.228 -0.065 Q 0.20400000000000001 -0.017 0.162 0.002 Q 0.14300000000000002 0.011 0.123 0.011 Q 0.063 0.011 0.039 -0.024 Q 0.029 -0.037 0.029 -0.055 Q 0.029 -0.092 0.061 -0.107 Q 0.07200000000000001 -0.113 0.084 -0.113 Q 0.114 -0.113 0.12 -0.088 Q 0.121 -0.083 0.121 -0.078 Q 0.121 -0.044 0.08700000000000001 -0.028 Q 0.081 -0.025 0.074 -0.024 Q 0.095 -0.011 0.124 -0.011 Q 0.177 -0.011 0.20800000000000002 -0.082 Q 0.214 -0.097 0.219 -0.115 Q 0.273 -0.319 0.273 -0.353 Q 0.267 -0.41500000000000004 0.219 -0.42 Q 0.167 -0.42 0.124 -0.367 L 0.124 -0.366 Q 0.124 -0.365 0.123 -0.365 Q 0.108 -0.34500000000000003 0.096 -0.319 Q 0.091 -0.307 0.08700000000000001 -0.295 L 0.085 -0.289 Q 0.083 -0.278 0.07200000000000001 -0.278 Q 0.06 -0.278 0.06 -0.28800000000000003 Q 0.06 -0.313 0.092 -0.36 Q 0.146 -0.442 0.221 -0.442 Q 0.298 -0.442 0.329 -0.366 Q 0.361 -0.428 0.41400000000000003 -0.44 Q 0.424 -0.442 0.434 -0.442 Q 0.493 -0.442 0.517 -0.40900000000000003 Q 0.527 -0.395 0.527 -0.376 Q 0.527 -0.335 0.49 -0.321 Q 0.481 -0.318 0.47300000000000003 -0.318 Q 0.442 -0.318 0.436 -0.34500000000000003 Q 0.435 -0.34900000000000003 0.435 -0.353 Q 0.435 -0.383 0.464 -0.4 Q 0.47300000000000003 -0.405 0.483 -0.40700000000000003 Q 0.462 -0.42 0.433 -0.42 Q 0.365 -0.42 0.337 -0.314 Q 0.335 -0.308 0.334 -0.302 Z"/></g><g transform="translate(20.292374269005848,26.608694736842107) scale(0.7,0.7)"><path fill="rgb(0,100,0)" stroke="none" paint-order="stroke fill markers" d=" M 0.449 -0.17400000000000002 L 0.449 -0.17400000000000002 L 0.421 0 L 0.05 0 Q 0.05 -0.025 0.056 -0.032 L 0.061 -0.037 L 0.253 -0.251 Q 0.358 -0.369 0.358 -0.47200000000000003 Q 0.358 -0.561 0.304 -0.607 L 0.303 -0.608 L 0.302 -0.608 Q 0.27 -0.635 0.224 -0.635 Q 0.152 -0.635 0.109 -0.5730000000000001 Q 0.097 -0.555 0.089 -0.533 Q 0.092 -0.534 0.10200000000000001 -0.534 Q 0.14200000000000002 -0.534 0.153 -0.498 L 0.153 -0.497 Q 0.155 -0.49 0.155 -0.482 Q 0.155 -0.442 0.117 -0.431 Q 0.109 -0.429 0.10300000000000001 -0.429 Q 0.066 -0.429 0.054 -0.46 Q 0.05 -0.47100000000000003 0.05 -0.485 Q 0.05 -0.562 0.109 -0.617 Q 0.162 -0.666 0.23700000000000002 -0.666 Q 0.34700000000000003 -0.666 0.40800000000000003 -0.592 Q 0.443 -0.549 0.448 -0.49 Q 0.449 -0.481 0.449 -0.47200000000000003 Q 0.449 -0.399 0.394 -0.333 Q 0.365 -0.299 0.304 -0.243 L 0.243 -0.189 L 0.233 -0.18 L 0.127 -0.077 L 0.307 -0.077 Q 0.395 -0.077 0.402 -0.085 Q 0.41200000000000003 -0.099 0.424 -0.17400000000000002 L 0.449 -0.17400000000000002 Z"/></g><g transform="translate(20.890813965172807,27.021586736842107)"><path fill="rgb(0,100,0)" stroke="none" paint-order="stroke fill markers" d=" M 0.40900000000000003 -0.23 L 0.40900000000000003 0.05 Q 0.40900000000000003 0.082 0.389 0.083 Q 0.369 0.083 0.369 0.05 L 0.369 -0.23 L 0.089 -0.23 Q 0.057 -0.23 0.056 -0.25 Q 0.056 -0.27 0.089 -0.27 L 0.369 -0.27 L 0.369 -0.55 Q 0.369 -0.582 0.389 -0.583 Q 0.40900000000000003 -0.583 0.40900000000000003 -0.55 L 0.40900000000000003 -0.27 L 0.6880000000000001 -0.27 Q 0.72 -0.27 0.721 -0.25 Q 0.721 -0.23 0.6880000000000001 -0.23 L 0.40900000000000003 -0.23 Z"/></g><g transform="translate(21.891036187395027,27.021586736842107)"><path fill="rgb(0,100,0)" stroke="none" paint-order="stroke fill markers" d=" M 0.028 -0.165 L 0.028 -0.196 L 0.335 -0.665 Q 0.343 -0.677 0.355 -0.677 Q 0.369 -0.677 0.371 -0.666 L 0.371 -0.651 L 0.371 -0.196 L 0.47100000000000003 -0.196 L 0.47100000000000003 -0.165 L 0.371 -0.165 L 0.371 -0.078 Q 0.371 -0.047 0.383 -0.04 Q 0.397 -0.031 0.447 -0.031 L 0.468 -0.031 L 0.468 0 Q 0.427 -0.003 0.332 -0.003 Q 0.23800000000000002 -0.003 0.197 0 L 0.197 -0.031 L 0.218 -0.031 Q 0.28 -0.031 0.29 -0.048 Q 0.294 -0.055 0.294 -0.078 L 0.294 -0.165 L 0.028 -0.165 M 0.3 -0.196 L 0.3 -0.5690000000000001 L 0.056 -0.196 L 0.3 -0.196 Z"/></g></g><path fill="none" stroke="rgb(204,0,0)" paint-order="fill stroke markers" d=" M 189.01711295283002 596 L 489.5171129528296 -5" stroke-opacity="0.6980392156862745" stroke-linecap="round" stroke-linejoin="round" stroke-miterlimit="10" stroke-width="2.5"/><g transform="scale(19,19)"><g transform="translate(26.473684210526315,2.5913684210526315)"><path fill="rgb(204,0,0)" stroke="none" paint-order="stroke fill markers" d=" M 0.486 -0.381 L 0.39 0.001 Q 0.366 0.099 0.28300000000000003 0.16 Q 0.222 0.20500000000000002 0.156 0.20500000000000002 Q 0.089 0.20500000000000002 0.061 0.159 Q 0.05 0.14 0.05 0.11800000000000001 Q 0.05 0.067 0.091 0.055 Q 0.099 0.053 0.106 0.053 Q 0.138 0.053 0.14200000000000002 0.081 Q 0.14300000000000002 0.084 0.14300000000000002 0.088 Q 0.14300000000000002 0.111 0.123 0.129 Q 0.109 0.14100000000000001 0.08 0.14100000000000001 Q 0.098 0.183 0.156 0.183 Q 0.218 0.183 0.266 0.12 Q 0.305 0.068 0.328 -0.021 Q 0.329 -0.025 0.331 -0.034 Q 0.28600000000000003 0.011 0.23 0.011 Q 0.15 0.011 0.121 -0.048 Q 0.108 -0.074 0.108 -0.108 Q 0.108 -0.163 0.161 -0.305 Q 0.163 -0.311 0.166 -0.318 Q 0.183 -0.364 0.183 -0.388 Q 0.183 -0.42 0.158 -0.42 Q 0.10300000000000001 -0.42 0.068 -0.329 L 0.068 -0.328 Q 0.062 -0.313 0.057 -0.296 Q 0.046 -0.279 0.041 -0.278 Q 0.029 -0.278 0.029 -0.28800000000000003 Q 0.029 -0.306 0.05 -0.35100000000000003 Q 0.094 -0.442 0.161 -0.442 Q 0.214 -0.442 0.23500000000000001 -0.397 Q 0.243 -0.38 0.243 -0.36 Q 0.243 -0.339 0.223 -0.28800000000000003 Q 0.17200000000000001 -0.156 0.17200000000000001 -0.092 Q 0.17200000000000001 -0.011 0.234 -0.011 Q 0.292 -0.011 0.335 -0.073 Q 0.34500000000000003 -0.088 0.34700000000000003 -0.096 L 0.392 -0.276 Q 0.399 -0.309 0.41200000000000003 -0.356 Q 0.422 -0.399 0.426 -0.41000000000000003 Q 0.439 -0.431 0.461 -0.431 Q 0.486 -0.426 0.49 -0.404 Q 0.49 -0.395 0.486 -0.381 Z"/></g><g transform="translate(27.277461988304093,2.5913684210526315)"><path fill="rgb(204,0,0)" stroke="none" paint-order="stroke fill markers" d=" M 0.687 -0.327 L 0.09 -0.327 Q 0.058 -0.327 0.056 -0.34700000000000003 Q 0.056 -0.367 0.089 -0.367 L 0.6880000000000001 -0.367 Q 0.72 -0.367 0.721 -0.34700000000000003 Q 0.721 -0.327 0.687 -0.327 M 0.6880000000000001 -0.133 L 0.089 -0.133 Q 0.057 -0.133 0.056 -0.153 Q 0.056 -0.17300000000000001 0.09 -0.17300000000000001 L 0.687 -0.17300000000000001 Q 0.719 -0.17300000000000001 0.721 -0.153 Q 0.721 -0.133 0.6880000000000001 -0.133 Z"/></g><g transform="translate(28.33323976608187,2.5913684210526315)"><path fill="rgb(204,0,0)" stroke="none" paint-order="stroke fill markers" d=" M 0.449 -0.17400000000000002 L 0.449 -0.17400000000000002 L 0.421 0 L 0.05 0 Q 0.05 -0.025 0.056 -0.032 L 0.061 -0.037 L 0.253 -0.251 Q 0.358 -0.369 0.358 -0.47200000000000003 Q 0.358 -0.561 0.304 -0.607 L 0.303 -0.608 L 0.302 -0.608 Q 0.27 -0.635 0.224 -0.635 Q 0.152 -0.635 0.109 -0.5730000000000001 Q 0.097 -0.555 0.089 -0.533 Q 0.092 -0.534 0.10200000000000001 -0.534 Q 0.14200000000000002 -0.534 0.153 -0.498 L 0.153 -0.497 Q 0.155 -0.49 0.155 -0.482 Q 0.155 -0.442 0.117 -0.431 Q 0.109 -0.429 0.10300000000000001 -0.429 Q 0.066 -0.429 0.054 -0.46 Q 0.05 -0.47100000000000003 0.05 -0.485 Q 0.05 -0.562 0.109 -0.617 Q 0.162 -0.666 0.23700000000000002 -0.666 Q 0.34700000000000003 -0.666 0.40800000000000003 -0.592 Q 0.443 -0.549 0.448 -0.49 Q 0.449 -0.481 0.449 -0.47200000000000003 Q 0.449 -0.399 0.394 -0.333 Q 0.365 -0.299 0.304 -0.243 L 0.243 -0.189 L 0.233 -0.18 L 0.127 -0.077 L 0.307 -0.077 Q 0.395 -0.077 0.402 -0.085 Q 0.41200000000000003 -0.099 0.424 -0.17400000000000002 L 0.449 -0.17400000000000002 Z"/></g><g transform="translate(28.83323976608187,2.5913684210526315)"><path fill="rgb(204,0,0)" stroke="none" paint-order="stroke fill markers" d=" M 0.334 -0.302 L 0.3 -0.165 Q 0.28300000000000003 -0.097 0.28300000000000003 -0.077 Q 0.28300000000000003 -0.025 0.32 -0.014 Q 0.328 -0.011 0.338 -0.011 Q 0.388 -0.011 0.429 -0.061 Q 0.456 -0.093 0.47100000000000003 -0.14200000000000002 Q 0.47400000000000003 -0.153 0.484 -0.153 Q 0.496 -0.153 0.496 -0.14300000000000002 Q 0.496 -0.11800000000000001 0.465 -0.07100000000000001 Q 0.41100000000000003 0.011 0.336 0.011 Q 0.268 0.011 0.23700000000000002 -0.046 Q 0.231 -0.055 0.228 -0.065 Q 0.20400000000000001 -0.017 0.162 0.002 Q 0.14300000000000002 0.011 0.123 0.011 Q 0.063 0.011 0.039 -0.024 Q 0.029 -0.037 0.029 -0.055 Q 0.029 -0.092 0.061 -0.107 Q 0.07200000000000001 -0.113 0.084 -0.113 Q 0.114 -0.113 0.12 -0.088 Q 0.121 -0.083 0.121 -0.078 Q 0.121 -0.044 0.08700000000000001 -0.028 Q 0.081 -0.025 0.074 -0.024 Q 0.095 -0.011 0.124 -0.011 Q 0.177 -0.011 0.20800000000000002 -0.082 Q 0.214 -0.097 0.219 -0.115 Q 0.273 -0.319 0.273 -0.353 Q 0.267 -0.41500000000000004 0.219 -0.42 Q 0.167 -0.42 0.124 -0.367 L 0.124 -0.366 Q 0.124 -0.365 0.123 -0.365 Q 0.108 -0.34500000000000003 0.096 -0.319 Q 0.091 -0.307 0.08700000000000001 -0.295 L 0.085 -0.289 Q 0.083 -0.278 0.07200000000000001 -0.278 Q 0.06 -0.278 0.06 -0.28800000000000003 Q 0.06 -0.313 0.092 -0.36 Q 0.146 -0.442 0.221 -0.442 Q 0.298 -0.442 0.329 -0.366 Q 0.361 -0.428 0.41400000000000003 -0.44 Q 0.424 -0.442 0.434 -0.442 Q 0.493 -0.442 0.517 -0.40900000000000003 Q 0.527 -0.395 0.527 -0.376 Q 0.527 -0.335 0.49 -0.321 Q 0.481 -0.318 0.47300000000000003 -0.318 Q 0.442 -0.318 0.436 -0.34500000000000003 Q 0.435 -0.34900000000000003 0.435 -0.353 Q 0.435 -0.383 0.464 -0.4 Q 0.47300000000000003 -0.405 0.483 -0.40700000000000003 Q 0.462 -0.42 0.433 -0.42 Q 0.365 -0.42 0.337 -0.314 Q 0.335 -0.308 0.334 -0.302 Z"/></g><g transform="translate(29.62746198830409,2.5913684210526315)"><path fill="rgb(204,0,0)" stroke="none" paint-order="stroke fill markers" d=" M 0.40900000000000003 -0.23 L 0.40900000000000003 0.05 Q 0.40900000000000003 0.082 0.389 0.083 Q 0.369 0.083 0.369 0.05 L 0.369 -0.23 L 0.089 -0.23 Q 0.057 -0.23 0.056 -0.25 Q 0.056 -0.27 0.089 -0.27 L 0.369 -0.27 L 0.369 -0.55 Q 0.369 -0.582 0.389 -0.583 Q 0.40900000000000003 -0.583 0.40900000000000003 -0.55 L 0.40900000000000003 -0.27 L 0.6880000000000001 -0.27 Q 0.72 -0.27 0.721 -0.25 Q 0.721 -0.23 0.6880000000000001 -0.23 L 0.40900000000000003 -0.23 Z"/></g><g transform="translate(30.62768421052631,2.5913684210526315)"><path fill="rgb(204,0,0)" stroke="none" paint-order="stroke fill markers" d=" M 0.449 -0.201 L 0.449 -0.201 Q 0.449 -0.098 0.372 -0.031 Q 0.31 0.022 0.231 0.022 Q 0.139 0.022 0.085 -0.055 Q 0.05 -0.10400000000000001 0.05 -0.161 Q 0.05 -0.20700000000000002 0.091 -0.213 Q 0.095 -0.214 0.099 -0.214 Q 0.136 -0.214 0.147 -0.181 Q 0.149 -0.17300000000000001 0.149 -0.165 Q 0.149 -0.133 0.121 -0.121 Q 0.111 -0.116 0.099 -0.116 Q 0.088 -0.116 0.082 -0.11800000000000001 Q 0.1 -0.055 0.159 -0.024 Q 0.192 -0.006 0.229 -0.006 Q 0.296 -0.006 0.336 -0.07100000000000001 Q 0.36 -0.113 0.36 -0.20800000000000002 Q 0.36 -0.292 0.342 -0.334 Q 0.314 -0.398 0.257 -0.398 Q 0.176 -0.398 0.128 -0.328 Q 0.122 -0.319 0.115 -0.319 Q 0.10200000000000001 -0.319 0.101 -0.333 L 0.101 -0.34500000000000003 L 0.101 -0.641 Q 0.101 -0.664 0.111 -0.665 Q 0.115 -0.665 0.123 -0.662 Q 0.186 -0.634 0.256 -0.634 Q 0.328 -0.634 0.392 -0.663 Q 0.397 -0.666 0.4 -0.666 Q 0.41000000000000003 -0.666 0.41000000000000003 -0.655 Q 0.41000000000000003 -0.642 0.378 -0.613 Q 0.31 -0.551 0.217 -0.551 Q 0.17500000000000002 -0.551 0.132 -0.5640000000000001 L 0.132 -0.369 Q 0.184 -0.42 0.259 -0.42 Q 0.34700000000000003 -0.42 0.404 -0.343 Q 0.449 -0.28200000000000003 0.449 -0.201 Z"/></g></g><path fill="rgb(153,51,255)" stroke="none" paint-order="stroke fill markers" d=" M 374.73769098672227 234.55884393221498 C 374.73769098672227 237.32026768136896 372.4991147358762 239.55884393221498 369.73769098672227 239.55884393221498 C 366.9762672375683 239.55884393221498 364.73769098672227 237.32026768136896 364.73769098672227 234.55884393221498 C 364.73769098672227 231.797420183061 366.9762672375683 229.55884393221498 369.73769098672227 229.55884393221498 C 372.4991147358762 229.55884393221498 374.73769098672227 231.797420183061 374.73769098672227 234.55884393221498 Z" fill-opacity="1"/><path fill="none" stroke="rgb(0,0,0)" paint-order="fill stroke markers" d=" M 374.73769098672227 234.55884393221498 C 374.73769098672227 237.32026768136896 372.4991147358762 239.55884393221498 369.73769098672227 239.55884393221498 C 366.9762672375683 239.55884393221498 364.73769098672227 237.32026768136896 364.73769098672227 234.55884393221498 C 364.73769098672227 231.797420183061 366.9762672375683 229.55884393221498 369.73769098672227 229.55884393221498 C 372.4991147358762 229.55884393221498 374.73769098672227 231.797420183061 374.73769098672227 234.55884393221498 Z" stroke-opacity="1" stroke-linecap="round" stroke-linejoin="round" stroke-miterlimit="10"/><text fill="rgb(153,51,255)" stroke="none" font-family="geogebra-sans-serif, sans-serif" font-size="16px" font-style="normal" font-weight="normal" text-decoration="normal" x="294" y="225" text-anchor="start" dominant-baseline="alphabetic" fill-opacity="1">P = (-1, 3)</text><text fill="none" stroke="rgb(255,255,255)" font-family="geogebra-sans-serif, sans-serif" font-size="16px" font-style="normal" font-weight="normal" text-decoration="normal" x="294" y="225" text-anchor="start" dominant-baseline="alphabetic" stroke-opacity="1" stroke-linejoin="bevel" stroke-miterlimit="10" stroke-width="3">P = (-1, 3)</text><text fill="rgb(153,51,255)" stroke="none" font-family="geogebra-sans-serif, sans-serif" font-size="16px" font-style="normal" font-weight="normal" text-decoration="normal" x="294" y="225" text-anchor="start" dominant-baseline="alphabetic" fill-opacity="1">P = (-1, 3)</text></g></g></svg>