<svg version="1.1" xmlns="http://www.w3.org/2000/svg" xmlns:xlink="http://www.w3.org/1999/xlink" width="1522" height="973"><defs><clipPath id="GuwpeMKcKoHe"><path fill="none" stroke="none" d=" M 0 0 L 1522 0 L 1522 973 L 0 973 L 0 0 Z"/></clipPath></defs><g transform="scale(1,1)" clip-path="url(#GuwpeMKcKoHe)"><g><rect fill="rgb(255,255,255)" stroke="none" x="0" y="0" width="1522" height="973" fill-opacity="1"/><path fill="none" stroke="rgb(192,192,192)" paint-order="fill stroke markers" d=" M 44.5 0.5 L 44.5 973.5 M 44.5 0.5 L 44.5 973.5 M 99.5 0.5 L 99.5 973.5 M 153.5 0.5 L 153.5 973.5 M 207.5 0.5 L 207.5 973.5 M 262.5 0.5 L 262.5 973.5 M 316.5 0.5 L 316.5 973.5 M 371.5 0.5 L 371.5 973.5 M 425.5 0.5 L 425.5 973.5 M 534.5 0.5 L 534.5 973.5 M 588.5 0.5 L 588.5 973.5 M 642.5 0.5 L 642.5 973.5 M 697.5 0.5 L 697.5 973.5 M 751.5 0.5 L 751.5 973.5 M 805.5 0.5 L 805.5 973.5 M 860.5 0.5 L 860.5 973.5 M 914.5 0.5 L 914.5 973.5 M 968.5 0.5 L 968.5 973.5 M 1023.5 0.5 L 1023.5 973.5 M 1077.5 0.5 L 1077.5 973.5 M 1131.5 0.5 L 1131.5 973.5 M 1186.5 0.5 L 1186.5 973.5 M 1240.5 0.5 L 1240.5 973.5 M 1294.5 0.5 L 1294.5 973.5 M 1349.5 0.5 L 1349.5 973.5 M 1403.5 0.5 L 1403.5 973.5 M 1458.5 0.5 L 1458.5 973.5 M 1512.5 0.5 L 1512.5 973.5" stroke-opacity="1" stroke-linecap="round" stroke-linejoin="round" stroke-miterlimit="10"/><path fill="none" stroke="rgb(192,192,192)" paint-order="fill stroke markers" d=" M 1.5 0.5 L 1.5 973.5 M 12.5 0.5 L 12.5 973.5 M 23.5 0.5 L 23.5 973.5 M 34.5 0.5 L 34.5 973.5 M 55.5 0.5 L 55.5 973.5 M 66.5 0.5 L 66.5 973.5 M 77.5 0.5 L 77.5 973.5 M 88.5 0.5 L 88.5 973.5 M 110.5 0.5 L 110.5 973.5 M 121.5 0.5 L 121.5 973.5 M 131.5 0.5 L 131.5 973.5 M 142.5 0.5 L 142.5 973.5 M 164.5 0.5 L 164.5 973.5 M 175.5 0.5 L 175.5 973.5 M 186.5 0.5 L 186.5 973.5 M 197.5 0.5 L 197.5 973.5 M 218.5 0.5 L 218.5 973.5 M 229.5 0.5 L 229.5 973.5 M 240.5 0.5 L 240.5 973.5 M 251.5 0.5 L 251.5 973.5 M 273.5 0.5 L 273.5 973.5 M 284.5 0.5 L 284.5 973.5 M 294.5 0.5 L 294.5 973.5 M 305.5 0.5 L 305.5 973.5 M 327.5 0.5 L 327.5 973.5 M 338.5 0.5 L 338.5 973.5 M 349.5 0.5 L 349.5 973.5 M 360.5 0.5 L 360.5 973.5 M 381.5 0.5 L 381.5 973.5 M 392.5 0.5 L 392.5 973.5 M 403.5 0.5 L 403.5 973.5 M 414.5 0.5 L 414.5 973.5 M 436.5 0.5 L 436.5 973.5 M 447.5 0.5 L 447.5 973.5 M 457.5 0.5 L 457.5 973.5 M 468.5 0.5 L 468.5 973.5 M 490.5 0.5 L 490.5 973.5 M 501.5 0.5 L 501.5 973.5 M 512.5 0.5 L 512.5 973.5 M 523.5 0.5 L 523.5 973.5 M 544.5 0.5 L 544.5 973.5 M 555.5 0.5 L 555.5 973.5 M 566.5 0.5 L 566.5 973.5 M 577.5 0.5 L 577.5 973.5 M 599.5 0.5 L 599.5 973.5 M 610.5 0.5 L 610.5 973.5 M 621.5 0.5 L 621.5 973.5 M 631.5 0.5 L 631.5 973.5 M 653.5 0.5 L 653.5 973.5 M 664.5 0.5 L 664.5 973.5 M 675.5 0.5 L 675.5 973.5 M 686.5 0.5 L 686.5 973.5 M 708.5 0.5 L 708.5 973.5 M 718.5 0.5 L 718.5 973.5 M 729.5 0.5 L 729.5 973.5 M 740.5 0.5 L 740.5 973.5 M 762.5 0.5 L 762.5 973.5 M 773.5 0.5 L 773.5 973.5 M 784.5 0.5 L 784.5 973.5 M 794.5 0.5 L 794.5 973.5 M 816.5 0.5 L 816.5 973.5 M 827.5 0.5 L 827.5 973.5 M 838.5 0.5 L 838.5 973.5 M 849.5 0.5 L 849.5 973.5 M 871.5 0.5 L 871.5 973.5 M 881.5 0.5 L 881.5 973.5 M 892.5 0.5 L 892.5 973.5 M 903.5 0.5 L 903.5 973.5 M 925.5 0.5 L 925.5 973.5 M 936.5 0.5 L 936.5 973.5 M 947.5 0.5 L 947.5 973.5 M 958.5 0.5 L 958.5 973.5 M 979.5 0.5 L 979.5 973.5 M 990.5 0.5 L 990.5 973.5 M 1001.5 0.5 L 1001.5 973.5 M 1012.5 0.5 L 1012.5 973.5 M 1034.5 0.5 L 1034.5 973.5 M 1044.5 0.5 L 1044.5 973.5 M 1055.5 0.5 L 1055.5 973.5 M 1066.5 0.5 L 1066.5 973.5 M 1088.5 0.5 L 1088.5 973.5 M 1099.5 0.5 L 1099.5 973.5 M 1110.5 0.5 L 1110.5 973.5 M 1121.5 0.5 L 1121.5 973.5 M 1142.5 0.5 L 1142.5 973.5 M 1153.5 0.5 L 1153.5 973.5 M 1164.5 0.5 L 1164.5 973.5 M 1175.5 0.5 L 1175.5 973.5 M 1197.5 0.5 L 1197.5 973.5 M 1208.5 0.5 L 1208.5 973.5 M 1218.5 0.5 L 1218.5 973.5 M 1229.5 0.5 L 1229.5 973.5 M 1251.5 0.5 L 1251.5 973.5 M 1262.5 0.5 L 1262.5 973.5 M 1273.5 0.5 L 1273.5 973.5 M 1284.5 0.5 L 1284.5 973.5 M 1305.5 0.5 L 1305.5 973.5 M 1316.5 0.5 L 1316.5 973.5 M 1327.5 0.5 L 1327.5 973.5 M 1338.5 0.5 L 1338.5 973.5 M 1360.5 0.5 L 1360.5 973.5 M 1371.5 0.5 L 1371.5 973.5 M 1381.5 0.5 L 1381.5 973.5 M 1392.5 0.5 L 1392.5 973.5 M 1414.5 0.5 L 1414.5 973.5 M 1425.5 0.5 L 1425.5 973.5 M 1436.5 0.5 L 1436.5 973.5 M 1447.5 0.5 L 1447.5 973.5 M 1468.5 0.5 L 1468.5 973.5 M 1479.5 0.5 L 1479.5 973.5 M 1490.5 0.5 L 1490.5 973.5 M 1501.5 0.5 L 1501.5 973.5" stroke-opacity="0.23529411764705882" stroke-linecap="round" stroke-linejoin="round" stroke-miterlimit="10"/><path fill="none" stroke="rgb(192,192,192)" paint-order="fill stroke markers" d=" M 0.5 5.5 L 1522.5 5.5 M 0.5 5.5 L 1522.5 5.5 M 0.5 60.5 L 1522.5 60.5 M 0.5 114.5 L 1522.5 114.5 M 0.5 168.5 L 1522.5 168.5 M 0.5 223.5 L 1522.5 223.5 M 0.5 277.5 L 1522.5 277.5 M 0.5 331.5 L 1522.5 331.5 M 0.5 386.5 L 1522.5 386.5 M 0.5 440.5 L 1522.5 440.5 M 0.5 494.5 L 1522.5 494.5 M 0.5 549.5 L 1522.5 549.5 M 0.5 603.5 L 1522.5 603.5 M 0.5 657.5 L 1522.5 657.5 M 0.5 712.5 L 1522.5 712.5 M 0.5 766.5 L 1522.5 766.5 M 0.5 875.5 L 1522.5 875.5 M 0.5 929.5 L 1522.5 929.5" stroke-opacity="1" stroke-linecap="round" stroke-linejoin="round" stroke-miterlimit="10"/><path fill="none" stroke="rgb(192,192,192)" paint-order="fill stroke markers" d=" M 0.5 5.5 L 1522.5 5.5 M 0.5 16.5 L 1522.5 16.5 M 0.5 27.5 L 1522.5 27.5 M 0.5 38.5 L 1522.5 38.5 M 0.5 49.5 L 1522.5 49.5 M 0.5 70.5 L 1522.5 70.5 M 0.5 81.5 L 1522.5 81.5 M 0.5 92.5 L 1522.5 92.5 M 0.5 103.5 L 1522.5 103.5 M 0.5 125.5 L 1522.5 125.5 M 0.5 136.5 L 1522.5 136.5 M 0.5 147.5 L 1522.5 147.5 M 0.5 157.5 L 1522.5 157.5 M 0.5 179.5 L 1522.5 179.5 M 0.5 190.5 L 1522.5 190.5 M 0.5 201.5 L 1522.5 201.5 M 0.5 212.5 L 1522.5 212.5 M 0.5 234.5 L 1522.5 234.5 M 0.5 244.5 L 1522.5 244.5 M 0.5 255.5 L 1522.5 255.5 M 0.5 266.5 L 1522.5 266.5 M 0.5 288.5 L 1522.5 288.5 M 0.5 299.5 L 1522.5 299.5 M 0.5 310.5 L 1522.5 310.5 M 0.5 321.5 L 1522.5 321.5 M 0.5 342.5 L 1522.5 342.5 M 0.5 353.5 L 1522.5 353.5 M 0.5 364.5 L 1522.5 364.5 M 0.5 375.5 L 1522.5 375.5 M 0.5 397.5 L 1522.5 397.5 M 0.5 407.5 L 1522.5 407.5 M 0.5 418.5 L 1522.5 418.5 M 0.5 429.5 L 1522.5 429.5 M 0.5 451.5 L 1522.5 451.5 M 0.5 462.5 L 1522.5 462.5 M 0.5 473.5 L 1522.5 473.5 M 0.5 484.5 L 1522.5 484.5 M 0.5 505.5 L 1522.5 505.5 M 0.5 516.5 L 1522.5 516.5 M 0.5 527.5 L 1522.5 527.5 M 0.5 538.5 L 1522.5 538.5 M 0.5 560.5 L 1522.5 560.5 M 0.5 571.5 L 1522.5 571.5 M 0.5 581.5 L 1522.5 581.5 M 0.5 592.5 L 1522.5 592.5 M 0.5 614.5 L 1522.5 614.5 M 0.5 625.5 L 1522.5 625.5 M 0.5 636.5 L 1522.5 636.5 M 0.5 647.5 L 1522.5 647.5 M 0.5 668.5 L 1522.5 668.5 M 0.5 679.5 L 1522.5 679.5 M 0.5 690.5 L 1522.5 690.5 M 0.5 701.5 L 1522.5 701.5 M 0.5 723.5 L 1522.5 723.5 M 0.5 734.5 L 1522.5 734.5 M 0.5 744.5 L 1522.5 744.5 M 0.5 755.5 L 1522.5 755.5 M 0.5 777.5 L 1522.5 777.5 M 0.5 788.5 L 1522.5 788.5 M 0.5 799.5 L 1522.5 799.5 M 0.5 810.5 L 1522.5 810.5 M 0.5 831.5 L 1522.5 831.5 M 0.5 842.5 L 1522.5 842.5 M 0.5 853.5 L 1522.5 853.5 M 0.5 864.5 L 1522.5 864.5 M 0.5 886.5 L 1522.5 886.5 M 0.5 897.5 L 1522.5 897.5 M 0.5 907.5 L 1522.5 907.5 M 0.5 918.5 L 1522.5 918.5 M 0.5 940.5 L 1522.5 940.5 M 0.5 951.5 L 1522.5 951.5 M 0.5 962.5 L 1522.5 962.5" stroke-opacity="0.23529411764705882" stroke-linecap="round" stroke-linejoin="round" stroke-miterlimit="10"/><path fill="none" stroke="rgb(37,37,37)" paint-order="fill stroke markers" d=" M 479.5 2.5 L 479.5 973.5" stroke-opacity="1" stroke-miterlimit="10"/><path fill="none" stroke="rgb(37,37,37)" paint-order="fill stroke markers" d=" M 479.5 1.5 L 475.5 5.5" stroke-opacity="1" stroke-miterlimit="10"/><path fill="none" stroke="rgb(37,37,37)" paint-order="fill stroke markers" d=" M 479.5 1.5 L 483.5 5.5" stroke-opacity="1" stroke-miterlimit="10"/><path fill="none" stroke="rgb(37,37,37)" paint-order="fill stroke markers" d=" M 0.5 821.5 L 1520.5 821.5" stroke-opacity="1" stroke-miterlimit="10"/><path fill="none" stroke="rgb(37,37,37)" paint-order="fill stroke markers" d=" M 1521.5 821.5 L 1517.5 817.5" stroke-opacity="1" stroke-miterlimit="10"/><path fill="none" stroke="rgb(37,37,37)" paint-order="fill stroke markers" d=" M 1521.5 821.5 L 1517.5 825.5" stroke-opacity="1" stroke-miterlimit="10"/><text fill="rgb(37,37,37)" stroke="none" font-family="geogebra-sans-serif, sans-serif" font-size="12px" font-style="normal" font-weight="normal" text-decoration="normal" x="39" y="837" text-anchor="start" dominant-baseline="alphabetic" fill-opacity="1">–4</text><text fill="rgb(37,37,37)" stroke="none" font-family="geogebra-sans-serif, sans-serif" font-size="12px" font-style="normal" font-weight="normal" text-decoration="normal" x="39" y="837" text-anchor="start" dominant-baseline="alphabetic" fill-opacity="1">–4</text><text fill="rgb(37,37,37)" stroke="none" font-family="geogebra-sans-serif, sans-serif" font-size="12px" font-style="normal" font-weight="normal" text-decoration="normal" x="88" y="837" text-anchor="start" dominant-baseline="alphabetic" fill-opacity="1">–3.5</text><text fill="rgb(37,37,37)" stroke="none" font-family="geogebra-sans-serif, sans-serif" font-size="12px" font-style="normal" font-weight="normal" text-decoration="normal" x="88" y="837" text-anchor="start" dominant-baseline="alphabetic" fill-opacity="1">–3.5</text><text fill="rgb(37,37,37)" stroke="none" font-family="geogebra-sans-serif, sans-serif" font-size="12px" font-style="normal" font-weight="normal" text-decoration="normal" x="148" y="837" text-anchor="start" dominant-baseline="alphabetic" fill-opacity="1">–3</text><text fill="rgb(37,37,37)" stroke="none" font-family="geogebra-sans-serif, sans-serif" font-size="12px" font-style="normal" font-weight="normal" text-decoration="normal" x="148" y="837" text-anchor="start" dominant-baseline="alphabetic" fill-opacity="1">–3</text><text fill="rgb(37,37,37)" stroke="none" font-family="geogebra-sans-serif, sans-serif" font-size="12px" font-style="normal" font-weight="normal" text-decoration="normal" x="196" y="837" text-anchor="start" dominant-baseline="alphabetic" fill-opacity="1">–2.5</text><text fill="rgb(37,37,37)" stroke="none" font-family="geogebra-sans-serif, sans-serif" font-size="12px" font-style="normal" font-weight="normal" text-decoration="normal" x="196" y="837" text-anchor="start" dominant-baseline="alphabetic" fill-opacity="1">–2.5</text><text fill="rgb(37,37,37)" stroke="none" font-family="geogebra-sans-serif, sans-serif" font-size="12px" font-style="normal" font-weight="normal" text-decoration="normal" x="257" y="837" text-anchor="start" dominant-baseline="alphabetic" fill-opacity="1">–2</text><text fill="rgb(37,37,37)" stroke="none" font-family="geogebra-sans-serif, sans-serif" font-size="12px" font-style="normal" font-weight="normal" text-decoration="normal" x="257" y="837" text-anchor="start" dominant-baseline="alphabetic" fill-opacity="1">–2</text><text fill="rgb(37,37,37)" stroke="none" font-family="geogebra-sans-serif, sans-serif" font-size="12px" font-style="normal" font-weight="normal" text-decoration="normal" x="305" y="837" text-anchor="start" dominant-baseline="alphabetic" fill-opacity="1">–1.5</text><text fill="rgb(37,37,37)" stroke="none" font-family="geogebra-sans-serif, sans-serif" font-size="12px" font-style="normal" font-weight="normal" text-decoration="normal" x="305" y="837" text-anchor="start" dominant-baseline="alphabetic" fill-opacity="1">–1.5</text><text fill="rgb(37,37,37)" stroke="none" font-family="geogebra-sans-serif, sans-serif" font-size="12px" font-style="normal" font-weight="normal" text-decoration="normal" x="366" y="837" text-anchor="start" dominant-baseline="alphabetic" fill-opacity="1">–1</text><text fill="rgb(37,37,37)" stroke="none" font-family="geogebra-sans-serif, sans-serif" font-size="12px" font-style="normal" font-weight="normal" text-decoration="normal" x="366" y="837" text-anchor="start" dominant-baseline="alphabetic" fill-opacity="1">–1</text><text fill="rgb(37,37,37)" stroke="none" font-family="geogebra-sans-serif, sans-serif" font-size="12px" font-style="normal" font-weight="normal" text-decoration="normal" x="414" y="837" text-anchor="start" dominant-baseline="alphabetic" fill-opacity="1">–0.5</text><text fill="rgb(37,37,37)" stroke="none" font-family="geogebra-sans-serif, sans-serif" font-size="12px" font-style="normal" font-weight="normal" text-decoration="normal" x="414" y="837" text-anchor="start" dominant-baseline="alphabetic" fill-opacity="1">–0.5</text><text fill="rgb(37,37,37)" stroke="none" font-family="geogebra-sans-serif, sans-serif" font-size="12px" font-style="normal" font-weight="normal" text-decoration="normal" x="526" y="837" text-anchor="start" dominant-baseline="alphabetic" fill-opacity="1">0.5</text><text fill="rgb(37,37,37)" stroke="none" font-family="geogebra-sans-serif, sans-serif" font-size="12px" font-style="normal" font-weight="normal" text-decoration="normal" x="526" y="837" text-anchor="start" dominant-baseline="alphabetic" fill-opacity="1">0.5</text><text fill="rgb(37,37,37)" stroke="none" font-family="geogebra-sans-serif, sans-serif" font-size="12px" font-style="normal" font-weight="normal" text-decoration="normal" x="586" y="837" text-anchor="start" dominant-baseline="alphabetic" fill-opacity="1">1</text><text fill="rgb(37,37,37)" stroke="none" font-family="geogebra-sans-serif, sans-serif" font-size="12px" font-style="normal" font-weight="normal" text-decoration="normal" x="586" y="837" text-anchor="start" dominant-baseline="alphabetic" fill-opacity="1">1</text><text fill="rgb(37,37,37)" stroke="none" font-family="geogebra-sans-serif, sans-serif" font-size="12px" font-style="normal" font-weight="normal" text-decoration="normal" x="634" y="837" text-anchor="start" dominant-baseline="alphabetic" fill-opacity="1">1.5</text><text fill="rgb(37,37,37)" stroke="none" font-family="geogebra-sans-serif, sans-serif" font-size="12px" font-style="normal" font-weight="normal" text-decoration="normal" x="634" y="837" text-anchor="start" dominant-baseline="alphabetic" fill-opacity="1">1.5</text><text fill="rgb(37,37,37)" stroke="none" font-family="geogebra-sans-serif, sans-serif" font-size="12px" font-style="normal" font-weight="normal" text-decoration="normal" x="695" y="837" text-anchor="start" dominant-baseline="alphabetic" fill-opacity="1">2</text><text fill="rgb(37,37,37)" stroke="none" font-family="geogebra-sans-serif, sans-serif" font-size="12px" font-style="normal" font-weight="normal" text-decoration="normal" x="695" y="837" text-anchor="start" dominant-baseline="alphabetic" fill-opacity="1">2</text><text fill="rgb(37,37,37)" stroke="none" font-family="geogebra-sans-serif, sans-serif" font-size="12px" font-style="normal" font-weight="normal" text-decoration="normal" x="743" y="837" text-anchor="start" dominant-baseline="alphabetic" fill-opacity="1">2.5</text><text fill="rgb(37,37,37)" stroke="none" font-family="geogebra-sans-serif, sans-serif" font-size="12px" font-style="normal" font-weight="normal" text-decoration="normal" x="743" y="837" text-anchor="start" dominant-baseline="alphabetic" fill-opacity="1">2.5</text><text fill="rgb(37,37,37)" stroke="none" font-family="geogebra-sans-serif, sans-serif" font-size="12px" font-style="normal" font-weight="normal" text-decoration="normal" x="803" y="837" text-anchor="start" dominant-baseline="alphabetic" fill-opacity="1">3</text><text fill="rgb(37,37,37)" stroke="none" font-family="geogebra-sans-serif, sans-serif" font-size="12px" font-style="normal" font-weight="normal" text-decoration="normal" x="803" y="837" text-anchor="start" dominant-baseline="alphabetic" fill-opacity="1">3</text><text fill="rgb(37,37,37)" stroke="none" font-family="geogebra-sans-serif, sans-serif" font-size="12px" font-style="normal" font-weight="normal" text-decoration="normal" x="852" y="837" text-anchor="start" dominant-baseline="alphabetic" fill-opacity="1">3.5</text><text fill="rgb(37,37,37)" stroke="none" font-family="geogebra-sans-serif, sans-serif" font-size="12px" font-style="normal" font-weight="normal" text-decoration="normal" x="852" y="837" text-anchor="start" dominant-baseline="alphabetic" fill-opacity="1">3.5</text><text fill="rgb(37,37,37)" stroke="none" font-family="geogebra-sans-serif, sans-serif" font-size="12px" font-style="normal" font-weight="normal" text-decoration="normal" x="912" y="837" text-anchor="start" dominant-baseline="alphabetic" fill-opacity="1">4</text><text fill="rgb(37,37,37)" stroke="none" font-family="geogebra-sans-serif, sans-serif" font-size="12px" font-style="normal" font-weight="normal" text-decoration="normal" x="912" y="837" text-anchor="start" dominant-baseline="alphabetic" fill-opacity="1">4</text><text fill="rgb(37,37,37)" stroke="none" font-family="geogebra-sans-serif, sans-serif" font-size="12px" font-style="normal" font-weight="normal" text-decoration="normal" x="960" y="837" text-anchor="start" dominant-baseline="alphabetic" fill-opacity="1">4.5</text><text fill="rgb(37,37,37)" stroke="none" font-family="geogebra-sans-serif, sans-serif" font-size="12px" font-style="normal" font-weight="normal" text-decoration="normal" x="960" y="837" text-anchor="start" dominant-baseline="alphabetic" fill-opacity="1">4.5</text><text fill="rgb(37,37,37)" stroke="none" font-family="geogebra-sans-serif, sans-serif" font-size="12px" font-style="normal" font-weight="normal" text-decoration="normal" x="1021" y="837" text-anchor="start" dominant-baseline="alphabetic" fill-opacity="1">5</text><text fill="rgb(37,37,37)" stroke="none" font-family="geogebra-sans-serif, sans-serif" font-size="12px" font-style="normal" font-weight="normal" text-decoration="normal" x="1021" y="837" text-anchor="start" dominant-baseline="alphabetic" fill-opacity="1">5</text><text fill="rgb(37,37,37)" stroke="none" font-family="geogebra-sans-serif, sans-serif" font-size="12px" font-style="normal" font-weight="normal" text-decoration="normal" x="1069" y="837" text-anchor="start" dominant-baseline="alphabetic" fill-opacity="1">5.5</text><text fill="rgb(37,37,37)" stroke="none" font-family="geogebra-sans-serif, sans-serif" font-size="12px" font-style="normal" font-weight="normal" text-decoration="normal" x="1069" y="837" text-anchor="start" dominant-baseline="alphabetic" fill-opacity="1">5.5</text><text fill="rgb(37,37,37)" stroke="none" font-family="geogebra-sans-serif, sans-serif" font-size="12px" font-style="normal" font-weight="normal" text-decoration="normal" x="1129" y="837" text-anchor="start" dominant-baseline="alphabetic" fill-opacity="1">6</text><text fill="rgb(37,37,37)" stroke="none" font-family="geogebra-sans-serif, sans-serif" font-size="12px" font-style="normal" font-weight="normal" text-decoration="normal" x="1129" y="837" text-anchor="start" dominant-baseline="alphabetic" fill-opacity="1">6</text><text fill="rgb(37,37,37)" stroke="none" font-family="geogebra-sans-serif, sans-serif" font-size="12px" font-style="normal" font-weight="normal" text-decoration="normal" x="1178" y="837" text-anchor="start" dominant-baseline="alphabetic" fill-opacity="1">6.5</text><text fill="rgb(37,37,37)" stroke="none" font-family="geogebra-sans-serif, sans-serif" font-size="12px" font-style="normal" font-weight="normal" text-decoration="normal" x="1178" y="837" text-anchor="start" dominant-baseline="alphabetic" fill-opacity="1">6.5</text><text fill="rgb(37,37,37)" stroke="none" font-family="geogebra-sans-serif, sans-serif" font-size="12px" font-style="normal" font-weight="normal" text-decoration="normal" x="1238" y="837" text-anchor="start" dominant-baseline="alphabetic" fill-opacity="1">7</text><text fill="rgb(37,37,37)" stroke="none" font-family="geogebra-sans-serif, sans-serif" font-size="12px" font-style="normal" font-weight="normal" text-decoration="normal" x="1238" y="837" text-anchor="start" dominant-baseline="alphabetic" fill-opacity="1">7</text><text fill="rgb(37,37,37)" stroke="none" font-family="geogebra-sans-serif, sans-serif" font-size="12px" font-style="normal" font-weight="normal" text-decoration="normal" x="1286" y="837" text-anchor="start" dominant-baseline="alphabetic" fill-opacity="1">7.5</text><text fill="rgb(37,37,37)" stroke="none" font-family="geogebra-sans-serif, sans-serif" font-size="12px" font-style="normal" font-weight="normal" text-decoration="normal" x="1286" y="837" text-anchor="start" dominant-baseline="alphabetic" fill-opacity="1">7.5</text><text fill="rgb(37,37,37)" stroke="none" font-family="geogebra-sans-serif, sans-serif" font-size="12px" font-style="normal" font-weight="normal" text-decoration="normal" x="1347" y="837" text-anchor="start" dominant-baseline="alphabetic" fill-opacity="1">8</text><text fill="rgb(37,37,37)" stroke="none" font-family="geogebra-sans-serif, sans-serif" font-size="12px" font-style="normal" font-weight="normal" text-decoration="normal" x="1347" y="837" text-anchor="start" dominant-baseline="alphabetic" fill-opacity="1">8</text><text fill="rgb(37,37,37)" stroke="none" font-family="geogebra-sans-serif, sans-serif" font-size="12px" font-style="normal" font-weight="normal" text-decoration="normal" x="1395" y="837" text-anchor="start" dominant-baseline="alphabetic" fill-opacity="1">8.5</text><text fill="rgb(37,37,37)" stroke="none" font-family="geogebra-sans-serif, sans-serif" font-size="12px" font-style="normal" font-weight="normal" text-decoration="normal" x="1395" y="837" text-anchor="start" dominant-baseline="alphabetic" fill-opacity="1">8.5</text><text fill="rgb(37,37,37)" stroke="none" font-family="geogebra-sans-serif, sans-serif" font-size="12px" font-style="normal" font-weight="normal" text-decoration="normal" x="1456" y="837" text-anchor="start" dominant-baseline="alphabetic" fill-opacity="1">9</text><text fill="rgb(37,37,37)" stroke="none" font-family="geogebra-sans-serif, sans-serif" font-size="12px" font-style="normal" font-weight="normal" text-decoration="normal" x="1456" y="837" text-anchor="start" dominant-baseline="alphabetic" fill-opacity="1">9</text><text fill="rgb(37,37,37)" stroke="none" font-family="geogebra-sans-serif, sans-serif" font-size="12px" font-style="normal" font-weight="normal" text-decoration="normal" x="459" y="934" text-anchor="start" dominant-baseline="alphabetic" fill-opacity="1">–1</text><text fill="rgb(37,37,37)" stroke="none" font-family="geogebra-sans-serif, sans-serif" font-size="12px" font-style="normal" font-weight="normal" text-decoration="normal" x="459" y="934" text-anchor="start" dominant-baseline="alphabetic" fill-opacity="1">–1</text><text fill="rgb(37,37,37)" stroke="none" font-family="geogebra-sans-serif, sans-serif" font-size="12px" font-style="normal" font-weight="normal" text-decoration="normal" x="449" y="880" text-anchor="start" dominant-baseline="alphabetic" fill-opacity="1">–0.5</text><text fill="rgb(37,37,37)" stroke="none" font-family="geogebra-sans-serif, sans-serif" font-size="12px" font-style="normal" font-weight="normal" text-decoration="normal" x="449" y="880" text-anchor="start" dominant-baseline="alphabetic" fill-opacity="1">–0.5</text><text fill="rgb(37,37,37)" stroke="none" font-family="geogebra-sans-serif, sans-serif" font-size="12px" font-style="normal" font-weight="normal" text-decoration="normal" x="455" y="771" text-anchor="start" dominant-baseline="alphabetic" fill-opacity="1">0.5</text><text fill="rgb(37,37,37)" stroke="none" font-family="geogebra-sans-serif, sans-serif" font-size="12px" font-style="normal" font-weight="normal" text-decoration="normal" x="455" y="771" text-anchor="start" dominant-baseline="alphabetic" fill-opacity="1">0.5</text><text fill="rgb(37,37,37)" stroke="none" font-family="geogebra-sans-serif, sans-serif" font-size="12px" font-style="normal" font-weight="normal" text-decoration="normal" x="465" y="717" text-anchor="start" dominant-baseline="alphabetic" fill-opacity="1">1</text><text fill="rgb(37,37,37)" stroke="none" font-family="geogebra-sans-serif, sans-serif" font-size="12px" font-style="normal" font-weight="normal" text-decoration="normal" x="465" y="717" text-anchor="start" dominant-baseline="alphabetic" fill-opacity="1">1</text><text fill="rgb(37,37,37)" stroke="none" font-family="geogebra-sans-serif, sans-serif" font-size="12px" font-style="normal" font-weight="normal" text-decoration="normal" x="455" y="662" text-anchor="start" dominant-baseline="alphabetic" fill-opacity="1">1.5</text><text fill="rgb(37,37,37)" stroke="none" font-family="geogebra-sans-serif, sans-serif" font-size="12px" font-style="normal" font-weight="normal" text-decoration="normal" x="455" y="662" text-anchor="start" dominant-baseline="alphabetic" fill-opacity="1">1.5</text><text fill="rgb(37,37,37)" stroke="none" font-family="geogebra-sans-serif, sans-serif" font-size="12px" font-style="normal" font-weight="normal" text-decoration="normal" x="465" y="608" text-anchor="start" dominant-baseline="alphabetic" fill-opacity="1">2</text><text fill="rgb(37,37,37)" stroke="none" font-family="geogebra-sans-serif, sans-serif" font-size="12px" font-style="normal" font-weight="normal" text-decoration="normal" x="465" y="608" text-anchor="start" dominant-baseline="alphabetic" fill-opacity="1">2</text><text fill="rgb(37,37,37)" stroke="none" font-family="geogebra-sans-serif, sans-serif" font-size="12px" font-style="normal" font-weight="normal" text-decoration="normal" x="455" y="554" text-anchor="start" dominant-baseline="alphabetic" fill-opacity="1">2.5</text><text fill="rgb(37,37,37)" stroke="none" font-family="geogebra-sans-serif, sans-serif" font-size="12px" font-style="normal" font-weight="normal" text-decoration="normal" x="455" y="554" text-anchor="start" dominant-baseline="alphabetic" fill-opacity="1">2.5</text><text fill="rgb(37,37,37)" stroke="none" font-family="geogebra-sans-serif, sans-serif" font-size="12px" font-style="normal" font-weight="normal" text-decoration="normal" x="465" y="499" text-anchor="start" dominant-baseline="alphabetic" fill-opacity="1">3</text><text fill="rgb(37,37,37)" stroke="none" font-family="geogebra-sans-serif, sans-serif" font-size="12px" font-style="normal" font-weight="normal" text-decoration="normal" x="465" y="499" text-anchor="start" dominant-baseline="alphabetic" fill-opacity="1">3</text><text fill="rgb(37,37,37)" stroke="none" font-family="geogebra-sans-serif, sans-serif" font-size="12px" font-style="normal" font-weight="normal" text-decoration="normal" x="455" y="445" text-anchor="start" dominant-baseline="alphabetic" fill-opacity="1">3.5</text><text fill="rgb(37,37,37)" stroke="none" font-family="geogebra-sans-serif, sans-serif" font-size="12px" font-style="normal" font-weight="normal" text-decoration="normal" x="455" y="445" text-anchor="start" dominant-baseline="alphabetic" fill-opacity="1">3.5</text><text fill="rgb(37,37,37)" stroke="none" font-family="geogebra-sans-serif, sans-serif" font-size="12px" font-style="normal" font-weight="normal" text-decoration="normal" x="465" y="391" text-anchor="start" dominant-baseline="alphabetic" fill-opacity="1">4</text><text fill="rgb(37,37,37)" stroke="none" font-family="geogebra-sans-serif, sans-serif" font-size="12px" font-style="normal" font-weight="normal" text-decoration="normal" x="465" y="391" text-anchor="start" dominant-baseline="alphabetic" fill-opacity="1">4</text><text fill="rgb(37,37,37)" stroke="none" font-family="geogebra-sans-serif, sans-serif" font-size="12px" font-style="normal" font-weight="normal" text-decoration="normal" x="455" y="336" text-anchor="start" dominant-baseline="alphabetic" fill-opacity="1">4.5</text><text fill="rgb(37,37,37)" stroke="none" font-family="geogebra-sans-serif, sans-serif" font-size="12px" font-style="normal" font-weight="normal" text-decoration="normal" x="455" y="336" text-anchor="start" dominant-baseline="alphabetic" fill-opacity="1">4.5</text><text fill="rgb(37,37,37)" stroke="none" font-family="geogebra-sans-serif, sans-serif" font-size="12px" font-style="normal" font-weight="normal" text-decoration="normal" x="465" y="282" text-anchor="start" dominant-baseline="alphabetic" fill-opacity="1">5</text><text fill="rgb(37,37,37)" stroke="none" font-family="geogebra-sans-serif, sans-serif" font-size="12px" font-style="normal" font-weight="normal" text-decoration="normal" x="465" y="282" text-anchor="start" dominant-baseline="alphabetic" fill-opacity="1">5</text><text fill="rgb(37,37,37)" stroke="none" font-family="geogebra-sans-serif, sans-serif" font-size="12px" font-style="normal" font-weight="normal" text-decoration="normal" x="455" y="228" text-anchor="start" dominant-baseline="alphabetic" fill-opacity="1">5.5</text><text fill="rgb(37,37,37)" stroke="none" font-family="geogebra-sans-serif, sans-serif" font-size="12px" font-style="normal" font-weight="normal" text-decoration="normal" x="455" y="228" text-anchor="start" dominant-baseline="alphabetic" fill-opacity="1">5.5</text><text fill="rgb(37,37,37)" stroke="none" font-family="geogebra-sans-serif, sans-serif" font-size="12px" font-style="normal" font-weight="normal" text-decoration="normal" x="465" y="173" text-anchor="start" dominant-baseline="alphabetic" fill-opacity="1">6</text><text fill="rgb(37,37,37)" stroke="none" font-family="geogebra-sans-serif, sans-serif" font-size="12px" font-style="normal" font-weight="normal" text-decoration="normal" x="465" y="173" text-anchor="start" dominant-baseline="alphabetic" fill-opacity="1">6</text><text fill="rgb(37,37,37)" stroke="none" font-family="geogebra-sans-serif, sans-serif" font-size="12px" font-style="normal" font-weight="normal" text-decoration="normal" x="455" y="119" text-anchor="start" dominant-baseline="alphabetic" fill-opacity="1">6.5</text><text fill="rgb(37,37,37)" stroke="none" font-family="geogebra-sans-serif, sans-serif" font-size="12px" font-style="normal" font-weight="normal" text-decoration="normal" x="455" y="119" text-anchor="start" dominant-baseline="alphabetic" fill-opacity="1">6.5</text><text fill="rgb(37,37,37)" stroke="none" font-family="geogebra-sans-serif, sans-serif" font-size="12px" font-style="normal" font-weight="normal" text-decoration="normal" x="465" y="65" text-anchor="start" dominant-baseline="alphabetic" fill-opacity="1">7</text><text fill="rgb(37,37,37)" stroke="none" font-family="geogebra-sans-serif, sans-serif" font-size="12px" font-style="normal" font-weight="normal" text-decoration="normal" x="465" y="65" text-anchor="start" dominant-baseline="alphabetic" fill-opacity="1">7</text><text fill="rgb(37,37,37)" stroke="none" font-family="geogebra-sans-serif, sans-serif" font-size="12px" font-style="normal" font-weight="normal" text-decoration="normal" x="465" y="837" text-anchor="start" dominant-baseline="alphabetic" fill-opacity="1">0</text><text fill="rgb(37,37,37)" stroke="none" font-family="geogebra-sans-serif, sans-serif" font-size="12px" font-style="normal" font-weight="normal" text-decoration="normal" x="465" y="837" text-anchor="start" dominant-baseline="alphabetic" fill-opacity="1">0</text><path fill="none" stroke="rgb(64,64,64)" paint-order="fill stroke markers" d=" M 445.8984375 -10.915397371814265 L 447.38476562500006 -2.578604200948689 L 448.87109374999994 5.7175409248176265 L 450.357421875 13.973038005485705 L 451.84375 22.18788704105509 L 453.330078125 30.362088031525786 L 454.81640625000006 38.49564097689779 L 456.30273437499994 46.58854587717053 L 457.7890625 54.64080273234515 L 459.275390625 62.652411542420964 L 460.76171875 70.6233723073982 L 462.24804687500006 78.55368502727663 L 463.734375 86.4433497020558 L 465.220703125 94.29236633173684 L 466.70703125 102.1007349163192 L 468.19335937500006 109.86845545580275 L 469.67968750000006 117.5955279501876 L 471.166015625 125.28195239947331 L 472.65234375 132.92772880366078 L 474.138671875 140.53285716274956 L 475.62500000000006 148.09733747673954 L 477.11132812500006 155.62116974563094 L 478.59765625 163.10435396942307 L 480.083984375 170.54689014811697 L 481.5703125 177.9487782817123 L 483.05664062500006 185.3100183702088 L 484.54296875000006 192.63061041360652 L 486.029296875 199.91055441190508 L 487.515625 207.14985036510552 L 489.001953125 214.34849827320716 L 490.48828125000006 221.5064981362101 L 491.97460937499994 228.6238499541139 L 493.4609375 235.70055372691934 L 494.947265625 242.7366094546262 L 496.43359375 249.73201713723427 L 497.91992187500006 256.68677677474375 L 499.40624999999994 263.60088836715397 L 500.892578125 270.47435191446596 L 502.37890625 277.30716741667925 L 503.865234375 284.09933487379374 L 505.35156250000006 290.85085428580953 L 506.837890625 297.5617256527263 L 508.32421875 304.2319489745447 L 509.810546875 310.8615242512644 L 511.29687500000006 317.45045148288546 L 512.783203125 323.9987306694078 L 514.26953125 330.5063618108309 L 515.755859375 336.9733449071558 L 517.2421875 343.39967995838197 L 518.728515625 349.7853669645094 L 520.21484375 356.13040592553824 L 521.701171875 362.43479684146774 L 523.1875 368.6985397122991 L 524.673828125 374.92163453803175 L 526.16015625 381.1040813186657 L 527.646484375 387.2458800542008 L 529.1328125 393.3470307446369 L 530.619140625 399.4075333899747 L 532.10546875 405.4273879902138 L 533.591796875 411.4065945453541 L 535.078125 417.3451530553954 L 536.564453125 423.2430635203383 L 538.05078125 429.10032594018253 L 539.537109375 434.91694031492807 L 541.0234375 440.69290664457486 L 542.509765625 446.42822492912256 L 543.99609375 452.1228951685719 L 545.482421875 457.77691736292263 L 546.96875 463.39029151217454 L 548.455078125 468.9630176163278 L 549.94140625 474.495095675382 L 551.427734375 479.98652568933784 L 552.9140625 485.437307658195 L 554.400390625 490.8474415819534 L 555.88671875 496.2169274606131 L 557.373046875 501.5457652941737 L 558.859375 506.833955082636 L 560.345703125 512.0814968259996 L 561.83203125 517.2883905242645 L 563.318359375 522.4546361774305 L 564.8046875 527.5802337854977 L 566.291015625 532.6651833484664 L 567.77734375 537.7094848663364 L 570.75 547.67614376678 L 573.72265625 557.480210486829 L 576.6953125 567.1216850264833 L 579.66796875 576.6005673857424 L 582.640625 585.916857564607 L 585.61328125 595.0705555630764 L 588.5859375 604.0616613811512 L 591.55859375 612.8901750188312 L 594.53125 621.5560964761162 L 597.50390625 630.0594257530064 L 600.4765625 638.4001628495016 L 603.44921875 646.5783077656024 L 606.421875 654.5938605013082 L 609.39453125 662.4468210566189 L 612.3671875 670.137189431535 L 615.33984375 677.6649656260561 L 618.3125 685.0301496401825 L 621.28515625 692.232741473914 L 624.2578125 699.2727411272507 L 627.23046875 706.1501486001927 L 630.203125 712.8649638927394 L 633.17578125 719.4171870048917 L 636.1484375 725.8068179366489 L 639.12109375 732.0338566880115 L 642.09375 738.0983032589792 L 645.06640625 744.0001576495519 L 648.0390625 749.7394198597299 L 651.01171875 755.316089889513 L 653.984375 760.7301677389013 L 656.95703125 765.9816534078946 L 659.9296875 771.0705468964935 L 665.875 780.7605573325061 L 671.8203125 789.8001990469393 L 677.765625 798.1894720397934 L 683.7109375 805.9283763110682 L 689.65625 813.0169118607635 L 695.6015625 819.4550786888793 L 701.546875 825.2428767954158 L 707.4921875 830.380306180373 L 713.4375 834.867366843751 L 719.3828125 838.7040587855497 L 725.328125 841.8903820057687 L 731.2734375 844.4263365044085 L 737.21875 846.3119222814689 L 743.1640625 847.5471393369502 L 749.109375 848.1319876708519 L 755.0546875 848.0664672831742 L 761 847.3505781739171 L 766.9453125 845.9843203430809 L 772.890625 843.9676937906654 L 778.8359375 841.3006985166703 L 784.78125 837.9833345210958 L 790.7265625 834.015601803942 L 796.671875 829.3975003652091 L 802.6171875 824.1290302048967 L 808.5625 818.2101913230049 L 814.5078125 811.6409837195337 L 820.453125 804.421407394483 L 826.3984375 796.5514623478533 L 832.34375 788.0311485796442 L 838.2890625 778.8604660898558 L 844.234375 769.0394148784875 L 847.20703125 763.8850010022115 L 850.1796875 758.56799494554 L 853.15234375 753.0883967084746 L 856.125 747.4462062910136 L 859.09765625 741.641423693158 L 862.0703125 735.6740489149078 L 865.04296875 729.5440819562622 L 868.015625 723.2515228172225 L 870.98828125 716.7963714977875 L 873.9609375 710.1786279979576 L 876.93359375 703.3982923177332 L 879.90625 696.4553644571134 L 882.8789062500001 689.3498444160992 L 885.8515625 682.0817321946904 L 888.82421875 674.6510277928861 L 891.796875 667.0577312106875 L 894.76953125 659.3018424480936 L 897.7421875 651.3833615051054 L 900.71484375 643.3022883817223 L 903.6875 635.0586230779437 L 906.66015625 626.6523655937708 L 909.6328125000001 618.0835159292027 L 912.60546875 609.3520740842405 L 915.578125 600.4580400588831 L 918.55078125 591.4014138531305 L 921.5234375 582.1821954669832 L 924.4960937500001 572.8003849004408 L 927.46875 563.2559821535046 L 930.44140625 553.5489872261729 L 933.4140625 543.679400118446 L 934.900390625 538.6836344969349 L 936.38671875 533.6472208303248 L 937.873046875 528.5701591186163 L 939.3593750000001 523.4524493618082 L 940.845703125 518.2940915599024 L 942.33203125 513.0950857128978 L 943.818359375 507.85543182079374 L 945.3046875 502.5751298835918 L 946.7910156250001 497.2541799012903 L 948.27734375 491.8925818738909 L 949.763671875 486.49033580139246 L 951.25 481.0474416837953 L 952.736328125 475.56389952109976 L 954.2226562500001 470.03970931330446 L 955.708984375 464.47487106041154 L 957.1953125 458.86938476241994 L 958.681640625 453.2232504193289 L 960.16796875 447.5364680311395 L 961.6542968750001 441.8090375978511 L 963.140625 436.04095911946433 L 964.626953125 430.23223259597927 L 966.11328125 424.3828580273947 L 967.599609375 418.4928354137122 L 969.0859375000001 412.5621647549299 L 970.572265625 406.59084605104965 L 972.05859375 400.5788793020711 L 973.544921875 394.526264507993 L 975.03125 388.43300166881664 L 976.517578125 382.299090784542 L 978.00390625 376.12453185516705 L 979.490234375 369.909324880695 L 980.9765625000001 363.6534698611235 L 982.462890625 357.3569667964536 L 983.94921875 351.01981568668504 L 985.435546875 344.64201653181703 L 986.921875 338.2235693318511 L 988.4082031250001 331.76447408678604 L 989.89453125 325.2647307966227 L 991.380859375 318.72433946136067 L 992.8671875 312.14330008099915 L 994.353515625 305.5216126555397 L 995.8398437500001 298.8592771849808 L 997.326171875 292.1562936693239 L 998.8124999999999 285.4126621085684 L 1000.2988281250001 278.6283825027134 L 1001.78515625 271.8034548517604 L 1003.2714843750001 264.93787915570806 L 1004.7578125 258.0316554145577 L 1006.244140625 251.08478362830863 L 1007.7304687500001 244.09726379695974 L 1009.216796875 237.0690959205133 L 1010.7031250000001 230.00027999896736 L 1012.189453125 222.89081603232353 L 1013.67578125 215.740704020581 L 1015.1621093750001 208.54994396373866 L 1016.6484375 201.31853586179875 L 1018.1347656250001 194.04647971475936 L 1019.62109375 186.7337755226216 L 1021.107421875 179.38042328538552 L 1022.5937500000001 171.9864230030497 L 1024.080078125 164.55177467561623 L 1025.56640625 157.07647830308292 L 1027.052734375 149.56053388545217 L 1028.5390625 142.00394142272262 L 1030.025390625 134.4067009148929 L 1031.51171875 126.76881236196596 L 1032.998046875 119.09027576393919 L 1034.484375 111.37109112081487 L 1035.970703125 103.61125843259185 L 1037.45703125 95.81077769926856 L 1038.943359375 87.96964892084782 L 1040.4296875 80.08787209732782 L 1041.916015625 72.1654472287097 L 1043.40234375 64.20237431499311 L 1044.888671875 56.19865335617635 L 1046.375 48.15428435226215 L 1047.861328125 40.06926730324835 L 1049.34765625 31.943602209136998 L 1050.833984375 23.77728906992661 L 1052.3203125 15.570327885616393 L 1053.806640625 7.322718656208622 L 1055.29296875 -0.9655386182986376 L 1056.779296875 -9.294443937903452" stroke-opacity="0.6980392156862745" stroke-linecap="round" stroke-linejoin="round" stroke-miterlimit="10" stroke-width="2.5"/><text fill="rgb(64,64,64)" stroke="none" font-family="geogebra-sans-serif, sans-serif" font-size="16px" font-style="normal" font-weight="normal" text-decoration="normal" x="448" y="24" text-anchor="start" dominant-baseline="alphabetic" fill-opacity="1">f</text><text fill="rgb(64,64,64)" stroke="none" font-family="geogebra-sans-serif, sans-serif" font-size="16px" font-style="normal" font-weight="normal" text-decoration="normal" x="448" y="24" text-anchor="start" dominant-baseline="alphabetic" fill-opacity="1">f</text><path fill="rgb(102,0,204)" stroke="none" paint-order="stroke fill markers" d=" M 484.73922490620794 168.82418628878486 C 484.73922490620794 171.58561003793884 482.5006486553619 173.82418628878486 479.73922490620794 173.82418628878486 C 476.977801157054 173.82418628878486 474.73922490620794 171.58561003793884 474.73922490620794 168.82418628878486 C 474.73922490620794 166.06276253963088 476.977801157054 163.82418628878486 479.73922490620794 163.82418628878486 C 482.5006486553619 163.82418628878486 484.73922490620794 166.06276253963088 484.73922490620794 168.82418628878486 Z" fill-opacity="1"/><path fill="none" stroke="rgb(0,0,0)" paint-order="fill stroke markers" d=" M 484.73922490620794 168.82418628878486 C 484.73922490620794 171.58561003793884 482.5006486553619 173.82418628878486 479.73922490620794 173.82418628878486 C 476.977801157054 173.82418628878486 474.73922490620794 171.58561003793884 474.73922490620794 168.82418628878486 C 474.73922490620794 166.06276253963088 476.977801157054 163.82418628878486 479.73922490620794 163.82418628878486 C 482.5006486553619 163.82418628878486 484.73922490620794 166.06276253963088 484.73922490620794 168.82418628878486 Z" stroke-opacity="1" stroke-linecap="round" stroke-linejoin="round" stroke-miterlimit="10"/><text fill="rgb(102,0,204)" stroke="none" font-family="geogebra-sans-serif, sans-serif" font-size="16px" font-style="normal" font-weight="normal" text-decoration="normal" x="484" y="159" text-anchor="start" dominant-baseline="alphabetic" fill-opacity="1">P</text><text fill="rgb(102,0,204)" stroke="none" font-family="geogebra-sans-serif, sans-serif" font-size="16px" font-style="normal" font-weight="normal" text-decoration="normal" x="484" y="159" text-anchor="start" dominant-baseline="alphabetic" fill-opacity="1">P</text><text fill="rgb(102,0,204)" stroke="none" font-family="geogebra-sans-serif, sans-serif" font-size="14px" font-style="normal" font-weight="normal" text-decoration="normal" x="495" y="166" text-anchor="start" dominant-baseline="alphabetic" fill-opacity="1">1</text><text fill="rgb(102,0,204)" stroke="none" font-family="geogebra-sans-serif, sans-serif" font-size="14px" font-style="normal" font-weight="normal" text-decoration="normal" x="495" y="166" text-anchor="start" dominant-baseline="alphabetic" fill-opacity="1">1</text><path fill="rgb(51,153,0)" stroke="none" paint-order="stroke fill markers" d=" M 756.4830799675359 848.1838239421047 C 756.4830799675359 850.9452476912587 754.2445037166899 853.1838239421047 751.4830799675359 853.1838239421047 C 748.7216562183819 853.1838239421047 746.4830799675359 850.9452476912587 746.4830799675359 848.1838239421047 C 746.4830799675359 845.4224001929507 748.7216562183819 843.1838239421047 751.4830799675359 843.1838239421047 C 754.2445037166899 843.1838239421047 756.4830799675359 845.4224001929507 756.4830799675359 848.1838239421047 Z" fill-opacity="1"/><path fill="none" stroke="rgb(0,0,0)" paint-order="fill stroke markers" d=" M 756.4830799675359 848.1838239421047 C 756.4830799675359 850.9452476912587 754.2445037166899 853.1838239421047 751.4830799675359 853.1838239421047 C 748.7216562183819 853.1838239421047 746.4830799675359 850.9452476912587 746.4830799675359 848.1838239421047 C 746.4830799675359 845.4224001929507 748.7216562183819 843.1838239421047 751.4830799675359 843.1838239421047 C 754.2445037166899 843.1838239421047 756.4830799675359 845.4224001929507 756.4830799675359 848.1838239421047 Z" stroke-opacity="1" stroke-linecap="round" stroke-linejoin="round" stroke-miterlimit="10"/><text fill="rgb(51,153,0)" stroke="none" font-family="geogebra-sans-serif, sans-serif" font-size="16px" font-style="normal" font-weight="normal" text-decoration="normal" x="762" y="874" text-anchor="start" dominant-baseline="alphabetic" fill-opacity="1">V</text><text fill="rgb(51,153,0)" stroke="none" font-family="geogebra-sans-serif, sans-serif" font-size="16px" font-style="normal" font-weight="normal" text-decoration="normal" x="762" y="874" text-anchor="start" dominant-baseline="alphabetic" fill-opacity="1">V</text><path fill="rgb(204,0,0)" stroke="none" paint-order="stroke fill markers" d=" M 702.1343089552703 821.0094384359719 C 702.1343089552703 823.7708621851259 699.8957327044243 826.0094384359719 697.1343089552703 826.0094384359719 C 694.3728852061163 826.0094384359719 692.1343089552703 823.7708621851259 692.1343089552703 821.0094384359719 C 692.1343089552703 818.2480146868179 694.3728852061163 816.0094384359719 697.1343089552703 816.0094384359719 C 699.8957327044243 816.0094384359719 702.1343089552703 818.2480146868179 702.1343089552703 821.0094384359719 Z" fill-opacity="1"/><path fill="none" stroke="rgb(0,0,0)" paint-order="fill stroke markers" d=" M 702.1343089552703 821.0094384359719 C 702.1343089552703 823.7708621851259 699.8957327044243 826.0094384359719 697.1343089552703 826.0094384359719 C 694.3728852061163 826.0094384359719 692.1343089552703 823.7708621851259 692.1343089552703 821.0094384359719 C 692.1343089552703 818.2480146868179 694.3728852061163 816.0094384359719 697.1343089552703 816.0094384359719 C 699.8957327044243 816.0094384359719 702.1343089552703 818.2480146868179 702.1343089552703 821.0094384359719 Z" stroke-opacity="1" stroke-linecap="round" stroke-linejoin="round" stroke-miterlimit="10"/><text fill="rgb(204,0,0)" stroke="none" font-family="geogebra-sans-serif, sans-serif" font-size="16px" font-style="normal" font-weight="normal" text-decoration="normal" x="664" y="846" text-anchor="start" dominant-baseline="alphabetic" fill-opacity="1">P</text><text fill="rgb(204,0,0)" stroke="none" font-family="geogebra-sans-serif, sans-serif" font-size="16px" font-style="normal" font-weight="normal" text-decoration="normal" x="664" y="846" text-anchor="start" dominant-baseline="alphabetic" fill-opacity="1">P</text><text fill="rgb(204,0,0)" stroke="none" font-family="geogebra-sans-serif, sans-serif" font-size="14px" font-style="normal" font-weight="normal" text-decoration="normal" x="675" y="853" text-anchor="start" dominant-baseline="alphabetic" fill-opacity="1">2</text><text fill="rgb(204,0,0)" stroke="none" font-family="geogebra-sans-serif, sans-serif" font-size="14px" font-style="normal" font-weight="normal" text-decoration="normal" x="675" y="853" text-anchor="start" dominant-baseline="alphabetic" fill-opacity="1">2</text><path fill="rgb(204,0,0)" stroke="none" paint-order="stroke fill markers" d=" M 810.8318509798014 821.0094384359719 C 810.8318509798014 823.7708621851259 808.5932747289554 826.0094384359719 805.8318509798014 826.0094384359719 C 803.0704272306474 826.0094384359719 800.8318509798014 823.7708621851259 800.8318509798014 821.0094384359719 C 800.8318509798014 818.2480146868179 803.0704272306474 816.0094384359719 805.8318509798014 816.0094384359719 C 808.5932747289554 816.0094384359719 810.8318509798014 818.2480146868179 810.8318509798014 821.0094384359719 Z" fill-opacity="1"/><path fill="none" stroke="rgb(0,0,0)" paint-order="fill stroke markers" d=" M 810.8318509798014 821.0094384359719 C 810.8318509798014 823.7708621851259 808.5932747289554 826.0094384359719 805.8318509798014 826.0094384359719 C 803.0704272306474 826.0094384359719 800.8318509798014 823.7708621851259 800.8318509798014 821.0094384359719 C 800.8318509798014 818.2480146868179 803.0704272306474 816.0094384359719 805.8318509798014 816.0094384359719 C 808.5932747289554 816.0094384359719 810.8318509798014 818.2480146868179 810.8318509798014 821.0094384359719 Z" stroke-opacity="1" stroke-linecap="round" stroke-linejoin="round" stroke-miterlimit="10"/><text fill="rgb(204,0,0)" stroke="none" font-family="geogebra-sans-serif, sans-serif" font-size="16px" font-style="normal" font-weight="normal" text-decoration="normal" x="779" y="807" text-anchor="start" dominant-baseline="alphabetic" fill-opacity="1">P</text><text fill="rgb(204,0,0)" stroke="none" font-family="geogebra-sans-serif, sans-serif" font-size="16px" font-style="normal" font-weight="normal" text-decoration="normal" x="779" y="807" text-anchor="start" dominant-baseline="alphabetic" fill-opacity="1">P</text><text fill="rgb(204,0,0)" stroke="none" font-family="geogebra-sans-serif, sans-serif" font-size="14px" font-style="normal" font-weight="normal" text-decoration="normal" x="790" y="814" text-anchor="start" dominant-baseline="alphabetic" fill-opacity="1">3</text><text fill="rgb(204,0,0)" stroke="none" font-family="geogebra-sans-serif, sans-serif" font-size="14px" font-style="normal" font-weight="normal" text-decoration="normal" x="790" y="814" text-anchor="start" dominant-baseline="alphabetic" fill-opacity="1">3</text></g></g></svg>