<svg version="1.1" xmlns="http://www.w3.org/2000/svg" xmlns:xlink="http://www.w3.org/1999/xlink" width="1522" height="973"><defs><clipPath id="xZHRTiFezJZu"><path fill="none" stroke="none" d=" M 0 0 L 1522 0 L 1522 973 L 0 973 L 0 0 Z"/></clipPath></defs><g transform="scale(1,1)" clip-path="url(#xZHRTiFezJZu)"><g><rect fill="rgb(255,255,255)" stroke="none" x="0" y="0" width="1522" height="973" fill-opacity="1"/><path fill="none" stroke="rgb(192,192,192)" paint-order="fill stroke markers" d=" M 6.5 0.5 L 6.5 973.5 M 6.5 0.5 L 6.5 973.5 M 98.5 0.5 L 98.5 973.5 M 190.5 0.5 L 190.5 973.5 M 282.5 0.5 L 282.5 973.5 M 374.5 0.5 L 374.5 973.5 M 467.5 0.5 L 467.5 973.5 M 559.5 0.5 L 559.5 973.5 M 651.5 0.5 L 651.5 973.5 M 835.5 0.5 L 835.5 973.5 M 927.5 0.5 L 927.5 973.5 M 1019.5 0.5 L 1019.5 973.5 M 1111.5 0.5 L 1111.5 973.5 M 1203.5 0.5 L 1203.5 973.5 M 1295.5 0.5 L 1295.5 973.5 M 1388.5 0.5 L 1388.5 973.5 M 1480.5 0.5 L 1480.5 973.5" stroke-opacity="1" stroke-linecap="round" stroke-linejoin="round" stroke-miterlimit="10"/><path fill="none" stroke="rgb(192,192,192)" paint-order="fill stroke markers" d=" M 24.5 0.5 L 24.5 973.5 M 43.5 0.5 L 43.5 973.5 M 61.5 0.5 L 61.5 973.5 M 80.5 0.5 L 80.5 973.5 M 117.5 0.5 L 117.5 973.5 M 135.5 0.5 L 135.5 973.5 M 153.5 0.5 L 153.5 973.5 M 172.5 0.5 L 172.5 973.5 M 209.5 0.5 L 209.5 973.5 M 227.5 0.5 L 227.5 973.5 M 245.5 0.5 L 245.5 973.5 M 264.5 0.5 L 264.5 973.5 M 301.5 0.5 L 301.5 973.5 M 319.5 0.5 L 319.5 973.5 M 338.5 0.5 L 338.5 973.5 M 356.5 0.5 L 356.5 973.5 M 393.5 0.5 L 393.5 973.5 M 411.5 0.5 L 411.5 973.5 M 430.5 0.5 L 430.5 973.5 M 448.5 0.5 L 448.5 973.5 M 485.5 0.5 L 485.5 973.5 M 503.5 0.5 L 503.5 973.5 M 522.5 0.5 L 522.5 973.5 M 540.5 0.5 L 540.5 973.5 M 577.5 0.5 L 577.5 973.5 M 595.5 0.5 L 595.5 973.5 M 614.5 0.5 L 614.5 973.5 M 632.5 0.5 L 632.5 973.5 M 669.5 0.5 L 669.5 973.5 M 688.5 0.5 L 688.5 973.5 M 706.5 0.5 L 706.5 973.5 M 724.5 0.5 L 724.5 973.5 M 761.5 0.5 L 761.5 973.5 M 780.5 0.5 L 780.5 973.5 M 798.5 0.5 L 798.5 973.5 M 817.5 0.5 L 817.5 973.5 M 853.5 0.5 L 853.5 973.5 M 872.5 0.5 L 872.5 973.5 M 890.5 0.5 L 890.5 973.5 M 909.5 0.5 L 909.5 973.5 M 945.5 0.5 L 945.5 973.5 M 964.5 0.5 L 964.5 973.5 M 982.5 0.5 L 982.5 973.5 M 1001.5 0.5 L 1001.5 973.5 M 1038.5 0.5 L 1038.5 973.5 M 1056.5 0.5 L 1056.5 973.5 M 1074.5 0.5 L 1074.5 973.5 M 1093.5 0.5 L 1093.5 973.5 M 1130.5 0.5 L 1130.5 973.5 M 1148.5 0.5 L 1148.5 973.5 M 1167.5 0.5 L 1167.5 973.5 M 1185.5 0.5 L 1185.5 973.5 M 1222.5 0.5 L 1222.5 973.5 M 1240.5 0.5 L 1240.5 973.5 M 1259.5 0.5 L 1259.5 973.5 M 1277.5 0.5 L 1277.5 973.5 M 1314.5 0.5 L 1314.5 973.5 M 1332.5 0.5 L 1332.5 973.5 M 1351.5 0.5 L 1351.5 973.5 M 1369.5 0.5 L 1369.5 973.5 M 1406.5 0.5 L 1406.5 973.5 M 1424.5 0.5 L 1424.5 973.5 M 1443.5 0.5 L 1443.5 973.5 M 1461.5 0.5 L 1461.5 973.5 M 1498.5 0.5 L 1498.5 973.5 M 1516.5 0.5 L 1516.5 973.5" stroke-opacity="0.23529411764705882" stroke-linecap="round" stroke-linejoin="round" stroke-miterlimit="10"/><path fill="none" stroke="rgb(192,192,192)" paint-order="fill stroke markers" d=" M 0.5 81.5 L 1522.5 81.5 M 0.5 81.5 L 1522.5 81.5 M 0.5 173.5 L 1522.5 173.5 M 0.5 265.5 L 1522.5 265.5 M 0.5 357.5 L 1522.5 357.5 M 0.5 449.5 L 1522.5 449.5 M 0.5 542.5 L 1522.5 542.5 M 0.5 634.5 L 1522.5 634.5 M 0.5 726.5 L 1522.5 726.5 M 0.5 910.5 L 1522.5 910.5" stroke-opacity="1" stroke-linecap="round" stroke-linejoin="round" stroke-miterlimit="10"/><path fill="none" stroke="rgb(192,192,192)" paint-order="fill stroke markers" d=" M 0.5 7.5 L 1522.5 7.5 M 0.5 26.5 L 1522.5 26.5 M 0.5 44.5 L 1522.5 44.5 M 0.5 63.5 L 1522.5 63.5 M 0.5 99.5 L 1522.5 99.5 M 0.5 118.5 L 1522.5 118.5 M 0.5 136.5 L 1522.5 136.5 M 0.5 155.5 L 1522.5 155.5 M 0.5 192.5 L 1522.5 192.5 M 0.5 210.5 L 1522.5 210.5 M 0.5 228.5 L 1522.5 228.5 M 0.5 247.5 L 1522.5 247.5 M 0.5 284.5 L 1522.5 284.5 M 0.5 302.5 L 1522.5 302.5 M 0.5 321.5 L 1522.5 321.5 M 0.5 339.5 L 1522.5 339.5 M 0.5 376.5 L 1522.5 376.5 M 0.5 394.5 L 1522.5 394.5 M 0.5 413.5 L 1522.5 413.5 M 0.5 431.5 L 1522.5 431.5 M 0.5 468.5 L 1522.5 468.5 M 0.5 486.5 L 1522.5 486.5 M 0.5 505.5 L 1522.5 505.5 M 0.5 523.5 L 1522.5 523.5 M 0.5 560.5 L 1522.5 560.5 M 0.5 578.5 L 1522.5 578.5 M 0.5 597.5 L 1522.5 597.5 M 0.5 615.5 L 1522.5 615.5 M 0.5 652.5 L 1522.5 652.5 M 0.5 670.5 L 1522.5 670.5 M 0.5 689.5 L 1522.5 689.5 M 0.5 707.5 L 1522.5 707.5 M 0.5 744.5 L 1522.5 744.5 M 0.5 763.5 L 1522.5 763.5 M 0.5 781.5 L 1522.5 781.5 M 0.5 799.5 L 1522.5 799.5 M 0.5 836.5 L 1522.5 836.5 M 0.5 855.5 L 1522.5 855.5 M 0.5 873.5 L 1522.5 873.5 M 0.5 892.5 L 1522.5 892.5 M 0.5 928.5 L 1522.5 928.5 M 0.5 947.5 L 1522.5 947.5 M 0.5 965.5 L 1522.5 965.5" stroke-opacity="0.23529411764705882" stroke-linecap="round" stroke-linejoin="round" stroke-miterlimit="10"/><path fill="none" stroke="rgb(37,37,37)" paint-order="fill stroke markers" d=" M 743.5 2.5 L 743.5 973.5" stroke-opacity="1" stroke-miterlimit="10"/><path fill="none" stroke="rgb(37,37,37)" paint-order="fill stroke markers" d=" M 743.5 1.5 L 739.5 5.5" stroke-opacity="1" stroke-miterlimit="10"/><path fill="none" stroke="rgb(37,37,37)" paint-order="fill stroke markers" d=" M 743.5 1.5 L 747.5 5.5" stroke-opacity="1" stroke-miterlimit="10"/><path fill="none" stroke="rgb(37,37,37)" paint-order="fill stroke markers" d=" M 0.5 818.5 L 1520.5 818.5" stroke-opacity="1" stroke-miterlimit="10"/><path fill="none" stroke="rgb(37,37,37)" paint-order="fill stroke markers" d=" M 1521.5 818.5 L 1517.5 814.5" stroke-opacity="1" stroke-miterlimit="10"/><path fill="none" stroke="rgb(37,37,37)" paint-order="fill stroke markers" d=" M 1521.5 818.5 L 1517.5 822.5" stroke-opacity="1" stroke-miterlimit="10"/><text fill="rgb(37,37,37)" stroke="none" font-family="geogebra-sans-serif, sans-serif" font-size="12px" font-style="normal" font-weight="normal" text-decoration="normal" x="87" y="834" text-anchor="start" dominant-baseline="alphabetic" fill-opacity="1">–3.5</text><text fill="none" stroke="rgb(255,255,255)" font-family="geogebra-sans-serif, sans-serif" font-size="12px" font-style="normal" font-weight="normal" text-decoration="normal" x="87" y="834" text-anchor="start" dominant-baseline="alphabetic" stroke-opacity="1" stroke-linejoin="bevel" stroke-miterlimit="10" stroke-width="3">–3.5</text><text fill="rgb(37,37,37)" stroke="none" font-family="geogebra-sans-serif, sans-serif" font-size="12px" font-style="normal" font-weight="normal" text-decoration="normal" x="87" y="834" text-anchor="start" dominant-baseline="alphabetic" fill-opacity="1">–3.5</text><text fill="rgb(37,37,37)" stroke="none" font-family="geogebra-sans-serif, sans-serif" font-size="12px" font-style="normal" font-weight="normal" text-decoration="normal" x="185" y="834" text-anchor="start" dominant-baseline="alphabetic" fill-opacity="1">–3</text><text fill="none" stroke="rgb(255,255,255)" font-family="geogebra-sans-serif, sans-serif" font-size="12px" font-style="normal" font-weight="normal" text-decoration="normal" x="185" y="834" text-anchor="start" dominant-baseline="alphabetic" stroke-opacity="1" stroke-linejoin="bevel" stroke-miterlimit="10" stroke-width="3">–3</text><text fill="rgb(37,37,37)" stroke="none" font-family="geogebra-sans-serif, sans-serif" font-size="12px" font-style="normal" font-weight="normal" text-decoration="normal" x="185" y="834" text-anchor="start" dominant-baseline="alphabetic" fill-opacity="1">–3</text><text fill="rgb(37,37,37)" stroke="none" font-family="geogebra-sans-serif, sans-serif" font-size="12px" font-style="normal" font-weight="normal" text-decoration="normal" x="271" y="834" text-anchor="start" dominant-baseline="alphabetic" fill-opacity="1">–2.5</text><text fill="none" stroke="rgb(255,255,255)" font-family="geogebra-sans-serif, sans-serif" font-size="12px" font-style="normal" font-weight="normal" text-decoration="normal" x="271" y="834" text-anchor="start" dominant-baseline="alphabetic" stroke-opacity="1" stroke-linejoin="bevel" stroke-miterlimit="10" stroke-width="3">–2.5</text><text fill="rgb(37,37,37)" stroke="none" font-family="geogebra-sans-serif, sans-serif" font-size="12px" font-style="normal" font-weight="normal" text-decoration="normal" x="271" y="834" text-anchor="start" dominant-baseline="alphabetic" fill-opacity="1">–2.5</text><text fill="rgb(37,37,37)" stroke="none" font-family="geogebra-sans-serif, sans-serif" font-size="12px" font-style="normal" font-weight="normal" text-decoration="normal" x="369" y="834" text-anchor="start" dominant-baseline="alphabetic" fill-opacity="1">–2</text><text fill="none" stroke="rgb(255,255,255)" font-family="geogebra-sans-serif, sans-serif" font-size="12px" font-style="normal" font-weight="normal" text-decoration="normal" x="369" y="834" text-anchor="start" dominant-baseline="alphabetic" stroke-opacity="1" stroke-linejoin="bevel" stroke-miterlimit="10" stroke-width="3">–2</text><text fill="rgb(37,37,37)" stroke="none" font-family="geogebra-sans-serif, sans-serif" font-size="12px" font-style="normal" font-weight="normal" text-decoration="normal" x="369" y="834" text-anchor="start" dominant-baseline="alphabetic" fill-opacity="1">–2</text><text fill="rgb(37,37,37)" stroke="none" font-family="geogebra-sans-serif, sans-serif" font-size="12px" font-style="normal" font-weight="normal" text-decoration="normal" x="456" y="834" text-anchor="start" dominant-baseline="alphabetic" fill-opacity="1">–1.5</text><text fill="none" stroke="rgb(255,255,255)" font-family="geogebra-sans-serif, sans-serif" font-size="12px" font-style="normal" font-weight="normal" text-decoration="normal" x="456" y="834" text-anchor="start" dominant-baseline="alphabetic" stroke-opacity="1" stroke-linejoin="bevel" stroke-miterlimit="10" stroke-width="3">–1.5</text><text fill="rgb(37,37,37)" stroke="none" font-family="geogebra-sans-serif, sans-serif" font-size="12px" font-style="normal" font-weight="normal" text-decoration="normal" x="456" y="834" text-anchor="start" dominant-baseline="alphabetic" fill-opacity="1">–1.5</text><text fill="rgb(37,37,37)" stroke="none" font-family="geogebra-sans-serif, sans-serif" font-size="12px" font-style="normal" font-weight="normal" text-decoration="normal" x="554" y="834" text-anchor="start" dominant-baseline="alphabetic" fill-opacity="1">–1</text><text fill="none" stroke="rgb(255,255,255)" font-family="geogebra-sans-serif, sans-serif" font-size="12px" font-style="normal" font-weight="normal" text-decoration="normal" x="554" y="834" text-anchor="start" dominant-baseline="alphabetic" stroke-opacity="1" stroke-linejoin="bevel" stroke-miterlimit="10" stroke-width="3">–1</text><text fill="rgb(37,37,37)" stroke="none" font-family="geogebra-sans-serif, sans-serif" font-size="12px" font-style="normal" font-weight="normal" text-decoration="normal" x="554" y="834" text-anchor="start" dominant-baseline="alphabetic" fill-opacity="1">–1</text><text fill="rgb(37,37,37)" stroke="none" font-family="geogebra-sans-serif, sans-serif" font-size="12px" font-style="normal" font-weight="normal" text-decoration="normal" x="640" y="834" text-anchor="start" dominant-baseline="alphabetic" fill-opacity="1">–0.5</text><text fill="none" stroke="rgb(255,255,255)" font-family="geogebra-sans-serif, sans-serif" font-size="12px" font-style="normal" font-weight="normal" text-decoration="normal" x="640" y="834" text-anchor="start" dominant-baseline="alphabetic" stroke-opacity="1" stroke-linejoin="bevel" stroke-miterlimit="10" stroke-width="3">–0.5</text><text fill="rgb(37,37,37)" stroke="none" font-family="geogebra-sans-serif, sans-serif" font-size="12px" font-style="normal" font-weight="normal" text-decoration="normal" x="640" y="834" text-anchor="start" dominant-baseline="alphabetic" fill-opacity="1">–0.5</text><text fill="rgb(37,37,37)" stroke="none" font-family="geogebra-sans-serif, sans-serif" font-size="12px" font-style="normal" font-weight="normal" text-decoration="normal" x="827" y="834" text-anchor="start" dominant-baseline="alphabetic" fill-opacity="1">0.5</text><text fill="none" stroke="rgb(255,255,255)" font-family="geogebra-sans-serif, sans-serif" font-size="12px" font-style="normal" font-weight="normal" text-decoration="normal" x="827" y="834" text-anchor="start" dominant-baseline="alphabetic" stroke-opacity="1" stroke-linejoin="bevel" stroke-miterlimit="10" stroke-width="3">0.5</text><text fill="rgb(37,37,37)" stroke="none" font-family="geogebra-sans-serif, sans-serif" font-size="12px" font-style="normal" font-weight="normal" text-decoration="normal" x="827" y="834" text-anchor="start" dominant-baseline="alphabetic" fill-opacity="1">0.5</text><text fill="rgb(37,37,37)" stroke="none" font-family="geogebra-sans-serif, sans-serif" font-size="12px" font-style="normal" font-weight="normal" text-decoration="normal" x="925" y="834" text-anchor="start" dominant-baseline="alphabetic" fill-opacity="1">1</text><text fill="none" stroke="rgb(255,255,255)" font-family="geogebra-sans-serif, sans-serif" font-size="12px" font-style="normal" font-weight="normal" text-decoration="normal" x="925" y="834" text-anchor="start" dominant-baseline="alphabetic" stroke-opacity="1" stroke-linejoin="bevel" stroke-miterlimit="10" stroke-width="3">1</text><text fill="rgb(37,37,37)" stroke="none" font-family="geogebra-sans-serif, sans-serif" font-size="12px" font-style="normal" font-weight="normal" text-decoration="normal" x="925" y="834" text-anchor="start" dominant-baseline="alphabetic" fill-opacity="1">1</text><text fill="rgb(37,37,37)" stroke="none" font-family="geogebra-sans-serif, sans-serif" font-size="12px" font-style="normal" font-weight="normal" text-decoration="normal" x="1011" y="834" text-anchor="start" dominant-baseline="alphabetic" fill-opacity="1">1.5</text><text fill="none" stroke="rgb(255,255,255)" font-family="geogebra-sans-serif, sans-serif" font-size="12px" font-style="normal" font-weight="normal" text-decoration="normal" x="1011" y="834" text-anchor="start" dominant-baseline="alphabetic" stroke-opacity="1" stroke-linejoin="bevel" stroke-miterlimit="10" stroke-width="3">1.5</text><text fill="rgb(37,37,37)" stroke="none" font-family="geogebra-sans-serif, sans-serif" font-size="12px" font-style="normal" font-weight="normal" text-decoration="normal" x="1011" y="834" text-anchor="start" dominant-baseline="alphabetic" fill-opacity="1">1.5</text><text fill="rgb(37,37,37)" stroke="none" font-family="geogebra-sans-serif, sans-serif" font-size="12px" font-style="normal" font-weight="normal" text-decoration="normal" x="1109" y="834" text-anchor="start" dominant-baseline="alphabetic" fill-opacity="1">2</text><text fill="none" stroke="rgb(255,255,255)" font-family="geogebra-sans-serif, sans-serif" font-size="12px" font-style="normal" font-weight="normal" text-decoration="normal" x="1109" y="834" text-anchor="start" dominant-baseline="alphabetic" stroke-opacity="1" stroke-linejoin="bevel" stroke-miterlimit="10" stroke-width="3">2</text><text fill="rgb(37,37,37)" stroke="none" font-family="geogebra-sans-serif, sans-serif" font-size="12px" font-style="normal" font-weight="normal" text-decoration="normal" x="1109" y="834" text-anchor="start" dominant-baseline="alphabetic" fill-opacity="1">2</text><text fill="rgb(37,37,37)" stroke="none" font-family="geogebra-sans-serif, sans-serif" font-size="12px" font-style="normal" font-weight="normal" text-decoration="normal" x="1195" y="834" text-anchor="start" dominant-baseline="alphabetic" fill-opacity="1">2.5</text><text fill="none" stroke="rgb(255,255,255)" font-family="geogebra-sans-serif, sans-serif" font-size="12px" font-style="normal" font-weight="normal" text-decoration="normal" x="1195" y="834" text-anchor="start" dominant-baseline="alphabetic" stroke-opacity="1" stroke-linejoin="bevel" stroke-miterlimit="10" stroke-width="3">2.5</text><text fill="rgb(37,37,37)" stroke="none" font-family="geogebra-sans-serif, sans-serif" font-size="12px" font-style="normal" font-weight="normal" text-decoration="normal" x="1195" y="834" text-anchor="start" dominant-baseline="alphabetic" fill-opacity="1">2.5</text><text fill="rgb(37,37,37)" stroke="none" font-family="geogebra-sans-serif, sans-serif" font-size="12px" font-style="normal" font-weight="normal" text-decoration="normal" x="1293" y="834" text-anchor="start" dominant-baseline="alphabetic" fill-opacity="1">3</text><text fill="none" stroke="rgb(255,255,255)" font-family="geogebra-sans-serif, sans-serif" font-size="12px" font-style="normal" font-weight="normal" text-decoration="normal" x="1293" y="834" text-anchor="start" dominant-baseline="alphabetic" stroke-opacity="1" stroke-linejoin="bevel" stroke-miterlimit="10" stroke-width="3">3</text><text fill="rgb(37,37,37)" stroke="none" font-family="geogebra-sans-serif, sans-serif" font-size="12px" font-style="normal" font-weight="normal" text-decoration="normal" x="1293" y="834" text-anchor="start" dominant-baseline="alphabetic" fill-opacity="1">3</text><text fill="rgb(37,37,37)" stroke="none" font-family="geogebra-sans-serif, sans-serif" font-size="12px" font-style="normal" font-weight="normal" text-decoration="normal" x="1380" y="834" text-anchor="start" dominant-baseline="alphabetic" fill-opacity="1">3.5</text><text fill="none" stroke="rgb(255,255,255)" font-family="geogebra-sans-serif, sans-serif" font-size="12px" font-style="normal" font-weight="normal" text-decoration="normal" x="1380" y="834" text-anchor="start" dominant-baseline="alphabetic" stroke-opacity="1" stroke-linejoin="bevel" stroke-miterlimit="10" stroke-width="3">3.5</text><text fill="rgb(37,37,37)" stroke="none" font-family="geogebra-sans-serif, sans-serif" font-size="12px" font-style="normal" font-weight="normal" text-decoration="normal" x="1380" y="834" text-anchor="start" dominant-baseline="alphabetic" fill-opacity="1">3.5</text><text fill="rgb(37,37,37)" stroke="none" font-family="geogebra-sans-serif, sans-serif" font-size="12px" font-style="normal" font-weight="normal" text-decoration="normal" x="1478" y="834" text-anchor="start" dominant-baseline="alphabetic" fill-opacity="1">4</text><text fill="none" stroke="rgb(255,255,255)" font-family="geogebra-sans-serif, sans-serif" font-size="12px" font-style="normal" font-weight="normal" text-decoration="normal" x="1478" y="834" text-anchor="start" dominant-baseline="alphabetic" stroke-opacity="1" stroke-linejoin="bevel" stroke-miterlimit="10" stroke-width="3">4</text><text fill="rgb(37,37,37)" stroke="none" font-family="geogebra-sans-serif, sans-serif" font-size="12px" font-style="normal" font-weight="normal" text-decoration="normal" x="1478" y="834" text-anchor="start" dominant-baseline="alphabetic" fill-opacity="1">4</text><text fill="rgb(37,37,37)" stroke="none" font-family="geogebra-sans-serif, sans-serif" font-size="12px" font-style="normal" font-weight="normal" text-decoration="normal" x="713" y="915" text-anchor="start" dominant-baseline="alphabetic" fill-opacity="1">–0.5</text><text fill="none" stroke="rgb(255,255,255)" font-family="geogebra-sans-serif, sans-serif" font-size="12px" font-style="normal" font-weight="normal" text-decoration="normal" x="713" y="915" text-anchor="start" dominant-baseline="alphabetic" stroke-opacity="1" stroke-linejoin="bevel" stroke-miterlimit="10" stroke-width="3">–0.5</text><text fill="rgb(37,37,37)" stroke="none" font-family="geogebra-sans-serif, sans-serif" font-size="12px" font-style="normal" font-weight="normal" text-decoration="normal" x="713" y="915" text-anchor="start" dominant-baseline="alphabetic" fill-opacity="1">–0.5</text><text fill="rgb(37,37,37)" stroke="none" font-family="geogebra-sans-serif, sans-serif" font-size="12px" font-style="normal" font-weight="normal" text-decoration="normal" x="719" y="731" text-anchor="start" dominant-baseline="alphabetic" fill-opacity="1">0.5</text><text fill="none" stroke="rgb(255,255,255)" font-family="geogebra-sans-serif, sans-serif" font-size="12px" font-style="normal" font-weight="normal" text-decoration="normal" x="719" y="731" text-anchor="start" dominant-baseline="alphabetic" stroke-opacity="1" stroke-linejoin="bevel" stroke-miterlimit="10" stroke-width="3">0.5</text><text fill="rgb(37,37,37)" stroke="none" font-family="geogebra-sans-serif, sans-serif" font-size="12px" font-style="normal" font-weight="normal" text-decoration="normal" x="719" y="731" text-anchor="start" dominant-baseline="alphabetic" fill-opacity="1">0.5</text><text fill="rgb(37,37,37)" stroke="none" font-family="geogebra-sans-serif, sans-serif" font-size="12px" font-style="normal" font-weight="normal" text-decoration="normal" x="729" y="639" text-anchor="start" dominant-baseline="alphabetic" fill-opacity="1">1</text><text fill="none" stroke="rgb(255,255,255)" font-family="geogebra-sans-serif, sans-serif" font-size="12px" font-style="normal" font-weight="normal" text-decoration="normal" x="729" y="639" text-anchor="start" dominant-baseline="alphabetic" stroke-opacity="1" stroke-linejoin="bevel" stroke-miterlimit="10" stroke-width="3">1</text><text fill="rgb(37,37,37)" stroke="none" font-family="geogebra-sans-serif, sans-serif" font-size="12px" font-style="normal" font-weight="normal" text-decoration="normal" x="729" y="639" text-anchor="start" dominant-baseline="alphabetic" fill-opacity="1">1</text><text fill="rgb(37,37,37)" stroke="none" font-family="geogebra-sans-serif, sans-serif" font-size="12px" font-style="normal" font-weight="normal" text-decoration="normal" x="719" y="547" text-anchor="start" dominant-baseline="alphabetic" fill-opacity="1">1.5</text><text fill="none" stroke="rgb(255,255,255)" font-family="geogebra-sans-serif, sans-serif" font-size="12px" font-style="normal" font-weight="normal" text-decoration="normal" x="719" y="547" text-anchor="start" dominant-baseline="alphabetic" stroke-opacity="1" stroke-linejoin="bevel" stroke-miterlimit="10" stroke-width="3">1.5</text><text fill="rgb(37,37,37)" stroke="none" font-family="geogebra-sans-serif, sans-serif" font-size="12px" font-style="normal" font-weight="normal" text-decoration="normal" x="719" y="547" text-anchor="start" dominant-baseline="alphabetic" fill-opacity="1">1.5</text><text fill="rgb(37,37,37)" stroke="none" font-family="geogebra-sans-serif, sans-serif" font-size="12px" font-style="normal" font-weight="normal" text-decoration="normal" x="729" y="454" text-anchor="start" dominant-baseline="alphabetic" fill-opacity="1">2</text><text fill="none" stroke="rgb(255,255,255)" font-family="geogebra-sans-serif, sans-serif" font-size="12px" font-style="normal" font-weight="normal" text-decoration="normal" x="729" y="454" text-anchor="start" dominant-baseline="alphabetic" stroke-opacity="1" stroke-linejoin="bevel" stroke-miterlimit="10" stroke-width="3">2</text><text fill="rgb(37,37,37)" stroke="none" font-family="geogebra-sans-serif, sans-serif" font-size="12px" font-style="normal" font-weight="normal" text-decoration="normal" x="729" y="454" text-anchor="start" dominant-baseline="alphabetic" fill-opacity="1">2</text><text fill="rgb(37,37,37)" stroke="none" font-family="geogebra-sans-serif, sans-serif" font-size="12px" font-style="normal" font-weight="normal" text-decoration="normal" x="719" y="362" text-anchor="start" dominant-baseline="alphabetic" fill-opacity="1">2.5</text><text fill="none" stroke="rgb(255,255,255)" font-family="geogebra-sans-serif, sans-serif" font-size="12px" font-style="normal" font-weight="normal" text-decoration="normal" x="719" y="362" text-anchor="start" dominant-baseline="alphabetic" stroke-opacity="1" stroke-linejoin="bevel" stroke-miterlimit="10" stroke-width="3">2.5</text><text fill="rgb(37,37,37)" stroke="none" font-family="geogebra-sans-serif, sans-serif" font-size="12px" font-style="normal" font-weight="normal" text-decoration="normal" x="719" y="362" text-anchor="start" dominant-baseline="alphabetic" fill-opacity="1">2.5</text><text fill="rgb(37,37,37)" stroke="none" font-family="geogebra-sans-serif, sans-serif" font-size="12px" font-style="normal" font-weight="normal" text-decoration="normal" x="729" y="270" text-anchor="start" dominant-baseline="alphabetic" fill-opacity="1">3</text><text fill="none" stroke="rgb(255,255,255)" font-family="geogebra-sans-serif, sans-serif" font-size="12px" font-style="normal" font-weight="normal" text-decoration="normal" x="729" y="270" text-anchor="start" dominant-baseline="alphabetic" stroke-opacity="1" stroke-linejoin="bevel" stroke-miterlimit="10" stroke-width="3">3</text><text fill="rgb(37,37,37)" stroke="none" font-family="geogebra-sans-serif, sans-serif" font-size="12px" font-style="normal" font-weight="normal" text-decoration="normal" x="729" y="270" text-anchor="start" dominant-baseline="alphabetic" fill-opacity="1">3</text><text fill="rgb(37,37,37)" stroke="none" font-family="geogebra-sans-serif, sans-serif" font-size="12px" font-style="normal" font-weight="normal" text-decoration="normal" x="719" y="178" text-anchor="start" dominant-baseline="alphabetic" fill-opacity="1">3.5</text><text fill="none" stroke="rgb(255,255,255)" font-family="geogebra-sans-serif, sans-serif" font-size="12px" font-style="normal" font-weight="normal" text-decoration="normal" x="719" y="178" text-anchor="start" dominant-baseline="alphabetic" stroke-opacity="1" stroke-linejoin="bevel" stroke-miterlimit="10" stroke-width="3">3.5</text><text fill="rgb(37,37,37)" stroke="none" font-family="geogebra-sans-serif, sans-serif" font-size="12px" font-style="normal" font-weight="normal" text-decoration="normal" x="719" y="178" text-anchor="start" dominant-baseline="alphabetic" fill-opacity="1">3.5</text><text fill="rgb(37,37,37)" stroke="none" font-family="geogebra-sans-serif, sans-serif" font-size="12px" font-style="normal" font-weight="normal" text-decoration="normal" x="729" y="86" text-anchor="start" dominant-baseline="alphabetic" fill-opacity="1">4</text><text fill="none" stroke="rgb(255,255,255)" font-family="geogebra-sans-serif, sans-serif" font-size="12px" font-style="normal" font-weight="normal" text-decoration="normal" x="729" y="86" text-anchor="start" dominant-baseline="alphabetic" stroke-opacity="1" stroke-linejoin="bevel" stroke-miterlimit="10" stroke-width="3">4</text><text fill="rgb(37,37,37)" stroke="none" font-family="geogebra-sans-serif, sans-serif" font-size="12px" font-style="normal" font-weight="normal" text-decoration="normal" x="729" y="86" text-anchor="start" dominant-baseline="alphabetic" fill-opacity="1">4</text><text fill="rgb(37,37,37)" stroke="none" font-family="geogebra-sans-serif, sans-serif" font-size="12px" font-style="normal" font-weight="normal" text-decoration="normal" x="729" y="834" text-anchor="start" dominant-baseline="alphabetic" fill-opacity="1">0</text><text fill="none" stroke="rgb(255,255,255)" font-family="geogebra-sans-serif, sans-serif" font-size="12px" font-style="normal" font-weight="normal" text-decoration="normal" x="729" y="834" text-anchor="start" dominant-baseline="alphabetic" stroke-opacity="1" stroke-linejoin="bevel" stroke-miterlimit="10" stroke-width="3">0</text><text fill="rgb(37,37,37)" stroke="none" font-family="geogebra-sans-serif, sans-serif" font-size="12px" font-style="normal" font-weight="normal" text-decoration="normal" x="729" y="834" text-anchor="start" dominant-baseline="alphabetic" fill-opacity="1">0</text><path fill="none" stroke="rgb(51,153,0)" paint-order="fill stroke markers" d=" M 559.1351748329344 265.7465405764193 L 560.5525529997008 274.2180907367871 L 561.9699311664672 282.6242030466084 L 563.3873093332336 290.9648775058829 L 564.8046875 299.24011411461106 M 564.8046875 299.24011411461106 L 566.291015625 307.847618708848 L 567.77734375 316.3831640014506 L 569.263671875 324.8467499924192 L 570.75 333.2383766817535 M 570.75 333.2383766817535 L 572.236328125 341.5580440694536 L 573.72265625 349.80575215551954 L 575.208984375 357.9815009399512 L 576.6953125 366.08529042274876 L 578.181640625 374.1171206039121 L 579.66796875 382.0769914834412 L 581.154296875 389.96490306133614 L 582.640625 397.78085533759696 L 584.126953125 405.5248483122235 L 585.61328125 413.19688198521584 L 587.099609375 420.79695635657407 L 588.5859375 428.32507142629805 L 590.072265625 435.78122719438784 L 591.55859375 443.16542366084326 L 593.044921875 450.47766082566477 L 594.53125 457.717938688852 L 596.017578125 464.886257250405 L 597.50390625 471.9826165103238 L 598.990234375 479.0070164686084 L 600.4765625 485.95945712525884 L 601.962890625 492.83993848027507 L 603.44921875 499.6484605336571 L 604.935546875 506.3850232854048 L 606.421875 513.0496267355186 L 607.908203125 519.642270883998 L 609.39453125 526.1629557308432 L 610.880859375 532.6116812760542 L 612.3671875 538.9884475196311 L 613.853515625 545.2932544615738 L 615.33984375 551.5261021018823 L 616.826171875 557.6869904405567 L 618.3124999999999 563.7759194775966 L 619.798828125 569.7928892130026 L 621.28515625 575.7378996467742 L 622.771484375 581.6109507789117 L 624.2578125 587.412042609415 L 625.744140625 593.1411751382841 L 627.23046875 598.7983483655191 L 628.7167968749999 604.3835622911197 L 630.203125 609.8968169150864 L 631.6894531249999 615.3381122374186 L 633.17578125 620.7074482581168 L 634.6621093749999 626.0048249771808 L 636.1484375 631.2302423946105 L 637.634765625 636.383700510406 L 639.12109375 641.4651993245674 L 642.09375 651.4123190479876 L 645.0664062499999 661.0716015648709 L 648.0390624999999 670.4430468752174 L 651.01171875 679.5266549790272 L 653.984375 688.3224258763003 L 656.95703125 696.8303595670365 L 659.9296875 705.050456051236 L 662.9023437499999 712.9827153288986 L 665.875 720.6271374000245 L 668.84765625 727.9837222646137 L 671.8203125 735.052469922666 L 674.7929687499999 741.8333803741815 L 677.7656249999999 748.3264536191604 L 680.73828125 754.5316896576023 L 683.7109375 760.4490884895076 L 686.6835937499999 766.078650114876 L 689.6562499999999 771.4203745337077 L 695.6015625 781.2403117517607 L 701.5468749999999 789.9089001436665 L 707.4921874999999 797.4261397094253 L 713.4375 803.792030449037 L 719.3828124999999 809.0065723625015 L 725.328125 813.069765449819 L 731.2734374999999 815.9816097109892 L 737.2187499999999 817.7421051460125 L 740.19140625 818.1905970537189 L 743.1640624999999 818.3512517548885 L 749.1093749999999 817.8090495376175 L 752.0820312499999 817.1061926191768 L 755.0546874999999 816.1154984941993 L 760.9999999999999 813.2705986246341 M 760.9999999999999 813.2705986246341 L 766.9453124999999 809.2743499289217 L 772.8906249999999 804.1267524070622 L 778.8359374999999 797.8278060590555 L 784.7812499999999 790.3775108849019 L 790.7265624999999 781.775866884601 L 796.6718749999999 772.0228740581531 L 799.6445312499999 766.7146218351239 L 802.6171874999999 761.118532405558 L 805.5898437499999 755.2346057694552 L 808.5624999999999 749.0628419268157 L 811.5351562499999 742.6032408776396 L 814.5078124999999 735.8558026219265 L 817.4804687499999 728.8205271596767 L 820.4531249999999 721.49741449089 L 823.4257812499999 713.8864646155666 L 826.3984374999999 705.9876775337066 L 829.3710937499999 697.8010532453096 L 832.3437499999999 689.3265917503759 L 835.3164062499999 680.5642930489054 L 838.2890624999999 671.5141571408981 L 841.2617187499999 662.1761840263541 L 844.2343749999999 652.5503737052732 L 847.2070312499999 642.6367261776556 L 848.6933593749999 637.5719634613955 L 850.1796875 632.4352414435011 L 851.6660156249999 627.2265601239727 L 853.1523437499999 621.94591950281 L 854.6386718749999 616.5933195800133 L 856.1249999999999 611.1687603555821 M 856.1249999999999 611.1687603555821 L 857.6113281249999 605.6722418295168 L 859.0976562499999 600.1037640018174 L 860.5839843749999 594.4633268724838 L 862.0703124999999 588.7509304415158 L 863.5566406249999 582.9665747089139 L 865.0429687499999 577.1102596746776 L 866.5292968749999 571.1819853388072 L 868.0156249999999 565.1817517013026 L 869.5019531249999 559.1095587621637 L 870.9882812499999 552.9654065213907 L 872.4746093749999 546.7492949789835 L 873.9609375 540.4612241349421 L 875.447265625 534.1011939892664 L 876.93359375 527.6692045419566 L 878.419921875 521.1652557930126 L 879.90625 514.5893477424345 L 881.3925781249999 507.9414803902221 L 882.8789062499999 501.2216537363755 L 884.3652343749999 494.42986778089477 L 885.8515624999999 487.56612252377977 L 887.3378906249999 480.63041796503063 L 888.82421875 473.6227541046473 L 890.310546875 466.5431309426297 L 891.796875 459.391548478978 L 893.283203125 452.168006713692 L 894.7695312499999 444.87250564677197 L 896.255859375 437.5050452782175 L 897.7421874999999 430.06562560802905 L 899.2285156249999 422.5542466362064 L 900.7148437499999 414.9709083627494 L 902.201171875 407.31561078765833 L 903.6875 399.588353910933 M 903.6875 399.588353910933 L 905.173828125 391.7891377325735 L 906.66015625 383.9179622525798 L 908.146484375 375.9748274709519 L 909.6328125 367.95973338768977 L 911.1191406249999 359.87268000279363 L 912.6054687499999 351.7136673162631 L 914.0917968749999 343.4826953280985 L 915.5781249999999 335.17976403829965 L 917.064453125 326.8048734468665 L 918.55078125 318.3580235537993 L 920.037109375 309.83921435909775 L 921.5234374999999 301.2484458627623 L 923.0097656249999 292.58571806479245 L 924.4960937499999 283.85103096518833 L 925.9824218749999 275.0443845639502 L 927.4687499999999 266.1657788610778 M 927.4687499999999 266.1657788610778 L 927.5386363042079 265.74654057641953" stroke-opacity="0.6980392156862745" stroke-linecap="round" stroke-linejoin="round" stroke-miterlimit="10" stroke-width="2.5"/></g></g></svg>